<svg width="41" height="41" viewBox="0 0 41 41" fill="none" xmlns="http://www.w3.org/2000/svg">
<path d="M30.7981 11.9018C31.0936 10.2021 30.7744 8.4526 29.8977 6.96676C29.021 5.48092 27.6442 4.35586 26.0135 3.79269C24.3828 3.22951 22.6049 3.26513 20.9981 3.89327C19.3913 4.52142 18.0606 5.70085 17.2442 7.22067C16.5359 6.73937 15.6811 6.52222 14.8289 6.60665C13.9767 6.69108 13.1813 7.0719 12.5812 7.68282C12.0042 8.27368 11.6428 9.0415 11.5552 9.86276C10.1383 9.9559 8.80687 10.5737 7.82096 11.5957C6.83506 12.6176 6.2654 13.9705 6.22319 15.3899C6.18856 16.8928 6.75218 18.3479 7.79008 19.4355C8.82798 20.5231 10.2552 21.154 11.7581 21.1897H29.8582C31.0147 21.1781 32.1263 20.7408 32.9804 19.9609C33.8345 19.1811 34.3711 18.1136 34.4875 16.9629C34.6038 15.8122 34.2918 14.6589 33.6111 13.7238C32.9304 12.7888 31.9289 12.1376 30.7981 11.8947V11.9018Z" fill="#E6E6E6" stroke="#E6E6E6" stroke-width="0.389" stroke-miterlimit="10"/>
<path d="M25.4312 24.3947C25.3773 24.4004 25.3275 24.4262 25.2917 24.4669C25.2559 24.5077 25.2369 24.5604 25.2382 24.6146V25.7768L24.2922 24.9877C24.2701 24.9685 24.2444 24.9542 24.2165 24.9455C24.1886 24.9367 24.1593 24.9336 24.1302 24.9367C24.087 24.9405 24.0459 24.9571 24.0123 24.9845C23.9786 25.0119 23.954 25.0489 23.9415 25.0905C23.929 25.132 23.9292 25.1763 23.9422 25.2177C23.9552 25.2591 23.9803 25.2956 24.0142 25.3227L25.2382 26.3427V28.7968L23.1202 27.5968L22.8452 25.9967C22.8351 25.9425 22.8048 25.8941 22.7603 25.8615C22.7159 25.8288 22.6606 25.8143 22.6058 25.8209C22.551 25.8276 22.5008 25.8548 22.4654 25.8971C22.43 25.9394 22.4121 25.9936 22.4152 26.0487V26.0707L22.6292 27.3146L21.5482 26.7018C21.5104 26.6787 21.4664 26.6679 21.4222 26.6708C21.3653 26.6752 21.3124 26.7017 21.275 26.7448C21.2376 26.7878 21.2187 26.8438 21.2222 26.9008C21.2243 26.9374 21.2356 26.9728 21.2552 27.0038C21.2748 27.0348 21.302 27.0603 21.3342 27.0778L22.3783 27.6708L21.2562 28.0836C21.2031 28.1019 21.1592 28.1401 21.1336 28.1901C21.1081 28.2401 21.1029 28.2982 21.1192 28.352C21.1355 28.4057 21.172 28.451 21.221 28.4784C21.2701 28.5058 21.3278 28.513 21.3822 28.4987L21.4052 28.4906L22.8721 27.9518L25.0142 29.1686L22.8721 30.3847L21.4052 29.8427C21.371 29.829 21.3337 29.8246 21.2972 29.8297C21.2489 29.8365 21.2044 29.8593 21.1706 29.8944C21.1369 29.9296 21.1159 29.9751 21.1112 30.0236C21.1064 30.0721 21.1182 30.1207 21.1445 30.1618C21.1708 30.2028 21.2101 30.2337 21.2562 30.2497L22.3783 30.6627L21.3342 31.2558C21.2842 31.2845 21.2477 31.3319 21.2327 31.3876C21.2177 31.4433 21.2255 31.5026 21.2542 31.5526C21.283 31.6026 21.3305 31.6392 21.3862 31.6542C21.4419 31.6692 21.5012 31.6615 21.5512 31.6327L22.6352 31.0158L22.4182 32.2626C22.4075 32.3182 22.419 32.376 22.4503 32.4232C22.4815 32.4705 22.53 32.5035 22.5853 32.5155C22.6406 32.5275 22.6985 32.5175 22.7465 32.4874C22.7945 32.4574 22.8289 32.4097 22.8422 32.3546V32.3368L23.1171 30.7367L25.2352 29.5368V31.9906L24.0112 33.0106C23.9704 33.0486 23.9456 33.1008 23.942 33.1564C23.9384 33.212 23.9562 33.2668 23.9918 33.3097C24.0274 33.3526 24.0779 33.3802 24.1333 33.3869C24.1886 33.3936 24.2444 33.3787 24.2891 33.3456L25.2352 32.5568V33.7218C25.2343 33.7794 25.2562 33.8348 25.2962 33.8761C25.3363 33.9175 25.3911 33.9414 25.4487 33.9423C25.5062 33.9432 25.5618 33.9213 25.6031 33.8812C25.6445 33.8412 25.6682 33.7862 25.6691 33.7287V32.5568L26.6142 33.3456C26.659 33.3787 26.7148 33.3936 26.7701 33.3869C26.8254 33.3802 26.876 33.3526 26.9116 33.3097C26.9472 33.2668 26.965 33.212 26.9614 33.1564C26.9578 33.1008 26.933 33.0486 26.8922 33.0106L25.6691 31.9906V29.5368L27.7872 30.7367L28.0612 32.3368C28.0641 32.3658 28.0727 32.3938 28.0866 32.4193C28.1006 32.4449 28.1196 32.4674 28.1424 32.4855C28.1652 32.5036 28.1914 32.5168 28.2194 32.5246C28.2475 32.5323 28.2768 32.5342 28.3056 32.5304C28.3345 32.5266 28.3623 32.5171 28.3874 32.5023C28.4125 32.4876 28.4343 32.4679 28.4516 32.4445C28.4689 32.4211 28.4813 32.3944 28.4881 32.3661C28.4949 32.3378 28.4959 32.3084 28.4912 32.2797V32.2626L28.2742 31.0158L29.3592 31.6327C29.384 31.647 29.4112 31.6561 29.4395 31.6598C29.4679 31.6635 29.4967 31.6616 29.5242 31.6542C29.5518 31.6468 29.5777 31.634 29.6003 31.6166C29.6229 31.5992 29.642 31.5774 29.6562 31.5526C29.6705 31.5279 29.6797 31.5006 29.6834 31.4723C29.6871 31.444 29.6851 31.4152 29.6777 31.3876C29.6703 31.36 29.6575 31.3343 29.6401 31.3117C29.6227 31.289 29.601 31.27 29.5762 31.2558L28.5322 30.6627L29.6543 30.2497C29.7035 30.2316 29.7444 30.1963 29.7696 30.1503C29.7948 30.1043 29.8026 30.0509 29.7913 29.9997C29.7801 29.9484 29.7507 29.903 29.7086 29.8717C29.6665 29.8405 29.6145 29.8256 29.5622 29.8297C29.5423 29.8312 29.5228 29.8355 29.5042 29.8427L28.0372 30.3847L25.8952 29.1686L28.0372 27.9518L29.5042 28.4906C29.5573 28.5134 29.6172 28.5144 29.6709 28.4931C29.7245 28.4717 29.7674 28.4297 29.7902 28.3766C29.813 28.3236 29.8138 28.2637 29.7924 28.2101C29.7711 28.1565 29.7293 28.1135 29.6762 28.0907L29.6543 28.0817L28.5322 27.6686L29.5762 27.0758C29.6197 27.0521 29.6537 27.0141 29.6727 26.9684C29.6917 26.9227 29.6945 26.8719 29.6806 26.8244C29.6667 26.7768 29.637 26.7355 29.5964 26.7072C29.5558 26.6789 29.5066 26.6651 29.4572 26.6686C29.4218 26.6704 29.3874 26.6811 29.3571 26.6996L28.2762 27.3126L28.4892 26.0687C28.5001 26.0123 28.488 25.9538 28.4558 25.9061C28.4235 25.8585 28.3737 25.8255 28.3172 25.8146C28.3013 25.8125 28.2852 25.8125 28.2692 25.8146C28.2188 25.8161 28.1705 25.8354 28.1326 25.8688C28.0948 25.9022 28.0699 25.9478 28.0622 25.9977L27.7882 27.5978L25.6702 28.7978V26.3436L26.8931 25.3236C26.934 25.2857 26.9587 25.2337 26.9624 25.1781C26.966 25.1225 26.9483 25.0677 26.9127 25.0248C26.8771 24.9819 26.8264 24.9544 26.7711 24.9477C26.7158 24.941 26.66 24.9555 26.6152 24.9887L25.6702 25.7777V24.6156C25.6708 24.5871 25.6656 24.5589 25.6552 24.5324C25.6448 24.5058 25.6292 24.4816 25.6095 24.4611C25.5897 24.4406 25.5661 24.4241 25.54 24.4127C25.5139 24.4014 25.4857 24.3952 25.4572 24.3947C25.4486 24.3938 25.4399 24.3938 25.4312 24.3947Z" fill="#6FD1EF" stroke="#6FD1EF" stroke-width="0.097" stroke-miterlimit="10"/>
<path d="M13.799 23.7869C13.7677 23.7901 13.7388 23.8051 13.718 23.8289C13.6972 23.8526 13.6862 23.8833 13.6871 23.9148V24.5898L13.138 24.1309C13.1189 24.1145 13.0954 24.1042 13.0704 24.1013C13.0454 24.0984 13.0202 24.103 12.9978 24.1145C12.9754 24.126 12.9569 24.1438 12.9447 24.1658C12.9324 24.1877 12.927 24.2127 12.9291 24.2378C12.9304 24.2549 12.9354 24.2715 12.9435 24.2866C12.9515 24.3018 12.9626 24.3153 12.9761 24.3259L13.6871 24.9177V26.3428L12.4571 25.6428L12.2981 24.7168C12.2929 24.6847 12.2755 24.6558 12.2495 24.6362C12.2235 24.6167 12.191 24.6079 12.1587 24.6118C12.1264 24.6157 12.0969 24.6318 12.0763 24.657C12.0557 24.6822 12.0455 24.7144 12.0481 24.7468V24.7598L12.1721 25.4819L11.544 25.1257C11.5222 25.1123 11.4967 25.1061 11.471 25.1079C11.4439 25.1096 11.418 25.12 11.3973 25.1377C11.3766 25.1554 11.3621 25.1795 11.3562 25.2061C11.3502 25.2326 11.3529 25.2603 11.3641 25.2852C11.3753 25.31 11.3942 25.3306 11.4181 25.3438L12.0241 25.6877L11.3731 25.9287C11.3574 25.9335 11.3427 25.9414 11.3299 25.9519C11.3172 25.9624 11.3067 25.9752 11.2989 25.9897C11.2912 26.0043 11.2864 26.0202 11.2848 26.0366C11.2832 26.053 11.2849 26.0694 11.2896 26.0852C11.2944 26.101 11.3023 26.1157 11.3127 26.1284C11.3232 26.1411 11.336 26.1517 11.3506 26.1594C11.3651 26.1672 11.381 26.172 11.3974 26.1736C11.4138 26.1752 11.4304 26.1735 11.4461 26.1687H11.4591L12.3111 25.8557L13.5552 26.5618L12.3111 27.2678L11.4591 26.9539C11.4392 26.9457 11.4174 26.9429 11.3961 26.9458C11.3681 26.9498 11.3422 26.9632 11.3226 26.9836C11.3031 27.0041 11.291 27.0306 11.2883 27.0588C11.2856 27.087 11.2926 27.1151 11.308 27.1389C11.3233 27.1627 11.3463 27.1806 11.3731 27.1897L12.0241 27.4299L11.4181 27.7739C11.389 27.7906 11.3678 27.818 11.3591 27.8503C11.3504 27.8827 11.3549 27.9172 11.3716 27.9463C11.3883 27.9753 11.4159 27.9967 11.4482 28.0054C11.4806 28.0141 11.515 28.0096 11.544 27.9929L12.174 27.6338L12.0481 28.3579C12.0439 28.3743 12.0431 28.3912 12.0456 28.408C12.0482 28.4247 12.0541 28.4407 12.063 28.4551C12.0718 28.4695 12.0835 28.4819 12.0973 28.4917C12.1111 28.5015 12.1267 28.5083 12.1432 28.512C12.1597 28.5156 12.1767 28.5158 12.1933 28.5127C12.21 28.5096 12.2258 28.5032 12.2398 28.4939C12.2539 28.4845 12.2661 28.4726 12.2754 28.4585C12.2847 28.4444 12.291 28.4285 12.294 28.4119V28.4019L12.4531 27.4749L13.6831 26.7749V28.1987L12.9721 28.7908C12.9456 28.8123 12.9287 28.8435 12.9251 28.8774C12.9216 28.9114 12.9316 28.9454 12.9531 28.9719C12.9746 28.9984 13.0057 29.0152 13.0396 29.0188C13.0736 29.0224 13.1076 29.0122 13.1341 28.9907L13.6831 28.5327V29.2087C13.6831 29.2422 13.6963 29.2742 13.7199 29.2979C13.7436 29.3215 13.7756 29.3347 13.8091 29.3347C13.8425 29.3347 13.8745 29.3215 13.8982 29.2979C13.9218 29.2742 13.935 29.2422 13.935 29.2087V28.5288L14.4831 28.9868C14.5097 29.0083 14.5435 29.0185 14.5775 29.0149C14.6114 29.0113 14.6426 28.9943 14.664 28.9678C14.6855 28.9413 14.6957 28.9072 14.6921 28.8733C14.6886 28.8393 14.6716 28.8083 14.6451 28.7869L13.935 28.1948V26.7708L15.164 27.4707L15.3241 28.3977C15.325 28.4151 15.3295 28.4322 15.3373 28.4478C15.345 28.4633 15.356 28.4771 15.3694 28.4883C15.3827 28.4994 15.3983 28.5076 15.415 28.5125C15.4317 28.5173 15.4493 28.5186 15.4665 28.5164C15.4838 28.5141 15.5004 28.5083 15.5152 28.4993C15.5301 28.4902 15.5429 28.4781 15.553 28.4639C15.563 28.4496 15.57 28.4336 15.5735 28.4165C15.5769 28.3994 15.5768 28.3818 15.5731 28.3647V28.3538L15.4481 27.6299L16.0771 27.9888C16.1062 28.0055 16.1406 28.0099 16.173 28.0012C16.2053 27.9925 16.2329 27.9714 16.2496 27.9424C16.2663 27.9133 16.2708 27.8788 16.2621 27.8464C16.2533 27.8141 16.2321 27.7865 16.2031 27.7698L15.5971 27.4258L16.2481 27.1858C16.2768 27.1754 16.3006 27.1549 16.3153 27.1282C16.33 27.1015 16.3346 27.0705 16.3281 27.0408C16.3216 27.011 16.3046 26.9845 16.2801 26.9663C16.2557 26.9481 16.2254 26.9395 16.195 26.9419C16.1838 26.9432 16.1727 26.9457 16.1621 26.9497L15.31 27.2639L14.0661 26.5579L15.31 25.8518L16.1621 26.1648C16.1929 26.1781 16.2276 26.1786 16.2588 26.1663C16.2899 26.1539 16.3148 26.1296 16.3281 26.0989C16.3414 26.0681 16.3418 26.0333 16.3294 26.0022C16.3171 25.9711 16.2928 25.9461 16.2621 25.9329H16.2481L15.5971 25.6919L16.2031 25.3479C16.2281 25.334 16.2477 25.3121 16.2586 25.2856C16.2695 25.2592 16.2711 25.2296 16.263 25.2021C16.255 25.1747 16.2379 25.1507 16.2145 25.1343C16.191 25.1178 16.1627 25.11 16.1341 25.1118C16.1139 25.1127 16.0942 25.119 16.0771 25.1299L15.4501 25.4858L15.5731 24.7639C15.5763 24.7476 15.5763 24.7309 15.573 24.7146C15.5697 24.6983 15.5631 24.6827 15.5538 24.6689C15.5445 24.6552 15.5326 24.6434 15.5188 24.6343C15.5049 24.6251 15.4894 24.6188 15.4731 24.6157H15.4461C15.4168 24.6166 15.3885 24.6279 15.3666 24.6475C15.3446 24.667 15.3304 24.6938 15.3261 24.7229L15.1661 25.6489L13.9371 26.3489V24.9238L14.6471 24.3318C14.6599 24.3212 14.6705 24.3084 14.6783 24.2937C14.6861 24.279 14.6909 24.2629 14.6925 24.2463C14.6941 24.2298 14.6923 24.2131 14.6875 24.1973C14.6826 24.1814 14.6746 24.1666 14.664 24.1538C14.6535 24.141 14.6405 24.1303 14.6258 24.1226C14.6112 24.1148 14.5951 24.11 14.5786 24.1084C14.5621 24.1068 14.5454 24.1087 14.5295 24.1135C14.5136 24.1184 14.4989 24.1261 14.4861 24.1367L13.9381 24.5957V23.9209C13.9386 23.8874 13.9259 23.855 13.9027 23.8308C13.8795 23.8066 13.8476 23.7925 13.8141 23.7917L13.799 23.7869Z" fill="#6FD1EF" stroke="#6FD1EF" stroke-width="0.058" stroke-miterlimit="10"/>
<path d="M17.4001 31.4758C17.3689 31.4795 17.3402 31.4947 17.3195 31.5183C17.2989 31.542 17.2876 31.5724 17.2881 31.6038V32.2788L16.7391 31.8198C16.726 31.8093 16.7108 31.8014 16.6947 31.7966C16.6785 31.7919 16.6615 31.7904 16.6447 31.7922C16.628 31.794 16.6118 31.799 16.597 31.8071C16.5822 31.8152 16.5691 31.8262 16.5586 31.8394C16.548 31.8525 16.5401 31.8676 16.5354 31.8838C16.5306 31.9 16.5292 31.9168 16.531 31.9336C16.5328 31.9504 16.5379 31.9667 16.546 31.9814C16.5541 31.9962 16.565 32.0092 16.5781 32.0198L17.2881 32.6118V34.0369L16.0591 33.3369L15.8991 32.4109C15.8952 32.3779 15.8782 32.3477 15.852 32.3271C15.8259 32.3066 15.7926 32.2973 15.7596 32.3013C15.7266 32.3052 15.6965 32.3222 15.676 32.3484C15.6555 32.3745 15.6461 32.4079 15.6501 32.4409V32.4539L15.7741 33.1758L15.1471 32.8198C15.1327 32.8107 15.1167 32.8047 15.0999 32.802C15.0832 32.7993 15.066 32.7999 15.0495 32.804C15.033 32.808 15.0176 32.8152 15.004 32.8254C14.9904 32.8356 14.979 32.8486 14.9705 32.8633C14.9621 32.878 14.9566 32.8943 14.9546 32.9111C14.9525 32.928 14.9539 32.9449 14.9586 32.9612C14.9633 32.9775 14.9713 32.9927 14.982 33.0059C14.9928 33.019 15.0061 33.0299 15.0211 33.0378L15.627 33.3818L14.9751 33.6228C14.9581 33.6266 14.942 33.6338 14.9279 33.644C14.9139 33.6543 14.902 33.6673 14.8933 33.6824C14.8845 33.6974 14.879 33.7141 14.877 33.7314C14.8751 33.7488 14.8767 33.7663 14.8818 33.783C14.8869 33.7996 14.8954 33.8149 14.9068 33.8281C14.9182 33.8413 14.9322 33.8521 14.948 33.8596C14.9637 33.8671 14.9807 33.8713 14.9981 33.8718C15.0155 33.8724 15.0329 33.8693 15.049 33.8628H15.0621L15.914 33.5498L17.1571 34.2559L15.914 34.9619L15.0621 34.6477C15.0422 34.6396 15.0205 34.637 14.9991 34.6399C14.9827 34.6421 14.9668 34.6474 14.9525 34.6558C14.9382 34.6641 14.9256 34.6753 14.9156 34.6885C14.9056 34.7017 14.8982 34.7166 14.894 34.7327C14.8898 34.7487 14.8888 34.7653 14.8911 34.7817C14.8948 34.8044 14.9046 34.8257 14.9194 34.8433C14.9342 34.8609 14.9534 34.8742 14.9751 34.8818L15.627 35.1218L15.0211 35.4658C14.992 35.4825 14.9708 35.5101 14.9621 35.5425C14.9534 35.5748 14.9579 35.6094 14.9746 35.6384C14.9913 35.6675 15.0189 35.6885 15.0512 35.6973C15.0836 35.706 15.118 35.7015 15.1471 35.6848L15.7761 35.3259L15.6501 36.0498C15.6468 36.0662 15.6466 36.0832 15.6499 36.0996C15.6531 36.1161 15.6596 36.1318 15.6689 36.1458C15.6782 36.1597 15.6901 36.1716 15.7041 36.1809C15.718 36.1902 15.7336 36.1965 15.7501 36.1997C15.7665 36.2033 15.7834 36.2038 15.7999 36.2007C15.8164 36.1976 15.8321 36.191 15.846 36.1816C15.86 36.1723 15.8718 36.1603 15.8809 36.1462C15.8901 36.1322 15.8963 36.1164 15.8991 36.0999V36.0898L16.0591 35.1628L17.2881 34.4629V35.8867L16.5781 36.4788C16.5516 36.5001 16.5346 36.5311 16.531 36.5649C16.5273 36.5988 16.5372 36.6329 16.5586 36.6594C16.5799 36.6859 16.6109 36.7029 16.6447 36.7065C16.6786 36.7102 16.7126 36.7001 16.7391 36.6787L17.2881 36.2207V36.8967C17.2881 36.9301 17.3014 36.9622 17.325 36.9858C17.3487 37.0095 17.3806 37.0227 17.414 37.0227C17.4474 37.0227 17.4795 37.0095 17.5031 36.9858C17.5268 36.9622 17.5401 36.9301 17.5401 36.8967V36.2168L18.0891 36.6748C18.1156 36.6962 18.1495 36.706 18.1833 36.7024C18.2172 36.6987 18.2483 36.6818 18.2696 36.6553C18.291 36.6288 18.3009 36.5949 18.2972 36.561C18.2936 36.5272 18.2766 36.4962 18.2501 36.4749L17.5401 35.8828V34.4587L18.7701 35.1589L18.929 36.0859C18.9334 36.1191 18.9508 36.1491 18.9774 36.1694C19.0039 36.1898 19.0374 36.1987 19.0705 36.1943C19.1037 36.19 19.1338 36.1725 19.1541 36.146C19.1745 36.1195 19.1834 36.0859 19.179 36.0527V36.0417L19.0531 35.3179L19.6831 35.6768C19.7121 35.6935 19.7467 35.6979 19.779 35.6892C19.8114 35.6805 19.8389 35.6594 19.8556 35.6304C19.8723 35.6013 19.8767 35.5668 19.868 35.5344C19.8593 35.5021 19.8381 35.4745 19.8091 35.4578L19.2031 35.1138L19.8541 34.8738C19.8827 34.8633 19.9066 34.8428 19.9214 34.8162C19.9361 34.7895 19.9405 34.7585 19.9341 34.7288C19.9276 34.699 19.9105 34.6725 19.8861 34.6543C19.8616 34.6361 19.8315 34.6275 19.8011 34.6299C19.7895 34.6309 19.778 34.6334 19.7671 34.6377L18.9151 34.9519L17.6721 34.2458L18.9151 33.5398L19.7671 33.8528C19.7823 33.8593 19.7987 33.8628 19.8153 33.863C19.8319 33.8633 19.8483 33.8604 19.8637 33.8542C19.8792 33.8481 19.8932 33.839 19.9051 33.8274C19.917 33.8158 19.9265 33.8021 19.9331 33.7869C19.9396 33.7716 19.9432 33.7551 19.9434 33.7385C19.9437 33.7219 19.9405 33.7056 19.9344 33.6902C19.9283 33.6748 19.9192 33.6606 19.9077 33.6487C19.8961 33.6368 19.8823 33.6274 19.867 33.6208H19.8541L19.2031 33.3799L19.8091 33.0359C19.8341 33.022 19.8537 33.0001 19.8646 32.9736C19.8755 32.9472 19.877 32.9176 19.869 32.8901C19.861 32.8627 19.8438 32.8387 19.8204 32.8223C19.797 32.8058 19.7686 32.798 19.7401 32.7998C19.7198 32.8007 19.7002 32.807 19.6831 32.8179L19.0551 33.1738L19.179 32.4519C19.185 32.4191 19.1778 32.3851 19.1591 32.3574C19.1405 32.3298 19.1117 32.3105 19.0791 32.3037H19.0511C19.0218 32.305 18.9939 32.3164 18.972 32.3359C18.9501 32.3554 18.9357 32.3819 18.9311 32.4109L18.7721 33.3369L17.5421 34.0369V32.6118L18.252 32.0198C18.2786 31.9984 18.2955 31.9674 18.2992 31.9336C18.3028 31.8997 18.2929 31.8659 18.2716 31.8394C18.2502 31.8128 18.2192 31.7959 18.1854 31.7922C18.1515 31.7886 18.1176 31.7985 18.091 31.8198L17.5421 32.2788V31.6038C17.5425 31.5872 17.5396 31.5709 17.5337 31.5554C17.5277 31.54 17.5187 31.5259 17.5073 31.5139C17.4959 31.5019 17.4823 31.4923 17.4671 31.4856C17.452 31.4789 17.4356 31.4752 17.419 31.4749L17.4001 31.4758Z" fill="#6FD1EF" stroke="#6FD1EF" stroke-width="0.058" stroke-miterlimit="10"/>
</svg>
