<svg width="40" height="41" viewBox="0 0 40 41" fill="none" xmlns="http://www.w3.org/2000/svg">
<path d="M15.4727 21.2237C18.9047 21.2237 22.3387 21.1386 25.7667 21.2506C27.0851 21.2837 28.3578 21.7405 29.3968 22.5528C30.4357 23.3652 31.1856 24.4901 31.5357 25.7616C31.8686 26.8703 31.8189 28.059 31.3944 29.1361C30.97 30.2131 30.1955 31.116 29.1957 31.6995C28.4844 32.1948 27.645 32.4738 26.7788 32.5028C25.9126 32.5317 25.0565 32.3093 24.3137 31.8626C23.5758 31.4914 22.9631 30.9116 22.5519 30.1952C22.1407 29.4787 21.949 28.6571 22.0007 27.8326C22.0467 26.8016 22.3507 25.7917 23.6007 25.7247C24.8127 25.6587 25.0437 26.5246 24.9947 27.5496C24.9297 28.8856 25.5947 29.6027 26.9237 29.4137C27.2143 29.3933 27.4968 29.3094 27.7512 29.1676C28.0056 29.0258 28.2256 28.8295 28.3957 28.5931C28.5658 28.3567 28.6818 28.0857 28.7353 27.7994C28.7889 27.5131 28.7788 27.2185 28.7057 26.9366C28.3787 24.6836 26.7307 24.1466 24.7547 24.1456C18.7907 24.1456 12.8264 24.1423 6.86171 24.1356C6.12771 24.1356 5.38971 24.1357 4.66171 24.0807C3.78071 24.0117 3.00071 23.6917 3.01371 22.6507C3.02671 21.6097 3.82271 21.2707 4.69671 21.2567C7.79671 21.2077 10.9047 21.2126 14.0097 21.1986C14.4997 21.1986 14.9897 21.1986 15.4797 21.1986L15.4727 21.2237Z" fill="#6FD1EF" stroke="#6FD1EF" stroke-width="0.123" stroke-miterlimit="10"/>
<path d="M22.2957 18.7638C19.5207 18.7638 16.7458 18.7968 13.9728 18.7468C12.8868 18.7278 11.3378 18.9617 11.3998 17.2997C11.4568 15.7627 12.9618 15.8617 14.0698 15.8527C19.2108 15.8127 24.3518 15.8358 29.4928 15.8188C30.3069 15.8608 31.1231 15.8044 31.9238 15.6508C32.3433 15.5612 32.735 15.3715 33.0654 15.0978C33.3958 14.8242 33.6552 14.4748 33.8215 14.0793C33.9877 13.6838 34.0559 13.2539 34.0203 12.8263C33.9847 12.3988 33.8462 11.9862 33.6167 11.6237C33.4115 11.2657 33.1039 10.9773 32.7334 10.7953C32.363 10.6134 31.9466 10.5463 31.5378 10.6027C30.6698 10.7507 30.4038 11.4308 30.2888 12.2028C30.1348 13.2488 30.0888 14.6437 28.6308 14.3937C27.2058 14.1487 27.2848 12.7187 27.3828 11.5737C27.4458 10.9828 27.6248 10.4103 27.9097 9.88885C28.1945 9.3674 28.5795 8.90738 29.0425 8.53509C29.5056 8.1628 30.0376 7.88559 30.6081 7.71942C31.1785 7.55324 31.7762 7.50147 32.3667 7.56683C33.753 7.76929 35.0063 8.50247 35.862 9.61175C36.7178 10.721 37.1088 12.1194 36.9527 13.5117C36.7731 14.9413 36.0824 16.2579 35.0081 17.2182C33.9339 18.1785 32.5485 18.7178 31.1078 18.7367C28.1718 18.8067 25.2327 18.7516 22.2957 18.7516V18.7638Z" fill="#6FD1EF" stroke="#6FD1EF" stroke-width="0.123" stroke-miterlimit="10"/>
</svg>
