<svg width="41" height="41" viewBox="0 0 41 41" fill="none" xmlns="http://www.w3.org/2000/svg">
<path d="M32.6182 19.5487C32.9743 17.4902 32.5865 15.3723 31.5242 13.5736C30.4619 11.7748 28.7943 10.4125 26.8197 9.73054C24.8452 9.04858 22.6924 9.09138 20.7465 9.85115C18.8005 10.6109 17.1883 12.038 16.1981 13.8775C15.3401 13.2943 14.3045 13.031 13.2721 13.1334C12.2397 13.2357 11.276 13.6972 10.5492 14.4376C9.84955 15.153 9.41157 16.0836 9.30618 17.0787C7.58946 17.1909 5.97621 17.9391 4.78164 19.1771C3.58707 20.4151 2.89705 22.0539 2.84622 23.7735C2.82456 24.6757 2.98086 25.5734 3.30618 26.4151C3.6315 27.2569 4.11947 28.0262 4.74221 28.6793C5.36496 29.3324 6.11026 29.8565 6.93557 30.2215C7.76089 30.5865 8.64998 30.7854 9.55215 30.8067H31.4792C32.8879 30.8058 34.2463 30.282 35.291 29.337C36.3358 28.3919 36.9926 27.0926 37.1344 25.691C37.2762 24.2894 36.8928 22.885 36.0585 21.7498C35.2242 20.6147 33.9982 19.8298 32.6182 19.5467V19.5487Z" fill="#E6E6E6" stroke="#E6E6E6" stroke-width="0.433" stroke-miterlimit="10"/>
</svg>
