<svg width="41" height="41" viewBox="0 0 41 41" fill="none" xmlns="http://www.w3.org/2000/svg">
<path d="M9.24311 8.11075C9.16709 8.11809 9.09675 8.15416 9.04639 8.21158C8.99604 8.269 8.96947 8.34351 8.97211 8.41983V10.0517L7.64411 8.94376C7.61344 8.91622 7.57753 8.89506 7.53852 8.88175C7.49951 8.86843 7.45823 8.86308 7.41712 8.86612C7.37601 8.86916 7.33595 8.88066 7.29932 8.89957C7.26269 8.91847 7.23027 8.94448 7.20399 8.97623C7.1777 9.00798 7.15811 9.04463 7.14637 9.08414C7.13463 9.12365 7.131 9.16526 7.13569 9.20621C7.14037 9.24716 7.15323 9.28658 7.17359 9.32242C7.19395 9.35826 7.22138 9.38971 7.25416 9.41471L8.97211 10.8468V14.2926L5.99811 12.6027L5.61213 10.3617C5.60231 10.2822 5.56131 10.2096 5.49811 10.1603C5.43491 10.111 5.35472 10.089 5.27515 10.0988C5.19559 10.1086 5.12318 10.1496 5.07386 10.2128C5.02454 10.276 5.00234 10.3561 5.01215 10.4357L5.01716 10.4657L5.31714 12.2128L3.79914 11.3517C3.72912 11.3119 3.64619 11.3015 3.56855 11.3229C3.49091 11.3443 3.42492 11.3957 3.38514 11.4657C3.34535 11.5357 3.33501 11.6188 3.35639 11.6964C3.37777 11.7741 3.42913 11.84 3.49915 11.8798L4.96412 12.7128L3.38917 13.2926C3.35089 13.3043 3.31526 13.3236 3.28437 13.349C3.25347 13.3745 3.22792 13.4057 3.20911 13.4411C3.19031 13.4764 3.1786 13.515 3.17475 13.5548C3.1709 13.5947 3.17496 13.635 3.18665 13.6732C3.19834 13.7115 3.21742 13.7471 3.24286 13.778C3.26831 13.8089 3.29963 13.8344 3.33497 13.8532C3.3703 13.872 3.40896 13.8838 3.4488 13.8876C3.48864 13.8915 3.52886 13.8873 3.56714 13.8756L3.59913 13.8647L5.65912 13.1078L8.66712 14.8158L5.65912 16.5248L3.59913 15.7626C3.55043 15.7439 3.4979 15.7376 3.44611 15.7438C3.37801 15.7531 3.31504 15.7851 3.2674 15.8346C3.21976 15.8842 3.19026 15.9483 3.18366 16.0168C3.17706 16.0852 3.19379 16.1536 3.23108 16.2113C3.26838 16.2691 3.32409 16.3125 3.38917 16.3346L4.96412 16.9147L3.49915 17.7477C3.46448 17.7674 3.43404 17.7936 3.40955 17.8251C3.38506 17.8566 3.36698 17.8926 3.35639 17.9311C3.3458 17.9695 3.34291 18.0097 3.34784 18.0492C3.35278 18.0888 3.36544 18.1271 3.38514 18.1618C3.40484 18.1964 3.43119 18.2269 3.46265 18.2514C3.49412 18.2759 3.5301 18.2938 3.56855 18.3044C3.60699 18.3149 3.64714 18.3181 3.68671 18.3131C3.72628 18.3082 3.76447 18.2955 3.79914 18.2758L5.32215 17.4098L5.02216 19.1608C5.00492 19.2404 5.01996 19.3235 5.06403 19.392C5.1081 19.4605 5.17758 19.5086 5.25715 19.5258C5.33671 19.543 5.41984 19.5279 5.48829 19.4838C5.55674 19.4397 5.6049 19.3702 5.62214 19.2907V19.2658L6.00812 17.0248L8.98212 15.3346V18.7807L7.26417 20.2128C7.20537 20.2656 7.16922 20.3391 7.1634 20.4179C7.15757 20.4967 7.18251 20.5748 7.23292 20.6357C7.28332 20.6965 7.35532 20.7353 7.43384 20.7443C7.51236 20.7533 7.59127 20.7317 7.65412 20.6837L8.98212 19.5758V21.2128C8.9816 21.2528 8.98897 21.2924 9.00379 21.3295C9.01861 21.3666 9.04058 21.4005 9.06849 21.4291C9.09639 21.4578 9.12964 21.4807 9.16639 21.4965C9.20313 21.5123 9.24267 21.5206 9.28266 21.5212C9.32265 21.5217 9.36234 21.5145 9.39948 21.4997C9.43663 21.4848 9.4705 21.4629 9.49915 21.435C9.5278 21.4071 9.55062 21.3738 9.56641 21.3371C9.5822 21.3003 9.59061 21.2606 9.59113 21.2206V19.5758L10.9191 20.6837C10.9498 20.7113 10.9857 20.7324 11.0247 20.7458C11.0637 20.7591 11.105 20.7642 11.1461 20.7611C11.1872 20.7581 11.2273 20.7468 11.2639 20.7279C11.3005 20.709 11.333 20.683 11.3593 20.6513C11.3855 20.6195 11.4052 20.5826 11.4169 20.5431C11.4287 20.5036 11.4323 20.4622 11.4276 20.4213C11.4229 20.3803 11.41 20.3407 11.3897 20.3048C11.3693 20.269 11.3419 20.2378 11.3091 20.2128L9.59113 18.7807V15.3346L12.5662 17.0248L12.9511 19.2658C12.9564 19.3052 12.9693 19.3432 12.9893 19.3776C13.0092 19.412 13.0357 19.4421 13.0673 19.4662C13.0988 19.4904 13.1349 19.508 13.1733 19.5182C13.2117 19.5284 13.2517 19.531 13.2911 19.5258C13.3305 19.5205 13.3685 19.5076 13.4029 19.4877C13.4373 19.4678 13.4674 19.4412 13.4916 19.4096C13.5157 19.378 13.5334 19.342 13.5436 19.3036C13.5538 19.2652 13.5564 19.2251 13.5512 19.1857V19.1608L13.2512 17.4098L14.7741 18.2758C14.8088 18.2955 14.847 18.3082 14.8866 18.3131C14.9262 18.3181 14.9663 18.3149 15.0048 18.3044C15.0432 18.2938 15.0792 18.2759 15.1107 18.2514C15.1421 18.2269 15.1684 18.1964 15.1881 18.1618C15.2078 18.1271 15.2205 18.0888 15.2255 18.0492C15.2304 18.0097 15.2274 17.9695 15.2169 17.9311C15.2063 17.8926 15.1883 17.8566 15.1638 17.8251C15.1393 17.7936 15.1088 17.7674 15.0742 17.7477L13.6082 16.9147L15.1831 16.3346C15.2615 16.3177 15.3299 16.2705 15.3734 16.203C15.4168 16.1356 15.4316 16.0536 15.4146 15.9753C15.3976 15.8969 15.3503 15.8285 15.2828 15.7851C15.2154 15.7417 15.1335 15.7268 15.0551 15.7438C15.0274 15.7467 15.0002 15.7528 14.9741 15.7626L12.9132 16.5248L9.90516 14.8158L12.9132 13.1078L14.9741 13.8647C15.0484 13.8966 15.1323 13.8977 15.2074 13.8678C15.2825 13.8379 15.3427 13.7795 15.3746 13.7052C15.4066 13.631 15.4077 13.5469 15.3778 13.4718C15.3479 13.3967 15.2894 13.3368 15.2152 13.3048L15.1831 13.2926L13.6082 12.7128L15.0742 11.8798C15.1408 11.8505 15.1945 11.7979 15.2252 11.7318C15.256 11.6658 15.2617 11.5908 15.2412 11.5209C15.2208 11.451 15.1756 11.391 15.1141 11.352C15.0527 11.3129 14.9791 11.2976 14.9071 11.3087C14.8584 11.312 14.8111 11.3267 14.7691 11.3517L13.2512 12.2128L13.5512 10.4657C13.5592 10.4264 13.5594 10.386 13.5515 10.3466C13.5437 10.3072 13.528 10.2697 13.5054 10.2365C13.4829 10.2033 13.4538 10.175 13.4201 10.1532C13.3864 10.1314 13.3487 10.1167 13.3091 10.1098C13.2871 10.1056 13.2646 10.1038 13.2421 10.1046C13.1714 10.1072 13.1037 10.1342 13.0507 10.1811C12.9976 10.2279 12.9624 10.2918 12.9511 10.3617L12.5662 12.6027L9.59113 14.2926V10.8468L11.3091 9.41471C11.3717 9.36299 11.4112 9.2885 11.4189 9.20767C11.4266 9.12685 11.4019 9.04639 11.3502 8.9838C11.2984 8.92121 11.224 8.88162 11.1431 8.87393C11.0623 8.86624 10.9817 8.89106 10.9191 8.94278L9.59113 10.0507V8.41861C9.59261 8.3783 9.58595 8.33812 9.57154 8.30045C9.55713 8.26277 9.53528 8.22841 9.50727 8.19937C9.47926 8.17034 9.44565 8.14726 9.40851 8.1315C9.37138 8.11574 9.33148 8.10779 9.29114 8.10782C9.27509 8.10745 9.25899 8.10838 9.24311 8.11075Z" fill="#6FD1EF" stroke="#6FD1EF" stroke-width="0.096" stroke-miterlimit="10"/>
<path d="M19.9411 23.0868C22.6351 23.0868 25.331 23.0198 28.022 23.1078C29.0573 23.1338 30.0567 23.4922 30.8725 24.13C31.6883 24.7679 32.2772 25.6514 32.5521 26.6498C32.8137 27.5203 32.7748 28.4535 32.4416 29.2992C32.1084 30.1449 31.5002 30.8537 30.715 31.3117C30.1567 31.7007 29.4976 31.9198 28.8174 31.9425C28.1373 31.9652 27.4652 31.7905 26.8821 31.4396C26.3026 31.1482 25.8215 30.6931 25.4987 30.1305C25.1758 29.568 25.0254 28.9231 25.0661 28.2758C25.1021 27.4668 25.3401 26.6758 26.3191 26.6208C27.2701 26.5688 27.4521 27.2506 27.4131 28.0536C27.3631 29.1026 27.884 29.6658 28.928 29.5168C29.1563 29.501 29.3784 29.4351 29.5783 29.3239C29.7782 29.2126 29.9511 29.0587 30.0848 28.873C30.2184 28.6873 30.3096 28.4743 30.3516 28.2494C30.3937 28.0245 30.3856 27.7931 30.3281 27.5717C30.0711 25.8037 28.7781 25.3818 27.2281 25.3808C22.5448 25.3808 17.8617 25.378 13.1791 25.3727C12.6021 25.3727 12.0231 25.3727 11.4491 25.3297C10.7571 25.2747 10.1491 25.0237 10.1561 24.2067C10.1631 23.3897 10.791 23.1227 11.477 23.1127C13.914 23.0747 16.3511 23.0778 18.7891 23.0668C19.1741 23.0668 19.5591 23.0668 19.9431 23.0668L19.9411 23.0868Z" fill="#6FD1EF" stroke="#6FD1EF" stroke-width="0.096" stroke-miterlimit="10"/>
<path d="M25.2971 21.1517C23.1191 21.1517 20.9401 21.1777 18.7621 21.1387C17.9101 21.1237 16.6941 21.3077 16.7421 20.0027C16.7871 18.7957 17.9691 18.8735 18.8421 18.8665C22.8781 18.8345 26.9151 18.8526 30.9511 18.8396C31.5905 18.8725 32.2314 18.8281 32.8601 18.7076C33.1896 18.6373 33.4973 18.4885 33.7568 18.2737C34.0164 18.0589 34.2202 17.7845 34.3508 17.4739C34.4814 17.1634 34.535 16.8258 34.5071 16.49C34.4791 16.1543 34.3704 15.8304 34.1902 15.5457C34.0283 15.2651 33.7865 15.039 33.4956 14.8965C33.2047 14.754 32.878 14.7015 32.5571 14.7456C31.8751 14.8626 31.6661 15.3967 31.5761 16.0057C31.4551 16.8267 31.4181 17.9216 30.2761 17.7256C29.1571 17.5336 29.2191 16.4105 29.2961 15.5115C29.3454 15.0476 29.4859 14.598 29.7094 14.1885C29.933 13.779 30.2353 13.4179 30.5989 13.1255C30.9624 12.8332 31.3803 12.6156 31.8282 12.4851C32.2762 12.3547 32.7454 12.314 33.2091 12.3655C34.2971 12.5254 35.2806 13.1016 35.9521 13.9725C36.6237 14.8433 36.9309 15.9408 36.8091 17.0337C36.6675 18.1558 36.1251 19.1887 35.2817 19.9422C34.4383 20.6957 33.3509 21.1188 32.2201 21.1336C29.9151 21.1886 27.6081 21.1455 25.3011 21.1455L25.2971 21.1517Z" fill="#6FD1EF" stroke="#6FD1EF" stroke-width="0.096" stroke-miterlimit="10"/>
</svg>
