<svg width="41" height="41" viewBox="0 0 41 41" fill="none" xmlns="http://www.w3.org/2000/svg">
<path d="M16.9117 32.3157C15.8367 34.2067 15.1196 36.2898 16.9616 36.6248C17.2226 36.6553 17.4872 36.6227 17.7329 36.5295C17.9787 36.4364 18.1985 36.2857 18.3737 36.0898C18.7239 35.6924 18.9978 35.2337 19.1817 34.7368C19.8531 33.0735 20.4209 31.3702 20.8817 29.6367C21.2913 28.4362 21.5208 27.1816 21.5627 25.9138C21.5627 26.1438 20.8877 26.7767 20.7547 26.9497C20.2797 27.5667 19.7957 28.1768 19.3297 28.8008C18.4463 29.9173 17.6385 31.0915 16.9117 32.3157Z" fill="#70AFED" stroke="#70AFED" stroke-width="0.092" stroke-miterlimit="10"/>
<path d="M13.7627 28.4758C13.3987 28.9998 12.6217 30.3919 13.8507 30.5869C13.9981 30.6035 14.1474 30.5879 14.2882 30.5413C14.4291 30.4946 14.5582 30.4182 14.6666 30.3169C14.8647 30.1219 15.0229 29.8901 15.1327 29.6348C15.5181 28.8 15.8455 27.9396 16.1126 27.0598C16.3481 26.4606 16.4813 25.8262 16.5067 25.1829C16.5067 25.1829 14.5687 27.3098 13.7627 28.4758Z" fill="#70AFED" stroke="#70AFED" stroke-width="0.092" stroke-miterlimit="10"/>
<path d="M31.4307 12.6426C31.7421 10.8556 31.4041 9.01615 30.4777 7.4566C29.8108 6.31353 28.8496 5.37018 27.6942 4.72491C26.5388 4.07964 25.2315 3.75614 23.9085 3.7879C22.5854 3.81966 21.2951 4.2056 20.172 4.90557C19.0489 5.60555 18.1341 6.59388 17.5228 7.76764C16.798 7.26671 15.9186 7.04016 15.0421 7.12848C14.1655 7.21679 13.349 7.61414 12.7388 8.24957C12.1446 8.8677 11.7739 9.6667 11.6857 10.5196C10.5707 10.6053 9.50269 11.0046 8.60493 11.6714C7.70716 12.3382 7.0163 13.2452 6.61207 14.2879C6.20784 15.3306 6.10675 16.4663 6.32044 17.564C6.53414 18.6617 7.05391 19.6766 7.81977 20.4915C8.34241 21.0528 8.97213 21.5041 9.67182 21.8182C10.3715 22.1323 11.127 22.3031 11.8937 22.3206H30.4688C31.6646 22.2934 32.8092 21.8297 33.6868 21.0169C34.5644 20.2041 35.1143 19.0983 35.233 17.908C35.3517 16.7177 35.0309 15.5251 34.3311 14.555C33.6312 13.5849 32.6007 12.9045 31.4338 12.6417L31.4307 12.6426Z" fill="#E6E6E6" stroke="#E6E6E6" stroke-width="0.37" stroke-miterlimit="10"/>
</svg>
