<svg width="41" height="40" viewBox="0 0 41 40" fill="none" xmlns="http://www.w3.org/2000/svg">
<path d="M20.7297 26.6648C20.6762 26.671 20.627 26.6968 20.5915 26.7373C20.556 26.7778 20.5368 26.83 20.5377 26.8838V28.0388L19.5987 27.2549C19.5768 27.2357 19.5512 27.2212 19.5235 27.2124C19.4958 27.2036 19.4666 27.2008 19.4377 27.2038C19.3947 27.2078 19.354 27.2244 19.3206 27.2517C19.2872 27.279 19.2628 27.3156 19.2504 27.3569C19.2381 27.3982 19.2383 27.4422 19.2512 27.4834C19.2641 27.5245 19.289 27.561 19.3227 27.5879L20.5377 28.6008V31.0388L18.4377 29.8389L18.1657 28.2529C18.1557 28.1989 18.1254 28.1507 18.0811 28.1181C18.0368 28.0856 17.9818 28.0712 17.9272 28.0779C17.8727 28.0845 17.8228 28.1116 17.7875 28.1538C17.7523 28.196 17.7345 28.2501 17.7377 28.3049V28.3269L17.9497 29.5627L16.8757 28.9529C16.8511 28.9369 16.8235 28.9261 16.7946 28.9211C16.7656 28.9162 16.736 28.9172 16.7075 28.9241C16.679 28.9309 16.6522 28.9436 16.6287 28.9612C16.6053 28.9788 16.5856 29.0009 16.571 29.0264C16.5564 29.0518 16.5471 29.08 16.5437 29.1091C16.5403 29.1382 16.5429 29.1677 16.5513 29.1958C16.5597 29.2239 16.5737 29.2502 16.5925 29.2727C16.6113 29.2952 16.6345 29.3136 16.6607 29.3269L17.6977 29.9158L16.5837 30.3269C16.5566 30.3351 16.5314 30.3485 16.5096 30.3664C16.4877 30.3844 16.4696 30.4064 16.4563 30.4314C16.443 30.4563 16.4347 30.4836 16.4319 30.5117C16.4292 30.5398 16.432 30.5681 16.4402 30.5952C16.4484 30.6223 16.4619 30.6476 16.4798 30.6694C16.4977 30.6913 16.5198 30.7093 16.5447 30.7226C16.5697 30.736 16.5969 30.7443 16.6251 30.7471C16.6532 30.7498 16.6816 30.747 16.7087 30.7388L16.7317 30.7307L18.1887 30.1948L20.3167 31.4038L18.1887 32.6128L16.7317 32.0737C16.6975 32.0598 16.6602 32.0554 16.6237 32.0608C16.5755 32.0672 16.5309 32.0898 16.4972 32.1247C16.4635 32.1597 16.4426 32.205 16.4379 32.2534C16.4333 32.3018 16.4452 32.3503 16.4717 32.3911C16.4981 32.4318 16.5376 32.4623 16.5837 32.4778L17.6977 32.8889L16.6607 33.4778C16.6143 33.5078 16.5811 33.5546 16.5681 33.6084C16.5551 33.6621 16.5633 33.7189 16.5908 33.7668C16.6184 33.8148 16.6633 33.8504 16.7163 33.8662C16.7693 33.882 16.8263 33.8768 16.8757 33.8518L17.9537 33.2388L17.7377 34.4778C17.7279 34.5328 17.7399 34.5896 17.7711 34.636C17.8023 34.6824 17.8502 34.7148 17.9048 34.7265C17.9595 34.7383 18.0166 34.7286 18.0641 34.6992C18.1116 34.6698 18.1459 34.623 18.1597 34.5688V34.5517L18.4317 32.9658L20.5317 31.7707V34.2087L19.3167 35.2219C19.2948 35.24 19.2768 35.2622 19.2635 35.2873C19.2502 35.3124 19.242 35.3399 19.2394 35.3681C19.2367 35.3964 19.2397 35.425 19.248 35.4521C19.2564 35.4793 19.2701 35.5045 19.2882 35.5264C19.3063 35.5482 19.3285 35.5663 19.3536 35.5796C19.3787 35.5928 19.4062 35.6009 19.4345 35.6035C19.4628 35.6061 19.4913 35.6033 19.5184 35.595C19.5456 35.5866 19.5708 35.573 19.5926 35.5549L20.5317 34.7707V35.9287C20.5346 35.9834 20.5582 36.035 20.5977 36.073C20.6371 36.111 20.6896 36.1325 20.7444 36.1333C20.7992 36.134 20.8522 36.114 20.8928 36.0771C20.9333 36.0403 20.9583 35.9894 20.9627 35.9348V34.7707L21.9027 35.5549C21.9246 35.573 21.9498 35.5866 21.9769 35.595C22.0041 35.6033 22.0326 35.6061 22.0608 35.6035C22.0891 35.6009 22.1166 35.5928 22.1417 35.5796C22.1668 35.5663 22.189 35.5482 22.2072 35.5264C22.2253 35.5045 22.2389 35.4793 22.2473 35.4521C22.2557 35.425 22.2586 35.3964 22.256 35.3681C22.2533 35.3399 22.2451 35.3124 22.2319 35.2873C22.2186 35.2622 22.2006 35.24 22.1787 35.2219L20.9627 34.2087V31.7707L23.0627 32.9658L23.3357 34.5517C23.3432 34.6084 23.373 34.6596 23.4184 34.6943C23.4409 34.7115 23.4665 34.7242 23.4938 34.7314C23.5212 34.7387 23.5497 34.7405 23.5777 34.7368C23.6057 34.7331 23.6328 34.7239 23.6572 34.7097C23.6817 34.6955 23.7031 34.6765 23.7203 34.654C23.7375 34.6316 23.7501 34.6059 23.7573 34.5786C23.7646 34.5513 23.7664 34.5229 23.7627 34.4949V34.4778L23.5477 33.2388L24.6247 33.8518C24.6742 33.8789 24.7324 33.8856 24.7867 33.8703C24.8411 33.8551 24.8874 33.8194 24.9156 33.7705C24.9438 33.7216 24.9518 33.6636 24.9378 33.6089C24.9238 33.5542 24.8889 33.5071 24.8407 33.4778L23.8037 32.8889L24.9177 32.4778C24.9672 32.4604 25.0087 32.4257 25.0344 32.3799C25.06 32.334 25.0679 32.2803 25.0567 32.229C25.0455 32.1777 25.0159 32.1323 24.9736 32.1013C24.9312 32.0703 24.8789 32.0559 24.8267 32.0608C24.8071 32.0621 24.7878 32.0664 24.7697 32.0737L23.3117 32.6128L21.1847 31.4038L23.3117 30.1948L24.7697 30.7307C24.7959 30.7419 24.8242 30.748 24.8527 30.7483C24.8813 30.7486 24.9096 30.7433 24.9362 30.7327C24.9627 30.722 24.9868 30.7062 25.0073 30.6863C25.0277 30.6663 25.0439 30.6425 25.0552 30.6162C25.0664 30.5899 25.0724 30.5617 25.0727 30.5332C25.073 30.5046 25.0677 30.4764 25.0571 30.4499C25.0464 30.4234 25.0306 30.3991 25.0107 30.3786C24.9907 30.3582 24.9669 30.342 24.9407 30.3308L24.9177 30.3227L23.8037 29.9118L24.8407 29.3227C24.8811 29.2979 24.9122 29.2604 24.9293 29.216C24.9463 29.1717 24.9482 29.1232 24.9348 29.0776C24.9214 29.0321 24.8933 28.9923 24.855 28.9643C24.8166 28.9364 24.7701 28.9217 24.7227 28.9228C24.6874 28.9244 24.653 28.9348 24.6227 28.9529L23.5487 29.5627L23.7607 28.3269C23.7662 28.2991 23.7661 28.2704 23.7605 28.2427C23.7549 28.2149 23.7437 28.1885 23.7278 28.165C23.7119 28.1416 23.6915 28.1217 23.6678 28.1062C23.6441 28.0907 23.6175 28.0798 23.5897 28.0747C23.574 28.0732 23.5583 28.0732 23.5427 28.0747C23.4925 28.0764 23.4446 28.0957 23.407 28.1289C23.3694 28.1621 23.3445 28.2073 23.3367 28.2568L23.0637 29.8428L20.9637 31.0427V28.6047L22.1797 27.5918C22.2016 27.5737 22.2196 27.5515 22.2329 27.5264C22.2462 27.5012 22.2544 27.4738 22.257 27.4455C22.2597 27.4173 22.2567 27.3887 22.2483 27.3616C22.2399 27.3344 22.2263 27.3092 22.2082 27.2873C22.1901 27.2655 22.1678 27.2474 22.1427 27.2341C22.1176 27.2209 22.0901 27.2126 22.0618 27.2099C22.0336 27.2073 22.005 27.2104 21.9779 27.2187C21.9508 27.2271 21.9255 27.2407 21.9037 27.2588L20.9637 28.0427V26.8867C20.9643 26.8585 20.9594 26.8305 20.9492 26.8042C20.939 26.7778 20.9237 26.7538 20.9042 26.7334C20.8847 26.713 20.8614 26.6965 20.8356 26.685C20.8097 26.6736 20.7819 26.6674 20.7537 26.6667L20.7297 26.6648Z" fill="#6FD1EF" stroke="#6FD1EF" stroke-width="0.089" stroke-miterlimit="10"/>
<path d="M31.5147 12.7248C31.8254 10.9377 31.487 9.09838 30.5607 7.5388C30.0639 6.68894 29.4027 5.9467 28.6159 5.35521C27.829 4.76371 26.9321 4.33475 25.9777 4.09373C25.3868 3.94322 24.7794 3.86692 24.1697 3.86668C22.8167 3.87025 21.4903 4.2432 20.3337 4.9453C19.1772 5.6474 18.2342 6.65212 17.6067 7.85081C16.8821 7.3493 16.0025 7.12229 15.1256 7.21043C14.2488 7.29858 13.432 7.69606 12.8217 8.33177C12.2282 8.95043 11.8577 9.74915 11.7687 10.6018C10.6538 10.6877 9.58587 11.087 8.68824 11.7539C7.79061 12.4208 7.09986 13.3279 6.69575 14.3706C6.29163 15.4132 6.19063 16.5489 6.40436 17.6465C6.6181 18.7441 7.13787 19.7589 7.90369 20.5737C8.42629 21.1351 9.05599 21.5862 9.75568 21.9004C10.4554 22.2145 11.2109 22.3853 11.9777 22.4028H30.5497C31.7463 22.3766 32.8919 21.9133 33.7703 21.1003C34.6488 20.2874 35.1993 19.1809 35.318 17.99C35.4367 16.799 35.1155 15.6058 34.4148 14.6355C33.7141 13.6651 32.6826 12.9849 31.5147 12.7229V12.7248Z" fill="#E6E6E6" stroke="#E6E6E6" stroke-width="0.37" stroke-miterlimit="10"/>
</svg>
