<svg width="41" height="41" viewBox="0 0 41 41" fill="none" xmlns="http://www.w3.org/2000/svg">
<path d="M37.0049 26.2987C35.4149 28.6397 32.6169 29.3917 30.5779 27.8497C28.7159 26.4427 27.1029 26.2898 25.1449 27.6078C24.2583 28.2839 23.1597 28.6218 22.0464 28.5611C20.9331 28.5005 19.8777 28.0452 19.0698 27.2767C18.5039 26.7502 17.7617 26.4542 16.9888 26.4466C16.2159 26.439 15.468 26.7204 14.8919 27.2357C12.2029 29.0977 10.8059 29.0996 8.20888 27.1556C7.6533 26.6737 6.94189 26.4096 6.20644 26.412C5.47099 26.4143 4.76132 26.6831 4.20888 27.1686C3.85888 27.4146 3.39784 27.8806 3.06484 27.2376C2.84384 26.8116 3.33287 26.5567 3.64187 26.3167C4.36679 25.7154 5.27839 25.3849 6.22023 25.3822C7.16207 25.3794 8.07545 25.7045 8.80385 26.3016C9.50522 26.9798 10.4318 27.3758 11.4066 27.4142C12.3815 27.4525 13.3364 27.1306 14.0889 26.5096C16.1649 25.1096 18.0888 25.0147 20.0958 26.6937C20.6881 27.2026 21.4384 27.4907 22.219 27.5089C22.9996 27.5271 23.7626 27.2742 24.3779 26.7936C26.7019 25.1716 28.8089 25.0116 31.0969 26.8546C32.2919 27.8166 33.7279 27.5237 35.0689 26.9027C35.6319 26.6367 36.0559 25.9607 37.0049 26.2987Z" fill="#E6E6E6" stroke="#E6E6E6" stroke-width="0.399" stroke-miterlimit="10"/>
<path d="M36.9027 12.2167C36.6327 12.7809 36.2427 13.2792 35.7598 13.6767C35.2769 14.0742 34.713 14.3614 34.1075 14.518C33.5019 14.6746 32.8694 14.697 32.2543 14.5834C31.6392 14.4699 31.0565 14.2233 30.5468 13.8608C29.8203 13.1737 28.8686 12.7745 27.8694 12.7377C26.8702 12.7009 25.8918 13.0291 25.1167 13.6608C24.2489 14.36 23.1543 14.7156 22.0412 14.6603C20.928 14.605 19.874 14.1426 19.0797 13.3608C18.5273 12.8626 17.8142 12.5799 17.0705 12.5639C16.3268 12.5479 15.6022 12.7999 15.0288 13.2739C12.6628 14.8369 10.4147 15.0846 8.07975 13.1786C6.91475 12.2276 5.5898 12.5136 4.3328 13.1786C3.9538 13.3786 3.44884 13.9057 3.12284 13.3627C2.74884 12.7377 3.45675 12.4578 3.88175 12.2038C5.56875 11.1948 7.29076 10.9959 8.86576 12.3679C9.53541 13.0327 10.4286 13.4245 11.3713 13.4672C12.3139 13.5099 13.2387 13.2004 13.9657 12.5988C16.1277 11.0988 18.1228 11.0988 20.1458 12.7988C21.6118 14.0278 23.1578 13.7368 24.5528 12.7338C26.7318 11.1678 28.7348 11.0178 30.8528 12.8818C31.4404 13.39 32.1849 13.6805 32.9613 13.7045C33.7378 13.7286 34.4989 13.4848 35.1167 13.0138C35.6557 12.6928 36.1277 12.1757 36.9027 12.2167Z" fill="#E6E6E6" stroke="#E6E6E6" stroke-width="0.399" stroke-miterlimit="10"/>
<path d="M36.9327 16.9666C35.4387 19.1956 32.6857 20.0146 30.7727 18.5596C28.7397 17.0136 27.0297 16.8505 24.8447 18.3245C24.0322 18.9301 23.0319 19.2295 22.0204 19.1694C21.0088 19.1094 20.051 18.694 19.3158 17.9966C18.7743 17.4373 18.0414 17.1032 17.264 17.0613C16.4867 17.0194 15.7222 17.2727 15.1237 17.7705C12.6477 19.5755 10.3668 19.7466 7.95078 17.5986C6.61278 16.4086 5.18776 17.2467 3.78976 17.8797C3.74462 17.9004 3.69508 17.9097 3.64548 17.907C3.59588 17.9043 3.54772 17.8895 3.5051 17.864C3.46247 17.8385 3.42669 17.8032 3.40085 17.7608C3.37501 17.7183 3.35976 17.6702 3.35666 17.6206C3.30166 16.1586 6.49176 15.2315 7.95676 16.4265C10.4278 18.4415 12.6307 18.4786 15.1207 16.5786C15.7593 16.0707 16.5681 15.8265 17.3811 15.896C18.1941 15.9656 18.9497 16.3437 19.4928 16.9527C20.1598 17.6705 21.0789 18.1021 22.0573 18.1565C23.0357 18.211 23.9972 17.8841 24.7397 17.2446C26.8607 15.7446 28.8067 15.5667 30.8497 17.3997C32.0837 18.5077 33.5277 18.3156 34.9497 17.6126C35.5467 17.3176 36.0637 16.6476 36.9327 16.9666Z" fill="#E6E6E6" stroke="#E6E6E6" stroke-width="0.399" stroke-miterlimit="10"/>
<path d="M3.06885 22.5556C4.47485 20.4946 6.63785 19.9266 8.62585 21.5356C10.8079 23.2996 12.6548 23.0595 14.7148 21.5185C15.3887 20.9528 16.2483 20.657 17.1276 20.6884C18.0068 20.7198 18.8431 21.0761 19.4749 21.6884C21.3549 23.2574 23.1689 23.1095 25.1129 21.8005C27.4079 20.2565 28.4219 20.3185 30.6349 22.0515C31.1911 22.5317 31.8797 22.832 32.61 22.9131C33.3403 22.9941 34.0779 22.8521 34.7258 22.5056C35.4118 22.1916 35.9839 21.5484 36.9099 21.5644C36.6576 22.1178 36.2875 22.6096 35.8254 23.0051C35.3634 23.4006 34.8206 23.6905 34.235 23.8545C33.6493 24.0184 33.0349 24.0524 32.4347 23.9543C31.8345 23.8562 31.2629 23.6285 30.7599 23.2866C28.6439 21.6096 26.9019 21.5285 24.7089 23.1755C23.9732 23.7216 23.0736 24.0015 22.158 23.969C21.2423 23.9364 20.365 23.5935 19.6699 22.9965C17.7959 21.5085 16.1899 21.6075 14.2699 22.9565C13.5051 23.5705 12.5546 23.9072 11.5739 23.9113C10.5931 23.9155 9.63989 23.5869 8.86987 22.9795C7.24287 21.7165 5.69988 21.4306 3.95288 22.5996C3.89369 22.6581 3.823 22.7036 3.74524 22.7334C3.66748 22.7631 3.58436 22.7763 3.50122 22.7722C3.41808 22.768 3.33663 22.7467 3.26221 22.7094C3.18778 22.6721 3.12194 22.6197 3.06885 22.5556Z" fill="#E6E6E6" stroke="#E6E6E6" stroke-width="0.399" stroke-miterlimit="10"/>
</svg>
