<svg width="41" height="41" viewBox="0 0 41 41" fill="none" xmlns="http://www.w3.org/2000/svg">
<path d="M30.4309 12.6427C30.7423 10.8557 30.4042 9.01618 29.4779 7.45663C28.811 6.31356 27.8498 5.37021 26.6943 4.72494C25.5389 4.07967 24.2316 3.75617 22.9086 3.78793C21.5856 3.81969 20.2953 4.20563 19.1721 4.90561C18.049 5.60558 17.1342 6.59391 16.5229 7.76767C15.7982 7.26674 14.9188 7.04019 14.0422 7.12851C13.1656 7.21682 12.3491 7.61417 11.7389 8.2496C11.1447 8.86773 10.774 9.66673 10.6859 10.5196C9.57085 10.6053 8.50282 11.0047 7.60505 11.6715C6.70729 12.3383 6.01643 13.2452 5.61219 14.2879C5.20796 15.3306 5.10687 16.4664 5.32057 17.5641C5.53426 18.6617 6.05403 19.6766 6.81989 20.4915C7.34253 21.0529 7.97226 21.5041 8.67195 21.8182C9.37164 22.1323 10.1271 22.3031 10.8939 22.3206H29.4689C30.6647 22.2934 31.8093 21.8297 32.6869 21.0169C33.5645 20.2041 34.1144 19.0983 34.2331 17.908C34.3518 16.7178 34.031 15.5251 33.3312 14.555C32.6314 13.5849 31.6008 12.9045 30.4339 12.6417L30.4309 12.6427Z" fill="#E6E6E6" stroke="#E6E6E6" stroke-width="0.37" stroke-miterlimit="10"/>
<path d="M30.4309 12.6427C30.7423 10.8557 30.4042 9.01618 29.4779 7.45663C28.811 6.31356 27.8498 5.37021 26.6943 4.72494C25.5389 4.07967 24.2316 3.75617 22.9086 3.78793C21.5856 3.81969 20.2953 4.20563 19.1721 4.90561C18.049 5.60558 17.1342 6.59391 16.5229 7.76767C15.7982 7.26674 14.9188 7.04019 14.0422 7.12851C13.1656 7.21682 12.3491 7.61417 11.7389 8.2496C11.1447 8.86773 10.774 9.66673 10.6859 10.5196C9.57085 10.6053 8.50282 11.0047 7.60505 11.6715C6.70729 12.3383 6.01643 13.2452 5.61219 14.2879C5.20796 15.3306 5.10687 16.4664 5.32057 17.5641C5.53426 18.6617 6.05403 19.6766 6.81989 20.4915C7.34253 21.0529 7.97226 21.5041 8.67195 21.8182C9.37164 22.1323 10.1271 22.3031 10.8939 22.3206H29.4689C30.6647 22.2934 31.8093 21.8297 32.6869 21.0169C33.5645 20.2041 34.1144 19.0983 34.2331 17.908C34.3518 16.7178 34.031 15.5251 33.3312 14.555C32.6314 13.5849 31.6008 12.9045 30.4339 12.6417L30.4309 12.6427Z" fill="#E6E6E6" stroke="#E6E6E6" stroke-width="0.37" stroke-miterlimit="10"/>
<path d="M30.4309 12.6427C30.7423 10.8557 30.4042 9.01618 29.4779 7.45663C28.811 6.31356 27.8498 5.37021 26.6943 4.72494C25.5389 4.07967 24.2316 3.75617 22.9086 3.78793C21.5856 3.81969 20.2953 4.20563 19.1721 4.90561C18.049 5.60558 17.1342 6.59391 16.5229 7.76767C15.7982 7.26674 14.9188 7.04019 14.0422 7.12851C13.1656 7.21682 12.3491 7.61417 11.7389 8.2496C11.1447 8.86773 10.774 9.66673 10.6859 10.5196C9.57085 10.6053 8.50282 11.0047 7.60505 11.6715C6.70729 12.3383 6.01643 13.2452 5.61219 14.2879C5.20796 15.3306 5.10687 16.4664 5.32057 17.5641C5.53426 18.6617 6.05403 19.6766 6.81989 20.4915C7.34253 21.0529 7.97226 21.5041 8.67195 21.8182C9.37164 22.1323 10.1271 22.3031 10.8939 22.3206H29.4689C30.6647 22.2934 31.8093 21.8297 32.6869 21.0169C33.5645 20.2041 34.1144 19.0983 34.2331 17.908C34.3518 16.7178 34.031 15.5251 33.3312 14.555C32.6314 13.5849 31.6008 12.9045 30.4339 12.6417L30.4309 12.6427Z" fill="#E6E6E6" stroke="#E6E6E6" stroke-width="0.37" stroke-miterlimit="10"/>
<path d="M18.4949 32.7736C17.4199 34.6656 16.7029 36.7477 18.5449 37.0827C18.8059 37.1136 19.0706 37.0813 19.3164 36.9882C19.5622 36.8951 19.7819 36.7439 19.9569 36.5478C20.3071 36.1503 20.5811 35.6916 20.7649 35.1947C21.4359 33.5313 22.0036 31.828 22.4649 30.0946C22.8736 28.8942 23.1031 27.6401 23.1459 26.3727C23.1459 26.6017 22.4709 27.2346 22.3369 27.4076C21.8619 28.0246 21.3789 28.6357 20.9119 29.2587C20.0295 30.3757 19.2221 31.5498 18.4949 32.7736Z" fill="#70AFED" stroke="#70AFED" stroke-width="0.092" stroke-miterlimit="10"/>
<path d="M25.7219 28.4337C25.3569 28.9587 24.5809 30.3496 25.8089 30.5446C25.9564 30.5613 26.1057 30.5458 26.2465 30.4992C26.3874 30.4526 26.5165 30.3761 26.6249 30.2748C26.8234 30.08 26.982 29.8482 27.0919 29.5927C27.477 28.7578 27.8045 27.8975 28.0719 27.0177C28.3067 26.4183 28.4394 25.784 28.4649 25.1408C28.4649 25.1408 26.5329 27.2687 25.7219 28.4337Z" fill="#70AFED" stroke="#70AFED" stroke-width="0.092" stroke-miterlimit="10"/>
<path d="M31.9519 12.7257C32.2624 10.9387 31.9244 9.09956 30.9989 7.5397C30.5019 6.68985 29.8405 5.94759 29.0535 5.35611C28.2664 4.76462 27.3694 4.33569 26.4149 4.09464C25.824 3.94412 25.2166 3.86782 24.6069 3.86758C23.2539 3.87115 21.9275 4.2441 20.7709 4.9462C19.6143 5.6483 18.6714 6.65302 18.0439 7.85172C17.3194 7.35027 16.44 7.12319 15.5633 7.21133C14.6866 7.29948 13.8701 7.69704 13.2599 8.33267C12.6657 8.95081 12.295 9.7498 12.2069 10.6027C11.0918 10.6884 10.0238 11.0877 9.12605 11.7545C8.22828 12.4213 7.53742 13.3283 7.13319 14.371C6.72895 15.4137 6.62787 16.5494 6.84156 17.6471C7.05526 18.7448 7.57503 19.7597 8.34089 20.5746C8.86349 21.136 9.49318 21.5872 10.1929 21.9013C10.8926 22.2154 11.6481 22.3862 12.4149 22.4037H30.9869C32.1835 22.3775 33.3291 21.9142 34.2075 21.1012C35.086 20.2883 35.6365 19.1818 35.7552 17.9909C35.8739 16.7999 35.5527 15.6067 34.852 14.6364C34.1513 13.666 33.1197 12.9858 31.9519 12.7238V12.7257Z" fill="#E6E6E6" stroke="#E6E6E6" stroke-width="0.37" stroke-miterlimit="10"/>
<path d="M13.5398 30.6875C13.3542 30.6847 13.1708 30.7267 13.005 30.8101C12.8392 30.8935 12.6961 31.0158 12.5878 31.1666C12.4075 31.3977 12.29 31.6717 12.2468 31.9617C12.1356 32.3875 12.1679 32.8381 12.3388 33.2437C12.5238 33.556 12.8131 33.7929 13.1557 33.9129C13.4984 34.0329 13.8723 34.0283 14.2118 33.8997C14.4599 33.8105 14.6831 33.6631 14.8626 33.47C15.0421 33.2769 15.1729 33.0435 15.2438 32.7896C15.2921 32.5543 15.2912 32.3114 15.2411 32.0765C15.1909 31.8415 15.0927 31.6195 14.9526 31.4244C14.8124 31.2292 14.6333 31.0654 14.4267 30.9429C14.22 30.8204 13.9903 30.742 13.7518 30.7127C13.6818 30.6994 13.6109 30.6909 13.5398 30.6875Z" fill="#6FD1EF" stroke="#6FD1EF" stroke-width="0.177" stroke-miterlimit="10"/>
<path d="M16.2439 30.3637C17.0439 28.7287 18.2609 26.4147 19.0649 24.7787" stroke="#70AFED" stroke-width="0.25" stroke-miterlimit="10"/>
<path d="M14.5858 28.7577C14.9778 27.8177 15.5978 26.5738 15.9538 25.6188" stroke="#70AFED" stroke-width="0.25" stroke-miterlimit="10"/>
<path d="M30.4309 12.6427C30.7423 10.8557 30.4042 9.01618 29.4779 7.45663C28.811 6.31356 27.8498 5.37021 26.6943 4.72494C25.5389 4.07967 24.2316 3.75617 22.9086 3.78793C21.5856 3.81969 20.2953 4.20563 19.1721 4.90561C18.049 5.60558 17.1342 6.59391 16.5229 7.76767C15.7982 7.26674 14.9188 7.04019 14.0422 7.12851C13.1656 7.21682 12.3491 7.61417 11.7389 8.2496C11.1447 8.86773 10.774 9.66673 10.6859 10.5196C9.57085 10.6053 8.50282 11.0047 7.60505 11.6715C6.70729 12.3383 6.01643 13.2452 5.61219 14.2879C5.20796 15.3306 5.10687 16.4664 5.32057 17.5641C5.53426 18.6617 6.05403 19.6766 6.81989 20.4915C7.34253 21.0529 7.97226 21.5041 8.67195 21.8182C9.37164 22.1323 10.1271 22.3031 10.8939 22.3206H29.4689C30.6647 22.2934 31.8093 21.8297 32.6869 21.0169C33.5645 20.2041 34.1144 19.0983 34.2331 17.908C34.3518 16.7178 34.031 15.5251 33.3312 14.555C32.6314 13.5849 31.6008 12.9045 30.4339 12.6417L30.4309 12.6427Z" fill="#E6E6E6" stroke="#E6E6E6" stroke-width="0.37" stroke-miterlimit="10"/>
<path d="M30.4309 12.6427C30.7423 10.8557 30.4042 9.01618 29.4779 7.45663C28.811 6.31356 27.8498 5.37021 26.6943 4.72494C25.5389 4.07967 24.2316 3.75617 22.9086 3.78793C21.5856 3.81969 20.2953 4.20563 19.1721 4.90561C18.049 5.60558 17.1342 6.59391 16.5229 7.76767C15.7982 7.26674 14.9188 7.04019 14.0422 7.12851C13.1656 7.21682 12.3491 7.61417 11.7389 8.2496C11.1447 8.86773 10.774 9.66673 10.6859 10.5196C9.57085 10.6053 8.50282 11.0047 7.60505 11.6715C6.70729 12.3383 6.01643 13.2452 5.61219 14.2879C5.20796 15.3306 5.10687 16.4664 5.32057 17.5641C5.53426 18.6617 6.05403 19.6766 6.81989 20.4915C7.34253 21.0529 7.97226 21.5041 8.67195 21.8182C9.37164 22.1323 10.1271 22.3031 10.8939 22.3206H29.4689C30.6647 22.2934 31.8093 21.8297 32.6869 21.0169C33.5645 20.2041 34.1144 19.0983 34.2331 17.908C34.3518 16.7178 34.031 15.5251 33.3312 14.555C32.6314 13.5849 31.6008 12.9045 30.4339 12.6417L30.4309 12.6427Z" fill="#E6E6E6" stroke="#E6E6E6" stroke-width="0.37" stroke-miterlimit="10"/>
<path d="M30.4309 12.6427C30.7423 10.8557 30.4042 9.01618 29.4779 7.45663C28.811 6.31356 27.8498 5.37021 26.6943 4.72494C25.5389 4.07967 24.2316 3.75617 22.9086 3.78793C21.5856 3.81969 20.2953 4.20563 19.1721 4.90561C18.049 5.60558 17.1342 6.59391 16.5229 7.76767C15.7982 7.26674 14.9188 7.04019 14.0422 7.12851C13.1656 7.21682 12.3491 7.61417 11.7389 8.2496C11.1447 8.86773 10.774 9.66673 10.6859 10.5196C9.57085 10.6053 8.50282 11.0047 7.60505 11.6715C6.70729 12.3383 6.01643 13.2452 5.61219 14.2879C5.20796 15.3306 5.10687 16.4664 5.32057 17.5641C5.53426 18.6617 6.05403 19.6766 6.81989 20.4915C7.34253 21.0529 7.97226 21.5041 8.67195 21.8182C9.37164 22.1323 10.1271 22.3031 10.8939 22.3206H29.4689C30.6647 22.2934 31.8093 21.8297 32.6869 21.0169C33.5645 20.2041 34.1144 19.0983 34.2331 17.908C34.3518 16.7178 34.031 15.5251 33.3312 14.555C32.6314 13.5849 31.6008 12.9045 30.4339 12.6417L30.4309 12.6427Z" fill="#E6E6E6" stroke="#E6E6E6" stroke-width="0.37" stroke-miterlimit="10"/>
</svg>
