<svg width="41" height="41" viewBox="0 0 41 41" fill="none" xmlns="http://www.w3.org/2000/svg">
<path d="M30.4305 12.6427C30.7419 10.8557 30.4039 9.01618 29.4775 7.45663C28.8106 6.31356 27.8494 5.37021 26.694 4.72494C25.5386 4.07967 24.2313 3.75617 22.9082 3.78793C21.5852 3.81969 20.2949 4.20563 19.1718 4.90561C18.0487 5.60558 17.1338 6.59391 16.5226 7.76767C15.7978 7.26674 14.9184 7.04019 14.0419 7.12851C13.1653 7.21682 12.3488 7.61417 11.7386 8.2496C11.1443 8.86773 10.7737 9.66673 10.6855 10.5196C9.57121 10.6058 8.50395 11.0052 7.60679 11.6717C6.70963 12.3382 6.01914 13.2447 5.61491 14.2867C5.21068 15.3287 5.10916 16.4637 5.32212 17.5609C5.53509 18.658 6.05383 19.6726 6.81852 20.4876C7.34116 21.049 7.97088 21.4999 8.67057 21.8141C9.37026 22.1282 10.1258 22.2992 10.8926 22.3167H29.4645C30.6604 22.2895 31.805 21.8256 32.6826 21.0128C33.5602 20.2 34.1101 19.0944 34.2288 17.9041C34.3475 16.7139 34.0267 15.5212 33.3268 14.5511C32.627 13.581 31.5965 12.9003 30.4295 12.6375L30.4305 12.6427Z" fill="#E6E6E6" stroke="#E6E6E6" stroke-width="0.37" stroke-miterlimit="10"/>
<path d="M30.4305 12.6427C30.7419 10.8557 30.4039 9.01618 29.4775 7.45663C28.8106 6.31356 27.8494 5.37021 26.694 4.72494C25.5386 4.07967 24.2313 3.75617 22.9082 3.78793C21.5852 3.81969 20.2949 4.20563 19.1718 4.90561C18.0487 5.60558 17.1338 6.59391 16.5226 7.76767C15.7978 7.26674 14.9184 7.04019 14.0419 7.12851C13.1653 7.21682 12.3488 7.61417 11.7386 8.2496C11.1443 8.86773 10.7737 9.66673 10.6855 10.5196C9.57121 10.6058 8.50395 11.0052 7.60679 11.6717C6.70963 12.3382 6.01914 13.2447 5.61491 14.2867C5.21068 15.3287 5.10916 16.4637 5.32212 17.5609C5.53509 18.658 6.05383 19.6726 6.81852 20.4876C7.34116 21.049 7.97088 21.4999 8.67057 21.8141C9.37026 22.1282 10.1258 22.2992 10.8926 22.3167H29.4645C30.6604 22.2895 31.805 21.8256 32.6826 21.0128C33.5602 20.2 34.1101 19.0944 34.2288 17.9041C34.3475 16.7139 34.0267 15.5212 33.3268 14.5511C32.627 13.581 31.5965 12.9003 30.4295 12.6375L30.4305 12.6427Z" fill="#E6E6E6" stroke="#E6E6E6" stroke-width="0.37" stroke-miterlimit="10"/>
<path d="M30.4305 12.6427C30.7419 10.8557 30.4039 9.01618 29.4775 7.45663C28.8106 6.31356 27.8494 5.37021 26.694 4.72494C25.5386 4.07967 24.2313 3.75617 22.9082 3.78793C21.5852 3.81969 20.2949 4.20563 19.1718 4.90561C18.0487 5.60558 17.1338 6.59391 16.5226 7.76767C15.7978 7.26674 14.9184 7.04019 14.0419 7.12851C13.1653 7.21682 12.3488 7.61417 11.7386 8.2496C11.1443 8.86773 10.7737 9.66673 10.6855 10.5196C9.57121 10.6058 8.50395 11.0052 7.60679 11.6717C6.70963 12.3382 6.01914 13.2447 5.61491 14.2867C5.21068 15.3287 5.10916 16.4637 5.32212 17.5609C5.53509 18.658 6.05383 19.6726 6.81852 20.4876C7.34116 21.049 7.97088 21.4999 8.67057 21.8141C9.37026 22.1282 10.1258 22.2992 10.8926 22.3167H29.4645C30.6604 22.2895 31.805 21.8256 32.6826 21.0128C33.5602 20.2 34.1101 19.0944 34.2288 17.9041C34.3475 16.7139 34.0267 15.5212 33.3268 14.5511C32.627 13.581 31.5965 12.9003 30.4295 12.6375L30.4305 12.6427Z" fill="#E6E6E6" stroke="#E6E6E6" stroke-width="0.37" stroke-miterlimit="10"/>
<path d="M18.4947 32.7736C17.4197 34.6656 16.7026 36.7477 18.5446 37.0827C18.8057 37.1136 19.0704 37.0813 19.3162 36.9882C19.562 36.8951 19.7817 36.7439 19.9566 36.5478C20.3069 36.1503 20.5808 35.6916 20.7647 35.1947C21.4357 33.5313 22.0033 31.828 22.4646 30.0946C22.8733 28.8942 23.1028 27.6401 23.1457 26.3727C23.1457 26.6017 22.4706 27.2346 22.3366 27.4076C21.8616 28.0246 21.3787 28.6357 20.9117 29.2587C20.0293 30.3757 19.2218 31.5498 18.4947 32.7736Z" fill="#70AFED" stroke="#70AFED" stroke-width="0.092" stroke-miterlimit="10"/>
<path d="M25.7186 28.4337C25.3536 28.9587 24.5776 30.3496 25.8056 30.5446C25.9531 30.5613 26.1024 30.5458 26.2433 30.4992C26.3842 30.4526 26.5132 30.3761 26.6216 30.2748C26.8202 30.08 26.9788 29.8482 27.0886 29.5927C27.4738 28.7578 27.8012 27.8975 28.0686 27.0177C28.3033 26.4183 28.4362 25.784 28.4616 25.1408C28.4616 25.1408 26.5326 27.2687 25.7186 28.4337Z" fill="#70AFED" stroke="#70AFED" stroke-width="0.092" stroke-miterlimit="10"/>
<path d="M31.9516 12.7257C32.2621 10.9387 31.9242 9.09956 30.9987 7.5397C30.5016 6.68985 29.8403 5.94759 29.0532 5.35611C28.2662 4.76462 27.3692 4.33569 26.4146 4.09464C25.8237 3.94412 25.2164 3.86782 24.6066 3.86758C23.2536 3.87115 21.9273 4.2441 20.7707 4.9462C19.6141 5.6483 18.6712 6.65302 18.0436 7.85172C17.3192 7.35027 16.4397 7.12319 15.5631 7.21133C14.6864 7.29948 13.8698 7.69704 13.2597 8.33267C12.6654 8.95081 12.2948 9.7498 12.2066 10.6027C11.0916 10.6884 10.0236 11.0877 9.1258 11.7545C8.22804 12.4213 7.53718 13.3283 7.13294 14.371C6.72871 15.4137 6.62762 16.5494 6.84132 17.6471C7.05501 18.7448 7.57478 19.7597 8.34065 20.5746C8.86325 21.136 9.49294 21.5872 10.1926 21.9013C10.8923 22.2154 11.6478 22.3862 12.4146 22.4037H30.9866C32.1832 22.3775 33.3288 21.9142 34.2073 21.1012C35.0857 20.2883 35.6362 19.1818 35.755 17.9909C35.8737 16.7999 35.5524 15.6067 34.8518 14.6364C34.1511 13.666 33.1195 12.9858 31.9516 12.7238V12.7257Z" fill="#E6E6E6" stroke="#E6E6E6" stroke-width="0.37" stroke-miterlimit="10"/>
<path d="M13.5395 30.6875C13.354 30.6847 13.1705 30.7267 13.0047 30.8101C12.839 30.8935 12.6958 31.0158 12.5876 31.1666C12.4073 31.3977 12.2898 31.6717 12.2466 31.9617C12.1353 32.3875 12.1677 32.8381 12.3385 33.2437C12.5236 33.556 12.8129 33.7929 13.1555 33.9129C13.4981 34.0329 13.8721 34.0283 14.2115 33.8997C14.4596 33.8105 14.6828 33.6631 14.8624 33.47C15.0419 33.2769 15.1726 33.0435 15.2436 32.7896C15.2919 32.5543 15.291 32.3114 15.2408 32.0765C15.1907 31.8415 15.0925 31.6195 14.9523 31.4244C14.8122 31.2292 14.6331 31.0654 14.4264 30.9429C14.2198 30.8204 13.99 30.742 13.7516 30.7127C13.6816 30.6994 13.6107 30.6909 13.5395 30.6875Z" fill="#6FD1EF" stroke="#6FD1EF" stroke-width="0.177" stroke-miterlimit="10"/>
<path d="M16.2437 30.3637C17.0437 28.7287 18.2606 26.4147 19.0646 24.7787" stroke="#70AFED" stroke-width="0.25" stroke-miterlimit="10"/>
<path d="M14.5856 28.7577C14.9776 27.8177 15.5976 26.5738 15.9536 25.6188" stroke="#70AFED" stroke-width="0.25" stroke-miterlimit="10"/>
<path d="M30.4305 12.6427C30.7419 10.8557 30.4039 9.01618 29.4775 7.45663C28.8106 6.31356 27.8494 5.37021 26.694 4.72494C25.5386 4.07967 24.2313 3.75617 22.9082 3.78793C21.5852 3.81969 20.2949 4.20563 19.1718 4.90561C18.0487 5.60558 17.1338 6.59391 16.5226 7.76767C15.7978 7.26674 14.9184 7.04019 14.0419 7.12851C13.1653 7.21682 12.3488 7.61417 11.7386 8.2496C11.1443 8.86773 10.7737 9.66673 10.6855 10.5196C9.57121 10.6058 8.50395 11.0052 7.60679 11.6717C6.70963 12.3382 6.01914 13.2447 5.61491 14.2867C5.21068 15.3287 5.10916 16.4637 5.32212 17.5609C5.53509 18.658 6.05383 19.6726 6.81852 20.4876C7.34116 21.049 7.97088 21.4999 8.67057 21.8141C9.37026 22.1282 10.1258 22.2992 10.8926 22.3167H29.4645C30.6604 22.2895 31.805 21.8256 32.6826 21.0128C33.5602 20.2 34.1101 19.0944 34.2288 17.9041C34.3475 16.7139 34.0267 15.5212 33.3268 14.5511C32.627 13.581 31.5965 12.9003 30.4295 12.6375L30.4305 12.6427Z" fill="#E6E6E6" stroke="#E6E6E6" stroke-width="0.37" stroke-miterlimit="10"/>
<path d="M30.4305 12.6427C30.7419 10.8557 30.4039 9.01618 29.4775 7.45663C28.8106 6.31356 27.8494 5.37021 26.694 4.72494C25.5386 4.07967 24.2313 3.75617 22.9082 3.78793C21.5852 3.81969 20.2949 4.20563 19.1718 4.90561C18.0487 5.60558 17.1338 6.59391 16.5226 7.76767C15.7978 7.26674 14.9184 7.04019 14.0419 7.12851C13.1653 7.21682 12.3488 7.61417 11.7386 8.2496C11.1443 8.86773 10.7737 9.66673 10.6855 10.5196C9.57121 10.6058 8.50395 11.0052 7.60679 11.6717C6.70963 12.3382 6.01914 13.2447 5.61491 14.2867C5.21068 15.3287 5.10916 16.4637 5.32212 17.5609C5.53509 18.658 6.05383 19.6726 6.81852 20.4876C7.34116 21.049 7.97088 21.4999 8.67057 21.8141C9.37026 22.1282 10.1258 22.2992 10.8926 22.3167H29.4645C30.6604 22.2895 31.805 21.8256 32.6826 21.0128C33.5602 20.2 34.1101 19.0944 34.2288 17.9041C34.3475 16.7139 34.0267 15.5212 33.3268 14.5511C32.627 13.581 31.5965 12.9003 30.4295 12.6375L30.4305 12.6427Z" fill="#E6E6E6" stroke="#E6E6E6" stroke-width="0.37" stroke-miterlimit="10"/>
<path d="M30.4305 12.6427C30.7419 10.8557 30.4039 9.01618 29.4775 7.45663C28.8106 6.31356 27.8494 5.37021 26.694 4.72494C25.5386 4.07967 24.2313 3.75617 22.9082 3.78793C21.5852 3.81969 20.2949 4.20563 19.1718 4.90561C18.0487 5.60558 17.1338 6.59391 16.5226 7.76767C15.7978 7.26674 14.9184 7.04019 14.0419 7.12851C13.1653 7.21682 12.3488 7.61417 11.7386 8.2496C11.1443 8.86773 10.7737 9.66673 10.6855 10.5196C9.57121 10.6058 8.50395 11.0052 7.60679 11.6717C6.70963 12.3382 6.01914 13.2447 5.61491 14.2867C5.21068 15.3287 5.10916 16.4637 5.32212 17.5609C5.53509 18.658 6.05383 19.6726 6.81852 20.4876C7.34116 21.049 7.97088 21.4999 8.67057 21.8141C9.37026 22.1282 10.1258 22.2992 10.8926 22.3167H29.4645C30.6604 22.2895 31.805 21.8256 32.6826 21.0128C33.5602 20.2 34.1101 19.0944 34.2288 17.9041C34.3475 16.7139 34.0267 15.5212 33.3268 14.5511C32.627 13.581 31.5965 12.9003 30.4295 12.6375L30.4305 12.6427Z" fill="#E6E6E6" stroke="#E6E6E6" stroke-width="0.37" stroke-miterlimit="10"/>
</svg>
