<svg width="41" height="41" viewBox="0 0 41 41" fill="none" xmlns="http://www.w3.org/2000/svg">
<path d="M17.5568 33.8865C17.378 33.8836 17.2011 33.9242 17.0414 34.0047C16.8817 34.0851 16.7439 34.2032 16.6398 34.3487C16.4655 34.5707 16.3521 34.8343 16.3108 35.1135C16.2042 35.5241 16.2351 35.9583 16.3988 36.3496C16.5772 36.6508 16.8562 36.8793 17.1866 36.9949C17.5169 37.1105 17.8775 37.1059 18.2047 36.9817C18.4437 36.8958 18.6586 36.7539 18.8316 36.5679C19.0045 36.3819 19.1304 36.1572 19.1988 35.9126C19.2451 35.6859 19.244 35.4521 19.1956 35.2259C19.1471 34.9996 19.0523 34.7858 18.9173 34.5979C18.7822 34.4101 18.6097 34.2523 18.4107 34.1343C18.2116 34.0163 17.9904 33.9409 17.7608 33.9126C17.6934 33.8994 17.6253 33.8906 17.5568 33.8865Z" fill="#6FD1EF" stroke="#6FD1EF" stroke-width="0.09" stroke-miterlimit="10"/>
<path d="M12.7188 30.4319C12.5949 30.43 12.4723 30.4579 12.3615 30.5136C12.2508 30.5694 12.1552 30.651 12.0829 30.7517C11.9622 30.906 11.8837 31.0889 11.8548 31.2827C11.7807 31.5673 11.8022 31.8686 11.9159 32.1399C12.0398 32.3484 12.2332 32.5065 12.4621 32.5866C12.6911 32.6667 12.9409 32.6636 13.1678 32.5778C13.3336 32.5185 13.4827 32.4202 13.6026 32.2912C13.7225 32.1623 13.8096 32.0065 13.8568 31.8369C13.8892 31.6794 13.8886 31.5168 13.855 31.3596C13.8213 31.2023 13.7555 31.0538 13.6615 30.9233C13.5675 30.7928 13.4474 30.6832 13.3089 30.6015C13.1704 30.5199 13.0164 30.4678 12.8568 30.4487C12.8112 30.4399 12.7652 30.4344 12.7188 30.4319Z" fill="#6FD1EF" stroke="#6FD1EF" stroke-width="0.09" stroke-miterlimit="10"/>
<path d="M26.0267 31.4619C25.9027 31.4603 25.7801 31.4885 25.6694 31.5444C25.5587 31.6003 25.4631 31.6819 25.3907 31.7827C25.2699 31.9365 25.1913 32.1192 25.1627 32.3127C25.0886 32.5973 25.11 32.8986 25.2237 33.1699C25.3474 33.3787 25.5408 33.537 25.7699 33.6171C25.9989 33.6973 26.2488 33.694 26.4757 33.6079C26.6415 33.5485 26.7906 33.4502 26.9105 33.3212C27.0304 33.1923 27.1176 33.0363 27.1648 32.8666C27.1972 32.7091 27.1966 32.5468 27.1629 32.3896C27.1293 32.2324 27.0633 32.0838 26.9693 31.9533C26.8753 31.8228 26.7553 31.7132 26.6168 31.6315C26.4783 31.5499 26.3244 31.4978 26.1648 31.4787C26.1192 31.47 26.073 31.4645 26.0267 31.4619Z" fill="#6FD1EF" stroke="#6FD1EF" stroke-width="0.09" stroke-miterlimit="10"/>
<path d="M19.5188 33.1776C20.2938 31.6016 22.9978 25.7358 23.7738 24.1598" stroke="#70AFED" stroke-width="0.179" stroke-miterlimit="10"/>
<path d="M18.7258 31.2687C19.1038 30.3627 20.4308 27.2297 20.7728 26.3097" stroke="#70AFED" stroke-width="0.179" stroke-miterlimit="10"/>
<path d="M27.0588 30.4628C27.4358 29.5568 28.0009 27.8566 28.3439 26.9366" stroke="#70AFED" stroke-width="0.179" stroke-miterlimit="10"/>
<path d="M14.3809 27.9537C14.7579 27.0477 15.3239 25.3476 15.6659 24.4276" stroke="#70AFED" stroke-width="0.179" stroke-miterlimit="10"/>
<path d="M31.2639 12.4748C31.5753 10.6878 31.2372 8.84831 30.3109 7.28877C29.6438 6.14598 28.6825 5.20307 27.5272 4.55805C26.3718 3.91303 25.0646 3.58942 23.7418 3.62129C22.4189 3.65315 21.1288 4.03931 20.0058 4.73921C18.8828 5.4391 17.968 6.42721 17.3568 7.60078C16.6321 7.09926 15.7526 6.87225 14.8758 6.9604C13.999 7.04854 13.1822 7.44602 12.5718 8.08173C11.978 8.70013 11.6075 9.49899 11.5189 10.3518C10.4039 10.4376 9.33593 10.837 8.4383 11.5039C7.54067 12.1707 6.84999 13.0779 6.44587 14.1206C6.04175 15.1632 5.94075 16.2988 6.15449 17.3964C6.36823 18.494 6.88805 19.5088 7.65388 20.3237C8.17637 20.8852 8.80596 21.3364 9.50568 21.6506C10.2054 21.9647 10.961 22.1355 11.7279 22.1528H30.2988C31.4954 22.1265 32.641 21.6632 33.5195 20.8503C34.3979 20.0374 34.9484 18.9309 35.0671 17.7399C35.1858 16.549 34.8645 15.3558 34.1639 14.3854C33.4632 13.4151 32.4317 12.7348 31.2639 12.4728V12.4748Z" fill="#E6E6E6" stroke="#E6E6E6" stroke-width="0.37" stroke-miterlimit="10"/>
</svg>
