<svg width="41" height="41" viewBox="0 0 41 41" fill="none" xmlns="http://www.w3.org/2000/svg">
<path d="M37.1718 26.2987C35.5808 28.6397 32.7828 29.3917 30.7438 27.8497C28.8818 26.4427 27.2688 26.2898 25.3118 27.6078C24.425 28.284 23.3263 28.622 22.2128 28.5614C21.0993 28.5007 20.0438 28.0452 19.2357 27.2767C18.6699 26.7505 17.9279 26.4547 17.1552 26.4471C16.3825 26.4395 15.6348 26.7207 15.0587 27.2357C12.3697 29.0977 10.9718 29.0996 8.37576 27.1556C7.82017 26.6737 7.10877 26.4096 6.37332 26.412C5.63786 26.4143 4.9282 26.6831 4.37576 27.1686C4.02476 27.4146 3.56374 27.8806 3.23074 27.2376C3.01074 26.8116 3.49874 26.5567 3.80874 26.3167C4.53342 25.7153 5.4449 25.3849 6.38662 25.3822C7.32834 25.3794 8.24159 25.7044 8.96975 26.3016C9.67112 26.9798 10.5977 27.3758 11.5725 27.4142C12.5474 27.4525 13.5023 27.1306 14.2548 26.5096C16.3308 25.1096 18.2547 25.0147 20.2617 26.6937C20.854 27.2026 21.6043 27.4907 22.3849 27.5089C23.1655 27.5271 23.9283 27.2742 24.5437 26.7936C26.8687 25.1716 28.9748 25.0116 31.2638 26.8546C32.4578 27.8166 33.8937 27.5237 35.2357 26.9027C35.7977 26.6367 36.2218 25.9607 37.1718 26.2987Z" fill="#E6E6E6" stroke="#E6E6E6" stroke-width="0.399" stroke-miterlimit="10"/>
<path d="M37.0687 12.2167C36.7986 12.7809 36.4086 13.2792 35.9257 13.6767C35.4428 14.0742 34.8789 14.3614 34.2734 14.518C33.6678 14.6746 33.0353 14.697 32.4202 14.5834C31.8052 14.4699 31.2224 14.2233 30.7127 13.8608C29.9862 13.1737 29.0345 12.7745 28.0353 12.7377C27.0361 12.7009 26.0577 13.0291 25.2826 13.6608C24.415 14.3602 23.3206 14.7159 22.2076 14.6606C21.0946 14.6053 20.0407 14.1427 19.2466 13.3608C18.6941 12.8624 17.9808 12.5794 17.2369 12.5634C16.4929 12.5474 15.768 12.7996 15.1946 13.2739C12.8286 14.8369 10.5817 15.0846 8.24566 13.1786C7.08166 12.2276 5.75571 12.5136 4.49871 13.1786C4.12071 13.3786 3.61473 13.9057 3.28973 13.3627C2.91473 12.7377 3.62366 12.4578 4.04766 12.2038C5.73466 11.1948 7.45765 10.9959 9.03265 12.3679C9.7023 13.0327 10.5954 13.4245 11.5381 13.4672C12.4808 13.5099 13.4057 13.2004 14.1327 12.5988C16.2947 11.0988 18.2907 11.0988 20.3137 12.7988C21.7787 14.0278 23.3246 13.7368 24.7206 12.7338C26.8996 11.1678 28.9027 11.0178 31.0207 12.8818C31.6081 13.3899 32.3524 13.6805 33.1287 13.7045C33.905 13.7286 34.6661 13.4847 35.2837 13.0138C35.8227 12.6928 36.2947 12.1757 37.0687 12.2167Z" fill="#E6E6E6" stroke="#E6E6E6" stroke-width="0.399" stroke-miterlimit="10"/>
<path d="M37.0986 16.9666C35.6046 19.1956 32.8516 20.0146 30.9386 18.5596C28.9056 17.0136 27.1956 16.8505 25.0116 18.3245C24.199 18.9303 23.1986 19.2297 22.1868 19.1697C21.175 19.1097 20.2169 18.6943 19.4817 17.9966C18.9402 17.4373 18.2073 17.1032 17.4299 17.0613C16.6526 17.0194 15.8882 17.2727 15.2897 17.7705C12.8137 19.5755 10.5327 19.7466 8.11767 17.5986C6.77967 16.4086 5.35466 17.2467 3.95666 17.8797C3.91151 17.9004 3.86197 17.9097 3.81237 17.907C3.76278 17.9043 3.71462 17.8895 3.67199 17.864C3.62936 17.8385 3.59359 17.8032 3.56774 17.7608C3.5419 17.7183 3.52678 17.6702 3.52368 17.6206C3.46768 16.1586 6.65765 15.2315 8.12365 16.4265C10.5937 18.4415 12.7966 18.4786 15.2866 16.5786C15.9252 16.0707 16.734 15.8265 17.547 15.896C18.36 15.9656 19.1156 16.3437 19.6587 16.9527C20.3258 17.6706 21.2452 18.1021 22.2238 18.1565C23.2023 18.211 24.1639 17.8842 24.9066 17.2446C27.0276 15.7446 28.9726 15.5667 31.0156 17.3997C32.2506 18.5077 33.6936 18.3156 35.1156 17.6126C35.7136 17.3176 36.2296 16.6476 37.0986 16.9666Z" fill="#E6E6E6" stroke="#E6E6E6" stroke-width="0.399" stroke-miterlimit="10"/>
<path d="M3.2356 22.5556C4.6406 20.4946 6.8036 19.9266 8.7926 21.5356C10.9736 23.2996 12.8206 23.0595 14.8806 21.5185C15.5543 20.9526 16.414 20.6568 17.2933 20.6882C18.1726 20.7196 19.009 21.0759 19.6406 21.6884C21.5206 23.2574 23.3347 23.1095 25.2787 21.8005C27.5737 20.2565 28.5887 20.3185 30.8007 22.0515C31.3568 22.5317 32.0455 22.832 32.7758 22.9131C33.5061 22.9941 34.2437 22.8521 34.8916 22.5056C35.5776 22.1916 36.1497 21.5484 37.0767 21.5644C36.8242 22.1178 36.4539 22.6096 35.9918 23.0051C35.5297 23.4006 34.9869 23.6905 34.4011 23.8545C33.8154 24.0184 33.201 24.0526 32.6007 23.9546C32.0004 23.8565 31.4287 23.6285 30.9257 23.2866C28.8097 21.6096 27.0686 21.5285 24.8746 23.1755C24.1392 23.7217 23.2398 24.0015 22.3242 23.969C21.4087 23.9364 20.5315 23.5936 19.8367 22.9965C17.9627 21.5085 16.3556 21.6075 14.4366 22.9565C13.6718 23.5705 12.7214 23.9072 11.7406 23.9113C10.7598 23.9155 9.80664 23.5869 9.03662 22.9795C7.40962 21.7165 5.86661 21.4306 4.12061 22.5996C4.0614 22.6583 3.99058 22.704 3.91272 22.7339C3.83486 22.7637 3.75173 22.7768 3.66846 22.7727C3.58519 22.7685 3.50372 22.7471 3.4292 22.7097C3.35468 22.6723 3.28869 22.6199 3.2356 22.5556Z" fill="#E6E6E6" stroke="#E6E6E6" stroke-width="0.399" stroke-miterlimit="10"/>
</svg>
