<svg width="41" height="41" viewBox="0 0 41 41" fill="none" xmlns="http://www.w3.org/2000/svg">
<path d="M16.3948 32.7329C15.2098 34.7879 14.4188 37.0508 16.4498 37.4148C16.7368 37.4483 17.0276 37.4133 17.2984 37.3122C17.5691 37.2112 17.8119 37.0471 18.0068 36.8337C18.3923 36.4032 18.6945 35.9047 18.8978 35.3638C19.6367 33.5556 20.2615 31.7031 20.7688 29.8169C21.2197 28.514 21.4729 27.1506 21.5198 25.7727C21.5198 26.0217 20.7748 26.7097 20.6278 26.8977C20.1038 27.5677 19.5708 28.2307 19.0568 28.9087C18.0854 30.1227 17.1961 31.4004 16.3948 32.7329Z" fill="#70AFED" stroke="#70AFED" stroke-width="0.101" stroke-miterlimit="10"/>
<path d="M24.3627 28.0178C23.9627 28.5878 23.1048 30.0998 24.4628 30.3108C24.625 30.3296 24.7894 30.3133 24.9448 30.2627C25.1001 30.2121 25.2427 30.1286 25.3627 30.0178C25.5816 29.8072 25.7567 29.5554 25.8777 29.2768C26.3022 28.3696 26.6634 27.4339 26.9587 26.4768C27.2178 25.8266 27.3642 25.137 27.3917 24.4377C27.3917 24.4377 25.2577 26.7518 24.3627 28.0178Z" fill="#70AFED" stroke="#70AFED" stroke-width="0.101" stroke-miterlimit="10"/>
<path d="M13.2339 28.6929C12.8339 29.2619 11.9758 30.7738 13.3338 30.9858C13.4961 31.0043 13.6604 30.9875 13.8157 30.937C13.971 30.8864 14.1136 30.8033 14.2339 30.6929C14.4518 30.4817 14.6264 30.23 14.7478 29.9519C15.1726 29.0447 15.5338 28.1091 15.8288 27.1518C16.0877 26.5012 16.2344 25.8114 16.2629 25.1118C16.2629 25.1118 14.1279 27.4259 13.2339 28.6929Z" fill="#70AFED" stroke="#70AFED" stroke-width="0.101" stroke-miterlimit="10"/>
<path d="M8.99979 27.2058C8.71479 27.6058 8.10876 28.6808 9.06876 28.8308C9.18363 28.8436 9.29996 28.8315 9.40983 28.7956C9.5197 28.7598 9.62059 28.7009 9.70579 28.6228C9.86064 28.4734 9.98464 28.2951 10.0708 28.0979C10.3714 27.4557 10.627 26.7933 10.8358 26.1157C11.0197 25.655 11.1238 25.1665 11.1438 24.6709C11.1438 24.6709 9.63379 26.3078 8.99979 27.2058Z" fill="#70AFED" stroke="#70AFED" stroke-width="0.101" stroke-miterlimit="10"/>
<path d="M35.5299 10.5998C35.7182 9.49752 35.5089 8.36407 34.9393 7.40179C34.3697 6.43951 33.4768 5.71101 32.4198 5.34588C31.3629 4.98076 30.2106 5.00289 29.1685 5.40838C28.1264 5.81387 27.2621 6.57629 26.7299 7.55975C26.2699 7.24674 25.7146 7.10526 25.161 7.16009C24.6073 7.21493 24.0905 7.46264 23.7009 7.8598C23.3259 8.24342 23.0912 8.74232 23.0349 9.27581C22.1143 9.33609 21.2492 9.73725 20.6086 10.4011C19.9679 11.0649 19.5975 11.9435 19.5699 12.8657C19.5582 13.3498 19.6421 13.8315 19.8168 14.2831C19.9915 14.7348 20.2535 15.1475 20.5879 15.4977C20.9222 15.848 21.3224 16.129 21.7655 16.3244C22.2085 16.5198 22.6858 16.6259 23.1699 16.6367H34.9189C35.6745 16.6364 36.4031 16.3558 36.9636 15.8491C37.5241 15.3423 37.8765 14.6455 37.9526 13.8937C38.0286 13.142 37.8229 12.3887 37.3753 11.78C36.9278 11.1712 36.2701 10.7514 35.5299 10.5998Z" fill="#E6E6E6" stroke="#E6E6E6" stroke-width="0.405" stroke-miterlimit="10"/>
<path d="M28.8279 13.1227C29.1207 11.3951 28.7908 9.61954 27.8971 8.11225C27.0035 6.60495 25.6039 5.46358 23.9476 4.89155C22.2912 4.31952 20.4857 4.35394 18.8523 4.98847C17.2189 5.623 15.8637 6.81648 15.0279 8.35663C14.4957 7.99482 13.8789 7.77724 13.2375 7.72504C12.5961 7.67285 11.9522 7.78801 11.3685 8.05903C10.7849 8.33004 10.2815 8.74776 9.90752 9.27143C9.53356 9.7951 9.3018 10.4068 9.23486 11.0468C7.79189 11.1415 6.43599 11.7706 5.43194 12.8112C4.42789 13.8519 3.84778 15.2293 3.80486 16.6747C3.78679 17.433 3.91825 18.1875 4.19176 18.895C4.46528 19.6024 4.87552 20.2489 5.39898 20.7978C5.92244 21.3467 6.54892 21.7872 7.24261 22.0939C7.93629 22.4007 8.68361 22.5677 9.44189 22.5856H27.8708C29.0555 22.5856 30.1979 22.1459 31.0767 21.3515C31.9555 20.5571 32.5081 19.4647 32.6274 18.2861C32.7467 17.1075 32.4241 15.9267 31.7223 14.9724C31.0205 14.018 29.9894 13.3582 28.8288 13.1208L28.8279 13.1227Z" fill="#E6E6E6" stroke="white" stroke-width="0.304" stroke-miterlimit="10"/>
</svg>
