<svg width="41" height="41" viewBox="0 0 41 41" fill="none" xmlns="http://www.w3.org/2000/svg">
<path d="M30.7192 11.9018C31.0147 10.2021 30.6955 8.4526 29.8188 6.96676C28.9421 5.48092 27.5652 4.35586 25.9345 3.79269C24.3038 3.22951 22.5258 3.26513 20.919 3.89327C19.3122 4.52142 17.9816 5.70085 17.1652 7.22067C16.4569 6.73937 15.6021 6.52222 14.7499 6.60665C13.8977 6.69108 13.1022 7.0719 12.5021 7.68282C11.9246 8.27337 11.5631 9.04136 11.4761 9.86276C10.059 9.95566 8.72736 10.5734 7.74125 11.5954C6.75514 12.6174 6.18534 13.9703 6.14311 15.3899C6.10849 16.893 6.67225 18.3484 7.71037 19.436C8.74849 20.5236 10.176 21.1543 11.6791 21.1897H29.7792C30.9358 21.1784 32.0476 20.7412 32.9019 19.9614C33.7562 19.1816 34.2928 18.1141 34.4093 16.9633C34.5258 15.8126 34.2139 14.6592 33.5332 13.7241C32.8526 12.7889 31.851 12.1376 30.7201 11.8947L30.7192 11.9018Z" fill="#E6E6E6" stroke="#E6E6E6" stroke-width="0.389" stroke-miterlimit="10"/>
<path d="M25.3482 24.3948C25.2942 24.4006 25.2445 24.4263 25.2088 24.4671C25.173 24.5079 25.1539 24.5606 25.1552 24.6148V25.7769L24.2091 24.9878C24.1868 24.9687 24.1609 24.9544 24.1328 24.9456C24.1048 24.9368 24.0754 24.9338 24.0462 24.9368C24.0027 24.9403 23.9613 24.957 23.9275 24.9844C23.8937 25.0118 23.8689 25.0486 23.8565 25.0904C23.844 25.1321 23.8445 25.1768 23.8578 25.2183C23.8711 25.2598 23.8967 25.2961 23.9312 25.3228L25.1552 26.3428V28.7969L23.0361 27.597L22.7621 25.9969C22.752 25.9426 22.7217 25.8943 22.6773 25.8616C22.6328 25.829 22.5775 25.8145 22.5227 25.8211C22.4679 25.8277 22.4177 25.855 22.3823 25.8973C22.3469 25.9396 22.329 25.9938 22.3322 26.0489V26.0709L22.5452 27.3148L21.4641 26.702C21.4267 26.6788 21.383 26.6679 21.3391 26.671C21.2822 26.6753 21.2293 26.7019 21.1919 26.7449C21.1545 26.788 21.1356 26.844 21.1392 26.9009C21.1416 26.9374 21.1531 26.9728 21.1726 27.0037C21.1922 27.0346 21.2191 27.0601 21.2511 27.0779L22.2952 27.671L21.1741 28.0838C21.1459 28.0912 21.1195 28.1042 21.0964 28.1221C21.0734 28.14 21.0543 28.1626 21.0401 28.188C21.0258 28.2135 21.0168 28.2416 21.0137 28.2706C21.0106 28.2996 21.0134 28.3288 21.0219 28.3567C21.0303 28.3847 21.0443 28.4105 21.063 28.4329C21.0817 28.4553 21.1048 28.4736 21.1307 28.4869C21.1567 28.5001 21.1851 28.508 21.2142 28.5101C21.2433 28.5121 21.2726 28.5083 21.3002 28.4988L21.3231 28.4908L22.7902 27.952L24.9321 29.1688L22.7902 30.3848L21.3231 29.8428C21.296 29.8313 21.2669 29.8254 21.2374 29.8255C21.208 29.8256 21.1789 29.8316 21.1519 29.8433C21.1248 29.855 21.1004 29.8722 21.0802 29.8936C21.06 29.915 21.0444 29.9402 21.0343 29.9678C21.0242 29.9955 21.0198 30.0249 21.0214 30.0543C21.023 30.0837 21.0306 30.1126 21.0437 30.139C21.0568 30.1653 21.075 30.1887 21.0974 30.2078C21.1199 30.2269 21.1459 30.2411 21.1741 30.2498L22.2952 30.6629L21.2511 31.2559C21.2011 31.2847 21.1647 31.3321 21.1497 31.3877C21.1347 31.4434 21.1424 31.5028 21.1712 31.5528C21.1999 31.6028 21.2474 31.6393 21.3031 31.6544C21.3588 31.6694 21.4182 31.6616 21.4682 31.6329L22.5531 31.0159L22.3361 32.2627C22.3254 32.3184 22.3371 32.3762 22.3683 32.4234C22.3995 32.4706 22.448 32.5037 22.5033 32.5157C22.5586 32.5277 22.6164 32.5176 22.6644 32.4876C22.7124 32.4576 22.7468 32.4098 22.7601 32.3548V32.337L23.0341 30.7369L25.1531 29.5369V31.9908L23.9291 33.0108C23.9053 33.0284 23.8853 33.0508 23.8704 33.0765C23.8555 33.1021 23.846 33.1305 23.8424 33.16C23.8389 33.1894 23.8413 33.2192 23.8496 33.2476C23.858 33.2761 23.8721 33.3024 23.891 33.3252C23.9099 33.3481 23.9333 33.367 23.9597 33.3804C23.9861 33.3939 24.0151 33.4017 24.0447 33.4036C24.0743 33.4055 24.1039 33.4013 24.1318 33.3914C24.1598 33.3815 24.1854 33.3659 24.2072 33.3458L25.1531 32.5569V33.722C25.1507 33.7516 25.1544 33.7813 25.164 33.8094C25.1735 33.8375 25.1887 33.8633 25.2086 33.8853C25.2286 33.9073 25.2527 33.9251 25.2798 33.9373C25.3069 33.9496 25.3362 33.9561 25.3659 33.9566C25.3956 33.9571 25.4251 33.9516 25.4525 33.9402C25.48 33.9289 25.5048 33.9118 25.5254 33.8904C25.546 33.8691 25.5621 33.8438 25.5725 33.816C25.583 33.7882 25.5875 33.7585 25.5861 33.7288V32.5569L26.5321 33.3458C26.5769 33.3789 26.6327 33.3937 26.688 33.387C26.7433 33.3803 26.794 33.3527 26.8296 33.3099C26.8652 33.267 26.883 33.2122 26.8794 33.1565C26.8758 33.1009 26.8509 33.0487 26.8101 33.0108L25.5861 31.9908V29.5369L27.7041 30.7369L27.9791 32.337C27.982 32.3659 27.9907 32.3939 28.0047 32.4195C28.0186 32.445 28.0375 32.4676 28.0603 32.4857C28.0831 32.5037 28.1093 32.517 28.1373 32.5247C28.1654 32.5325 28.1948 32.5344 28.2236 32.5306C28.2525 32.5267 28.2802 32.5173 28.3053 32.5025C28.3304 32.4877 28.3522 32.468 28.3695 32.4446C28.3868 32.4212 28.3992 32.3946 28.406 32.3663C28.4128 32.338 28.4138 32.3085 28.4091 32.2798V32.2627L28.1922 31.0159L29.2761 31.6329C29.3261 31.6616 29.3855 31.6694 29.4412 31.6544C29.4969 31.6393 29.5444 31.6028 29.5731 31.5528C29.6019 31.5028 29.6096 31.4434 29.5946 31.3877C29.5796 31.3321 29.5432 31.2847 29.4932 31.2559L28.4501 30.6629L29.5712 30.2498C29.6202 30.2317 29.6611 30.1965 29.6863 30.1507C29.7115 30.1048 29.7192 30.0514 29.7081 30.0003C29.6971 29.9492 29.6679 29.9039 29.626 29.8726C29.5841 29.8413 29.5323 29.8261 29.4801 29.8299C29.4602 29.8313 29.4407 29.8356 29.4221 29.8428L27.9551 30.3848L25.8131 29.1688L27.9551 27.952L29.4221 28.4908C29.4752 28.5136 29.5351 28.5146 29.5888 28.4932C29.6424 28.4718 29.6853 28.4298 29.7081 28.3768C29.731 28.3237 29.7317 28.2639 29.7103 28.2103C29.689 28.1566 29.6472 28.1137 29.5941 28.0909L29.5712 28.0818L28.4501 27.6688L29.4932 27.076C29.5179 27.0617 29.5394 27.0427 29.5568 27.0201C29.5741 26.9975 29.5869 26.9717 29.5943 26.9441C29.6016 26.9166 29.6036 26.8879 29.5999 26.8597C29.5961 26.8314 29.5869 26.804 29.5726 26.7794C29.5584 26.7547 29.5393 26.733 29.5167 26.7156C29.4941 26.6983 29.4683 26.6857 29.4408 26.6783C29.4133 26.6709 29.3846 26.6689 29.3563 26.6727C29.3281 26.6764 29.3008 26.6855 29.2761 26.6998L28.1951 27.3128L28.4091 26.0689C28.4196 26.0124 28.4076 25.9541 28.3754 25.9065C28.3432 25.859 28.2934 25.8259 28.2371 25.8148C28.2211 25.8127 28.205 25.8127 28.1891 25.8148C28.1387 25.8163 28.0903 25.8355 28.0525 25.869C28.0147 25.9024 27.9898 25.948 27.9821 25.9979L27.7072 27.598L25.5891 28.7979V26.3438L26.8131 25.3238C26.854 25.2859 26.8787 25.2339 26.8823 25.1783C26.886 25.1227 26.8681 25.0678 26.8325 25.025C26.7969 24.9821 26.7464 24.9545 26.6911 24.9478C26.6357 24.9411 26.58 24.9557 26.5352 24.9888L25.5891 25.7779V24.6158C25.5899 24.5873 25.5851 24.5591 25.5748 24.5325C25.5646 24.5059 25.549 24.4816 25.5293 24.461C25.5096 24.4404 25.486 24.424 25.4599 24.4127C25.4337 24.4013 25.4056 24.3952 25.3771 24.3948C25.3674 24.3938 25.3578 24.3938 25.3482 24.3948Z" fill="#6FD1EF" stroke="#6FD1EF" stroke-width="0.097" stroke-miterlimit="10"/>
<path d="M13.719 23.7869C13.6878 23.7906 13.6591 23.8057 13.6384 23.8293C13.6177 23.853 13.6064 23.8834 13.6069 23.9148V24.5898L13.058 24.1309C13.0451 24.1199 13.0302 24.1117 13.014 24.1067C12.9978 24.1017 12.9808 24.1 12.964 24.1018C12.9389 24.1041 12.9152 24.114 12.8957 24.1299C12.8763 24.1458 12.862 24.1671 12.8548 24.1912C12.8476 24.2153 12.8478 24.2409 12.8553 24.2649C12.8628 24.2889 12.8773 24.3103 12.8969 24.3259L13.6069 24.9177V26.3428L12.378 25.6428L12.218 24.7168C12.214 24.6838 12.197 24.6536 12.1709 24.6331C12.1447 24.6125 12.1115 24.6034 12.0785 24.6074C12.0454 24.6114 12.0154 24.6281 11.9948 24.6543C11.9743 24.6805 11.965 24.7138 11.969 24.7468V24.7598L12.093 25.4819L11.4659 25.1257C11.4516 25.1166 11.4356 25.1106 11.4188 25.1079C11.402 25.1052 11.385 25.1058 11.3685 25.1099C11.352 25.1139 11.3366 25.1214 11.323 25.1316C11.3094 25.1418 11.298 25.1545 11.2895 25.1692C11.281 25.1839 11.2756 25.2002 11.2735 25.217C11.2715 25.2339 11.2728 25.251 11.2776 25.2673C11.2823 25.2836 11.2901 25.2989 11.3009 25.312C11.3116 25.3252 11.3249 25.3359 11.3399 25.3438L11.946 25.6877L11.295 25.9287C11.2793 25.9335 11.2645 25.9414 11.2518 25.9519C11.2391 25.9624 11.2286 25.9752 11.2208 25.9897C11.213 26.0043 11.2082 26.0202 11.2066 26.0366C11.205 26.053 11.2067 26.0694 11.2115 26.0852C11.2163 26.101 11.2241 26.1157 11.2346 26.1284C11.2451 26.1411 11.2579 26.1517 11.2724 26.1594C11.287 26.1672 11.3029 26.172 11.3193 26.1736C11.3357 26.1752 11.3523 26.1735 11.368 26.1687H11.381L12.233 25.8557L13.4759 26.5618L12.233 27.2678L11.381 26.9539C11.361 26.9458 11.3393 26.943 11.318 26.9458C11.2899 26.9498 11.264 26.9632 11.2445 26.9836C11.2249 27.0041 11.2128 27.0306 11.2102 27.0588C11.2075 27.087 11.2145 27.1151 11.2298 27.1389C11.2452 27.1627 11.2682 27.1806 11.295 27.1897L11.946 27.4299L11.3399 27.7739C11.3111 27.7907 11.29 27.8181 11.2813 27.8503C11.2727 27.8826 11.2772 27.9169 11.2939 27.9458C11.3107 27.9747 11.3382 27.9958 11.3703 28.0046C11.4025 28.0134 11.4368 28.0093 11.4659 27.9929L12.0949 27.6338L11.969 28.3579C11.9625 28.391 11.9694 28.4253 11.9881 28.4534C12.0069 28.4815 12.0359 28.5011 12.0689 28.5078C12.0854 28.5113 12.1024 28.5115 12.1189 28.5083C12.1354 28.5051 12.151 28.4988 12.165 28.4895C12.179 28.4802 12.191 28.4681 12.2003 28.4541C12.2096 28.4401 12.2159 28.4242 12.219 28.4077V28.3977L12.379 27.4707L13.608 26.7708V28.1948L12.8979 28.7869C12.8714 28.8082 12.8545 28.8392 12.8508 28.873C12.8472 28.9069 12.8572 28.9408 12.8785 28.9673C12.8999 28.9938 12.9308 29.0107 12.9647 29.0144C12.9985 29.0181 13.0324 29.0082 13.0589 28.9868L13.608 28.5288V29.2048C13.608 29.2383 13.6212 29.2703 13.6449 29.2939C13.6685 29.3176 13.7006 29.3308 13.734 29.3308C13.7674 29.3308 13.7995 29.3176 13.8231 29.2939C13.8467 29.2703 13.86 29.2383 13.86 29.2048V28.5249L14.4089 28.9829C14.422 28.9935 14.4372 29.0014 14.4533 29.0061C14.4695 29.0108 14.4865 29.0123 14.5033 29.0105C14.52 29.0087 14.5362 29.0034 14.551 28.9954C14.5658 28.9873 14.5789 28.9765 14.5895 28.9634C14.6 28.9502 14.6079 28.9351 14.6126 28.9189C14.6174 28.9028 14.619 28.8859 14.6172 28.8691C14.6154 28.8524 14.6102 28.8361 14.6021 28.8213C14.5941 28.8065 14.5831 28.7933 14.5699 28.7827L13.86 28.1909V26.7668L15.0899 27.4668L15.249 28.3938C15.2512 28.4102 15.2565 28.4261 15.2647 28.4404C15.273 28.4548 15.2841 28.4672 15.2972 28.4773C15.3104 28.4874 15.3254 28.4947 15.3414 28.499C15.3574 28.5033 15.3741 28.5044 15.3905 28.5022C15.4069 28.5 15.4228 28.4949 15.4371 28.4866C15.4514 28.4783 15.4639 28.4672 15.474 28.4541C15.4841 28.441 15.4915 28.4259 15.4958 28.4099C15.5001 28.3939 15.5012 28.3773 15.499 28.3608V28.3499L15.373 27.6257L16.003 27.9849C16.0321 28.0016 16.0665 28.006 16.0989 27.9973C16.1312 27.9886 16.1588 27.9673 16.1755 27.9382C16.1922 27.9092 16.1967 27.8749 16.188 27.8425C16.1792 27.8102 16.158 27.7826 16.129 27.7659L15.5229 27.4219L16.1739 27.1819C16.2052 27.1704 16.2306 27.1471 16.2449 27.1169C16.2591 27.0868 16.2609 27.0522 16.25 27.0208C16.2408 26.9946 16.223 26.9723 16.1997 26.9573C16.1763 26.9422 16.1486 26.9353 16.1209 26.9377C16.1093 26.9389 16.0979 26.9417 16.087 26.9458L15.2359 27.2598L13.9919 26.5537L15.2359 25.8479L16.087 26.1609C16.1022 26.1675 16.1185 26.1709 16.1351 26.1711C16.1517 26.1714 16.1683 26.1682 16.1837 26.1621C16.1991 26.156 16.2131 26.1471 16.225 26.1355C16.2368 26.1239 16.2465 26.11 16.253 26.0947C16.2596 26.0795 16.263 26.0632 16.2633 26.0466C16.2635 26.03 16.2605 26.0135 16.2544 25.998C16.2482 25.9826 16.2391 25.9687 16.2275 25.9568C16.216 25.9449 16.2022 25.9353 16.187 25.9287H16.1739L15.5229 25.6877L16.129 25.3438C16.1541 25.3299 16.1737 25.308 16.1845 25.2815C16.1954 25.255 16.197 25.2257 16.1889 25.1982C16.1809 25.1708 16.1638 25.1468 16.1404 25.1304C16.1169 25.1139 16.0885 25.1061 16.0599 25.1079C16.0397 25.1088 16.0201 25.1149 16.003 25.1257L15.375 25.4819L15.499 24.7598C15.5052 24.7269 15.4981 24.693 15.4793 24.6653C15.4606 24.6376 15.4318 24.6184 15.399 24.6118H15.381C15.3501 24.6111 15.32 24.6215 15.2961 24.6411C15.2723 24.6608 15.2562 24.6883 15.251 24.7188L15.092 25.6448L13.8619 26.3447V24.9199L14.572 24.3279C14.5848 24.3173 14.5953 24.3042 14.6031 24.2896C14.6109 24.2749 14.6157 24.259 14.6173 24.2424C14.6189 24.2259 14.6173 24.2092 14.6124 24.1934C14.6075 24.1775 14.5995 24.1627 14.589 24.1499C14.5784 24.1371 14.5654 24.1264 14.5508 24.1187C14.5361 24.1109 14.52 24.1061 14.5035 24.1045C14.487 24.1029 14.4703 24.1045 14.4544 24.1094C14.4386 24.1142 14.4238 24.1222 14.411 24.1328L13.8619 24.5918V23.9167C13.8624 23.9002 13.8598 23.8837 13.8539 23.8682C13.8479 23.8527 13.8389 23.8387 13.8275 23.8267C13.816 23.8147 13.8023 23.805 13.7871 23.7983C13.7719 23.7917 13.7556 23.7881 13.739 23.7878L13.719 23.7869Z" fill="#6FD1EF" stroke="#6FD1EF" stroke-width="0.058" stroke-miterlimit="10"/>
<path d="M17.3191 31.4758C17.2878 31.4793 17.259 31.4944 17.2382 31.5181C17.2175 31.5418 17.2064 31.5723 17.2071 31.6038V32.2788L16.658 31.8198C16.6452 31.8088 16.6303 31.8006 16.6141 31.7957C16.5979 31.7907 16.5809 31.7889 16.5641 31.7908C16.5387 31.7926 16.5146 31.802 16.4948 31.8179C16.475 31.8337 16.4605 31.8553 16.4532 31.8796C16.4459 31.904 16.4462 31.93 16.4541 31.9541C16.4619 31.9782 16.4769 31.9995 16.497 32.0149L17.2071 32.6069V34.0317L15.9771 33.3318L15.8181 32.4058C15.8129 32.3736 15.7955 32.3448 15.7695 32.3252C15.7435 32.3056 15.711 32.2969 15.6787 32.3008C15.6464 32.3047 15.6168 32.3208 15.5962 32.3459C15.5755 32.3711 15.5655 32.4034 15.5681 32.4358V32.4487L15.6921 33.1709L15.0641 32.8147C15.0425 32.8014 15.0173 32.7953 14.992 32.7969C14.9755 32.7978 14.9594 32.8019 14.9444 32.8091C14.9295 32.8163 14.9161 32.8263 14.905 32.8386C14.8939 32.851 14.8854 32.8655 14.88 32.8811C14.8745 32.8968 14.8722 32.9134 14.8731 32.9299C14.875 32.9506 14.882 32.9704 14.8933 32.9878C14.9046 33.0052 14.9199 33.0196 14.9381 33.0298L15.544 33.3738L14.893 33.6147C14.876 33.6185 14.86 33.6257 14.8459 33.636C14.8318 33.6463 14.8201 33.6595 14.8114 33.6746C14.8026 33.6896 14.797 33.7063 14.795 33.7236C14.793 33.7409 14.7946 33.7583 14.7998 33.7749C14.8049 33.7915 14.8134 33.8071 14.8248 33.8203C14.8362 33.8335 14.8502 33.8441 14.8659 33.8516C14.8817 33.8591 14.8988 33.8632 14.9162 33.8638C14.9336 33.8643 14.951 33.8612 14.9671 33.8547H14.9801L15.8321 33.5417L17.075 34.2478L15.8321 34.9539L14.9801 34.6399C14.9601 34.6318 14.9384 34.629 14.9171 34.6318C14.889 34.6357 14.863 34.6488 14.8434 34.6692C14.8237 34.6896 14.8115 34.7162 14.8087 34.7444C14.8059 34.7726 14.8128 34.8008 14.8281 34.8247C14.8434 34.8486 14.8662 34.8665 14.893 34.8757L15.544 35.1157L14.9381 35.4597C14.909 35.4764 14.8878 35.504 14.8791 35.5364C14.8704 35.5687 14.8749 35.6033 14.8916 35.6323C14.9083 35.6614 14.9359 35.6827 14.9682 35.6914C15.0006 35.7001 15.035 35.6954 15.0641 35.6787L15.6941 35.3198L15.5681 36.0437C15.5639 36.0601 15.5631 36.0773 15.5656 36.094C15.5682 36.1107 15.5741 36.1267 15.583 36.1411C15.5918 36.1555 15.6035 36.168 15.6173 36.1777C15.6311 36.1875 15.6467 36.1944 15.6632 36.198C15.6797 36.2016 15.6967 36.2018 15.7133 36.1987C15.73 36.1956 15.7458 36.1893 15.7599 36.1799C15.7739 36.1706 15.7861 36.1584 15.7954 36.1443C15.8047 36.1302 15.811 36.1145 15.8141 36.0979V36.0879L15.9731 35.1609L17.2031 34.4609V35.8848L16.4931 36.4768C16.4666 36.4982 16.4495 36.5291 16.4459 36.563C16.4422 36.5968 16.4523 36.6307 16.4736 36.6572C16.495 36.6837 16.5259 36.7007 16.5598 36.7043C16.5936 36.708 16.6276 36.6981 16.6541 36.6768L17.2031 36.2188V36.8948C17.2031 36.9282 17.2163 36.9603 17.24 36.9839C17.2636 37.0075 17.2957 37.0208 17.3291 37.0208C17.3625 37.0208 17.3946 37.0075 17.4182 36.9839C17.4418 36.9603 17.455 36.9282 17.455 36.8948V36.2148L18.0041 36.6729C18.0173 36.6834 18.0323 36.6913 18.0484 36.696C18.0646 36.7008 18.0816 36.7023 18.0984 36.7004C18.1151 36.6986 18.1314 36.6936 18.1462 36.6855C18.161 36.6775 18.174 36.6665 18.1845 36.6533C18.1951 36.6402 18.203 36.6251 18.2077 36.6089C18.2125 36.5927 18.2141 36.5758 18.2122 36.5591C18.2104 36.5423 18.2053 36.526 18.1972 36.5112C18.1891 36.4964 18.1783 36.4835 18.1651 36.4729L17.455 35.8809V34.4568L18.685 35.1567L18.8441 36.0837C18.8463 36.1002 18.8517 36.116 18.86 36.1304C18.8682 36.1447 18.8793 36.1574 18.8924 36.1675C18.9056 36.1776 18.9205 36.1849 18.9365 36.1892C18.9525 36.1935 18.9691 36.1945 18.9856 36.1924C19.002 36.1902 19.0179 36.1848 19.0322 36.1765C19.0465 36.1682 19.0591 36.1572 19.0692 36.144C19.0793 36.1309 19.0866 36.1158 19.0909 36.0999C19.0952 36.0839 19.0963 36.0672 19.0941 36.0508V36.0398L18.9681 35.3159L19.5971 35.6748C19.6262 35.6915 19.6606 35.696 19.693 35.6873C19.7253 35.6785 19.7529 35.6575 19.7696 35.6284C19.7863 35.5994 19.7908 35.5648 19.7821 35.5325C19.7734 35.5001 19.7522 35.4725 19.7231 35.4558L19.117 35.1118L19.7691 34.8718C19.7978 34.8614 19.8216 34.8409 19.8363 34.8142C19.851 34.7875 19.8556 34.7563 19.8491 34.7266C19.8426 34.6968 19.8256 34.6705 19.8011 34.6523C19.7767 34.6342 19.7464 34.6255 19.716 34.6279C19.7044 34.629 19.693 34.6315 19.6821 34.6357L18.83 34.9497L17.5871 34.2439L18.83 33.5378L19.6821 33.8508C19.7129 33.8641 19.7476 33.8647 19.7788 33.8523C19.8099 33.8399 19.8349 33.8157 19.8481 33.7849C19.8614 33.7541 19.8618 33.7194 19.8495 33.6882C19.8371 33.6571 19.8128 33.6322 19.7821 33.6189H19.7691L19.117 33.3779L19.7231 33.0339C19.748 33.0201 19.7675 32.998 19.7784 32.9717C19.7893 32.9453 19.7909 32.9161 19.783 32.8887C19.7752 32.8613 19.7582 32.8373 19.735 32.8208C19.7117 32.8043 19.6836 32.7963 19.6551 32.7979C19.6346 32.7987 19.6146 32.805 19.5971 32.8159L18.9701 33.1719L19.0941 32.4497C19.1 32.4169 19.0929 32.3831 19.0742 32.3555C19.0555 32.3278 19.0268 32.3085 18.9941 32.3018H18.966C18.9367 32.3028 18.9087 32.3142 18.8868 32.3337C18.8649 32.3533 18.8504 32.3799 18.846 32.4089L18.6871 33.3347L17.4571 34.0349V32.6099L18.1671 32.0178C18.1936 31.9965 18.2105 31.9655 18.2142 31.9316C18.2179 31.8978 18.208 31.8639 18.1866 31.8374C18.1653 31.8109 18.1343 31.7939 18.1004 31.7903C18.0666 31.7866 18.0326 31.7965 18.0061 31.8179L17.4571 32.2769V31.6018C17.4577 31.5685 17.445 31.5363 17.422 31.5122C17.399 31.4881 17.3674 31.4739 17.3341 31.4729L17.3191 31.4758Z" fill="#6FD1EF" stroke="#6FD1EF" stroke-width="0.058" stroke-miterlimit="10"/>
</svg>
