<svg width="41" height="41" viewBox="0 0 41 41" fill="none" xmlns="http://www.w3.org/2000/svg">
<path d="M20.4598 4.98659C20.4171 4.99413 20.3751 5.0045 20.3338 5.01759C20.1079 5.068 19.9063 5.19534 19.7637 5.3777C19.6211 5.56007 19.5462 5.78616 19.5518 6.01759V9.0237C19.5518 9.28891 19.6571 9.54319 19.8447 9.73073C20.0322 9.91826 20.2865 10.0237 20.5518 10.0237C20.817 10.0237 21.0713 9.91826 21.2589 9.73073C21.4464 9.54319 21.5518 9.28891 21.5518 9.0237V6.01759C21.5566 5.88609 21.5354 5.75491 21.4894 5.63161C21.4435 5.50831 21.3736 5.39533 21.2838 5.29909C21.1941 5.20284 21.0862 5.1253 20.9664 5.07082C20.8467 5.01634 20.7173 4.98609 20.5858 4.98171C20.5437 4.98049 20.5016 4.98204 20.4598 4.98659ZM9.81776 9.3965C9.62633 9.41426 9.4441 9.48681 9.29285 9.60548C9.14161 9.72416 9.02782 9.88399 8.96503 10.0657C8.90225 10.2474 8.89313 10.4434 8.93885 10.6301C8.98457 10.8169 9.08316 10.9865 9.22279 11.1187L11.3228 13.2476C11.5155 13.4298 11.7717 13.5296 12.0369 13.5259C12.3021 13.5222 12.5554 13.4153 12.743 13.2278C12.9307 13.0403 13.0378 12.7872 13.0417 12.522C13.0456 12.2568 12.9459 12.0005 12.7638 11.8076L10.6348 9.70754C10.5422 9.60931 10.4306 9.53079 10.3069 9.47682C10.1832 9.42286 10.0498 9.3946 9.9148 9.39357H9.81477L9.81776 9.3965ZM31.0758 9.3965C30.8471 9.42931 30.6369 9.54046 30.4808 9.71071L28.3518 11.8106C28.1608 12.0015 28.0535 12.2605 28.0535 12.5305C28.0535 12.8006 28.1608 13.0595 28.3518 13.2505C28.5427 13.4415 28.8017 13.5488 29.0718 13.5488C29.3418 13.5488 29.6008 13.4415 29.7918 13.2505L31.8918 11.1216C32.0378 10.9819 32.138 10.8011 32.1793 10.6033C32.2205 10.4055 32.2009 10.1999 32.1229 10.0134C32.045 9.82701 31.9123 9.66843 31.7426 9.55885C31.5728 9.44928 31.3738 9.39391 31.1718 9.39967H31.0778L31.0758 9.3965ZM20.5568 13.0286C18.9715 13.0284 17.4217 13.4983 16.1035 14.3789C14.7853 15.2595 13.7578 16.5113 13.1511 17.9758C12.5443 19.4404 12.3855 21.0521 12.6947 22.6069C13.0039 24.1618 13.7673 25.59 14.8883 26.711C16.0093 27.8319 17.4375 28.5953 18.9924 28.9046C20.5472 29.2138 22.1588 29.055 23.6234 28.4483C25.088 27.8415 26.3398 26.8141 27.2204 25.4959C28.101 24.1777 28.571 22.6278 28.5708 21.0425C28.5645 18.9185 27.7177 16.8835 26.2155 15.3819C24.7133 13.8802 22.6778 13.0341 20.5538 13.0286H20.5568ZM5.34077 20.0415C5.08648 20.0799 4.85656 20.2142 4.69819 20.4168C4.53982 20.6194 4.46501 20.8749 4.4892 21.1309C4.5134 21.3869 4.63473 21.6241 4.82825 21.7935C5.02178 21.9628 5.27283 22.0515 5.52979 22.0415H8.5348C8.80001 22.0415 9.05435 21.9363 9.24189 21.7488C9.42943 21.5613 9.5348 21.3067 9.5348 21.0415C9.5348 20.7763 9.42943 20.522 9.24189 20.3345C9.05435 20.147 8.80001 20.0415 8.5348 20.0415H5.52979C5.49649 20.0394 5.46305 20.0394 5.42976 20.0415C5.39912 20.0396 5.36841 20.0396 5.33778 20.0415H5.34077ZM32.3898 20.0415C32.253 20.0466 32.1187 20.0796 31.9951 20.1384C31.8715 20.1973 31.7613 20.2809 31.671 20.3838C31.5808 20.4867 31.5125 20.6069 31.4703 20.7371C31.4282 20.8673 31.413 21.0049 31.4258 21.1411C31.4387 21.2774 31.4792 21.4095 31.5449 21.5296C31.6105 21.6496 31.7 21.7551 31.8079 21.8394C31.9157 21.9237 32.0396 21.985 32.1719 22.0198C32.3043 22.0546 32.4424 22.062 32.5778 22.0415H35.5838C35.849 22.0415 36.1034 21.9363 36.2909 21.7488C36.4784 21.5613 36.5838 21.3067 36.5838 21.0415C36.5838 20.7763 36.4784 20.522 36.2909 20.3345C36.1034 20.147 35.849 20.0415 35.5838 20.0415H32.5778C32.5465 20.0396 32.5151 20.0396 32.4838 20.0415C32.4515 20.0394 32.4191 20.0394 32.3868 20.0415H32.3898ZM28.9778 28.5257C28.9355 28.5334 28.8938 28.5438 28.8528 28.5567C28.6692 28.5894 28.4983 28.6727 28.3596 28.7974C28.2209 28.9221 28.1198 29.0831 28.0678 29.2622C28.0158 29.4414 28.0149 29.6315 28.0653 29.8111C28.1156 29.9906 28.2152 30.1526 28.3528 30.2786L30.4818 32.3787C30.6483 32.5857 30.8903 32.718 31.1544 32.7466C31.2852 32.7608 31.4175 32.7489 31.5438 32.7119C31.67 32.675 31.7878 32.6135 31.8903 32.531C31.9928 32.4486 32.078 32.3469 32.1412 32.2315C32.2043 32.116 32.2441 31.9892 32.2582 31.8584C32.2724 31.7276 32.2607 31.5953 32.2237 31.469C32.1867 31.3428 32.1253 31.2251 32.0428 31.1226C31.9969 31.0667 31.9457 31.0154 31.8898 30.9695L29.7898 28.8406C29.6866 28.7303 29.5597 28.6448 29.4187 28.5906C29.2777 28.5364 29.1263 28.5149 28.9758 28.5276L28.9778 28.5257ZM11.9158 28.5567C11.6897 28.5794 11.4781 28.6785 11.3158 28.8377L9.21577 30.9666C9.00877 31.1331 8.87645 31.375 8.84785 31.6392C8.81925 31.9033 8.89675 32.168 9.0633 32.375C9.22986 32.582 9.47182 32.7143 9.73597 32.7429C10.0001 32.7715 10.2648 32.6942 10.4718 32.5276C10.5282 32.4827 10.5795 32.4316 10.6248 32.3755L12.7538 30.2757C12.9128 30.1296 13.0203 29.9359 13.0601 29.7236C13.1 29.5114 13.0701 29.292 12.9749 29.0982C12.8796 28.9043 12.7242 28.7466 12.5319 28.6485C12.3395 28.5503 12.1206 28.5169 11.9078 28.5535L11.9158 28.5567ZM20.4628 32.0315C20.4202 32.0393 20.3781 32.0496 20.3368 32.0625C20.1108 32.1129 19.9093 32.2403 19.7667 32.4226C19.6241 32.605 19.5492 32.8311 19.5548 33.0625V36.0686C19.5548 36.3338 19.6601 36.5881 19.8477 36.7757C20.0352 36.9632 20.2895 37.0686 20.5548 37.0686C20.82 37.0686 21.0744 36.9632 21.2619 36.7757C21.4494 36.5881 21.5548 36.3338 21.5548 36.0686V33.0625C21.5597 32.9309 21.5387 32.7997 21.4927 32.6763C21.4468 32.5529 21.3769 32.4399 21.2872 32.3435C21.1974 32.2472 21.0895 32.1693 20.9697 32.1148C20.8498 32.0602 20.7204 32.03 20.5888 32.0257C20.5457 32.0252 20.5026 32.0271 20.4598 32.0315H20.4628Z" fill="#FBB03B"/>
<path fill-rule="evenodd" clip-rule="evenodd" d="M20.5338 32.5707C20.5028 32.3477 20.5968 32.2456 20.7388 32.2176C20.8808 32.1896 21.0268 32.2257 21.1898 32.1927C21.3032 32.2792 21.3978 32.3877 21.4679 32.5118C21.5381 32.6359 21.5823 32.7729 21.5978 32.9147C21.6558 33.0667 21.4618 33.0496 21.3078 33.0526C21.4748 33.1166 21.5998 33.2697 21.4078 33.3917C21.4078 33.5717 21.4458 33.7796 21.3078 33.8656C21.5358 34.0516 21.3428 34.5198 21.4078 34.8168C21.5145 35.1219 21.5856 35.4382 21.6198 35.7596C21.668 35.9425 21.6733 36.1339 21.6353 36.3192C21.5973 36.5045 21.517 36.6786 21.4008 36.8277C21.2733 36.9758 21.1105 37.0891 20.9274 37.1573C20.7444 37.2255 20.547 37.2462 20.3538 37.2176C20.0092 37.1636 19.6978 36.9814 19.4818 36.7076C19.4628 36.4486 19.2818 36.3076 19.5028 36.0646C19.5298 35.8646 19.2798 35.8568 19.3028 35.6588C19.3638 35.4748 19.1768 35.1217 19.4028 35.0487C19.2763 34.8627 19.1928 34.6508 19.1582 34.4286C19.1236 34.2063 19.1388 33.9794 19.2028 33.7638C18.8568 33.6728 19.2128 33.5126 19.0028 33.3636V33.0526C19.0012 32.897 19.0238 32.7422 19.0698 32.5936C19.1098 32.3036 19.2049 32.024 19.3498 31.7696C19.4312 31.6277 19.5472 31.5088 19.6872 31.4239C19.8271 31.3391 19.9863 31.2912 20.1498 31.2848L20.0828 31.3026C20.1497 31.2988 20.2168 31.3028 20.2828 31.3146C20.4368 31.4066 20.3568 31.6376 20.2318 31.7816L20.2568 31.7757C20.1844 31.8543 20.0887 31.9074 19.9838 31.9276C19.8978 32.1276 19.5838 32.3106 19.6188 32.5416C19.619 32.7531 19.6311 32.9645 19.6548 33.1747C19.6549 33.378 19.7 33.5787 19.7868 33.7626C19.8135 34.1971 19.8805 34.6284 19.9868 35.0506C20.0198 35.2506 20.0498 35.4597 20.0698 35.6737C20.0898 35.8877 20.0868 36.1407 20.1028 36.1937C20.0208 36.3287 20.1878 36.4206 20.1588 36.6036C20.3588 36.4216 20.3148 36.6096 20.4198 36.6166C20.5498 36.6056 20.5798 36.4537 20.8198 36.5567C20.8687 36.5026 20.9046 36.4378 20.9245 36.3675C20.9445 36.2973 20.9479 36.2235 20.9348 36.1517C20.9289 36.1233 20.925 36.0947 20.9228 36.0658C20.9192 35.9992 20.9192 35.9322 20.9228 35.8656C20.9293 35.7379 20.956 35.6122 21.0018 35.4928C20.6018 35.1048 20.7758 34.7437 20.7018 34.1297C20.7468 33.9057 20.7648 33.6697 20.8018 33.4127C20.8166 33.285 20.84 33.1584 20.8718 33.0338C20.9088 32.9712 20.9374 32.9037 20.9568 32.8336C20.9065 32.8088 20.8507 32.7972 20.7946 32.7994C20.7386 32.8017 20.684 32.818 20.6358 32.8468C20.5828 32.8798 20.5848 32.8597 20.5338 32.5707Z" fill="#FBB03B"/>
<path fill-rule="evenodd" clip-rule="evenodd" d="M12.4258 28.7376C12.4643 28.6211 12.4625 28.4951 12.4208 28.3797C12.3997 28.3206 12.3682 28.2656 12.3278 28.2176L11.9988 29.0836V29.0716V29.0516V29.0125L12.0038 28.9437C12.0097 28.9055 12.023 28.8689 12.0428 28.8358C12.082 28.7784 12.1412 28.7378 12.2088 28.7218C12.3478 28.6818 12.5018 28.7117 12.6628 28.6717C12.7833 28.7525 12.8858 28.8572 12.9638 28.9796C13.0417 29.102 13.0935 29.2393 13.1158 29.3827C13.1798 29.5357 12.9838 29.5236 12.8308 29.5316C13.0038 29.5666 13.1098 29.7677 12.8858 29.8187C12.8388 29.9637 12.7488 30.1426 12.5948 30.0916C12.6248 30.3836 12.1468 30.5827 11.9788 30.8387C11.6456 31.4433 11.2232 31.9942 10.7258 32.4727L10.7368 32.4608C10.6156 32.6158 10.4571 32.7376 10.2762 32.815C10.0953 32.8925 9.89767 32.923 9.7018 32.9037C9.35239 32.8653 9.03063 32.6954 8.80178 32.4286C8.77578 32.1656 8.57978 32.0347 8.80178 31.7747C8.83378 31.5747 8.58882 31.5157 8.69582 31.2747C8.78882 31.1377 8.89581 30.8526 9.06581 30.7686L9.04378 30.7877C9.06645 30.7728 9.09273 30.7643 9.11983 30.763C9.14693 30.7618 9.17384 30.7678 9.19777 30.7806C9.28177 30.4306 9.58676 29.8156 9.97676 29.7086C9.79776 29.3956 10.1628 29.5347 10.1268 29.2747L10.5628 28.8326C10.6878 28.6746 10.6938 28.4858 10.8458 28.2328C10.9517 28.0813 11.0946 27.9595 11.2608 27.8787C11.3422 27.8406 11.4294 27.8163 11.5188 27.8067C11.5627 27.8019 11.6069 27.8019 11.6508 27.8067L11.7158 27.8145L11.7478 27.8216H11.7618C11.7161 27.831 11.6716 27.8451 11.6288 27.8636C11.5476 27.899 11.4765 27.9542 11.422 28.024C11.3675 28.0939 11.3314 28.1764 11.3168 28.2638C11.3168 28.3508 11.3438 28.3708 11.3778 28.3578C11.4118 28.3448 11.4608 28.2846 11.5638 28.2166C11.6498 28.1406 11.8838 28.1328 11.7978 28.1798C11.7617 28.248 11.7111 28.3075 11.6496 28.3543C11.5881 28.4011 11.5172 28.4341 11.4418 28.4508C11.3418 28.6628 11.0778 28.8376 11.0568 29.0396C10.9198 29.5396 10.5228 29.7037 10.3978 30.1317C10.1063 30.4641 9.84582 30.8227 9.61977 31.2027L9.55281 31.2935L9.51381 31.3297C9.46028 31.4109 9.42376 31.5022 9.40657 31.598C9.38938 31.6937 9.39184 31.7918 9.41377 31.8866C9.33377 32.0266 9.5138 32.1117 9.4908 32.2987C9.6768 32.1087 9.64879 32.2987 9.75679 32.2987C9.88879 32.2817 9.90782 32.1267 10.1568 32.2137C10.1895 32.1672 10.217 32.1171 10.2388 32.0645L10.2778 32.0216C10.4908 31.6142 10.8141 31.2749 11.2108 31.0426C11.2108 30.4806 11.5948 30.3427 11.9898 29.8587C12.0678 29.8127 12.2238 29.6828 12.2338 29.6908C12.2643 29.678 12.2924 29.6599 12.3168 29.6375C12.4034 29.5557 12.4601 29.4474 12.4778 29.3297C12.4266 29.3063 12.3702 29.2967 12.3141 29.3016C12.258 29.3065 12.2042 29.3259 12.1578 29.3578C12.1248 29.3758 12.1098 29.3816 12.0938 29.3446L12.0618 29.2577L12.0358 29.1866L12.0198 29.1446L12.0108 29.1207L12.0058 29.1087V29.1016L12.3058 28.1807L12.3548 28.2386C12.3903 28.2876 12.4176 28.3421 12.4358 28.3997C12.468 28.5107 12.4645 28.6288 12.4258 28.7376Z" fill="#FBB03B"/>
<path fill-rule="evenodd" clip-rule="evenodd" d="M29.5177 28.4767C29.5065 28.3714 29.4656 28.2715 29.3998 28.1886C29.3183 28.0888 29.2043 28.0209 29.0777 27.9967L29.0198 29.0616V29.0267V28.9877L29.0318 28.9198C29.0427 28.8667 29.07 28.8181 29.1098 28.7814C29.1496 28.7446 29.2 28.7214 29.2538 28.7147C29.3958 28.6867 29.5478 28.7288 29.7118 28.7028C29.9248 28.8978 30.1048 29.0946 30.3028 29.2916C30.4388 29.3646 30.2928 29.4838 30.1858 29.5968C30.3518 29.5278 30.5477 29.5478 30.4997 29.7738C30.6277 29.9048 30.7997 30.0286 30.7677 30.1866C31.0617 30.1596 31.2607 30.6368 31.5177 30.8068C31.6346 30.8621 31.7473 30.9259 31.8548 30.9977C31.9871 31.0624 32.101 31.1592 32.1861 31.2794C32.2712 31.3996 32.3247 31.5394 32.3418 31.6857C32.3634 31.8519 32.3449 32.021 32.2878 32.1786C32.2308 32.3362 32.1368 32.4778 32.0138 32.5917C31.7735 32.8024 31.4609 32.9117 31.1417 32.8964C30.8225 32.8811 30.5218 32.7424 30.3028 32.5096L30.3188 32.5287C30.2548 32.4767 30.2058 32.4418 30.1578 32.4098C30.0888 32.1778 29.8928 32.1987 29.9028 31.8817C29.7778 31.7207 29.5967 31.8928 29.4707 31.7328C29.3797 31.5568 28.9938 31.4387 29.0978 31.2257C28.8684 31.1807 28.6518 31.0857 28.4634 30.9474C28.275 30.8091 28.1194 30.631 28.0077 30.4257C27.6417 30.5317 27.8008 30.1408 27.5488 30.0028C27.4534 29.6954 27.4552 29.366 27.5538 29.0597C27.6027 28.7652 27.7083 28.4829 27.8647 28.2286C27.953 28.0863 28.0763 27.9691 28.2229 27.8881C28.3694 27.807 28.5343 27.7649 28.7018 27.7657L28.6017 27.7906C28.4895 27.8412 28.3937 27.9222 28.3249 28.0243C28.2562 28.1264 28.2173 28.2458 28.2128 28.3688C28.2708 28.6358 28.3928 28.5916 28.4438 28.5326C28.4758 28.4976 28.5028 28.4326 28.5578 28.3646C28.6128 28.2966 28.7097 28.2488 28.7577 28.2648L28.7958 28.2557C28.7182 28.3335 28.6181 28.3849 28.5098 28.4027C28.4098 28.5957 28.0907 28.7786 28.1167 29.0126C28.1056 29.2231 28.1163 29.4344 28.1488 29.6427C28.1572 29.731 28.1911 29.815 28.2463 29.8844C28.3015 29.9538 28.3756 30.0057 28.4598 30.0338C28.788 30.3196 29.1411 30.5755 29.5148 30.7987C29.8793 31.0456 30.2162 31.3309 30.5198 31.6498C30.5923 31.7956 30.6852 31.9301 30.7958 32.0497L30.8318 32.0887C30.8533 32.142 30.8585 32.2005 30.8468 32.2567C31.0468 32.0857 31.0048 32.2706 31.1128 32.2816C31.2448 32.2816 31.2807 32.1257 31.5207 32.2357C31.5723 32.1821 31.6106 32.1173 31.6326 32.0463C31.6547 31.9753 31.6598 31.9001 31.6478 31.8268C31.6245 31.7182 31.6225 31.6061 31.6418 31.4967C31.564 31.5115 31.4872 31.531 31.4117 31.5548L31.3468 31.4967C31.0628 31.3657 30.8947 31.0838 30.5387 30.7968C30.1959 30.3804 29.8945 29.9315 29.6388 29.4567C29.5368 29.3998 29.4308 29.3504 29.3218 29.3087C29.2654 29.2999 29.2076 29.3112 29.1587 29.3407C29.1237 29.3557 29.1087 29.3606 29.0957 29.3226L29.0708 29.2328L29.0508 29.1608L29.0387 29.1166L29.0318 29.0926V29.0797V29.0736L28.9878 27.9828L29.1178 27.9987C29.2241 28.0302 29.3187 28.0924 29.3898 28.1774C29.461 28.2624 29.5054 28.3665 29.5177 28.4767Z" fill="#FBB03B"/>
<path fill-rule="evenodd" clip-rule="evenodd" d="M32.4247 20.5867C32.4187 20.5097 32.4328 20.4324 32.4657 20.3626H32.4957C32.6207 20.1626 32.9797 20.1926 33.1417 19.9956H33.9637C34.1107 19.9496 34.0927 20.1367 34.0967 20.2957C34.1657 20.1287 34.3157 20.0036 34.4417 20.1956C34.6237 20.1956 34.8337 20.1587 34.9217 20.2957C35.0967 20.0817 35.6137 20.2276 35.8337 20.2346C35.9944 20.2277 36.1532 20.2703 36.2889 20.3565C36.4247 20.4426 36.5307 20.5682 36.5927 20.7166C36.6714 20.8961 36.6974 21.0944 36.6676 21.2881C36.6379 21.4818 36.5536 21.6629 36.4247 21.8106C36.295 21.9526 36.1344 22.0631 35.9553 22.1333C35.7762 22.2035 35.5834 22.2316 35.3917 22.2156C35.0995 22.2225 34.808 22.2503 34.5197 22.2986C34.3097 22.1826 34.1847 22.3347 33.9707 22.0987C33.7707 22.0717 33.7607 22.3216 33.5597 22.2986C33.3737 22.2376 33.0157 22.4245 32.9437 22.1985C32.8272 22.2671 32.7038 22.3234 32.5757 22.3665H32.6047C32.3999 22.4504 32.1712 22.455 31.9632 22.3794C31.7552 22.3038 31.5828 22.1534 31.4797 21.9575C31.1167 22.0725 31.2697 21.6786 31.0137 21.5486C30.9115 21.2463 30.9049 20.9198 30.9947 20.6135C31.0343 20.289 31.1475 19.9778 31.3257 19.7036C31.4247 19.55 31.5686 19.4303 31.7378 19.3611C31.907 19.2919 32.0934 19.2765 32.2717 19.3167C32.3827 19.3957 32.3537 19.5445 32.2777 19.6685C32.2394 19.7353 32.1874 19.7934 32.1252 19.8389C32.0631 19.8844 31.992 19.9164 31.9167 19.9326C31.8287 20.1326 31.5167 20.3225 31.5497 20.5535C31.5457 20.7633 31.5628 20.9733 31.6007 21.1797C31.6112 21.2672 31.6469 21.3498 31.7036 21.4173C31.7602 21.4847 31.8354 21.5341 31.9197 21.5596C31.9964 21.6436 32.0982 21.7006 32.2098 21.7222C32.3215 21.7438 32.4372 21.729 32.5397 21.6797H32.5757L32.9437 21.6096C33.3723 21.5301 33.8081 21.4965 34.2437 21.5095C34.4437 21.6215 34.7777 21.5295 34.9287 21.7095C35.0287 21.4465 35.1847 21.6316 35.3397 21.6096C35.4334 21.5907 35.5246 21.561 35.6117 21.5215C35.6687 21.4915 35.7117 21.4946 35.8517 21.5376C35.9015 21.4831 35.9381 21.4179 35.9586 21.3469C35.9791 21.276 35.9829 21.2013 35.9697 21.1287C35.945 21.021 35.9416 20.9095 35.9597 20.8006C35.7447 20.8416 35.6917 20.8856 35.6487 20.8806L35.5857 20.8736C35.4541 20.8711 35.3225 20.8771 35.1917 20.8916C34.6559 20.843 34.1261 20.7425 33.6097 20.5916C33.2717 20.6796 32.6987 21.0676 32.5097 20.7366H32.4447C32.4417 20.6862 32.435 20.6361 32.4247 20.5867Z" fill="#FBB03B"/>
<path fill-rule="evenodd" clip-rule="evenodd" d="M5.37579 20.5868C5.36975 20.5099 5.38384 20.4325 5.41674 20.3627H5.44677C5.57177 20.1627 5.93077 20.1928 6.09277 19.9958H6.91479C7.06179 19.9498 7.04376 20.1368 7.04876 20.2958C7.11676 20.1288 7.26676 20.0037 7.39276 20.1957C7.57476 20.1957 7.7848 20.1588 7.8728 20.2958C8.0478 20.0818 8.56479 20.2278 8.78479 20.2348C8.9453 20.2278 9.10404 20.2702 9.23962 20.3564C9.37519 20.4426 9.48105 20.5684 9.54278 20.7167C9.62206 20.896 9.64842 21.0942 9.61883 21.288C9.58924 21.4818 9.50495 21.6632 9.37579 21.8107C9.24607 21.9528 9.08546 22.0632 8.90637 22.1335C8.72728 22.2037 8.53446 22.2318 8.34277 22.2157C8.0505 22.2227 7.7591 22.2505 7.47076 22.2987C7.26076 22.1827 7.13579 22.3348 6.92279 22.0988C6.72279 22.0718 6.7118 22.3217 6.5108 22.2987C6.3248 22.2377 5.96777 22.4246 5.89477 22.1986C5.77825 22.2672 5.65494 22.3235 5.52679 22.3666H5.55578C5.35098 22.4505 5.12225 22.4552 4.91424 22.3796C4.70623 22.3039 4.53387 22.1535 4.43078 21.9577C4.06778 22.0727 4.22078 21.6787 3.96478 21.5487C3.86304 21.2463 3.85643 20.92 3.9458 20.6137C3.98532 20.2891 4.09854 19.9779 4.27679 19.7038C4.37571 19.55 4.51954 19.4302 4.68878 19.361C4.85801 19.2918 5.04444 19.2765 5.22277 19.3168C5.33377 19.3958 5.30476 19.5446 5.22876 19.6686C5.19043 19.7355 5.13848 19.7935 5.07629 19.839C5.0141 19.8845 4.9431 19.9165 4.86779 19.9328C4.77979 20.1328 4.46779 20.3226 4.50079 20.5536C4.49676 20.7635 4.51381 20.9734 4.55175 21.1798C4.5622 21.2674 4.59794 21.3499 4.6546 21.4174C4.71126 21.4849 4.78641 21.5343 4.87078 21.5597C4.94749 21.6437 5.0492 21.7007 5.16088 21.7223C5.27257 21.7439 5.38827 21.7292 5.49078 21.6798H5.52679L5.89477 21.6098C6.3233 21.5302 6.7591 21.4966 7.19476 21.5097C7.39476 21.6217 7.72876 21.5296 7.87976 21.7096C7.97976 21.4466 8.13477 21.6318 8.29077 21.6098C8.3845 21.5909 8.47574 21.5613 8.56274 21.5216C8.61974 21.4916 8.66279 21.4948 8.80279 21.5378C8.85292 21.4835 8.88967 21.4181 8.91015 21.3471C8.93064 21.2761 8.93427 21.2015 8.92077 21.1288C8.89592 21.0212 8.89283 20.9095 8.91174 20.8007C8.69574 20.8417 8.64279 20.8858 8.59979 20.8808L8.53674 20.8737C8.40515 20.8712 8.27356 20.8773 8.14276 20.8918C7.60697 20.8431 7.07719 20.7426 6.56079 20.5917C6.22379 20.6797 5.65075 21.0677 5.46075 20.7367H5.39575C5.39271 20.6863 5.38606 20.6363 5.37579 20.5868Z" fill="#FBB03B"/>
<path fill-rule="evenodd" clip-rule="evenodd" d="M20.5538 13.5726C20.6788 13.3656 21.2138 13.2507 21.8168 13.3097C22.4258 13.3347 23.0828 13.5167 23.5308 13.5587C24.5656 13.97 25.5033 14.5924 26.2838 15.3866C26.7178 15.7946 26.5328 15.8707 26.4318 15.9867C26.6511 16.0721 26.8454 16.2116 26.9966 16.392C27.1478 16.5724 27.251 16.7878 27.2968 17.0187C27.486 17.3272 27.653 17.6485 27.7968 17.9806C27.9005 18.2317 27.9617 18.4984 27.9778 18.7697C28.0982 18.9845 28.1928 19.2127 28.2598 19.4496C28.3319 19.7728 28.3787 20.1013 28.3998 20.4318C28.4263 21.1187 28.3857 21.8066 28.2788 22.4857C28.149 23.7622 27.6736 24.9792 26.9038 26.0057C26.0465 27.1634 24.8872 28.0627 23.5529 28.6056C22.246 29.137 20.8229 29.3175 19.4248 29.1288C18.2327 28.969 17.0855 28.5685 16.0529 27.9518C15.4169 27.3638 14.8968 27.1516 14.4938 26.3336C14.0018 25.6956 13.7698 25.8067 13.3588 25.0787C13.2008 24.7267 12.9199 24.2367 12.7509 23.7577C12.584 23.4222 12.5147 23.0466 12.5508 22.6737C12.269 21.8305 12.1512 20.9411 12.2039 20.0536C12.2466 19.1087 12.5348 18.1914 13.0399 17.3917C12.9009 16.8587 13.5509 16.4507 13.7949 15.8087C14.337 15.1108 14.9816 14.4989 15.7068 13.9938C16.3755 13.4778 17.0988 13.0366 17.8638 12.6786C18.658 12.3193 19.5354 12.1846 20.4008 12.2887C20.6368 12.3697 20.5738 12.5177 20.3128 12.6427C19.89 12.7989 19.4474 12.8947 18.9979 12.9276C18.1922 13.178 17.4198 13.5254 16.6978 13.9618C15.31 14.8502 14.2221 16.136 13.5758 17.6517C12.856 19.1821 12.6998 20.9174 13.1348 22.5516C13.5513 24.1439 14.4324 25.5761 15.6658 26.6657C16.3087 27.2505 17.0187 27.7571 17.7808 28.1747C18.2298 28.0687 18.7208 28.4248 19.3188 28.4938C20.2672 28.5412 21.2178 28.5184 22.1628 28.4257C24.1389 27.805 25.8418 26.5246 26.9868 24.7987C27.1748 24.0667 27.4038 23.4286 27.5568 22.6576C27.7639 21.7524 27.7867 20.8149 27.6238 19.9008C27.3585 17.9703 26.379 16.2094 24.8788 14.9657C24.1638 14.558 23.3869 14.2701 22.5789 14.1137C21.8825 14.0259 21.2012 13.8439 20.5538 13.5726Z" fill="#FBB03B"/>
<path fill-rule="evenodd" clip-rule="evenodd" d="M30.7177 9.80869C30.6347 9.73346 30.5764 9.63481 30.5507 9.52574L30.5377 9.4437L31.0997 9.93467V9.90562V9.87168L31.1107 9.81065C31.1183 9.77544 31.1315 9.74183 31.1497 9.71079H31.1727C31.2937 9.50079 31.5637 9.59356 31.8037 9.54356C31.9192 9.62728 32.0164 9.73368 32.0897 9.85606C32.1629 9.97843 32.2105 10.1144 32.2297 10.2557C32.2917 10.4067 32.0957 10.3926 31.9427 10.3966C32.1127 10.4336 32.2177 10.6338 31.9927 10.6798C31.9487 10.8238 31.8557 10.9946 31.7047 10.9476C31.7367 11.2396 31.2707 11.4387 31.1047 11.6937C30.7931 12.2894 30.3913 12.8336 29.9137 13.3067C29.7846 13.4514 29.622 13.5621 29.4402 13.6293C29.2583 13.6964 29.0628 13.7179 28.8707 13.6918C28.5271 13.6404 28.2142 13.4645 27.9917 13.1976C27.9697 12.9386 27.7797 12.8108 27.9967 12.5558C28.0267 12.3558 27.7827 12.3018 27.8847 12.0668C27.9977 11.8668 28.1767 11.4388 28.3727 11.5668C28.4577 11.2228 28.7597 10.6237 29.1477 10.5257C28.9677 10.2157 29.3327 10.3576 29.2957 10.1026L29.7277 9.67661C29.83 9.48701 29.9205 9.29137 29.9987 9.09068C30.0985 8.93797 30.2364 8.81378 30.3987 8.73057C30.4773 8.69021 30.5622 8.66364 30.6497 8.65171C30.693 8.64781 30.7365 8.64781 30.7797 8.65171L30.8437 8.65879C30.8977 8.65879 30.7967 8.66879 31.0437 8.65879C31.5137 8.75879 31.5017 8.9656 31.4317 8.9586C31.3576 8.96105 31.2833 8.95769 31.2097 8.94859C31.1227 8.93459 30.8927 8.99578 30.9337 9.02378C30.9012 9.09255 30.8538 9.15303 30.795 9.20127C30.7362 9.24952 30.6675 9.28414 30.5937 9.30259C30.5047 9.51859 30.2457 9.6906 30.2237 9.8856C30.0897 10.3736 29.6907 10.5296 29.5667 10.9496C29.2759 11.2732 29.0152 11.6229 28.7877 11.9938C28.6896 12.0932 28.6249 12.2208 28.6027 12.3587C28.5852 12.4613 28.5852 12.566 28.6027 12.6686C28.5257 12.8066 28.7027 12.8947 28.6717 13.0807C28.8637 12.8957 28.8287 13.0807 28.9357 13.0907C29.0657 13.0787 29.0977 12.9277 29.3407 13.0277C29.4097 12.9447 29.6047 12.6088 29.7607 12.4088C29.9069 12.1917 30.1076 12.0168 30.3427 11.9017C30.3327 11.3457 30.7067 11.2097 31.0867 10.7247C31.1667 10.6747 31.3047 10.5587 31.3347 10.5467C31.3652 10.5337 31.3935 10.5162 31.4187 10.4947C31.5048 10.4149 31.5636 10.3098 31.5867 10.1947C31.5398 10.1714 31.4879 10.1599 31.4356 10.1615C31.3833 10.163 31.3321 10.1776 31.2867 10.2037C31.2097 10.2417 31.2137 10.2576 31.1677 10.0936H31.1177L31.1027 10.0287L31.0927 9.9896L31.0877 9.96763V9.95664V9.95176L30.5157 9.40659C30.5156 9.457 30.5227 9.50734 30.5367 9.55576C30.5716 9.65565 30.6345 9.74338 30.7177 9.80869Z" fill="#FBB03B"/>
<path fill-rule="evenodd" clip-rule="evenodd" d="M10.2177 9.76267C10.2907 9.67813 10.3367 9.57382 10.3497 9.46286L9.84069 9.93088V9.91769V9.8967V9.85886C9.84425 9.83614 9.84959 9.81359 9.85668 9.79172C9.86793 9.75495 9.88665 9.72105 9.91167 9.69186C9.95673 9.63935 10.0186 9.60392 10.0867 9.59177C10.2257 9.56077 10.3747 9.59979 10.5377 9.56979C10.7497 9.75879 10.9287 9.94986 11.1267 10.1399C11.2617 10.2089 11.1177 10.3297 11.0117 10.4397C11.1767 10.3687 11.3707 10.3849 11.3237 10.6089C11.4517 10.7359 11.6237 10.8548 11.5917 11.0088C11.8837 10.9758 12.0827 11.4429 12.3377 11.6089C12.6515 11.7113 12.9137 11.9309 13.0697 12.2219C13.142 12.4014 13.1632 12.5973 13.1309 12.7881C13.0986 12.9789 13.014 13.157 12.8867 13.3027C12.7586 13.4498 12.5959 13.5626 12.4133 13.6311C12.2307 13.6995 12.0339 13.7215 11.8407 13.6948C11.518 13.6331 11.2188 13.4827 10.9767 13.2607C10.9127 13.0307 10.7187 13.0508 10.7357 12.7348C10.6157 12.5758 10.4357 12.7449 10.3107 12.5859C10.2247 12.4109 9.84569 12.2919 9.95269 12.0859C9.60269 11.9929 9.02568 11.7167 8.89568 11.2917C8.53168 11.4017 8.6907 11.0118 8.4367 10.8818C8.33912 10.5811 8.33529 10.2578 8.42571 9.9548C8.46641 9.63391 8.57884 9.32639 8.75469 9.0549C8.86144 8.90762 9.00391 8.78989 9.16869 8.71286C9.24976 8.67659 9.33624 8.65382 9.42467 8.64572C9.46587 8.64102 9.5075 8.64102 9.5487 8.64572C9.46403 8.67892 9.39076 8.73593 9.3377 8.80978C9.2677 9.03878 9.45072 9.03867 9.56872 9.06467C9.59472 9.07467 9.64873 9.08283 9.63573 9.10983C9.61332 9.1386 9.58707 9.1641 9.55773 9.18576C9.495 9.23565 9.42128 9.27002 9.3427 9.28586C9.2557 9.48586 8.94273 9.67183 8.97973 9.90183C8.97717 10.1091 8.9929 10.3162 9.02672 10.5207C9.03725 10.6072 9.07227 10.6889 9.12774 10.7561C9.18321 10.8232 9.25679 10.8732 9.33971 10.8999C9.65987 11.1854 10.0049 11.4416 10.3707 11.6657C10.7261 11.9123 11.0534 12.1971 11.3467 12.5149C11.4027 12.7259 11.7167 12.9297 11.6467 13.0847C11.8387 12.8987 11.8047 13.0847 11.9107 13.0937C12.0407 13.0807 12.0727 12.9307 12.3107 13.0307C12.3601 12.9755 12.3965 12.9099 12.4175 12.8388C12.4384 12.7678 12.4432 12.693 12.4317 12.6198C12.4096 12.5103 12.4096 12.3974 12.4317 12.2878C12.3127 12.2878 12.2807 12.3477 12.1867 12.3117C12.0899 12.2708 12.0004 12.2144 11.9217 12.1447C11.7577 12.0047 11.6027 11.8157 11.3597 11.6257C11.0174 11.2211 10.7159 10.7837 10.4597 10.3198C10.3585 10.2653 10.2532 10.219 10.1447 10.1809C10.0896 10.1783 10.0349 10.192 9.98772 10.2207C9.95372 10.2357 9.93871 10.2408 9.92571 10.2038C9.91853 10.1724 9.90709 10.1421 9.89171 10.1137C9.87985 10.0903 9.87015 10.0659 9.86272 10.0407L9.84771 9.9968L9.84069 9.97189L9.83568 9.95871V9.95285L10.3567 9.41574L10.3497 9.49167C10.3316 9.59247 10.2859 9.68627 10.2177 9.76267Z" fill="#FBB03B"/>
<path fill-rule="evenodd" clip-rule="evenodd" d="M20.5338 5.52159C20.5028 5.29959 20.5968 5.19656 20.7388 5.16856C20.8808 5.14056 21.0268 5.17666 21.1898 5.14366C21.3031 5.23012 21.3977 5.33865 21.4679 5.46275C21.538 5.58686 21.5822 5.72389 21.5978 5.86559C21.6558 6.01759 21.4618 6.00077 21.3078 6.00377C21.4748 6.06877 21.5998 6.22064 21.4078 6.34264C21.4078 6.52264 21.4458 6.73076 21.3078 6.81676C21.5358 7.00176 21.3428 7.47068 21.4078 7.76768C21.5145 8.07281 21.5856 8.38936 21.6198 8.7108C21.668 8.89366 21.6734 9.08511 21.6354 9.27037C21.5974 9.45564 21.5171 9.62957 21.4008 9.77867C21.2733 9.92671 21.1105 10.0401 20.9274 10.1083C20.7444 10.1765 20.547 10.1971 20.3538 10.1686C20.0092 10.1145 19.6978 9.93259 19.4818 9.6588C19.4628 9.3998 19.2818 9.25873 19.5028 9.01573C19.5298 8.81573 19.2798 8.80773 19.3028 8.60973C19.3638 8.42573 19.1768 8.07262 19.4028 7.99962C19.2763 7.81362 19.1928 7.60198 19.1582 7.37975C19.1236 7.15751 19.1388 6.93033 19.2028 6.71471C18.8568 6.62371 19.2128 6.46456 19.0028 6.31456V6.00377C19.0012 5.84822 19.0238 5.69338 19.0698 5.54478C19.1098 5.2548 19.2049 4.97491 19.3498 4.72057C19.4311 4.57852 19.5471 4.45971 19.6871 4.37486C19.827 4.29002 19.9863 4.24207 20.1498 4.2357L20.0828 4.25377C20.1497 4.25 20.2168 4.25399 20.2828 4.26573C20.4368 4.35773 20.3568 4.58877 20.2318 4.73277L20.2568 4.72667C20.1844 4.8052 20.0887 4.85857 19.9838 4.87877C19.8978 5.07877 19.5838 5.26178 19.6188 5.49278C19.619 5.70429 19.631 5.91543 19.6548 6.1256C19.6548 6.32894 19.6999 6.52988 19.7868 6.71373C19.8135 7.14832 19.8805 7.57934 19.9868 8.00157C20.0198 8.20157 20.0498 8.41162 20.0698 8.62462C20.0898 8.83762 20.0868 9.09161 20.1028 9.14561C20.0208 9.27961 20.1878 9.37179 20.1588 9.55479C20.3588 9.37279 20.3148 9.56073 20.4198 9.56773C20.5498 9.55673 20.5798 9.40468 20.8198 9.50768C20.8688 9.45355 20.9047 9.38895 20.9246 9.31871C20.9446 9.24847 20.948 9.17445 20.9348 9.10265C20.9289 9.07427 20.925 9.0456 20.9228 9.01671C20.9192 8.95009 20.9192 8.88337 20.9228 8.81676C20.9292 8.68935 20.9558 8.5637 21.0018 8.44469C20.6018 8.05569 20.7758 7.69465 20.7018 7.08165C20.7468 6.85665 20.7648 6.62063 20.8018 6.36363C20.8166 6.23588 20.84 6.10936 20.8718 5.98473C20.9088 5.92209 20.9374 5.85489 20.9568 5.78477C20.9065 5.75984 20.8506 5.7479 20.7945 5.75035C20.7384 5.7528 20.6838 5.76947 20.6358 5.79869C20.5828 5.83069 20.5848 5.81059 20.5338 5.52159Z" fill="#FBB03B"/>
</svg>
