<svg width="41" height="41" viewBox="0 0 41 41" fill="none" xmlns="http://www.w3.org/2000/svg">
<path d="M7.5977 36.9796C7.1857 36.9596 6.76569 36.9466 6.61769 36.4476C6.55177 36.1492 6.57578 35.8381 6.68666 35.5533C6.79755 35.2685 6.99035 35.023 7.24071 34.8477C9.25771 32.8397 11.2197 30.7727 13.3057 28.8397C14.4057 27.8217 14.5617 27.2395 13.3917 26.0225C12.4985 25.1122 11.8208 24.0134 11.4086 22.8065C10.9963 21.5996 10.86 20.3154 11.0097 19.0489C11.1594 17.7824 11.5912 16.5656 12.2735 15.4881C12.9557 14.4106 13.8709 13.4996 14.9517 12.8226C20.1827 9.59157 25.5927 6.64755 30.9327 3.59455C31.6427 3.18955 32.5707 2.71853 33.1687 3.44953C33.9317 4.38053 32.9617 5.03471 32.3617 5.63971C30.3617 7.66071 28.3617 9.69456 26.3057 11.6566C25.5197 12.4066 25.3927 12.8417 26.2317 13.7327C30.5567 18.3247 29.6837 24.6736 24.2827 27.8546C19.3897 30.7366 14.4237 33.4947 9.48271 36.2957C8.93298 36.6998 8.27863 36.9371 7.5977 36.9796ZM19.9597 23.1055C20.5582 23.0821 21.1365 22.883 21.6223 22.5328C22.1081 22.1826 22.48 21.6969 22.6914 21.1365C22.9028 20.5762 22.9444 19.966 22.8109 19.3821C22.6775 18.7983 22.3749 18.2667 21.9411 17.8538C21.5072 17.4409 20.9613 17.165 20.3716 17.0606C19.7819 16.9562 19.1744 17.028 18.6252 17.2669C18.076 17.5058 17.6094 17.901 17.2836 18.4036C16.9579 18.9062 16.7875 19.4937 16.7937 20.0926C16.8029 20.4986 16.8922 20.8987 17.0564 21.2701C17.2207 21.6415 17.4567 21.9767 17.7508 22.2567C18.045 22.5366 18.3916 22.7558 18.7706 22.9014C19.1497 23.0471 19.5538 23.1164 19.9597 23.1055Z" fill="#70AFED" stroke="#70AFED" stroke-width="0.25" stroke-miterlimit="10"/>
</svg>
