<svg width="41" height="41" viewBox="0 0 41 41" fill="none" xmlns="http://www.w3.org/2000/svg">
<path d="M10.2428 8.11056C10.1668 8.11789 10.0965 8.15397 10.0461 8.21139C9.99577 8.2688 9.9692 8.34332 9.97185 8.41964V10.0515L8.64384 8.94356C8.61318 8.91602 8.57726 8.89487 8.53825 8.88155C8.49924 8.86824 8.45796 8.86289 8.41685 8.86593C8.37575 8.86896 8.33568 8.88047 8.29905 8.89937C8.26243 8.91828 8.22997 8.94429 8.20369 8.97603C8.1774 9.00778 8.15781 9.04443 8.14607 9.08395C8.13433 9.12346 8.13068 9.16506 8.13536 9.20602C8.14004 9.24697 8.15296 9.28639 8.17332 9.32223C8.19368 9.35807 8.22108 9.38952 8.25386 9.41451L9.97185 10.8466V14.2924L6.99684 12.6025L6.61186 10.3615C6.60205 10.282 6.56102 10.2094 6.49782 10.1601C6.43462 10.1108 6.35442 10.0888 6.27485 10.0986C6.19529 10.1084 6.12288 10.1494 6.07356 10.2126C6.02424 10.2758 6.00204 10.3559 6.01185 10.4355V10.4655L6.31184 12.2126L4.79385 11.3515C4.72383 11.3111 4.64061 11.3001 4.5625 11.321C4.48439 11.3419 4.41779 11.3931 4.37735 11.4631C4.3369 11.5331 4.32592 11.6162 4.34683 11.6943C4.36774 11.7724 4.41883 11.8392 4.48884 11.8796L5.95485 12.7126L4.37985 13.2924C4.30254 13.3159 4.23771 13.3691 4.19964 13.4404C4.16157 13.5117 4.15338 13.5953 4.17685 13.6726C4.20032 13.7499 4.25355 13.8147 4.32481 13.8527C4.39608 13.8908 4.47954 13.8989 4.55685 13.8754L4.58885 13.8645L6.64985 13.1076L9.65785 14.8156L6.64985 16.5246L4.58885 15.7624C4.54051 15.7437 4.4883 15.7374 4.43684 15.7436C4.36485 15.7471 4.29652 15.7764 4.24435 15.8261C4.19218 15.8759 4.15967 15.9426 4.15275 16.0144C4.14583 16.0861 4.16498 16.158 4.20668 16.2168C4.24838 16.2755 4.30985 16.3173 4.37985 16.3344L5.95485 16.9145L4.48884 17.7475C4.45417 17.7675 4.42379 17.7941 4.39943 17.8259C4.37506 17.8577 4.35718 17.8939 4.34683 17.9326C4.33648 17.9713 4.33384 18.0118 4.33908 18.0515C4.34431 18.0912 4.35732 18.1294 4.37735 18.164C4.39737 18.1987 4.42404 18.229 4.45581 18.2534C4.48758 18.2777 4.52382 18.2958 4.5625 18.3061C4.60117 18.3165 4.64152 18.3189 4.68121 18.3137C4.7209 18.3084 4.75918 18.2956 4.79385 18.2756L6.31685 17.4096L6.01686 19.1606C6.00832 19.2 6.00762 19.2406 6.01481 19.2802C6.022 19.3199 6.03694 19.3579 6.05876 19.3918C6.08058 19.4257 6.10885 19.4548 6.14198 19.4777C6.17511 19.5007 6.21245 19.5171 6.25184 19.5256C6.29124 19.5341 6.33193 19.5347 6.37159 19.5275C6.41126 19.5204 6.44912 19.5054 6.48301 19.4836C6.51691 19.4618 6.54617 19.4335 6.56914 19.4004C6.5921 19.3672 6.6083 19.3299 6.61683 19.2905V19.2656L7.00184 17.0246L9.97685 15.3344V18.7805L8.25883 20.2126C8.22606 20.2376 8.19869 20.2688 8.17833 20.3046C8.15797 20.3405 8.14505 20.3802 8.14036 20.4211C8.13568 20.4621 8.13933 20.5034 8.15107 20.5429C8.16282 20.5824 8.1824 20.6193 8.20869 20.6511C8.23498 20.6828 8.26743 20.7088 8.30406 20.7277C8.34069 20.7466 8.38075 20.7579 8.42186 20.7609C8.46296 20.764 8.50425 20.7589 8.54326 20.7456C8.58226 20.7322 8.61818 20.7111 8.64885 20.6836L9.97685 19.5756V21.2126C9.97632 21.2526 9.98367 21.2922 9.99849 21.3293C10.0133 21.3665 10.0353 21.4003 10.0632 21.4289C10.0911 21.4576 10.1244 21.4805 10.1611 21.4963C10.1979 21.5121 10.2374 21.5204 10.2774 21.521C10.3173 21.5215 10.357 21.5143 10.3942 21.4995C10.4313 21.4847 10.4652 21.4627 10.4938 21.4348C10.5225 21.4069 10.5454 21.3736 10.5611 21.3369C10.5769 21.3001 10.5853 21.2604 10.5859 21.2204V19.5756L11.9139 20.6836C11.9445 20.7111 11.9804 20.7322 12.0194 20.7456C12.0584 20.7589 12.0997 20.764 12.1409 20.7609C12.182 20.7579 12.222 20.7466 12.2586 20.7277C12.2953 20.7088 12.3277 20.6828 12.354 20.6511C12.3803 20.6193 12.3999 20.5824 12.4116 20.5429C12.4234 20.5034 12.427 20.4621 12.4223 20.4211C12.4176 20.3802 12.4047 20.3405 12.3844 20.3046C12.364 20.2688 12.3366 20.2376 12.3038 20.2126L10.5859 18.7805V15.3344L13.5599 17.0246L13.9458 19.2656C13.9565 19.3452 13.9982 19.4173 14.062 19.466C14.1258 19.5148 14.2063 19.5362 14.2858 19.5256C14.3654 19.515 14.4375 19.4731 14.4862 19.4094C14.535 19.3456 14.5565 19.2651 14.5459 19.1855V19.1606L14.2459 17.4096L15.7688 18.2756C15.8035 18.2956 15.8418 18.3084 15.8815 18.3137C15.9212 18.3189 15.9615 18.3165 16.0002 18.3061C16.0389 18.2958 16.0751 18.2777 16.1069 18.2534C16.1387 18.229 16.1653 18.1987 16.1853 18.164C16.2054 18.1294 16.2184 18.0912 16.2236 18.0515C16.2289 18.0118 16.2262 17.9713 16.2159 17.9326C16.2055 17.8939 16.1876 17.8577 16.1633 17.8259C16.1389 17.7941 16.1085 17.7675 16.0738 17.7475L14.6079 16.9145L16.1828 16.3344C16.2524 16.3094 16.3106 16.2602 16.3464 16.1955C16.3823 16.1308 16.3934 16.0551 16.3777 15.9829C16.3621 15.9106 16.3207 15.8465 16.2613 15.8025C16.2019 15.7584 16.1286 15.7376 16.0549 15.7436C16.0272 15.7465 15.9999 15.7526 15.9739 15.7624L13.9129 16.5246L10.9049 14.8156L13.9129 13.1076L15.9739 13.8645C16.0481 13.8964 16.132 13.8975 16.2071 13.8676C16.2822 13.8377 16.3424 13.7793 16.3743 13.705C16.4063 13.6308 16.4075 13.5467 16.3775 13.4716C16.3476 13.3965 16.2891 13.3366 16.2149 13.3046L16.1828 13.2924L14.6079 12.7126L16.0738 11.8796C16.1439 11.8392 16.195 11.7724 16.2159 11.6943C16.2368 11.6162 16.2258 11.5331 16.1853 11.4631C16.1449 11.3931 16.0783 11.3419 16.0002 11.321C15.9221 11.3001 15.8389 11.3111 15.7688 11.3515L14.2508 12.2126L14.5509 10.4655C14.5574 10.4261 14.5561 10.3858 14.5471 10.3469C14.5381 10.308 14.5215 10.2712 14.4983 10.2387C14.4751 10.2062 14.4457 10.1786 14.4118 10.1574C14.378 10.1363 14.3403 10.122 14.3009 10.1154C14.2615 10.1089 14.2211 10.1103 14.1822 10.1193C14.1433 10.1284 14.1066 10.1447 14.0741 10.1679C14.0416 10.1911 14.014 10.2207 13.9928 10.2546C13.9717 10.2885 13.9574 10.326 13.9508 10.3654L13.5648 12.6067L10.5908 14.2966V10.8505L12.3089 9.41842C12.3714 9.3667 12.4109 9.29246 12.4186 9.21163C12.4263 9.1308 12.4016 9.0501 12.3498 8.98751C12.2981 8.92492 12.2237 8.88558 12.1428 8.87789C12.062 8.8702 11.9814 8.89478 11.9188 8.94649L10.5908 10.0546V8.42257C10.5923 8.38226 10.5857 8.34208 10.5712 8.3044C10.5568 8.26673 10.535 8.23236 10.507 8.20333C10.479 8.1743 10.4454 8.15122 10.4082 8.13546C10.3711 8.1197 10.3312 8.11151 10.2908 8.11153C10.2749 8.1098 10.2588 8.10949 10.2428 8.11056Z" fill="#6FD1EF" stroke="#6FD1EF" stroke-width="0.096" stroke-miterlimit="10"/>
<path d="M20.9398 23.0868C23.6338 23.0868 26.3308 23.0198 29.0218 23.1078C30.0571 23.1338 31.0565 23.4922 31.8723 24.13C32.6881 24.7679 33.277 25.6514 33.5519 26.6498C33.8134 27.5203 33.7744 28.4533 33.4411 29.299C33.1079 30.1446 32.4999 30.8536 31.7149 31.3117C31.1564 31.7006 30.4974 31.9198 29.8173 31.9425C29.1371 31.9652 28.465 31.7904 27.8818 31.4396C27.3023 31.1483 26.8211 30.6933 26.498 30.1308C26.175 29.5683 26.0243 28.9232 26.0648 28.2758C26.1018 27.4668 26.3399 26.6758 27.3179 26.6208C28.2699 26.5688 28.4509 27.2506 28.4179 28.0536C28.3669 29.1026 28.8888 29.6658 29.9328 29.5168C30.1611 29.501 30.3831 29.4351 30.5831 29.3239C30.783 29.2126 30.9559 29.0587 31.0896 28.873C31.2233 28.6873 31.3144 28.4743 31.3564 28.2494C31.3984 28.0245 31.3904 27.7931 31.3328 27.5717C31.0758 25.8037 29.7819 25.3818 28.2329 25.3808C23.5502 25.3808 18.8672 25.378 14.1839 25.3727C13.6069 25.3727 13.0278 25.3727 12.4538 25.3297C11.7618 25.2747 11.1538 25.0237 11.1598 24.2067C11.1658 23.3897 11.7949 23.1227 12.4819 23.1127C14.9189 23.0747 17.3559 23.0778 19.7929 23.0668C20.1779 23.0668 20.5629 23.0668 20.9479 23.0668L20.9398 23.0868Z" fill="#6FD1EF" stroke="#6FD1EF" stroke-width="0.096" stroke-miterlimit="10"/>
<path d="M26.2969 21.1518C24.1179 21.1518 21.9389 21.1779 19.7619 21.1389C18.9089 21.1239 17.6929 21.3079 17.7419 20.0029C17.7859 18.7959 18.9679 18.8736 19.8419 18.8666C23.8789 18.8346 27.9149 18.8528 31.9519 18.8398C32.5913 18.8726 33.2322 18.8282 33.8609 18.7077C34.1904 18.6373 34.4979 18.4885 34.7573 18.2736C35.0167 18.0588 35.2204 17.7844 35.3509 17.4738C35.4814 17.1633 35.535 16.8256 35.5069 16.4899C35.4789 16.1542 35.3701 15.8304 35.1899 15.5458C35.0284 15.2652 34.7868 15.0392 34.4961 14.8967C34.2053 14.7542 33.8787 14.7016 33.5579 14.7458C32.8759 14.8628 32.6669 15.3968 32.5769 16.0058C32.4559 16.8268 32.4189 17.9218 31.2769 17.7258C30.1579 17.5338 30.2199 16.4107 30.2969 15.5117C30.3464 15.0478 30.4869 14.5983 30.7105 14.1889C30.9342 13.7795 31.2364 13.4182 31.6 13.1259C31.9635 12.8336 32.3812 12.616 32.8291 12.4855C33.277 12.3551 33.7463 12.3143 34.2099 12.3657C35.2978 12.5258 36.2811 13.1021 36.9526 13.9728C37.6242 14.8436 37.9315 15.941 37.8099 17.0339C37.6684 18.1559 37.1259 19.1888 36.2825 19.9423C35.4392 20.6958 34.3518 21.119 33.2209 21.1337C30.9209 21.1887 28.6079 21.1457 26.3019 21.1457L26.2969 21.1518Z" fill="#6FD1EF" stroke="#6FD1EF" stroke-width="0.096" stroke-miterlimit="10"/>
</svg>
