<svg width="41" height="41" viewBox="0 0 41 41" fill="none" xmlns="http://www.w3.org/2000/svg">
<path d="M32.2037 34.3079C31.7807 34.9079 30.8807 36.4967 32.3037 36.7197C32.4743 36.739 32.6469 36.7216 32.8101 36.6685C32.9733 36.6153 33.1232 36.5279 33.2497 36.4119C33.4794 36.1898 33.6632 35.9248 33.7907 35.6319C34.2376 34.6788 34.6175 33.6956 34.9277 32.6897C35.2002 32.0058 35.3544 31.2804 35.3837 30.5447C35.3837 30.5447 33.1447 32.9759 32.2037 34.3079Z" fill="#70AFED" stroke="#70AFED" stroke-width="0.106" stroke-miterlimit="10"/>
<path d="M19.3107 5.3256C19.2703 5.33271 19.2306 5.34277 19.1917 5.35562C18.9778 5.40329 18.787 5.52396 18.652 5.69669C18.517 5.86942 18.4462 6.08351 18.4517 6.30265V9.14664C18.4517 9.3986 18.5518 9.64036 18.7299 9.81852C18.9081 9.99668 19.1497 10.0966 19.4017 10.0966C19.6536 10.0966 19.8953 9.99668 20.0734 9.81852C20.2516 9.64036 20.3517 9.3986 20.3517 9.14664V6.30265C20.3603 6.05142 20.269 5.80712 20.0976 5.6232C19.9262 5.43928 19.6889 5.33081 19.4377 5.32169C19.3953 5.32042 19.3529 5.32167 19.3107 5.3256ZM9.24067 9.50162C9.0598 9.51881 8.8877 9.5878 8.74488 9.70011C8.60207 9.81242 8.4946 9.96344 8.43525 10.1352C8.3759 10.3069 8.36718 10.4921 8.41017 10.6686C8.45316 10.8451 8.54602 11.0056 8.67768 11.1308L10.6617 13.1447C10.8437 13.3192 11.0869 13.4154 11.339 13.4128C11.5911 13.4101 11.8322 13.3088 12.0105 13.1305C12.1888 12.9522 12.2901 12.711 12.2928 12.4589C12.2955 12.2068 12.1992 11.9637 12.0247 11.7817L10.0107 9.79776C9.92339 9.70427 9.81806 9.62936 9.701 9.57779C9.58394 9.52623 9.45763 9.49903 9.32972 9.49771H9.24067V9.50162ZM29.3507 9.50162C29.134 9.53358 28.935 9.63963 28.7877 9.80167L26.7737 11.7858C26.5992 11.9678 26.503 12.2109 26.5056 12.463C26.5083 12.7152 26.6096 12.9561 26.7879 13.1344C26.9662 13.3127 27.2073 13.4143 27.4594 13.4169C27.7116 13.4196 27.9547 13.3231 28.1367 13.1486L30.1217 11.1347C30.2588 11.002 30.3527 10.8311 30.3911 10.6442C30.4295 10.4573 30.4106 10.2633 30.3369 10.0873C30.2633 9.91135 30.1382 9.76164 29.9782 9.65787C29.8181 9.5541 29.6304 9.50119 29.4397 9.50577H29.3507V9.50162ZM19.3997 12.9377C17.9002 12.9377 16.4342 13.3824 15.1874 14.2155C13.9405 15.0486 12.9687 16.2329 12.3948 17.6183C11.821 19.0037 11.6708 20.5282 11.9634 21.9989C12.2559 23.4697 12.978 24.8207 14.0384 25.881C15.0988 26.9414 16.4498 27.6634 17.9205 27.956C19.3913 28.2485 20.9158 28.0984 22.3012 27.5246C23.6866 26.9507 24.8708 25.9789 25.7039 24.7321C26.5371 23.4852 26.9817 22.0193 26.9817 20.5197C26.9769 18.5103 26.1766 16.5846 24.7557 15.1637C23.3349 13.7429 21.4091 12.9424 19.3997 12.9377ZM4.99971 19.5717C4.74775 19.5953 4.51548 19.7181 4.35402 19.913C4.19255 20.1078 4.11508 20.3588 4.13868 20.6108C4.16229 20.8627 4.28502 21.095 4.47987 21.2565C4.67472 21.418 4.92573 21.4952 5.17768 21.4716H8.02168C8.27363 21.4716 8.51527 21.3717 8.69343 21.1935C8.87159 21.0154 8.97169 20.7736 8.97169 20.5216C8.97169 20.2697 8.87159 20.0282 8.69343 19.85C8.51527 19.6719 8.27363 19.5717 8.02168 19.5717H4.99971ZM30.5897 19.5717C30.3377 19.5953 30.1055 19.7181 29.944 19.913C29.7826 20.1078 29.7051 20.3588 29.7287 20.6108C29.7523 20.8627 29.875 21.095 30.0699 21.2565C30.2647 21.418 30.5158 21.4952 30.7677 21.4716H33.6187C33.8707 21.4716 34.1123 21.3717 34.2905 21.1935C34.4686 21.0154 34.5687 20.7736 34.5687 20.5216C34.5687 20.2697 34.4686 20.0282 34.2905 19.85C34.1123 19.6719 33.8707 19.5717 33.6187 19.5717H30.5977H30.5897ZM11.2197 27.6276C11.0076 27.651 10.8095 27.7448 10.6567 27.8937L8.67268 29.9076C8.57241 29.9845 8.48855 30.0808 8.42598 30.1906C8.3634 30.3003 8.32338 30.4213 8.3083 30.5468C8.29322 30.6722 8.30337 30.7996 8.33815 30.9211C8.37293 31.0425 8.43163 31.1556 8.51081 31.2541C8.59 31.3525 8.68808 31.4343 8.79927 31.4943C8.91045 31.5543 9.03251 31.5915 9.15828 31.6037C9.28404 31.6158 9.41094 31.6027 9.53157 31.5651C9.65219 31.5275 9.76414 31.4661 9.86073 31.3847C9.91383 31.3421 9.9621 31.2937 10.0047 31.2406L12.0187 29.2558C12.1676 29.117 12.2679 28.934 12.3048 28.7338C12.3416 28.5336 12.3131 28.3269 12.2233 28.1442C12.1336 27.9615 11.9875 27.8126 11.8066 27.7194C11.6257 27.6262 11.4195 27.5936 11.2187 27.6266L11.2197 27.6276ZM19.3057 30.9157C19.2655 30.9229 19.2258 30.9327 19.1867 30.9447C18.9728 30.9928 18.782 31.1134 18.6471 31.2863C18.5122 31.4591 18.4414 31.6735 18.4467 31.8927V34.7358C18.4467 34.9877 18.5468 35.2292 18.7249 35.4074C18.9031 35.5855 19.1447 35.6857 19.3967 35.6857C19.6486 35.6857 19.8903 35.5855 20.0684 35.4074C20.2466 35.2292 20.3467 34.9877 20.3467 34.7358V31.8927C20.3553 31.6415 20.264 31.397 20.0926 31.213C19.9212 31.0291 19.6839 30.9209 19.4327 30.9118C19.392 30.9107 19.3512 30.912 19.3107 30.9157H19.3057Z" fill="#FBB03B"/>
<path fill-rule="evenodd" clip-rule="evenodd" d="M19.3867 31.4728C19.3527 31.2418 19.4377 31.1376 19.5717 31.1056C19.7057 31.0736 19.8437 31.1056 20.0037 31.0646C20.1117 31.1465 20.2018 31.2496 20.2686 31.3676C20.3353 31.4856 20.3772 31.6159 20.3917 31.7507C20.4497 31.8947 20.2507 31.8778 20.0917 31.8818C20.2637 31.9418 20.3917 32.0868 20.1917 32.2018C20.1917 32.3728 20.2307 32.5688 20.0917 32.6498C20.3277 32.8258 20.1277 33.2697 20.1917 33.5497C20.3012 33.8369 20.3751 34.1366 20.4117 34.4418C20.459 34.6159 20.4651 34.7986 20.4295 34.9755C20.3939 35.1524 20.3176 35.3183 20.2067 35.4606C20.085 35.6022 19.9296 35.711 19.7548 35.7765C19.58 35.8421 19.3914 35.8623 19.2067 35.8356C18.8756 35.7838 18.5758 35.6107 18.3657 35.3498C18.3557 35.0988 18.1707 34.9676 18.4007 34.7306C18.4277 34.5436 18.1697 34.5306 18.2007 34.3466C18.2637 34.1726 18.0707 33.8387 18.3007 33.7697C18.1087 33.4837 17.8877 32.8806 18.1007 32.5546C17.7427 32.4686 18.1107 32.3178 17.9007 32.1728V31.8727C17.8994 31.721 17.9213 31.5699 17.9657 31.4247C18.003 31.1392 18.0932 30.8632 18.2317 30.6108C18.3104 30.4694 18.4245 30.3507 18.5628 30.2668C18.7011 30.1828 18.8589 30.1363 19.0207 30.1318L18.9517 30.1508C19.0186 30.1471 19.0859 30.1517 19.1517 30.1647C19.3057 30.2647 19.2267 30.4987 19.1077 30.6457L19.1337 30.6386C19.0664 30.7175 18.9738 30.7706 18.8717 30.7887C18.7937 30.9887 18.4897 31.1606 18.5307 31.3886C18.5407 31.6486 18.5597 31.7957 18.5797 31.9887C18.5794 32.1824 18.6264 32.3732 18.7167 32.5446C18.7422 32.9566 18.8092 33.365 18.9167 33.7636C18.9497 33.9556 18.9817 34.1507 19.0027 34.3527L19.0227 34.6618C19.0219 34.719 19.0256 34.7761 19.0337 34.8327C18.9447 34.9547 19.0997 35.0257 19.0577 35.2087C19.2577 35.0157 19.2007 35.2037 19.2967 35.2087C19.4157 35.1937 19.4267 35.0347 19.6467 35.1557C19.6872 35.1061 19.7153 35.0477 19.7285 34.985C19.7417 34.9224 19.7398 34.8575 19.7227 34.7958C19.716 34.7729 19.7113 34.7494 19.7087 34.7258C19.7047 34.6638 19.7047 34.6017 19.7087 34.5397C19.7146 34.4182 19.742 34.2986 19.7897 34.1867C19.3797 33.8187 19.5567 33.4777 19.4837 32.8967C19.5307 32.6837 19.5487 32.4607 19.5837 32.2177C19.598 32.0973 19.6217 31.9784 19.6547 31.8617C19.6963 31.8097 19.7301 31.7516 19.7547 31.6896C19.7057 31.671 19.6526 31.6664 19.6011 31.6759C19.5496 31.6855 19.5018 31.709 19.4627 31.7438C19.4077 31.7878 19.4287 31.7718 19.3867 31.4728Z" fill="#FBB03B"/>
<path fill-rule="evenodd" clip-rule="evenodd" d="M11.7548 27.8146C11.7947 27.6942 11.7929 27.564 11.7498 27.4447C11.7269 27.3835 11.693 27.3269 11.6498 27.2778L11.3098 28.1718V28.1398V28.1008V28.0297C11.3136 27.9908 11.3251 27.953 11.3438 27.9186C11.3777 27.8609 11.4325 27.8184 11.4968 27.7997C11.6268 27.7567 11.7728 27.7808 11.9318 27.7338C12.0458 27.8112 12.1428 27.911 12.2168 28.0273C12.2907 28.1435 12.3401 28.2738 12.3618 28.4098C12.4268 28.5558 12.2238 28.5447 12.0618 28.5517C12.2398 28.5817 12.3508 28.7768 12.1228 28.8188C12.0798 28.9538 11.9978 29.1186 11.8458 29.0656C11.8878 29.3556 11.4238 29.5327 11.2678 29.7787C10.967 30.3601 10.5727 30.8881 10.1008 31.3417L10.1118 31.3298C9.99618 31.4785 9.84475 31.5955 9.67161 31.6698C9.49847 31.7442 9.3093 31.7735 9.1218 31.7548C8.78633 31.719 8.47672 31.5577 8.2548 31.3036C8.2368 31.0476 8.03879 30.9237 8.26579 30.6737C8.29779 30.4847 8.04478 30.4247 8.14878 30.1947C8.24178 30.0637 8.33778 29.7847 8.50578 29.7057L8.4838 29.7258C8.50666 29.7122 8.53273 29.705 8.5593 29.705C8.58587 29.705 8.61195 29.7122 8.6348 29.7258C8.7038 29.3838 8.97978 28.7876 9.35978 28.6996C9.16978 28.3826 9.53678 28.5348 9.48978 28.2768L9.90177 27.8578C10.0208 27.7068 10.0148 27.5237 10.1588 27.2697C10.2613 27.119 10.4016 26.9979 10.5658 26.9186C10.646 26.8804 10.7323 26.8566 10.8208 26.8478C10.864 26.8439 10.9075 26.8439 10.9508 26.8478L11.0148 26.8578L11.0468 26.8656H11.0608C11.0131 26.8756 10.9665 26.8905 10.9218 26.9098C10.8383 26.9461 10.7651 27.0023 10.7085 27.0737C10.652 27.145 10.614 27.2292 10.5978 27.3188C10.5928 27.4088 10.6248 27.4296 10.6608 27.4186C10.6968 27.4076 10.7458 27.3436 10.8538 27.2726C10.9438 27.1956 11.1858 27.1858 11.0988 27.2348C11.0665 27.3031 11.0189 27.3628 10.9598 27.4098C10.9007 27.4568 10.8316 27.4897 10.7578 27.5058C10.6668 27.7208 10.4118 27.8808 10.4008 28.0788C10.2868 28.5678 9.90078 28.7118 9.79478 29.1308C9.51984 29.4472 9.27765 29.7905 9.07182 30.1557L9.00877 30.2426L8.96879 30.2797C8.88597 30.4256 8.85997 30.5968 8.89579 30.7607C8.80979 30.8887 8.9748 30.9538 8.9398 31.1398C9.1248 30.9398 9.0838 31.1286 9.1818 31.1266C9.3028 31.1066 9.30179 30.9467 9.53379 31.0527C9.56045 31.0097 9.58196 30.9637 9.59782 30.9157L9.63877 30.8717C9.83033 30.4795 10.1374 30.1553 10.5188 29.9428C10.4978 29.3868 10.8688 29.2696 11.2378 28.8036L11.3758 28.7106C11.4318 28.6686 11.4618 28.6478 11.4688 28.6518C11.4932 28.6475 11.5166 28.6385 11.5378 28.6257C11.6234 28.5674 11.6844 28.4795 11.7088 28.3788C11.6592 28.3621 11.606 28.3595 11.5551 28.3715C11.5042 28.3835 11.4577 28.4096 11.4208 28.4467C11.3948 28.4687 11.3898 28.4776 11.3808 28.4396L11.3598 28.3498L11.3388 28.2768L11.3248 28.2316L11.3158 28.2077V28.1947V28.1886L11.6278 27.2367L11.6788 27.2978C11.7155 27.3481 11.7435 27.4042 11.7618 27.4638C11.7964 27.5786 11.7939 27.7013 11.7548 27.8146Z" fill="#FBB03B"/>
<path fill-rule="evenodd" clip-rule="evenodd" d="M30.6337 20.1327C30.6268 20.0538 30.6384 19.9744 30.6677 19.9008H30.6987C30.8137 19.6938 31.1568 19.7257 31.3088 19.5217H32.0867C32.2257 19.4747 32.2088 19.6678 32.2128 19.8288C32.2768 19.6568 32.4197 19.5287 32.5387 19.7287C32.7107 19.7287 32.9087 19.6908 32.9917 19.8288C33.1577 19.6058 33.6497 19.7616 33.8517 19.7616C34.0038 19.7502 34.1556 19.7866 34.2859 19.8657C34.4163 19.9447 34.5187 20.0627 34.5787 20.2028C34.6552 20.3737 34.6812 20.5626 34.6537 20.7477C34.6263 20.9329 34.5465 21.1064 34.4238 21.2477C34.3003 21.3839 34.1471 21.4899 33.9761 21.5575C33.8052 21.6252 33.621 21.6525 33.4377 21.6376C33.1606 21.6449 32.8844 21.6739 32.6117 21.7238C32.4117 21.6028 32.2957 21.7606 32.0937 21.5236C31.9037 21.4956 31.8938 21.7548 31.7048 21.7238C31.5288 21.6608 31.1897 21.8537 31.1207 21.6237C31.0112 21.6936 30.8946 21.7517 30.7728 21.7968H30.8027C30.6053 21.8821 30.3828 21.8888 30.1806 21.8156C29.9784 21.7424 29.8117 21.5947 29.7147 21.4028C29.3447 21.5278 29.5147 21.1327 29.2507 21.0107C29.1515 20.7154 29.1449 20.397 29.2317 20.0978C29.267 19.7778 29.3747 19.4699 29.5467 19.1977C29.6426 19.0447 29.7842 18.9256 29.9515 18.8576C30.1188 18.7896 30.3033 18.7761 30.4787 18.8188C30.5887 18.9018 30.5597 19.0548 30.4867 19.1818C30.4522 19.249 30.4032 19.3076 30.3432 19.3534C30.2832 19.3993 30.2137 19.4311 30.1398 19.4467C30.0608 19.6467 29.7578 19.8248 29.7988 20.0468C29.8023 20.2456 29.8231 20.4434 29.8608 20.6386C29.8707 20.7207 29.9054 20.7981 29.9602 20.86C30.015 20.922 30.0874 20.9659 30.1677 20.9858C30.2384 21.0627 30.3328 21.1138 30.4359 21.131C30.539 21.1482 30.6449 21.1306 30.7367 21.0807H30.7728L31.1207 21.0077C31.526 20.9261 31.9395 20.8924 32.3527 20.9076C32.5397 21.0226 32.8587 20.9278 33.0007 21.1078C33.1007 20.8368 33.2428 21.0277 33.3898 21.0077C33.4779 20.9882 33.5632 20.9575 33.6437 20.9167C33.6927 20.8867 33.7288 20.8928 33.8558 20.9448C33.8973 20.8951 33.9262 20.8361 33.9399 20.7729C33.9537 20.7097 33.9519 20.6441 33.9347 20.5817C33.9047 20.4925 33.9047 20.396 33.9347 20.3068C33.8363 20.3333 33.7416 20.3719 33.6528 20.4218C33.6408 20.4232 33.6287 20.4232 33.6167 20.4218C33.4931 20.4203 33.3696 20.4265 33.2467 20.4406C32.7374 20.3913 32.2347 20.2889 31.7467 20.1347C31.4287 20.2267 30.8797 20.6268 30.7117 20.2848H30.6437C30.6452 20.234 30.6418 20.183 30.6337 20.1327Z" fill="#FBB03B"/>
<path fill-rule="evenodd" clip-rule="evenodd" d="M5.04378 20.1327C5.03657 20.0537 5.04855 19.9742 5.07875 19.9008H5.10976C5.22376 19.6938 5.56677 19.7257 5.71877 19.5217H6.49678C6.63578 19.4747 6.61876 19.6678 6.62276 19.8288C6.68776 19.6568 6.82975 19.5287 6.94875 19.7287C7.12075 19.7287 7.31979 19.6908 7.40279 19.8288C7.56779 19.6058 8.0598 19.7616 8.2618 19.7616C8.41386 19.75 8.56573 19.7863 8.69612 19.8654C8.82651 19.9445 8.92886 20.0626 8.98879 20.2028C9.06547 20.3736 9.09157 20.5628 9.0641 20.748C9.03664 20.9332 8.95671 21.1065 8.83376 21.2477C8.71026 21.3839 8.55715 21.4899 8.38619 21.5575C8.21523 21.6252 8.03104 21.6525 7.8478 21.6376C7.57066 21.6449 7.29445 21.6739 7.02175 21.7238C6.82175 21.6028 6.70574 21.7606 6.50374 21.5236C6.31374 21.4956 6.30376 21.7548 6.11476 21.7238C5.93876 21.6608 5.59976 21.8537 5.53176 21.6237C5.42189 21.6936 5.3049 21.7517 5.18276 21.7968H5.21376C5.01623 21.8824 4.79346 21.8891 4.59102 21.8158C4.38859 21.7426 4.2218 21.5949 4.12477 21.4028C3.75477 21.5278 3.92478 21.1327 3.66078 21.0107C3.5616 20.7154 3.55492 20.397 3.64174 20.0978C3.67752 19.7779 3.78521 19.4701 3.95674 19.1977C4.05263 19.0447 4.19431 18.9256 4.36159 18.8576C4.52887 18.7896 4.71328 18.7761 4.88875 18.8188C4.99875 18.9018 4.96975 19.0548 4.89675 19.1818C4.86236 19.2491 4.81336 19.3078 4.75331 19.3537C4.69327 19.3995 4.62372 19.4312 4.54976 19.4467C4.47076 19.6467 4.16776 19.8248 4.20876 20.0468C4.21285 20.2455 4.2336 20.4433 4.27077 20.6386C4.28078 20.7209 4.3156 20.7983 4.37062 20.8603C4.42564 20.9223 4.49824 20.9661 4.57875 20.9858C4.64929 21.0627 4.74354 21.1138 4.84645 21.131C4.94937 21.1482 5.05503 21.1305 5.14675 21.0807H5.18276L5.53176 21.0077C5.93672 20.926 6.34993 20.8924 6.76277 20.9076C6.94977 21.0226 7.26876 20.9278 7.41176 21.1078C7.51176 20.8368 7.65274 21.0277 7.80074 21.0077C7.88862 20.9884 7.9737 20.9577 8.05379 20.9167C8.10379 20.8867 8.13876 20.8928 8.26576 20.9448C8.30731 20.8951 8.33623 20.8361 8.34999 20.7729C8.36375 20.7097 8.36192 20.6441 8.34474 20.5817C8.31472 20.4925 8.31472 20.396 8.34474 20.3068C8.24634 20.3333 8.15163 20.3719 8.06276 20.4218C8.0508 20.4232 8.03871 20.4232 8.02675 20.4218C7.90347 20.4203 7.78026 20.4264 7.65779 20.4406C7.14844 20.3915 6.64567 20.2891 6.15779 20.1347C5.83879 20.2267 5.28978 20.6268 5.12178 20.2848H5.05477C5.0553 20.234 5.05163 20.183 5.04378 20.1327Z" fill="#FBB03B"/>
<path fill-rule="evenodd" clip-rule="evenodd" d="M19.3998 13.4997C19.5178 13.2837 20.0218 13.1677 20.5928 13.2177C21.1688 13.2357 21.7928 13.4058 22.2188 13.4348C23.1962 13.8251 24.0816 14.4145 24.8188 15.1657C25.2328 15.5497 25.0458 15.6319 24.9398 15.7539C25.1521 15.8254 25.3408 15.9533 25.4858 16.124C25.6308 16.2947 25.7266 16.5018 25.7628 16.7229C25.9421 17.0139 26.1005 17.3173 26.2368 17.6308C26.3352 17.8684 26.3901 18.1218 26.3988 18.3789C26.5175 18.5795 26.6099 18.7945 26.6738 19.0188C26.7429 19.3237 26.7874 19.6337 26.8068 19.9458C26.8297 20.5946 26.7909 21.2442 26.6908 21.8857C26.5778 23.0945 26.1339 24.2487 25.4078 25.2216C24.5983 26.3207 23.501 27.1748 22.2368 27.6897C20.9992 28.195 19.6508 28.3674 18.3258 28.1897C17.1955 28.0385 16.1072 27.6615 15.1258 27.0808C14.5258 26.5148 14.0258 26.3209 13.6598 25.5349C13.1958 24.9289 12.9598 25.0467 12.5698 24.3547C12.4218 24.0197 12.1538 23.5547 11.9918 23.1027C11.832 22.7842 11.7711 22.4252 11.8168 22.0717C11.5388 21.2739 11.4198 20.4292 11.4668 19.5856C11.5023 18.6866 11.7786 17.8137 12.2668 17.0578C12.1088 16.5388 12.7518 16.1646 12.9668 15.5446C13.4833 14.8812 14.0969 14.2995 14.7868 13.8188C15.4214 13.3233 16.1077 12.8978 16.8338 12.5498C17.5889 12.1988 18.4283 12.0703 19.2538 12.1796C19.4788 12.2636 19.4178 12.4166 19.1708 12.5446C18.7726 12.705 18.3512 12.8007 17.9228 12.8278C17.1598 13.0731 16.429 13.4089 15.7458 13.8278C14.4408 14.6752 13.4199 15.8944 12.8148 17.3278C12.1367 18.7717 11.9949 20.4097 12.4148 21.9487C12.813 23.4437 13.6438 24.7879 14.8028 25.8127C15.4054 26.3656 16.0698 26.8471 16.7828 27.2478C17.2138 27.1258 17.6698 27.4768 18.2338 27.5398C19.1263 27.5739 20.02 27.5525 20.9098 27.4758C22.761 26.8775 24.357 25.6736 25.4408 24.0578C25.6008 23.3578 25.8108 22.7637 25.9518 22.0407C26.1453 21.1936 26.1661 20.316 26.0128 19.4606C25.7682 17.6496 24.8581 15.9946 23.4598 14.8178C22.7849 14.4416 22.0528 14.1787 21.2928 14.0397C20.6368 13.9631 19.9975 13.7807 19.3998 13.4997Z" fill="#FBB03B"/>
<path fill-rule="evenodd" clip-rule="evenodd" d="M28.9827 9.92665C28.8964 9.84943 28.836 9.74747 28.8097 9.63466L28.7967 9.5497L29.3767 10.0568V10.0267V9.99159L29.3847 9.92958C29.3917 9.89463 29.4038 9.86106 29.4207 9.82973H29.4437C29.5547 9.61373 29.8067 9.70176 30.0437 9.64076C30.1526 9.72061 30.2442 9.8217 30.3129 9.93788C30.3816 10.0541 30.4261 10.1829 30.4437 10.3168C30.5067 10.4608 30.3047 10.4468 30.1437 10.4518C30.3197 10.4838 30.4287 10.6777 30.2007 10.7147C30.1597 10.8487 30.0747 11.0147 29.9247 10.9577C29.9687 11.2477 29.5167 11.4236 29.3667 11.6696C29.0851 12.2418 28.7103 12.7634 28.2577 13.2128C28.1339 13.3514 27.9781 13.4576 27.8037 13.5221C27.6294 13.5866 27.4419 13.6073 27.2577 13.5827C26.9276 13.5344 26.6264 13.3673 26.4107 13.1127C26.3967 12.8607 26.2027 12.7388 26.4287 12.4938C26.4597 12.3078 26.2067 12.2506 26.3067 12.0236C26.4197 11.8366 26.5817 11.4127 26.7797 11.5507C26.8487 11.2137 27.1207 10.6347 27.5007 10.5507C27.3097 10.2367 27.6767 10.3916 27.6277 10.1376L28.0367 9.73768C28.1299 9.55283 28.2117 9.36241 28.2817 9.16762C28.3777 9.01648 28.5119 8.8934 28.6707 8.81068C28.7483 8.77066 28.8322 8.74469 28.9187 8.73378C28.9616 8.72926 29.0048 8.72926 29.0477 8.73378L29.1108 8.74061C29.1658 8.74061 29.0597 8.75161 29.3197 8.74061C29.8027 8.84061 29.7887 9.05877 29.7197 9.04677C29.6436 9.0491 29.5674 9.04575 29.4917 9.03676C29.4027 9.02176 29.1667 9.08468 29.2097 9.11268C29.1812 9.18155 29.1368 9.24267 29.0801 9.29115C29.0235 9.33963 28.9562 9.37415 28.8837 9.39174C28.8037 9.60974 28.5547 9.76663 28.5417 9.95863C28.4307 10.4356 28.0417 10.5738 27.9417 10.9838C27.6669 11.2917 27.4239 11.6268 27.2167 11.9838C27.127 12.0733 27.0706 12.1908 27.0567 12.3168C27.0471 12.4047 27.0494 12.4934 27.0637 12.5807C26.9797 12.7057 27.1387 12.7736 27.1007 12.9596C27.2927 12.7596 27.2437 12.9526 27.3407 12.9596C27.4607 12.9436 27.4737 12.7857 27.6967 12.9047C27.7457 12.8317 27.9327 12.5046 28.0767 12.3146C28.2125 12.1066 28.4046 11.9416 28.6307 11.8388C28.5967 11.2878 28.9617 11.1707 29.3157 10.7067C29.3927 10.6617 29.5277 10.5496 29.5517 10.5446C29.5763 10.539 29.5998 10.5301 29.6217 10.5177C29.7082 10.4622 29.7713 10.3768 29.7987 10.2777C29.7535 10.2611 29.7047 10.2567 29.6571 10.2648C29.6096 10.2729 29.565 10.293 29.5277 10.3236C29.4637 10.3716 29.4847 10.3918 29.4497 10.2238H29.3987L29.3868 10.1566L29.3787 10.1166L29.3738 10.0936V10.0827V10.0736L28.7827 9.51063C28.783 9.56281 28.7907 9.61472 28.8057 9.66469C28.839 9.76687 28.9003 9.85761 28.9827 9.92665Z" fill="#FBB03B"/>
<path fill-rule="evenodd" clip-rule="evenodd" d="M9.65666 9.87978C9.73182 9.79305 9.77918 9.68565 9.79265 9.57168L9.26665 10.0558V10.0407V10.0197V9.97964L9.28069 9.91079C9.28964 9.87182 9.30702 9.83511 9.33165 9.80361C9.37118 9.74913 9.42909 9.71086 9.49468 9.6957C9.62468 9.6617 9.76668 9.69561 9.92668 9.65761C10.1267 9.83761 10.2977 10.0177 10.4847 10.1977C10.6157 10.2597 10.4677 10.3857 10.3577 10.4977C10.5237 10.4207 10.7157 10.4278 10.6577 10.6518C10.7787 10.7718 10.9456 10.8807 10.9046 11.0387C11.1956 10.9937 11.3717 11.4466 11.6177 11.5966C11.9193 11.6858 12.1735 11.8908 12.3247 12.1666C12.3951 12.3375 12.4164 12.5246 12.3864 12.7069C12.3564 12.8892 12.2761 13.0594 12.1546 13.1986C12.0323 13.3395 11.8769 13.4478 11.7023 13.5136C11.5277 13.5794 11.3395 13.6007 11.1546 13.5756C10.8454 13.5174 10.558 13.3757 10.3237 13.1657C10.2707 12.9407 10.0777 12.9656 10.1087 12.6566C9.99569 12.5036 9.80865 12.6797 9.69365 12.5277C9.61665 12.3587 9.24568 12.2576 9.36168 12.0446C9.01768 11.9676 8.4617 11.7216 8.3477 11.3036C7.9777 11.4246 8.14765 11.0328 7.89165 10.9118C7.79622 10.6183 7.79207 10.3027 7.87968 10.0067C7.91677 9.69008 8.02401 9.38557 8.19365 9.11562C8.29676 8.96859 8.4368 8.85147 8.59966 8.77578C8.67923 8.73959 8.76452 8.71741 8.85167 8.71059C8.89254 8.70607 8.93378 8.70607 8.97466 8.71059C8.88526 8.74466 8.80752 8.80383 8.75066 8.88076C8.67366 9.11776 8.86268 9.1177 8.99168 9.1437C9.01868 9.1537 9.07568 9.1616 9.06468 9.1896C9.04339 9.21831 9.01849 9.24433 8.99065 9.26674C8.9311 9.31688 8.85996 9.35112 8.78368 9.3666C8.70568 9.5666 8.40566 9.7417 8.44566 9.9667C8.45088 10.1635 8.47062 10.3597 8.50468 10.5536C8.5142 10.6347 8.54786 10.7111 8.60136 10.7728C8.65487 10.8346 8.72572 10.8789 8.80467 10.8998C9.10997 11.1681 9.44051 11.4061 9.79167 11.6107C10.1317 11.84 10.4435 12.1086 10.7207 12.4108C10.7657 12.6168 11.0717 12.8106 10.9887 12.9586C11.1807 12.7586 11.1327 12.9516 11.2297 12.9586C11.3497 12.9426 11.3627 12.7847 11.5857 12.9027C11.6268 12.8523 11.6556 12.7929 11.6698 12.7294C11.684 12.6659 11.6833 12.6 11.6676 12.5368C11.6407 12.4455 11.6442 12.3478 11.6777 12.2587C11.5597 12.2677 11.5317 12.3346 11.4407 12.3026C11.3475 12.2669 11.2615 12.2147 11.1867 12.1486C11.0297 12.0166 10.8867 11.8368 10.6517 11.6598C10.3294 11.2722 10.0491 10.8514 9.81566 10.4047C9.7194 10.3551 9.61904 10.3139 9.51567 10.2816C9.46376 10.2831 9.41426 10.3039 9.37669 10.3397C9.34969 10.3597 9.34367 10.3677 9.33867 10.3307C9.33683 10.2988 9.32869 10.2674 9.31468 10.2387C9.30522 10.2142 9.29722 10.1892 9.2907 10.1637L9.2777 10.1176L9.27068 10.0927V10.0788V10.0717L9.8087 9.51674L9.80168 9.59463C9.78116 9.70139 9.73088 9.80034 9.65666 9.87978Z" fill="#FBB03B"/>
<path fill-rule="evenodd" clip-rule="evenodd" d="M19.3867 5.88762C19.3527 5.65762 19.4377 5.55268 19.5717 5.52068C19.7057 5.48868 19.8437 5.52066 20.0037 5.47966C20.1117 5.56151 20.2018 5.66467 20.2686 5.78264C20.3353 5.90061 20.3772 6.03094 20.3917 6.1657C20.4497 6.3097 20.2507 6.2938 20.0917 6.2968C20.2637 6.3578 20.3917 6.5016 20.1917 6.6176C20.1917 6.7876 20.2307 6.98462 20.0917 7.06462C20.3277 7.24062 20.1277 7.68477 20.1917 7.96477C20.3012 8.25199 20.3751 8.5514 20.4117 8.85661C20.4589 9.03073 20.465 9.21345 20.4294 9.3903C20.3938 9.56716 20.3175 9.73334 20.2067 9.87566C20.085 10.0172 19.9296 10.1258 19.7548 10.1913C19.58 10.2569 19.3914 10.2773 19.2067 10.2507C18.8755 10.1992 18.5756 10.026 18.3657 9.76482C18.3557 9.51382 18.1707 9.38268 18.4007 9.14568C18.4277 8.95868 18.1697 8.94564 18.2007 8.76164C18.2637 8.58764 18.0707 8.25374 18.3007 8.18474C18.1087 7.89874 17.8877 7.29565 18.1007 6.96965C17.7427 6.88365 18.1107 6.73281 17.9007 6.58781V6.29265C17.8994 6.14087 17.9213 5.98979 17.9657 5.84465C18.0029 5.55944 18.0931 5.28372 18.2317 5.03166C18.3101 4.88994 18.4241 4.77112 18.5625 4.68694C18.7009 4.60276 18.8588 4.55615 19.0207 4.55168L18.9517 4.57072C19.0186 4.56699 19.0859 4.57161 19.1517 4.58464C19.3057 4.68464 19.2267 4.9186 19.1077 5.0656L19.1337 5.05876C19.0666 5.1379 18.9739 5.19088 18.8717 5.20866C18.7937 5.40866 18.4897 5.58176 18.5307 5.80876C18.5407 6.06876 18.5597 6.21562 18.5797 6.40862C18.5793 6.60203 18.6263 6.79277 18.7167 6.96379C18.7421 7.37582 18.8091 7.78422 18.9167 8.18279C18.9497 8.37479 18.9817 8.56963 19.0027 8.77263L19.0227 9.08073C19.0219 9.13827 19.0256 9.19564 19.0337 9.25261C18.9447 9.37361 19.0997 9.44461 19.0577 9.62761C19.2577 9.43461 19.2007 9.62261 19.2967 9.62761C19.4157 9.61261 19.4267 9.45363 19.6467 9.57463C19.6871 9.5252 19.715 9.46692 19.7283 9.40446C19.7415 9.34201 19.7396 9.27731 19.7227 9.21574C19.7161 9.1925 19.7114 9.16871 19.7087 9.1447C19.7047 9.08276 19.7047 9.0206 19.7087 8.95866C19.7146 8.83713 19.742 8.71758 19.7897 8.60564C19.3797 8.23764 19.5567 7.8966 19.4837 7.3156C19.5307 7.1026 19.5487 6.87964 19.5837 6.63664C19.598 6.51631 19.6218 6.39732 19.6547 6.28069C19.6963 6.2286 19.73 6.17076 19.7547 6.10881C19.7057 6.09055 19.6526 6.08587 19.6012 6.09538C19.5498 6.10489 19.5019 6.12819 19.4627 6.16277C19.4077 6.20177 19.4287 6.18162 19.3867 5.88762Z" fill="#FBB03B"/>
<path d="M35.4828 19.7797C35.6696 18.6999 35.4663 17.589 34.9091 16.6454C34.3519 15.7018 33.4772 14.9871 32.4414 14.6293C31.4057 14.2715 30.2764 14.294 29.2556 14.6925C28.2349 15.0911 27.3891 15.8397 26.8698 16.8046C26.4195 16.4992 25.8764 16.3615 25.335 16.4152C24.7936 16.4689 24.2882 16.7108 23.9068 17.0988C23.5399 17.474 23.3102 17.962 23.2548 18.4838C22.3544 18.5431 21.5083 18.9355 20.8817 19.5849C20.2551 20.2342 19.8929 21.0938 19.8657 21.9957C19.8539 22.4691 19.9356 22.9402 20.1061 23.382C20.2766 23.8237 20.5326 24.2273 20.8594 24.57C21.1862 24.9126 21.5773 25.1875 22.0105 25.3788C22.4437 25.5701 22.9104 25.6741 23.3838 25.6847H34.8838C35.6235 25.6859 36.3373 25.4122 36.8866 24.9166C37.4359 24.4211 37.7815 23.739 37.8562 23.0031C37.931 22.2671 37.7296 21.5298 37.2912 20.934C36.8528 20.3381 36.2087 19.9263 35.4838 19.7787L35.4828 19.7797Z" fill="#E6E6E6" stroke="white" stroke-width="0.319" stroke-miterlimit="10"/>
<path d="M27.8247 26.4708C27.3077 28.0958 26.6827 29.9969 26.2307 31.6649C26.2265 31.6819 26.2288 31.6999 26.2371 31.7152C26.2454 31.7306 26.2592 31.7422 26.2757 31.7479C26.8008 31.9206 27.338 32.0542 27.8827 32.1478C27.893 32.1495 27.9026 32.1537 27.911 32.1598C27.9193 32.1659 27.9261 32.174 27.9308 32.1832C27.9355 32.1925 27.9379 32.2027 27.9379 32.213C27.9379 32.2234 27.9354 32.2336 27.9307 32.2428C27.302 33.5348 26.7294 34.8529 26.2127 36.1969C26.2066 36.2115 26.2056 36.2278 26.21 36.2431C26.2144 36.2583 26.2239 36.2716 26.2369 36.2807C26.2499 36.2897 26.2657 36.2938 26.2815 36.2926C26.2973 36.2914 26.3122 36.2847 26.3237 36.2738C28.3611 34.4285 30.2422 32.4176 31.9477 30.2619C31.9531 30.2537 31.9567 30.2444 31.9583 30.2348C31.9599 30.2251 31.9594 30.2154 31.9568 30.2059C31.9543 30.1965 31.9497 30.1876 31.9435 30.1801C31.9373 30.1725 31.9295 30.1663 31.9208 30.162C31.4588 29.962 31.0027 29.7559 30.6427 29.6049C30.6334 29.6011 30.6251 29.5955 30.6183 29.588C30.6116 29.5806 30.6066 29.5715 30.6038 29.5619C30.601 29.5523 30.6004 29.5423 30.6021 29.5324C30.6039 29.5225 30.6079 29.5132 30.6137 29.505C31.0847 28.739 31.3947 27.94 31.8697 27.163C31.8754 27.154 31.8789 27.1436 31.8798 27.1329C31.8807 27.1223 31.879 27.1118 31.8749 27.1019C31.8708 27.0921 31.8643 27.0833 31.8561 27.0766C31.8479 27.0698 31.8382 27.0651 31.8277 27.0629C30.4717 26.8249 28.2567 26.488 27.8967 26.434C27.8823 26.4307 27.8671 26.4326 27.854 26.4393C27.8408 26.4461 27.8305 26.4572 27.8247 26.4708Z" fill="#F5D83C" stroke="#F5D83C" stroke-width="0.213" stroke-miterlimit="10"/>
</svg>
