<svg width="41" height="41" viewBox="0 0 41 41" fill="none" xmlns="http://www.w3.org/2000/svg">
<path d="M17.4947 33.2727C16.4197 35.1647 15.7026 37.2468 17.5446 37.5818C17.8057 37.6128 18.0704 37.5805 18.3162 37.4873C18.562 37.3942 18.7817 37.2431 18.9566 37.0469C19.3069 36.6494 19.5808 36.1907 19.7647 35.6939C20.4357 34.0304 21.0033 32.3271 21.4646 30.5938C21.8733 29.3933 22.1028 28.1393 22.1457 26.8719C22.1457 27.1009 21.4706 27.7338 21.3366 27.9068C20.8616 28.5238 20.3787 29.1348 19.9117 29.7578C19.0293 30.8749 18.2218 32.049 17.4947 33.2727Z" fill="#70AFED" stroke="#70AFED" stroke-width="0.092" stroke-miterlimit="10"/>
<path d="M24.7186 28.9329C24.3536 29.4579 23.5776 30.8487 24.8056 31.0437C24.9531 31.0604 25.1024 31.0449 25.2433 30.9983C25.3842 30.9517 25.5132 30.8753 25.6216 30.774C25.8202 30.5791 25.9788 30.3474 26.0886 30.0918C26.4738 29.2569 26.8012 28.3966 27.0686 27.5169C27.3033 26.9175 27.4362 26.2831 27.4616 25.6399C27.4616 25.6399 25.5326 27.7679 24.7186 28.9329Z" fill="#70AFED" stroke="#70AFED" stroke-width="0.092" stroke-miterlimit="10"/>
<path d="M30.9516 13.2249C31.2621 11.4379 30.9242 9.59871 29.9987 8.03885C29.5016 7.18899 28.8403 6.44674 28.0532 5.85526C27.2662 5.26377 26.3692 4.83483 25.4146 4.59378C24.8237 4.44327 24.2164 4.36696 23.6066 4.36673C22.2536 4.37029 20.9273 4.74324 19.7707 5.44534C18.6141 6.14744 17.6712 7.15216 17.0436 8.35086C16.3192 7.84942 15.4397 7.62234 14.5631 7.71048C13.6864 7.79862 12.8698 8.19618 12.2597 8.83182C11.6654 9.44995 11.2948 10.2489 11.2066 11.1018C10.0916 11.1875 9.02357 11.5869 8.1258 12.2537C7.22804 12.9205 6.53718 13.8275 6.13294 14.8701C5.72871 15.9128 5.62762 17.0486 5.84132 18.1463C6.05501 19.244 6.57478 20.2589 7.34065 21.0738C7.86325 21.6351 8.49294 22.0863 9.19264 22.4004C9.89233 22.7145 10.6478 22.8854 11.4146 22.9029H29.9866C31.1832 22.8766 32.3288 22.4133 33.2073 21.6004C34.0857 20.7874 34.6362 19.681 34.755 18.49C34.8737 17.299 34.5524 16.1059 33.8518 15.1355C33.1511 14.1652 32.1195 13.4849 30.9516 13.2229V13.2249Z" fill="#E6E6E6" stroke="#E6E6E6" stroke-width="0.37" stroke-miterlimit="10"/>
<path d="M12.5397 31.1867C12.3541 31.1838 12.1706 31.2258 12.0049 31.3093C11.8391 31.3927 11.696 31.515 11.5877 31.6657C11.4074 31.8969 11.2899 32.1709 11.2467 32.4609C11.1355 32.8867 11.1678 33.3373 11.3387 33.7428C11.5237 34.0552 11.813 34.292 12.1556 34.412C12.4982 34.532 12.8722 34.5275 13.2117 34.3989C13.4598 34.3096 13.6829 34.1623 13.8625 33.9692C14.042 33.7761 14.1727 33.5427 14.2437 33.2887C14.292 33.0534 14.2911 32.8106 14.241 32.5756C14.1908 32.3407 14.0926 32.1186 13.9524 31.9235C13.8123 31.7284 13.6332 31.5646 13.4266 31.4421C13.2199 31.3196 12.9901 31.2412 12.7517 31.2118C12.6817 31.1985 12.6108 31.19 12.5397 31.1867Z" fill="#6FD1EF" stroke="#6FD1EF" stroke-width="0.177" stroke-miterlimit="10"/>
<path d="M15.2437 30.8628C16.0437 29.2278 17.2606 26.9139 18.0646 25.2779" stroke="#70AFED" stroke-width="0.25" stroke-miterlimit="10"/>
<path d="M13.5857 29.2569C13.9777 28.3169 14.5977 27.073 14.9537 26.118" stroke="#70AFED" stroke-width="0.25" stroke-miterlimit="10"/>
</svg>
