<svg width="41" height="41" viewBox="0 0 41 41" fill="none" xmlns="http://www.w3.org/2000/svg">
<path d="M19.2961 5.72878C19.2559 5.73636 19.2161 5.74641 19.1771 5.75881C18.9615 5.80728 18.7694 5.92895 18.6334 6.10305C18.4974 6.27715 18.426 6.49303 18.4311 6.71389V9.57986C18.4311 9.83314 18.5317 10.0761 18.7108 10.2552C18.8899 10.4342 19.1328 10.5349 19.3861 10.5349C19.6394 10.5349 19.8823 10.4342 20.0614 10.2552C20.2405 10.0761 20.3411 9.83314 20.3411 9.57986V6.71389C20.3456 6.58859 20.3254 6.46346 20.2816 6.34597C20.2379 6.22848 20.1713 6.12084 20.0859 6.02908C20.0005 5.93732 19.8978 5.86334 19.7837 5.8113C19.6696 5.75926 19.5464 5.73024 19.4211 5.72585C19.3794 5.72393 19.3376 5.72486 19.2961 5.72878ZM9.14608 9.93777C8.9639 9.95535 8.79064 10.0249 8.64687 10.1382C8.5031 10.2515 8.39491 10.4037 8.33517 10.5767C8.27543 10.7497 8.26665 10.9362 8.3099 11.114C8.35314 11.2919 8.44661 11.4536 8.57912 11.5799L10.5791 13.6099C10.7612 13.7921 11.0082 13.8945 11.2658 13.8946C11.5234 13.8946 11.7704 13.7924 11.9526 13.6104C12.1348 13.4283 12.2372 13.1812 12.2373 12.9236C12.2374 12.666 12.1352 12.419 11.9531 12.2368L9.92312 10.2368C9.83473 10.1431 9.72831 10.0682 9.61025 10.0166C9.4922 9.96507 9.36492 9.93793 9.23611 9.93679L9.14608 9.93777ZM29.4171 9.93777C29.1989 9.96958 28.9984 10.0756 28.8491 10.2378L26.8191 12.2378C26.637 12.42 26.5348 12.667 26.5349 12.9246C26.535 13.1822 26.6374 13.4293 26.8196 13.6114C27.0018 13.7934 27.2489 13.8956 27.5064 13.8955C27.764 13.8954 28.011 13.7931 28.1931 13.6109L30.1931 11.5808C30.3315 11.4473 30.4265 11.2749 30.4654 11.0864C30.5042 10.898 30.4853 10.7024 30.411 10.5249C30.3368 10.3475 30.2107 10.1966 30.0492 10.0921C29.8877 9.98748 29.6984 9.93392 29.5061 9.93874H29.4181L29.4171 9.93777ZM19.3861 13.4009C17.8747 13.4009 16.3972 13.8491 15.1405 14.6887C13.8838 15.5284 12.9043 16.7219 12.3259 18.1182C11.7475 19.5145 11.5961 21.0509 11.8909 22.5332C12.1857 24.0156 12.9134 25.3773 13.982 26.4461C15.0507 27.5149 16.4123 28.2429 17.8946 28.5379C19.377 28.8328 20.9135 28.6815 22.3099 28.1033C23.7063 27.525 24.8999 26.5459 25.7397 25.2893C26.5795 24.0327 27.0279 22.5551 27.0281 21.0437C27.0223 19.0186 26.2153 17.0783 24.7835 15.6463C23.3516 14.2142 21.4112 13.407 19.3861 13.4009ZM4.8771 20.0879C4.62817 20.1173 4.4006 20.2428 4.24306 20.4378C4.08553 20.6327 4.01051 20.8816 4.03402 21.1311C4.05752 21.3807 4.17769 21.6113 4.36886 21.7735C4.56003 21.9356 4.80705 22.0164 5.05709 21.9988H7.92312C8.17653 21.9988 8.41953 21.8982 8.59872 21.719C8.77791 21.5398 8.87862 21.2967 8.87862 21.0432C8.87862 20.7898 8.77791 20.5469 8.59872 20.3677C8.41953 20.1885 8.17653 20.0879 7.92312 20.0879H4.8771ZM30.6701 20.0879C30.5425 20.0969 30.4179 20.1312 30.3037 20.189C30.1895 20.2468 30.088 20.327 30.0052 20.4246C29.9224 20.5222 29.86 20.6353 29.8216 20.7573C29.7832 20.8794 29.7696 21.0081 29.7816 21.1355C29.7936 21.2629 29.831 21.3868 29.8915 21.4995C29.952 21.6123 30.0345 21.7118 30.1341 21.7923C30.2336 21.8727 30.3482 21.9323 30.4712 21.9678C30.5942 22.0033 30.723 22.0138 30.8501 21.9988H33.7181C33.9715 21.9988 34.2146 21.8982 34.3938 21.719C34.573 21.5398 34.6736 21.2967 34.6736 21.0432C34.6736 20.7898 34.573 20.5469 34.3938 20.3677C34.2146 20.1885 33.9715 20.0879 33.7181 20.0879H30.6731H30.6701ZM27.4161 28.1787C27.3759 28.186 27.3361 28.1957 27.2971 28.2078C27.1222 28.2393 26.9596 28.3189 26.8275 28.4378C26.6955 28.5567 26.5992 28.71 26.5495 28.8806C26.4999 29.0513 26.4987 29.2324 26.5463 29.4036C26.594 29.5748 26.6885 29.7294 26.8191 29.8499L28.8491 31.8499C29.0082 32.0473 29.2393 32.1734 29.4914 32.2005C29.7436 32.2276 29.9962 32.1535 30.1936 31.9944C30.3911 31.8353 30.5172 31.6042 30.5443 31.3521C30.5714 31.0999 30.4972 30.8474 30.3381 30.6499C30.2951 30.5962 30.2461 30.5476 30.1921 30.5049L28.1921 28.4749C28.0937 28.3694 27.9726 28.2876 27.838 28.2356C27.7035 28.1837 27.5589 28.1629 27.4151 28.1748L27.4161 28.1787ZM11.1471 28.2078C10.9329 28.231 10.7328 28.3258 10.5791 28.4768L8.57912 30.5069C8.48142 30.5857 8.40016 30.6828 8.34005 30.793C8.27994 30.9032 8.24209 31.0241 8.22872 31.149C8.21535 31.2738 8.2267 31.4001 8.26211 31.5205C8.29751 31.641 8.35629 31.7532 8.43508 31.8509C8.51387 31.9486 8.61115 32.0298 8.72134 32.0899C8.83152 32.15 8.95249 32.1878 9.07729 32.2012C9.20209 32.2146 9.32827 32.2032 9.44869 32.1677C9.56911 32.1323 9.68137 32.0737 9.77908 31.9949C9.83228 31.9517 9.88089 31.9031 9.92409 31.8499L11.9541 29.8499C12.1046 29.7102 12.206 29.5256 12.2434 29.3238C12.2807 29.1219 12.252 28.9133 12.1616 28.729C12.0711 28.5447 11.9237 28.3947 11.7412 28.3008C11.5586 28.2069 11.3496 28.1742 11.1471 28.2078ZM19.2961 31.5218C19.2558 31.5289 19.216 31.5389 19.1771 31.5518C18.9614 31.5999 18.7691 31.7216 18.633 31.8958C18.497 32.07 18.4256 32.2859 18.4311 32.5069V35.3728C18.4311 35.6261 18.5317 35.869 18.7108 36.0481C18.8899 36.2272 19.1328 36.3279 19.3861 36.3279C19.6394 36.3279 19.8823 36.2272 20.0614 36.0481C20.2405 35.869 20.3411 35.6261 20.3411 35.3728V32.5069C20.3456 32.3815 20.3255 32.2565 20.2817 32.1389C20.2379 32.0214 20.1714 31.9136 20.086 31.8218C20.0005 31.73 19.8979 31.6557 19.7838 31.6035C19.6697 31.5514 19.5465 31.5224 19.4211 31.5178C19.3794 31.5167 19.3377 31.518 19.2961 31.5218Z" fill="#FBB03B"/>
<path fill-rule="evenodd" clip-rule="evenodd" d="M19.3671 32.0359C19.3381 31.8239 19.4282 31.7258 19.5672 31.6988C19.7062 31.6718 19.8421 31.7068 19.9971 31.6748C20.1052 31.7575 20.1953 31.8611 20.2622 31.9795C20.329 32.0979 20.3712 32.2286 20.3862 32.3638C20.4412 32.5088 20.2561 32.4919 20.1091 32.4959C20.2681 32.5569 20.3882 32.7029 20.2042 32.8189C20.2042 32.9909 20.2391 33.1888 20.1091 33.2708C20.3271 33.4478 20.1432 33.8948 20.2042 34.1768C20.3047 34.4683 20.3717 34.7703 20.4041 35.0769C20.4499 35.2514 20.4549 35.4339 20.4187 35.6106C20.3824 35.7873 20.3059 35.9534 20.1951 36.0957C20.0737 36.2375 19.9182 36.3461 19.7433 36.4112C19.5684 36.4762 19.3797 36.4957 19.1951 36.4678C18.8668 36.4162 18.5701 36.2426 18.3642 35.9817C18.3462 35.7347 18.1731 35.6039 18.3851 35.3689C18.4101 35.1799 18.1722 35.1687 18.1962 34.9807C18.2542 34.8057 18.0762 34.4689 18.2962 34.3999C18.1759 34.2225 18.0965 34.0205 18.0639 33.8086C18.0312 33.5968 18.0459 33.3803 18.1071 33.1748C17.7771 33.0868 18.1172 32.9358 17.9182 32.7888V32.4888C17.9166 32.3407 17.9382 32.1932 17.9821 32.0518C18.0198 31.7751 18.1105 31.5083 18.2492 31.2659C18.3272 31.1302 18.4384 31.0163 18.5723 30.9353C18.7063 30.8543 18.8587 30.8087 19.0152 30.8028L18.9511 30.8208C19.0157 30.8169 19.0805 30.8206 19.1442 30.8318C19.2922 30.9198 19.2151 31.1399 19.0961 31.2779L19.1192 31.2708C19.0506 31.3464 18.9594 31.3976 18.8591 31.4168C18.7771 31.6048 18.4782 31.7817 18.5112 32.0017C18.5114 32.2022 18.5228 32.4026 18.5452 32.6018C18.5457 32.7959 18.589 32.9875 18.6721 33.1629C18.6967 33.5771 18.7597 33.9883 18.8602 34.3909C18.8912 34.5839 18.9212 34.7809 18.9392 34.9849C18.9572 35.1889 18.9551 35.4299 18.9711 35.4849C18.8921 35.6129 19.0522 35.7008 19.0242 35.8758C19.2102 35.7018 19.1731 35.8817 19.2731 35.8877C19.3971 35.8767 19.4252 35.7328 19.6552 35.8308C19.7015 35.779 19.7354 35.7173 19.7543 35.6504C19.7732 35.5835 19.7766 35.5132 19.7642 35.4449C19.7642 35.4149 19.7542 35.3968 19.7522 35.3628C19.7487 35.3005 19.7487 35.2381 19.7522 35.1758C19.7578 35.0542 19.7831 34.9343 19.8272 34.8208C19.4482 34.4498 19.6122 34.1058 19.5452 33.5208C19.5882 33.3058 19.6052 33.0819 19.6372 32.8369C19.6511 32.7149 19.6735 32.5939 19.7042 32.4749C19.7397 32.4148 19.7669 32.3501 19.7852 32.2827C19.7381 32.2597 19.6859 32.249 19.6335 32.2513C19.5811 32.2535 19.5301 32.2689 19.4852 32.2959C19.4182 32.3309 19.4181 32.3109 19.3671 32.0359Z" fill="#FBB03B"/>
<path fill-rule="evenodd" clip-rule="evenodd" d="M11.6361 28.3809C11.6725 28.2695 11.6708 28.1491 11.6311 28.0388C11.6113 27.9824 11.5811 27.9301 11.5421 27.8848L11.2291 28.7107V28.6429L11.2351 28.5769C11.2417 28.5251 11.2647 28.4764 11.3006 28.4385C11.3366 28.4006 11.3837 28.3751 11.4351 28.3658C11.5671 28.3268 11.7141 28.3559 11.8681 28.3179C11.9831 28.3949 12.0809 28.4949 12.1553 28.6116C12.2296 28.7283 12.2789 28.8591 12.3001 28.9959C12.3611 29.1419 12.1741 29.1307 12.0281 29.1377C12.1931 29.1707 12.2941 29.3629 12.0801 29.4119C12.0351 29.5499 11.9491 29.7199 11.8031 29.6719C11.8321 29.9499 11.3761 30.1398 11.2151 30.3848C10.8975 30.9608 10.495 31.4858 10.0211 31.9419L10.0311 31.9309C9.91551 32.0788 9.7644 32.1948 9.59183 32.2686C9.41927 32.3424 9.23086 32.3714 9.04411 32.3528C8.71127 32.3162 8.40486 32.1543 8.18711 31.8999C8.16211 31.6499 7.97611 31.5249 8.18711 31.2769C8.21711 31.0869 7.98713 31.0298 8.08713 30.8028C8.17613 30.6708 8.2751 30.4029 8.4401 30.3189L8.41911 30.3369C8.44065 30.3229 8.46562 30.3148 8.49131 30.3138C8.517 30.3127 8.54247 30.3186 8.5651 30.3308C8.6461 29.9978 8.93714 29.4099 9.30814 29.3089C9.13814 29.0089 9.48609 29.1418 9.45109 28.8948L9.8671 28.4729C9.9861 28.3229 9.99212 28.1428 10.1371 27.8968C10.239 27.7515 10.3768 27.6351 10.5371 27.5589C10.6146 27.5222 10.6978 27.4988 10.7831 27.4898C10.825 27.4859 10.8672 27.4859 10.9091 27.4898L10.9711 27.4978L11.0021 27.5049H11.0151C10.9715 27.5139 10.929 27.5271 10.8881 27.5447C10.8106 27.5777 10.7426 27.6298 10.6902 27.6958C10.6378 27.7618 10.6027 27.8399 10.5881 27.9229C10.5831 28.0059 10.6131 28.0227 10.6461 28.0117C10.6791 28.0007 10.7241 27.9427 10.8231 27.8777C10.9051 27.8057 11.1231 27.7978 11.0461 27.8428C11.0117 27.9078 10.9635 27.9645 10.905 28.0091C10.8465 28.0536 10.779 28.085 10.7071 28.1009C10.6071 28.3009 10.3591 28.4699 10.3401 28.6629C10.2091 29.1399 9.83012 29.2959 9.71012 29.7049C9.43289 30.0218 9.18486 30.3633 8.96909 30.7249L8.90513 30.8118L8.86814 30.8467C8.81755 30.9242 8.7831 31.0112 8.76694 31.1023C8.75079 31.1934 8.75327 31.2866 8.77415 31.3767C8.69915 31.5107 8.86914 31.5928 8.84714 31.7698C9.02514 31.5888 8.99909 31.7698 9.10209 31.7698C9.22809 31.7538 9.24511 31.6068 9.48411 31.6888C9.51557 31.6446 9.54175 31.5971 9.56211 31.5469L9.5991 31.5059C9.80275 31.1178 10.1111 30.7945 10.4891 30.5728C10.4891 30.0368 10.8551 29.9089 11.2311 29.4439C11.3061 29.3999 11.4551 29.2757 11.4651 29.2827C11.4943 29.271 11.521 29.2542 11.5441 29.2329C11.6265 29.1548 11.6803 29.0511 11.6971 28.9388C11.6489 28.9177 11.5961 28.9091 11.5437 28.9138C11.4912 28.9186 11.4408 28.9365 11.3971 28.9659C11.3651 28.9829 11.3511 28.9889 11.3361 28.9539L11.3061 28.8709L11.2811 28.8028L11.2661 28.7627L11.2571 28.7398V28.7288V28.7217L11.5461 27.8438L11.5921 27.8987C11.6262 27.9454 11.6522 27.9975 11.6691 28.0528C11.6932 28.1628 11.6817 28.2778 11.6361 28.3809Z" fill="#FBB03B"/>
<path fill-rule="evenodd" clip-rule="evenodd" d="M27.9332 28.1319C27.9222 28.0205 27.8754 27.9156 27.7999 27.8331C27.7244 27.7505 27.6241 27.6947 27.5142 27.6739L27.4582 28.6888V28.6568V28.6199L27.4682 28.5547C27.4765 28.5186 27.4922 28.4848 27.5142 28.4549C27.5548 28.4017 27.6141 28.3659 27.6801 28.3548C27.8161 28.3278 27.9602 28.3688 28.1172 28.3428C28.3172 28.5288 28.4911 28.7178 28.6801 28.9048C28.8101 28.9748 28.6722 29.0879 28.5692 29.1959C28.7282 29.1299 28.9142 29.1488 28.8692 29.3638C28.9912 29.4898 29.1591 29.6067 29.1251 29.7637C29.4051 29.7377 29.5952 30.1918 29.8402 30.3548C29.9514 30.4077 30.0587 30.4687 30.1612 30.5369C30.2872 30.5991 30.3958 30.6917 30.477 30.8065C30.5582 30.9212 30.6095 31.0543 30.6262 31.1939C30.6467 31.3523 30.629 31.5132 30.5745 31.6634C30.5201 31.8135 30.4304 31.9485 30.3131 32.0569C30.084 32.2579 29.786 32.3621 29.4817 32.3477C29.1773 32.3334 28.8903 32.2014 28.6812 31.9798L28.6972 31.9969L28.5432 31.8838C28.4782 31.6628 28.2911 31.6838 28.3001 31.3838C28.1811 31.2308 28.0081 31.3948 27.8881 31.2418C27.8011 31.0748 27.4332 30.9618 27.5322 30.7588C27.3135 30.7158 27.1069 30.625 26.9273 30.493C26.7477 30.3609 26.5995 30.1909 26.4932 29.9949C26.1442 30.0949 26.2931 29.7228 26.0551 29.5948C25.9646 29.3013 25.9664 28.9873 26.0601 28.6949C26.1075 28.4138 26.2094 28.1448 26.3602 27.9029C26.4445 27.767 26.5624 27.6549 26.7025 27.5777C26.8426 27.5005 27.0002 27.4607 27.1602 27.462L27.0601 27.4859C26.9532 27.534 26.8618 27.6112 26.7964 27.7086C26.731 27.8059 26.6942 27.9197 26.6901 28.0369C26.7441 28.2919 26.8612 28.2499 26.9102 28.1929C26.9422 28.1429 27.0822 27.8928 27.2052 27.9388L27.2412 27.931C27.1671 28.0051 27.0716 28.054 26.9682 28.0709C26.8752 28.2549 26.5681 28.4299 26.5941 28.6529C26.5828 28.8534 26.5926 29.0543 26.6232 29.2527C26.6314 29.3373 26.6642 29.4176 26.7175 29.4837C26.7708 29.5498 26.8423 29.5989 26.9232 29.6248C27.2358 29.8977 27.5725 30.1418 27.9292 30.3538C28.2768 30.59 28.5983 30.8625 28.8881 31.1668C28.957 31.3052 29.0456 31.433 29.1511 31.546L29.1851 31.5828C29.2052 31.6337 29.2104 31.6891 29.2002 31.7427C29.3942 31.5797 29.3501 31.7569 29.4531 31.7669C29.5791 31.7669 29.6132 31.619 29.8422 31.723C29.8911 31.6719 29.9275 31.6101 29.9485 31.5425C29.9695 31.475 29.9745 31.4036 29.9632 31.3338C29.9408 31.2298 29.9391 31.1225 29.9582 31.0179C29.8838 31.0323 29.8104 31.0509 29.7382 31.0738L29.6762 31.0179C29.4062 30.8929 29.2452 30.6249 28.9052 30.3499C28.5775 29.9522 28.2888 29.5238 28.0432 29.0709C27.9469 29.0165 27.8466 28.9698 27.7432 28.931C27.6896 28.9216 27.6344 28.9321 27.5882 28.9608C27.5542 28.9748 27.5412 28.9789 27.5282 28.9439L27.5042 28.858L27.4852 28.7889L27.4732 28.7469L27.4661 28.7239V28.712V28.7059L27.4242 27.6658L27.5482 27.6819C27.6495 27.7108 27.74 27.7689 27.8084 27.8489C27.8769 27.929 27.9203 28.0274 27.9332 28.1319Z" fill="#FBB03B"/>
<path fill-rule="evenodd" clip-rule="evenodd" d="M30.7071 20.6058C30.7004 20.532 30.7134 20.458 30.745 20.391H30.7741C30.8931 20.2 31.2351 20.2289 31.3901 20.0409H32.174C32.313 19.9969 32.2971 20.1758 32.3011 20.3238C32.3661 20.1648 32.5101 20.0458 32.6291 20.2298C32.8031 20.2298 33.0031 20.1938 33.0871 20.3238C33.2541 20.1238 33.7471 20.259 33.9571 20.266C34.11 20.2594 34.2613 20.2999 34.3906 20.3819C34.5199 20.464 34.6209 20.5837 34.68 20.7249C34.7552 20.8962 34.7801 21.0852 34.7518 21.2701C34.7235 21.455 34.6431 21.628 34.5201 21.7689C34.3964 21.9041 34.2434 22.0091 34.0729 22.076C33.9023 22.1429 33.7186 22.1699 33.536 22.1549C33.2572 22.1618 32.9792 22.1883 32.7041 22.234C32.5041 22.123 32.3841 22.269 32.1811 22.046C31.9891 22.021 31.981 22.259 31.789 22.234C31.611 22.176 31.27 22.354 31.2 22.14C31.0892 22.2052 30.9719 22.2587 30.8501 22.2999H30.878C30.6828 22.3797 30.4649 22.3842 30.2666 22.3123C30.0683 22.2404 29.9037 22.0974 29.805 21.911C29.459 22.02 29.6051 21.6439 29.3611 21.5199C29.2638 21.2318 29.2572 20.921 29.3421 20.629C29.3799 20.319 29.4879 20.0217 29.6581 19.7598C29.7523 19.6137 29.8892 19.5 30.0501 19.4342C30.2111 19.3683 30.3884 19.3537 30.5581 19.3919C30.6641 19.4669 30.6361 19.6089 30.5641 19.7269C30.5275 19.7908 30.4779 19.8463 30.4184 19.8897C30.359 19.9332 30.291 19.9635 30.219 19.9788C30.135 20.1668 29.837 20.3509 29.87 20.5719C29.8654 20.773 29.8815 20.9741 29.9181 21.172C29.9279 21.2548 29.9614 21.3328 30.0146 21.3971C30.0678 21.4613 30.1385 21.5087 30.2181 21.5338C30.2912 21.6141 30.3884 21.6688 30.495 21.6895C30.6017 21.7103 30.7121 21.6958 30.81 21.6488H30.844L31.1941 21.5819C31.6035 21.5059 32.0199 21.4741 32.4361 21.4869C32.6241 21.5929 32.9461 21.5059 33.0901 21.6759C33.1901 21.4249 33.333 21.6009 33.482 21.5819C33.5713 21.5633 33.6582 21.5348 33.7411 21.4969C33.7951 21.4689 33.8411 21.4718 33.9701 21.5118C34.0177 21.4601 34.0526 21.3982 34.0721 21.3306C34.0915 21.2631 34.0949 21.192 34.0821 21.1229C34.0587 21.0201 34.0556 20.9138 34.073 20.8099C33.868 20.8489 33.817 20.8908 33.773 20.8858L33.713 20.879C33.5878 20.8775 33.4626 20.8833 33.338 20.8968C32.8271 20.8516 32.3217 20.7569 31.8291 20.6139C31.5071 20.6989 30.9611 21.0678 30.7821 20.7528H30.7201C30.7187 20.7036 30.7143 20.6545 30.7071 20.6058Z" fill="#FBB03B"/>
<path fill-rule="evenodd" clip-rule="evenodd" d="M4.91813 20.6058C4.91124 20.5319 4.92473 20.4577 4.95713 20.3909H4.98514C5.10514 20.1999 5.44611 20.2288 5.60111 20.0408H6.38511C6.52511 19.9968 6.50812 20.1758 6.51212 20.3238C6.57712 20.1648 6.72112 20.0458 6.84012 20.2298C7.01412 20.2298 7.21413 20.1938 7.29813 20.3238C7.46513 20.1238 7.95813 20.2589 8.16813 20.2659C8.32111 20.2593 8.47239 20.2998 8.60166 20.3819C8.73093 20.4639 8.83194 20.5837 8.89109 20.7249C8.96629 20.8962 8.9912 21.0852 8.96287 21.2701C8.93453 21.4549 8.85415 21.628 8.73112 21.7688C8.60745 21.904 8.45448 22.0091 8.28391 22.076C8.11334 22.1429 7.92971 22.1699 7.74711 22.1548C7.46827 22.1618 7.1903 22.1883 6.91514 22.2339C6.71514 22.1229 6.59613 22.2689 6.39213 22.0459C6.20113 22.0209 6.1921 22.2589 6.0001 22.2339C5.8221 22.1759 5.48108 22.3539 5.41208 22.1399C5.30074 22.2049 5.1832 22.2584 5.06113 22.2998H5.08909C4.89385 22.3797 4.67594 22.3842 4.47764 22.3123C4.27933 22.2404 4.11479 22.0974 4.01609 21.9109C3.67009 22.0199 3.81612 21.6438 3.57212 21.5198C3.4749 21.2317 3.46829 20.9209 3.55314 20.629C3.59095 20.319 3.69901 20.0216 3.86912 19.7598C3.96359 19.6139 4.10049 19.5004 4.26139 19.4346C4.42229 19.3688 4.5995 19.354 4.76914 19.3919C4.87414 19.4669 4.84615 19.6089 4.77415 19.7269C4.73762 19.7908 4.68797 19.8463 4.62852 19.8897C4.56906 19.9331 4.50112 19.9634 4.42911 19.9788C4.34511 20.1668 4.04711 20.3508 4.08011 20.5718C4.07552 20.7729 4.09157 20.9741 4.12809 21.1719C4.13792 21.2547 4.17149 21.3328 4.22471 21.397C4.27793 21.4612 4.34858 21.5087 4.42814 21.5337C4.50132 21.614 4.59841 21.6688 4.70505 21.6895C4.8117 21.7102 4.9222 21.6958 5.02012 21.6487H5.05411L5.40513 21.5818C5.81421 21.5059 6.23022 21.4741 6.64609 21.4869C6.83409 21.5929 7.15609 21.5058 7.30009 21.6758C7.40009 21.4248 7.54311 21.6008 7.69211 21.5818C7.78135 21.5633 7.8682 21.5348 7.95109 21.4969C8.00609 21.4689 8.05109 21.4718 8.18009 21.5118C8.22771 21.4601 8.26264 21.3981 8.28208 21.3306C8.30152 21.2631 8.30494 21.1919 8.29209 21.1228C8.26926 21.02 8.26623 20.9138 8.28312 20.8099C8.07812 20.8489 8.02813 20.8908 7.98313 20.8858L7.92313 20.879C7.79788 20.8775 7.67266 20.8833 7.54813 20.8968C7.03715 20.8516 6.53174 20.7568 6.0391 20.6138C5.7171 20.6988 5.1711 21.0677 4.9921 20.7527H4.93009C4.92906 20.7035 4.92509 20.6545 4.91813 20.6058Z" fill="#FBB03B"/>
<path fill-rule="evenodd" clip-rule="evenodd" d="M19.3862 13.9198C19.5062 13.7198 20.0161 13.6128 20.5861 13.6688C21.1671 13.6918 21.7931 13.8689 22.2211 13.9069C23.2075 14.2997 24.1014 14.8934 24.8461 15.65C25.2591 16.039 25.0831 16.111 24.9871 16.226C25.1965 16.3068 25.382 16.4396 25.5261 16.6117C25.6702 16.7838 25.7683 16.9895 25.8112 17.2099C25.9915 17.5041 26.1512 17.8105 26.2891 18.1269C26.3882 18.3665 26.4463 18.6212 26.4611 18.88C26.5765 19.0844 26.6669 19.3019 26.7302 19.528C26.7997 19.8363 26.8444 20.1496 26.8641 20.465C26.8896 21.1199 26.8507 21.7757 26.7482 22.423C26.625 23.6402 26.1716 24.8006 25.4371 25.779C24.6185 26.8841 23.5114 27.7425 22.2371 28.2599C20.9911 28.7667 19.6343 28.939 18.3011 28.7599C17.1643 28.6067 16.0703 28.2246 15.0851 27.6369C14.4791 27.0769 13.9851 26.8719 13.5991 26.0939C13.1301 25.4859 12.9081 25.5939 12.5161 24.8939C12.3651 24.5589 12.0982 24.0939 11.9362 23.6349C11.7795 23.3145 11.7154 22.9568 11.7512 22.602C11.4818 21.7975 11.3695 20.9488 11.4202 20.102C11.4615 19.2004 11.7372 18.3253 12.2202 17.5629C12.0882 17.0549 12.7071 16.6629 12.9391 16.0539C13.4565 15.3883 14.0714 14.8047 14.7631 14.3229C15.4005 13.8312 16.09 13.4111 16.8191 13.07C17.5769 12.7268 18.4143 12.5981 19.2401 12.6979C19.4641 12.7739 19.4041 12.9161 19.1561 13.0351C18.7525 13.1837 18.3301 13.2752 17.9011 13.307C17.1306 13.5454 16.3918 13.8763 15.7011 14.2929C14.3782 15.1406 13.3409 16.3668 12.7241 17.8119C12.0372 19.2719 11.8884 20.9279 12.3041 22.487C12.7011 24.0049 13.5412 25.3701 14.7172 26.4088C15.3297 26.9672 16.0069 27.4505 16.7341 27.848C17.1621 27.748 17.6341 28.0868 18.2001 28.1478C19.1045 28.193 20.0109 28.1714 20.9121 28.0829C22.7967 27.4916 24.4209 26.2703 25.5121 24.6239C25.6921 23.9239 25.9121 23.3179 26.0561 22.5829C26.2534 21.7197 26.2752 20.8258 26.1201 19.954C25.867 18.1133 24.9333 16.4341 23.5031 15.2479C22.8214 14.8593 22.0806 14.585 21.3101 14.4359C20.6485 14.3513 20.0013 14.1776 19.3862 13.9198Z" fill="#FBB03B"/>
<path fill-rule="evenodd" clip-rule="evenodd" d="M29.0772 10.3298C28.9975 10.2587 28.9416 10.1648 28.9171 10.0608L28.9052 9.98293L29.4412 10.4507V10.4229V10.3909L29.4511 10.3328C29.4584 10.3 29.4709 10.2686 29.4882 10.2398H29.5101C29.6251 10.0398 29.8832 10.1288 30.1102 10.0808C30.2202 10.1607 30.3129 10.262 30.3826 10.3787C30.4524 10.4954 30.4978 10.6251 30.5161 10.7598C30.5751 10.9038 30.3881 10.8898 30.2421 10.8948C30.4041 10.9298 30.5042 11.1198 30.2902 11.1638C30.2482 11.3018 30.1592 11.4637 30.0152 11.4197C30.0462 11.6987 29.6012 11.8879 29.4472 12.1309C29.1492 12.6985 28.7661 13.217 28.3112 13.6687C28.188 13.8066 28.0328 13.9121 27.8593 13.9761C27.6859 14.0401 27.4994 14.0607 27.3162 14.0359C26.9882 13.9879 26.6897 13.8199 26.4782 13.5647C26.4572 13.3177 26.2782 13.1959 26.4832 12.9529C26.5122 12.7659 26.2781 12.7108 26.3751 12.4868C26.4841 12.2988 26.6541 11.8867 26.8411 12.0117C26.9221 11.6837 27.2102 11.1118 27.5802 11.0188C27.4092 10.7238 27.7571 10.8589 27.7211 10.6189L28.1331 10.2129C28.2309 10.0321 28.3174 9.8453 28.3922 9.65382C28.4868 9.50849 28.6173 9.39001 28.7711 9.30983C28.8461 9.27182 28.9269 9.24652 29.0101 9.23488C29.0514 9.23099 29.0929 9.23099 29.1342 9.23488L29.1962 9.24074C29.2472 9.24074 29.1501 9.25074 29.3961 9.24074C29.8441 9.33374 29.8321 9.53372 29.7661 9.52272C29.6953 9.52557 29.6245 9.52252 29.5542 9.51369C29.4712 9.49969 29.2542 9.55873 29.2902 9.58473C29.2595 9.65058 29.2145 9.7087 29.1584 9.7549C29.1023 9.8011 29.0366 9.8343 28.9661 9.85182C28.8821 10.0568 28.6352 10.2208 28.6142 10.4068C28.4862 10.8718 28.1062 11.0219 27.9882 11.4219C27.7099 11.7313 27.4611 12.0661 27.2451 12.4219C27.1515 12.5164 27.0896 12.6376 27.0681 12.7688C27.0507 12.8681 27.0507 12.9696 27.0681 13.0689C26.9941 13.2009 27.1592 13.2849 27.1342 13.4619C27.3172 13.2849 27.2841 13.4617 27.3851 13.4717C27.5091 13.4597 27.5402 13.3159 27.7722 13.4119C27.8372 13.3319 28.0241 13.0118 28.1721 12.8208C28.3119 12.6143 28.5032 12.4479 28.7271 12.3379C28.7181 11.8069 29.0752 11.6779 29.4362 11.2149C29.5132 11.1679 29.6452 11.0569 29.6732 11.0459C29.7025 11.0333 29.7297 11.0164 29.7542 10.9959C29.8362 10.9194 29.8919 10.8188 29.9132 10.7088C29.869 10.687 29.8202 10.6764 29.771 10.678C29.7218 10.6796 29.6738 10.6933 29.6312 10.7178C29.5582 10.7538 29.5622 10.7687 29.5172 10.6177H29.4702L29.4552 10.5559L29.4462 10.5178V10.4978V10.4868V10.4788L28.9011 9.95876C28.9013 10.0068 28.908 10.0547 28.9212 10.1008C28.9512 10.19 29.0052 10.2692 29.0772 10.3298Z" fill="#FBB03B"/>
<path fill-rule="evenodd" clip-rule="evenodd" d="M9.5311 10.2878C9.60043 10.2079 9.644 10.1089 9.6561 10.0038L9.17014 10.4496V10.4377V10.4176V10.3818L9.18509 10.3168C9.19456 10.2799 9.21235 10.2456 9.2371 10.2167C9.27907 10.1646 9.33829 10.129 9.40409 10.1166C9.53609 10.0876 9.67914 10.1246 9.83414 10.0956C10.0341 10.2756 10.2071 10.4576 10.3951 10.6386C10.5251 10.7056 10.3871 10.8206 10.2861 10.9286C10.4431 10.8606 10.6281 10.8758 10.5861 11.0898C10.7081 11.2108 10.8751 11.3238 10.8421 11.4738C11.1201 11.4428 11.3101 11.8876 11.5541 12.0426C11.8541 12.1402 12.1049 12.3497 12.2541 12.6276C12.3227 12.7987 12.3427 12.9856 12.3118 13.1674C12.2809 13.3492 12.2004 13.5188 12.0791 13.6576C11.9569 13.7984 11.8013 13.9065 11.6266 13.9718C11.452 14.0372 11.2638 14.0577 11.0791 14.0317C10.7709 13.9732 10.4852 13.8298 10.2541 13.6176C10.1941 13.3986 10.0091 13.4176 10.0251 13.1176C9.91012 12.9656 9.73509 13.1277 9.62009 12.9757C9.53809 12.8097 9.17609 12.6958 9.27909 12.4948C9.06524 12.4515 8.86378 12.3611 8.68924 12.2301C8.51471 12.0992 8.37152 11.9309 8.27012 11.7377C7.92312 11.8377 8.0701 11.4716 7.8331 11.3466C7.73954 11.0603 7.73572 10.7524 7.82212 10.4638C7.86023 10.1567 7.96762 9.86222 8.13614 9.6027C8.23953 9.46173 8.37718 9.34959 8.53611 9.27677C8.61325 9.24184 8.69577 9.22023 8.78013 9.21281C8.81935 9.20873 8.85888 9.20873 8.89811 9.21281C8.81811 9.24499 8.74879 9.29906 8.69809 9.36881C8.63109 9.58781 8.8051 9.58771 8.9191 9.61271C8.9421 9.62171 8.99409 9.62968 8.98209 9.65568C8.96052 9.68296 8.93569 9.70748 8.90812 9.72868C8.8484 9.77736 8.77822 9.81168 8.7031 9.82878C8.6201 10.0148 8.32409 10.1967 8.35709 10.4147C8.35412 10.6126 8.36885 10.8105 8.4011 11.0058C8.41146 11.0883 8.44523 11.1662 8.49839 11.2301C8.55154 11.2941 8.62186 11.3413 8.70109 11.3666C9.00612 11.6393 9.33515 11.8842 9.68412 12.0978C10.0228 12.333 10.3349 12.6041 10.6151 12.9067C10.6681 13.1067 10.9681 13.3066 10.9011 13.4506C11.0851 13.2736 11.0521 13.4506 11.1531 13.4596C11.2771 13.4476 11.3081 13.3036 11.5401 13.3986C11.5874 13.3462 11.6222 13.2839 11.6421 13.2162C11.662 13.1486 11.6665 13.0774 11.6551 13.0077C11.634 12.9031 11.634 12.7952 11.6551 12.6906C11.5421 12.6906 11.5111 12.7488 11.4221 12.7138C11.3297 12.6748 11.2443 12.6209 11.1691 12.5546C11.0121 12.4206 10.8691 12.2407 10.6321 12.0597C10.3056 11.6737 10.0176 11.2566 9.77213 10.8146C9.67601 10.762 9.57567 10.7177 9.47214 10.6818C9.41976 10.6789 9.36769 10.692 9.32309 10.7196C9.29009 10.7336 9.27613 10.7388 9.26413 10.7028C9.25686 10.6732 9.24574 10.6444 9.23111 10.6176C9.22011 10.5954 9.2111 10.5725 9.20414 10.5487L9.1901 10.5058L9.1821 10.4828V10.4696V10.4638L9.6821 9.9506L9.67612 10.0226C9.65419 10.123 9.60384 10.2152 9.5311 10.2878Z" fill="#FBB03B"/>
<path fill-rule="evenodd" clip-rule="evenodd" d="M19.3672 6.24271C19.3382 6.03071 19.4282 5.93279 19.5672 5.90579C19.7062 5.87879 19.8422 5.91384 19.9972 5.88284C20.1053 5.96507 20.1957 6.06851 20.2625 6.1868C20.3294 6.30509 20.3715 6.43574 20.3862 6.57083C20.4412 6.71583 20.2562 6.69891 20.1092 6.70291C20.2682 6.76391 20.3882 6.90991 20.2042 7.02591C20.2042 7.19791 20.2392 7.39581 20.1092 7.47781C20.3272 7.65481 20.1432 8.10182 20.2042 8.38382C20.3048 8.67527 20.3718 8.97711 20.4041 9.28372C20.4498 9.45823 20.4547 9.64096 20.4185 9.81766C20.3822 9.99435 20.3058 10.1603 20.1952 10.3028C20.0736 10.4443 19.9181 10.5528 19.7431 10.6177C19.5682 10.6826 19.3796 10.7019 19.1952 10.6739C18.8669 10.6222 18.5701 10.4486 18.3642 10.1878C18.3462 9.94077 18.1732 9.80974 18.3852 9.57474C18.4102 9.38574 18.1722 9.37477 18.1962 9.18777C18.2542 9.01177 18.0762 8.67574 18.2962 8.60574C18.1759 8.4283 18.0966 8.22653 18.0639 8.01468C18.0312 7.80283 18.0459 7.58633 18.1071 7.38089C17.7771 7.29389 18.1172 7.14188 17.9182 6.99588V6.69583C17.9165 6.54739 17.9381 6.39961 17.9821 6.25784C18.02 5.98116 18.1106 5.71419 18.2492 5.47171C18.327 5.3359 18.4382 5.22223 18.5722 5.14139C18.7063 5.06054 18.8587 5.01528 19.0152 5.0098L18.9511 5.02689C19.0157 5.023 19.0805 5.02668 19.1442 5.03787C19.2922 5.12587 19.2152 5.34592 19.0962 5.48392L19.1192 5.47781C19.0503 5.55276 18.9591 5.60361 18.8592 5.62283C18.7772 5.81083 18.4782 5.98779 18.5112 6.20779C18.5114 6.40827 18.5227 6.60868 18.5452 6.80789C18.5457 7.00196 18.589 7.19356 18.6721 7.36893C18.6967 7.7832 18.7597 8.19408 18.8602 8.59671C18.8912 8.79071 18.9212 8.9867 18.9392 9.1907C18.9572 9.3947 18.9552 9.6357 18.9712 9.6907C18.8922 9.8187 19.0522 9.90682 19.0242 10.0818C19.2102 9.90782 19.1732 10.0878 19.2732 10.0938C19.3972 10.0828 19.4252 9.9389 19.6552 10.0369C19.7015 9.98508 19.7354 9.92336 19.7543 9.85648C19.7732 9.78959 19.7766 9.7193 19.7642 9.65091C19.7642 9.62191 19.7542 9.60288 19.7522 9.56888C19.7487 9.50659 19.7487 9.44415 19.7522 9.38187C19.7578 9.26026 19.7831 9.14039 19.8272 9.02689C19.4482 8.65589 19.6122 8.31184 19.5452 7.72684C19.5882 7.51284 19.6052 7.28776 19.6372 7.04276C19.651 6.921 19.6734 6.80053 19.7042 6.68192C19.7395 6.62141 19.7667 6.5564 19.7852 6.4888C19.7381 6.46574 19.6859 6.45479 19.6335 6.45706C19.5811 6.45933 19.5301 6.47469 19.4852 6.50174C19.4182 6.53774 19.4182 6.51771 19.3672 6.24271Z" fill="#FBB03B"/>
<path d="M35.5972 20.2979C35.7869 19.2092 35.5827 18.0884 35.0214 17.1365C34.46 16.1846 33.5782 15.4635 32.5337 15.1026C31.4892 14.7416 30.3504 14.7643 29.3211 15.1665C28.2918 15.5688 27.4392 16.3244 26.9162 17.2979C26.462 16.9901 25.9142 16.8515 25.3683 16.9063C24.8224 16.9611 24.3131 17.206 23.9292 17.5979C23.5584 17.977 23.3269 18.4704 23.2722 18.9978C22.3645 19.0572 21.5115 19.4529 20.8798 20.1075C20.2481 20.7621 19.8831 21.6286 19.8562 22.5379C19.8337 23.5011 20.1946 24.4337 20.8595 25.1309C21.5245 25.8281 22.4391 26.2328 23.4022 26.2559H34.9952C35.74 26.2553 36.4581 25.9781 37.0104 25.4783C37.5626 24.9785 37.9098 24.2914 37.9845 23.5503C38.0591 22.8092 37.8562 22.0668 37.4148 21.4668C36.9733 20.8669 36.325 20.452 35.5952 20.3028L35.5972 20.2979Z" fill="#E6E6E6" stroke="white" stroke-width="0.295" stroke-miterlimit="10"/>
</svg>
