<svg width="41" height="41" viewBox="0 0 41 41" fill="none" xmlns="http://www.w3.org/2000/svg">
<path d="M14.0006 9.09884C13.9749 9.10356 13.9495 9.10995 13.9246 9.11789C13.7872 9.1488 13.6646 9.22635 13.5779 9.33737C13.4911 9.44839 13.4454 9.58591 13.4486 9.72677V11.5537C13.4486 11.7152 13.5128 11.8701 13.627 11.9843C13.7412 12.0986 13.8961 12.1628 14.0576 12.1628C14.2191 12.1628 14.374 12.0986 14.4883 11.9843C14.6025 11.8701 14.6666 11.7152 14.6666 11.5537V9.72677C14.6723 9.5654 14.6137 9.40839 14.5036 9.29025C14.3935 9.17211 14.241 9.10263 14.0796 9.09689C14.0533 9.09597 14.0269 9.09659 14.0006 9.09884ZM7.53065 11.7817C7.41468 11.7933 7.30444 11.8379 7.21299 11.9101C7.12154 11.9824 7.05268 12.0793 7.01459 12.1894C6.97651 12.2996 6.97079 12.4184 6.99808 12.5317C7.02538 12.645 7.08458 12.7481 7.16865 12.8288L8.44465 14.1228C8.56183 14.2331 8.71735 14.2934 8.87827 14.291C9.03919 14.2886 9.19285 14.2236 9.30665 14.1098C9.42045 13.996 9.48543 13.8423 9.48786 13.6814C9.49029 13.5204 9.42996 13.365 9.31965 13.2478L8.02564 11.9719C7.9692 11.9124 7.90129 11.8646 7.82603 11.832C7.75076 11.7993 7.66966 11.7822 7.58762 11.7817H7.53065ZM20.4516 11.7817C20.3126 11.8019 20.1848 11.8695 20.0896 11.9729L18.7956 13.2478C18.6795 13.3639 18.6142 13.5215 18.6142 13.6858C18.6142 13.85 18.6795 14.0076 18.7956 14.1237C18.9118 14.2399 19.0694 14.3051 19.2336 14.3051C19.3979 14.3051 19.5555 14.2399 19.6716 14.1237L20.9466 12.8298C21.0349 12.7446 21.0954 12.6347 21.1202 12.5146C21.1449 12.3945 21.1329 12.2696 21.0855 12.1565C21.0382 12.0433 20.9578 11.9473 20.8549 11.8806C20.7519 11.8139 20.6313 11.7796 20.5086 11.7827L20.4516 11.7817ZM14.0576 13.9897C13.094 13.9897 12.152 14.2756 11.3508 14.811C10.5496 15.3464 9.92512 16.1072 9.5564 16.9975C9.18768 17.8878 9.09127 18.8676 9.27933 19.8127C9.4674 20.7578 9.93149 21.6258 10.613 22.3071C11.2944 22.9884 12.1626 23.4525 13.1078 23.6403C14.0529 23.8282 15.0325 23.7314 15.9228 23.3625C16.813 22.9936 17.5738 22.3692 18.109 21.5678C18.6443 20.7665 18.9298 19.8244 18.9296 18.8608C18.9265 17.5695 18.4122 16.332 17.4993 15.4187C16.5863 14.5054 15.349 13.9905 14.0576 13.9868V13.9897ZM4.80964 18.2517C4.7277 18.2566 4.64758 18.2781 4.57407 18.3147C4.50056 18.3512 4.43517 18.402 4.38175 18.4643C4.32833 18.5266 4.28799 18.599 4.26313 18.6772C4.23827 18.7554 4.22939 18.8379 4.23704 18.9196C4.24469 19.0014 4.26871 19.0808 4.30765 19.153C4.3466 19.2253 4.39966 19.289 4.46372 19.3403C4.52778 19.3916 4.60151 19.4296 4.68052 19.4519C4.75953 19.4741 4.8422 19.4801 4.92362 19.4697H6.75065C6.91216 19.4697 7.06704 19.4057 7.18125 19.2915C7.29546 19.1773 7.35963 19.0223 7.35963 18.8608C7.35963 18.6993 7.29546 18.5444 7.18125 18.4301C7.06704 18.3159 6.91216 18.2517 6.75065 18.2517H4.80964ZM21.2506 18.2517C21.1689 18.2569 21.0889 18.2785 21.0156 18.3152C20.9423 18.3518 20.8771 18.4027 20.8239 18.4651C20.7707 18.5274 20.7305 18.5998 20.7058 18.6779C20.6811 18.7561 20.6723 18.8385 20.68 18.9201C20.6877 19.0017 20.7117 19.0809 20.7506 19.153C20.7895 19.2252 20.8426 19.2888 20.9065 19.3401C20.9704 19.3913 21.044 19.4291 21.1229 19.4514C21.2018 19.4737 21.2843 19.4799 21.3656 19.4697H23.1916C23.2716 19.4697 23.3508 19.4539 23.4247 19.4233C23.4986 19.3927 23.5657 19.348 23.6223 19.2915C23.6788 19.2349 23.7237 19.1676 23.7543 19.0937C23.7849 19.0198 23.8006 18.9408 23.8006 18.8608C23.8006 18.7808 23.7849 18.7015 23.7543 18.6277C23.7237 18.5538 23.6788 18.4867 23.6223 18.4301C23.5657 18.3736 23.4986 18.3287 23.4247 18.2981C23.3508 18.2675 23.2716 18.2517 23.1916 18.2517H21.2506ZM19.1766 23.4089C19.151 23.4137 19.1256 23.4199 19.1006 23.4277C18.9895 23.4485 18.8864 23.4998 18.8028 23.5759C18.7192 23.652 18.6584 23.7499 18.6273 23.8586C18.5961 23.9673 18.5959 24.0826 18.6265 24.1914C18.6571 24.3002 18.7174 24.3983 18.8006 24.4748L20.0946 25.7497C20.144 25.8141 20.2058 25.868 20.2763 25.9082C20.3468 25.9483 20.4246 25.9739 20.5051 25.9836C20.5857 25.9933 20.6674 25.9869 20.7454 25.9646C20.8234 25.9422 20.8961 25.9043 20.9593 25.8535C21.0226 25.8026 21.075 25.7398 21.1136 25.6684C21.1521 25.597 21.176 25.5187 21.1839 25.438C21.1917 25.3572 21.1834 25.2757 21.1593 25.1982C21.1352 25.1207 21.0959 25.0489 21.0436 24.9868C21.0165 24.9524 20.9857 24.9212 20.9516 24.8938L19.6766 23.5998C19.6132 23.5322 19.5352 23.4798 19.4486 23.4467C19.362 23.4137 19.269 23.4008 19.1766 23.4089ZM8.80564 23.4277C8.66952 23.4426 8.54238 23.5029 8.44465 23.5988L7.16865 24.8928C7.0428 24.9941 6.96233 25.1413 6.94498 25.302C6.92764 25.4626 6.97483 25.6234 7.07615 25.7492C7.17746 25.8751 7.32461 25.9555 7.48524 25.9729C7.64586 25.9902 7.80678 25.9431 7.93262 25.8418C7.96679 25.8145 7.99798 25.7836 8.02564 25.7497L9.31965 24.4738C9.41509 24.3847 9.47933 24.2671 9.50287 24.1386C9.52642 24.0102 9.50802 23.8775 9.45042 23.7602C9.39281 23.643 9.29903 23.5474 9.18293 23.4875C9.06683 23.4277 8.93456 23.4066 8.80564 23.4277ZM14.0056 25.5407C13.9798 25.5451 13.9544 25.5515 13.9296 25.5598C13.7921 25.5905 13.6695 25.668 13.5826 25.779C13.4958 25.8901 13.4502 26.0278 13.4536 26.1687V27.9948C13.4536 28.1564 13.5178 28.3113 13.632 28.4255C13.7462 28.5397 13.9011 28.6037 14.0626 28.6037C14.2241 28.6037 14.3791 28.5397 14.4933 28.4255C14.6075 28.3113 14.6716 28.1564 14.6716 27.9948V26.1687C14.6746 26.0887 14.6617 26.0091 14.6338 25.934C14.6059 25.859 14.5635 25.7903 14.5089 25.7317C14.4544 25.6731 14.3889 25.6258 14.3161 25.5925C14.2433 25.5592 14.1646 25.5406 14.0846 25.5378C14.0566 25.5366 14.0285 25.5375 14.0006 25.5407H14.0056Z" fill="#FBB03B"/>
<path fill-rule="evenodd" clip-rule="evenodd" d="M14.0677 26.0298C13.9997 25.6118 14.2417 25.7139 14.4537 25.6299C14.5244 25.6836 14.5833 25.751 14.627 25.8282C14.6707 25.9054 14.6982 25.9907 14.7077 26.0789C14.7567 26.1729 14.5827 26.1619 14.4417 26.1629C14.5937 26.2029 14.7067 26.2969 14.5317 26.3699C14.5317 26.4789 14.5657 26.6058 14.4427 26.6568C14.6497 26.7708 14.4747 27.0569 14.5317 27.2359C14.6265 27.4152 14.6917 27.6087 14.7247 27.8089C14.7604 27.9232 14.7679 28.0445 14.7467 28.1624C14.7254 28.2803 14.6761 28.3912 14.6027 28.4859C14.521 28.5822 14.4163 28.6564 14.2983 28.7015C14.1803 28.7466 14.0529 28.7612 13.9277 28.7439C13.7006 28.7102 13.4929 28.5967 13.3417 28.4239C13.3557 28.2429 13.1997 28.1559 13.4037 27.9949C13.4287 27.8739 13.2037 27.8689 13.2247 27.7479C13.2807 27.6359 13.1107 27.422 13.3147 27.378C13.1457 27.194 12.9517 26.807 13.1347 26.598C12.8207 26.543 13.1447 26.4448 12.9557 26.3528V26.1609C12.9548 26.0504 12.971 25.9403 13.0037 25.8348C13.0242 25.6206 13.0825 25.4117 13.1757 25.2178C13.2298 25.1076 13.3138 25.0147 13.4182 24.95C13.5225 24.8853 13.6429 24.8513 13.7657 24.8519L13.7047 24.868C13.7573 24.8669 13.8098 24.8728 13.8607 24.8858C13.9807 24.9738 13.9207 25.1808 13.8427 25.3028H13.8647C13.8454 25.334 13.8193 25.3604 13.7882 25.3799C13.7572 25.3995 13.7222 25.4118 13.6857 25.4158C13.6477 25.5798 13.4327 25.6839 13.4857 25.8489C13.5187 26.0329 13.5397 26.1138 13.5557 26.2408C13.5569 26.3692 13.599 26.494 13.6757 26.597C13.6997 26.865 13.7602 27.1284 13.8557 27.3799C13.8847 27.5039 13.9127 27.6298 13.9307 27.7598C13.9445 27.8501 13.9509 27.9414 13.9497 28.0328C13.8637 28.0958 13.9497 28.0968 13.8877 28.2408C14.0407 28.0578 13.9647 28.2069 14.0147 28.2029C14.0807 28.1829 14.0397 28.035 14.1617 28.181C14.174 28.1527 14.1766 28.121 14.169 28.0911C14.1614 28.0612 14.144 28.0349 14.1197 28.0159C14.1117 28.0079 14.1057 28.0159 14.1037 27.9979C14.1002 27.9583 14.1002 27.9185 14.1037 27.879C14.1102 27.7988 14.1348 27.7211 14.1757 27.6519C13.8147 27.4149 13.9707 27.1949 13.9067 26.8209C13.9477 26.6839 13.9637 26.5408 13.9947 26.3848C14.0067 26.3079 14.0278 26.2328 14.0577 26.1609C14.0972 26.1513 14.1339 26.1323 14.1647 26.1058C14.1269 26.1091 14.0915 26.1259 14.0647 26.1529C14.0647 26.1529 14.0807 26.1868 14.0677 26.0298Z" fill="#FBB03B"/>
<path fill-rule="evenodd" clip-rule="evenodd" d="M9.27171 23.5927C9.30813 23.4871 9.30813 23.3724 9.27171 23.2668L9.18669 23.1208L8.8867 23.9057V23.8957V23.8779V23.8437V23.7817C8.88569 23.7478 8.89043 23.7142 8.90071 23.6819C8.90748 23.659 8.91874 23.6377 8.93385 23.6194C8.94897 23.601 8.96762 23.5857 8.98869 23.5747C9.06869 23.5317 9.16072 23.5369 9.28072 23.4819C9.35559 23.5322 9.41927 23.5973 9.46779 23.6733C9.51631 23.7494 9.54861 23.8347 9.5627 23.9238C9.6157 24.0188 9.4397 24.0128 9.2997 24.0178C9.4557 24.0298 9.55671 24.1667 9.36571 24.1767C9.33971 24.2557 9.2977 24.3667 9.1797 24.3037C9.2467 24.5297 8.9147 24.6098 8.8257 24.7788C8.67279 25.1774 8.43378 25.5372 8.12572 25.8327L8.1357 25.8227C8.05685 25.9139 7.95925 25.9869 7.84953 26.0368C7.73982 26.0867 7.62058 26.1125 7.50005 26.112C7.37951 26.1116 7.26052 26.0849 7.1512 26.0342C7.04188 25.9834 6.94484 25.9096 6.86671 25.8178C6.87471 25.6338 6.7097 25.5528 6.9117 25.3808C6.9387 25.2598 6.71171 25.2098 6.79271 25.0498C6.86371 24.9638 6.91671 24.7609 7.03871 24.7109L7.0197 24.7278C7.03891 24.7203 7.05975 24.718 7.08012 24.7212C7.10049 24.7243 7.11966 24.7329 7.1357 24.7458C7.1467 24.4948 7.2867 24.0747 7.5667 24.0527C7.3847 23.7887 7.68171 23.9528 7.61571 23.7468L7.88069 23.4778C7.95669 23.3728 7.92069 23.2447 8.01469 23.0527C8.08742 22.9359 8.19134 22.8417 8.31471 22.7807C8.37518 22.7515 8.4407 22.7342 8.50771 22.7297C8.54095 22.7262 8.57447 22.7262 8.60771 22.7297L8.65669 22.7397L8.68071 22.7468H8.69069C8.64818 22.7552 8.60664 22.7681 8.5667 22.7849C8.49265 22.8171 8.42749 22.8665 8.37682 22.9294C8.32614 22.9923 8.29146 23.0665 8.27571 23.1457C8.26971 23.2247 8.2977 23.2457 8.3297 23.2307C8.3617 23.2157 8.40671 23.1648 8.50371 23.1028C8.58471 23.0338 8.80371 23.0258 8.72771 23.0678C8.7129 23.1217 8.68334 23.1705 8.64235 23.2085C8.60136 23.2465 8.55057 23.272 8.49571 23.2827C8.44671 23.4597 8.27069 23.5478 8.28569 23.6958C8.25669 24.0538 7.97871 24.1178 7.94771 24.4228C7.77462 24.6336 7.63005 24.8662 7.51772 25.1147L7.4807 25.1748L7.44472 25.2068C7.42472 25.2998 7.4627 25.3429 7.4547 25.3889C7.3697 25.4559 7.46369 25.4538 7.40269 25.6008C7.54569 25.4108 7.47771 25.5629 7.52971 25.5559C7.59671 25.5329 7.54371 25.3879 7.67671 25.5249C7.68365 25.5009 7.68601 25.4758 7.6837 25.4509L7.7187 25.4118C7.8697 25.1398 8.00269 24.8747 8.27769 24.8117C8.19669 24.3847 8.46471 24.3398 8.68971 24.0278L8.78371 23.9729L8.8297 23.9419L8.90071 24.0168H8.91371C8.93312 24.0148 8.95194 24.009 8.9691 23.9997C8.98626 23.9905 9.00143 23.978 9.01372 23.9629C8.97534 23.968 8.93996 23.9864 8.91371 24.0149C8.91371 24.0149 8.91371 24.0208 8.91371 23.9878L8.9077 23.9467L8.90269 23.9258V23.9138V23.9077L9.22169 23.1238L9.29469 23.2707C9.32378 23.3776 9.31569 23.4911 9.27171 23.5927Z" fill="#FBB03B"/>
<path fill-rule="evenodd" clip-rule="evenodd" d="M19.6686 23.3647C19.6556 23.2595 19.61 23.1609 19.5383 23.0827C19.4666 23.0046 19.3723 22.9507 19.2686 22.9287L19.2156 23.8947V23.8298V23.7678C19.2179 23.7351 19.2253 23.7031 19.2376 23.6728C19.2467 23.6502 19.2602 23.6297 19.2774 23.6125C19.2946 23.5953 19.3151 23.5818 19.3376 23.5727C19.4216 23.5367 19.5136 23.5489 19.6376 23.5039C19.7696 23.6259 19.8766 23.7437 19.9976 23.8637C20.0906 23.8977 19.9616 24.0098 19.8626 24.1108C19.9996 24.0338 20.1456 24.0207 20.0746 24.1977C20.1526 24.2777 20.2676 24.3447 20.2166 24.4697C20.4446 24.4057 20.5236 24.7359 20.6936 24.8259C20.7724 24.8499 20.8488 24.8813 20.9216 24.9199C21.0116 24.9621 21.0896 25.026 21.1484 25.1061C21.2072 25.1863 21.2449 25.2799 21.2581 25.3784C21.2714 25.4769 21.2597 25.5773 21.2241 25.6701C21.1886 25.7629 21.1303 25.8454 21.0546 25.9099C20.898 26.0466 20.6952 26.1185 20.4874 26.1113C20.2796 26.104 20.0824 26.0181 19.9356 25.8708L19.9506 25.8867C19.9185 25.8629 19.8851 25.841 19.8506 25.8207C19.8336 25.6557 19.6826 25.7007 19.7376 25.4577C19.6666 25.3577 19.5046 25.5129 19.4376 25.4099C19.3946 25.2899 19.1216 25.2588 19.2316 25.0808C18.9726 25.0608 18.5836 24.9558 18.5216 24.6308C18.2086 24.7478 18.3806 24.4307 18.1646 24.3537C18.0952 24.1347 18.0952 23.8998 18.1646 23.6809C18.1924 23.4627 18.2602 23.2514 18.3646 23.0578C18.4238 22.9475 18.5129 22.8561 18.6217 22.7941C18.7305 22.7322 18.8545 22.7023 18.9796 22.7077L18.8886 22.7307C18.7827 22.7764 18.6914 22.8503 18.6244 22.9443C18.5574 23.0382 18.5174 23.1488 18.5086 23.2639C18.5496 23.5079 18.6586 23.4688 18.7086 23.4138C18.7446 23.3648 18.8906 23.1278 19.0246 23.1638L19.0586 23.1547C19.0377 23.1862 19.0099 23.2127 18.9773 23.2319C18.9448 23.2511 18.9083 23.2627 18.8706 23.2658C18.8236 23.4268 18.6036 23.5287 18.6496 23.6967C18.6806 23.8797 18.6896 23.9787 18.7156 24.0837C18.7212 24.136 18.7458 24.1845 18.7847 24.2199C18.8236 24.2553 18.8741 24.2751 18.9266 24.2758C19.1343 24.4429 19.3621 24.5832 19.6046 24.6938C19.8408 24.8258 20.0545 24.9946 20.2376 25.1938C20.2476 25.2938 20.3376 25.3678 20.3866 25.4548L20.4186 25.4897C20.4152 25.5271 20.4043 25.5637 20.3866 25.5969C20.5486 25.4219 20.4656 25.5657 20.5176 25.5637C20.5866 25.5477 20.5496 25.3978 20.6676 25.5478C20.6811 25.5198 20.6849 25.4881 20.6784 25.4577C20.6719 25.4273 20.6554 25.3998 20.6316 25.3798C20.5976 25.3528 20.6056 25.3749 20.6676 25.3049C20.6315 25.3215 20.5978 25.343 20.5676 25.3688L20.4596 25.3779C20.2596 25.3209 20.1776 25.1327 19.9496 24.9677C19.7474 24.699 19.5835 24.4036 19.4626 24.0898C19.3921 24.0608 19.3187 24.0394 19.2436 24.0258C19.2156 24.0088 19.2366 24.0198 19.2296 24.0168C19.2296 24.0168 19.2296 24.0227 19.2296 23.9887V23.9487V23.9267V23.9147V23.9057L19.3076 22.9299C19.4039 22.9588 19.4895 23.0153 19.5537 23.0927C19.6179 23.1701 19.6579 23.2647 19.6686 23.3647Z" fill="#FBB03B"/>
<path fill-rule="evenodd" clip-rule="evenodd" d="M21.2857 18.7449C21.2777 18.6782 21.2808 18.6106 21.2947 18.5449H21.3218C21.3858 18.3629 21.6138 18.3909 21.7098 18.2109H22.2098C22.2988 18.1699 22.2878 18.3397 22.2898 18.4807C22.3318 18.3297 22.4238 18.2159 22.4998 18.3909C22.6098 18.3909 22.7377 18.3567 22.7907 18.4807C22.8957 18.2807 23.2198 18.4309 23.3328 18.4119C23.4303 18.3898 23.5325 18.4019 23.6221 18.4463C23.7118 18.4907 23.7833 18.5647 23.8247 18.6558C23.8804 18.7683 23.9017 18.8948 23.8858 19.0193C23.87 19.1438 23.8178 19.2607 23.7358 19.3557C23.6534 19.4471 23.5514 19.5188 23.4374 19.5652C23.3235 19.6116 23.2006 19.6316 23.0778 19.6238C22.8986 19.6302 22.7206 19.6556 22.5468 19.6997C22.4198 19.5937 22.3468 19.7318 22.2138 19.5198C22.0918 19.4958 22.0858 19.7197 21.9638 19.6997C21.8508 19.6437 21.6338 19.8139 21.5888 19.6099C21.5213 19.67 21.4464 19.7209 21.3658 19.7617H21.3918C21.1258 19.9137 20.6637 19.7618 20.6227 19.4878C20.3127 19.6128 20.4788 19.2959 20.2618 19.2219C20.1887 19.0067 20.1838 18.7741 20.2477 18.5559C20.2659 18.3155 20.3366 18.082 20.4547 17.8718C20.5218 17.7522 20.6279 17.6591 20.7553 17.6082C20.8827 17.5572 21.0237 17.5514 21.1548 17.5918C21.2958 17.7508 21.1328 18.0999 20.9298 18.1209C20.8908 18.2839 20.6757 18.3929 20.7297 18.5579C20.7677 18.7389 20.7797 18.8367 20.8077 18.9397C20.8146 18.9917 20.8403 19.0395 20.8799 19.0737C20.9195 19.108 20.9703 19.1264 21.0227 19.1257C21.0424 19.1472 21.0661 19.1646 21.0925 19.1768C21.1189 19.1889 21.1474 19.1958 21.1765 19.1968C21.2055 19.1978 21.2345 19.1929 21.2616 19.1826C21.2888 19.1724 21.3137 19.1567 21.3348 19.1367H21.3668L21.5898 19.0728C21.8473 19.001 22.1146 18.9707 22.3818 18.9829C22.5008 19.0829 22.7068 19.0009 22.7978 19.1629C22.8598 18.9239 22.9538 19.0918 23.0478 19.0728C23.0888 19.0608 23.1948 19.0159 23.2018 18.9939C23.2088 18.9719 23.2178 18.9809 23.2938 19.0459C23.3064 19.0176 23.3092 18.9859 23.3018 18.9558C23.2944 18.9257 23.2771 18.899 23.2528 18.8799C23.2188 18.8539 23.2278 18.8799 23.2888 18.8049C23.2549 18.8214 23.2233 18.842 23.1948 18.8667V18.8609C23.1948 18.8609 23.1948 18.8608 23.1948 18.8748V19.0007H23.1567H23.0948L22.9598 19.0159C22.6275 18.9714 22.303 18.8808 21.9958 18.7468C21.7958 18.8188 21.4248 19.1969 21.3398 18.8609H21.2828C21.2907 18.8227 21.2917 18.7834 21.2857 18.7449Z" fill="#FBB03B"/>
<path fill-rule="evenodd" clip-rule="evenodd" d="M4.8447 18.7449C4.83637 18.6782 4.83907 18.6107 4.8527 18.5449H4.88068C4.94468 18.3629 5.17168 18.3909 5.26868 18.2109H5.76868C5.85868 18.1699 5.84671 18.3397 5.84971 18.4807C5.89171 18.3297 5.98269 18.2159 6.05869 18.3909C6.16969 18.3909 6.29768 18.3567 6.35068 18.4807C6.45068 18.2807 6.77971 18.4309 6.89271 18.4119C6.99026 18.39 7.09238 18.4021 7.18195 18.4465C7.27152 18.491 7.34308 18.5649 7.38468 18.6558C7.44021 18.7684 7.4613 18.8948 7.44529 19.0193C7.42928 19.1438 7.37689 19.2608 7.29468 19.3557C7.2124 19.4472 7.11044 19.519 6.99647 19.5654C6.8825 19.6119 6.7595 19.6318 6.63669 19.6238C6.45784 19.6303 6.28018 19.6557 6.1067 19.6997C5.9787 19.5937 5.90669 19.7318 5.77369 19.5198C5.65169 19.4958 5.64569 19.7197 5.52369 19.6997C5.41069 19.6437 5.19269 19.8139 5.14869 19.6099C5.08089 19.67 5.0056 19.7209 4.92469 19.7617H4.9517C4.6857 19.9137 4.22368 19.7618 4.18268 19.4878C3.87268 19.6128 4.03869 19.2959 3.82169 19.2219C3.7483 19.0067 3.7434 18.774 3.80768 18.5559C3.82537 18.3154 3.89606 18.0818 4.01468 17.8718C4.08177 17.7522 4.18785 17.6591 4.31522 17.6082C4.4426 17.5572 4.58359 17.5514 4.7147 17.5918C4.74128 17.6403 4.75652 17.6943 4.75925 17.7495C4.76199 17.8048 4.75216 17.86 4.73051 17.9109C4.70885 17.9618 4.6759 18.0071 4.63419 18.0435C4.59248 18.0798 4.54309 18.1063 4.48969 18.1209C4.45169 18.2839 4.23671 18.3929 4.28971 18.5579C4.32671 18.7389 4.33868 18.8367 4.36768 18.9397C4.37453 18.9917 4.40023 19.0395 4.43986 19.0737C4.47948 19.108 4.53031 19.1264 4.58271 19.1257C4.60226 19.1471 4.62586 19.1644 4.65217 19.1765C4.67847 19.1887 4.70692 19.1955 4.73588 19.1965C4.76483 19.1976 4.79371 19.1929 4.82081 19.1826C4.8479 19.1724 4.87267 19.1567 4.89368 19.1367H4.9257L5.14969 19.0728C5.40692 19.001 5.67391 18.9708 5.94068 18.9829C6.06068 19.0829 6.2657 19.0009 6.3577 19.1629C6.4187 18.9239 6.5127 19.0918 6.6077 19.0728C6.6477 19.0608 6.75469 19.0159 6.76169 18.9939C6.76869 18.9719 6.7777 18.9809 6.8527 19.0459C6.86562 19.0178 6.86871 18.9859 6.86146 18.9558C6.8542 18.9257 6.83702 18.8991 6.81269 18.8799C6.77869 18.8539 6.7877 18.8799 6.8487 18.8049C6.81292 18.8214 6.77932 18.842 6.74869 18.8667V18.8609V19.0007H6.7107H6.64869L6.5127 19.0159C6.18079 18.9713 5.85668 18.8807 5.54969 18.7468C5.34969 18.8188 4.97768 19.1969 4.89368 18.8609H4.83671C4.84573 18.8229 4.84843 18.7837 4.8447 18.7449Z" fill="#FBB03B"/>
<path fill-rule="evenodd" clip-rule="evenodd" d="M14.0576 14.4867C14.2126 14.0487 15.3196 14.2707 15.8736 14.3007C16.5044 14.5516 17.0759 14.9314 17.5516 15.4157C17.8266 15.6557 17.6716 15.7377 17.5746 15.8417C17.7212 15.8622 17.8559 15.9335 17.9553 16.0431C18.0548 16.1528 18.1125 16.2939 18.1186 16.4418C18.3523 16.7483 18.4854 17.1196 18.4996 17.5048C18.8686 17.8608 18.8166 19.0448 18.7106 19.7328C18.6646 20.5125 18.3948 21.2624 17.9336 21.8927C17.4184 22.6085 16.7126 23.1652 15.8966 23.4997C15.1494 23.7906 14.346 23.9083 13.5467 23.8437C12.7475 23.7791 11.9734 23.5338 11.2826 23.1266C10.9116 22.7376 10.5606 22.6367 10.3646 22.0907C10.0716 21.6977 9.86463 21.8087 9.62063 21.3547C9.41363 20.9347 8.98262 20.0957 9.15362 19.8657C8.94499 19.3533 8.84817 18.8024 8.86962 18.2497C8.87763 17.6588 9.06299 17.0841 9.40164 16.5998C9.22764 16.2218 9.72063 16.0167 9.82363 15.5827C10.1644 15.1457 10.5689 14.7625 11.0236 14.4457C11.4377 14.1075 11.8842 13.8111 12.3566 13.5607C12.8521 13.3052 13.4182 13.2208 13.9666 13.3207C14.2546 13.4937 13.8286 13.8128 13.1026 13.8598C12.6137 14.0355 12.1463 14.2663 11.7096 14.5478C10.8877 15.1123 10.2529 15.9094 9.88662 16.8368C9.46473 17.7529 9.39356 18.7918 9.68661 19.7568C9.95596 20.6833 10.4811 21.515 11.2016 22.1567C11.4596 22.5377 12.1546 22.8428 12.4176 23.1008C12.7116 22.9598 12.9786 23.2247 13.3356 23.2597C13.7496 23.3007 14.1906 23.1957 15.0146 23.2197C16.1523 22.8051 17.136 22.0524 17.8336 21.0627C17.8886 20.6017 18.0006 20.2327 18.0826 19.7887C18.2015 19.2698 18.2121 18.7319 18.1136 18.2087C17.9754 17.0888 17.4374 16.0565 16.5986 15.3017C16.1684 15.0862 15.7055 14.9437 15.2286 14.8798C14.8094 14.86 14.4039 14.7239 14.0576 14.4867Z" fill="#FBB03B"/>
<path fill-rule="evenodd" clip-rule="evenodd" d="M20.1287 12.1559C20.0526 12.0878 19.9992 11.9983 19.9756 11.899L20.4756 12.2699V12.213V12.1578C20.4778 12.1278 20.4839 12.0984 20.4936 12.0699H20.5137C20.5737 11.8849 20.7257 11.9409 20.9047 11.8619C20.9763 11.9142 21.0367 11.9804 21.0822 12.0565C21.1277 12.1326 21.1574 12.2172 21.1696 12.305C21.2206 12.399 21.0457 12.3899 20.9057 12.3929C21.0597 12.4069 21.1587 12.5439 20.9687 12.5499C20.9447 12.6289 20.9006 12.7349 20.7826 12.6749C20.8506 12.9009 20.5266 12.981 20.4416 13.15C20.3004 13.5417 20.0736 13.8968 19.7776 14.1898C19.695 14.2837 19.5907 14.356 19.4737 14.4003C19.3568 14.4445 19.2307 14.4596 19.1067 14.444C18.8803 14.4127 18.672 14.3033 18.5177 14.1349C18.5287 13.9529 18.3677 13.8739 18.5687 13.7049C18.5947 13.5859 18.3686 13.538 18.4456 13.381C18.5346 13.258 18.6187 12.9418 18.7807 13.0738C18.7927 12.8248 18.9306 12.416 19.2086 12.399C19.0256 12.138 19.3236 12.299 19.2556 12.099L19.5186 11.84C19.5906 11.74 19.5597 11.6138 19.6427 11.4288C19.7105 11.3113 19.8104 11.2157 19.9307 11.1529C19.9892 11.1225 20.053 11.1036 20.1186 11.097C20.1518 11.0927 20.1855 11.0927 20.2187 11.097L20.2667 11.1049C20.3127 11.1049 20.2167 11.1159 20.4427 11.1049C20.8617 11.1939 20.8426 11.3859 20.7856 11.3749C20.7188 11.3774 20.652 11.3743 20.5857 11.3658C20.5097 11.3518 20.3047 11.407 20.3457 11.432C20.3336 11.4857 20.3065 11.5349 20.2675 11.5738C20.2286 11.6128 20.1794 11.6399 20.1257 11.652C20.0857 11.83 19.9127 11.9159 19.9257 12.0609C19.8997 12.4109 19.6257 12.4699 19.5907 12.7699C19.4171 12.9756 19.2718 13.2036 19.1587 13.4479C19.0587 13.5839 19.1027 13.587 19.0997 13.63C19.1079 13.6575 19.1116 13.6862 19.1107 13.715C19.0267 13.782 19.1187 13.7819 19.0557 13.9279C19.2067 13.7429 19.1327 13.893 19.1847 13.889C19.2517 13.869 19.2117 13.7219 19.3357 13.8649C19.3807 13.7263 19.4461 13.5953 19.5297 13.4759C19.6083 13.332 19.7399 13.2243 19.8967 13.1759C19.8057 12.7529 20.0696 12.7068 20.2856 12.3968L20.3776 12.3419L20.4227 12.3119L20.4336 12.3038L20.5047 12.3749H20.5137C20.5257 12.3749 20.5217 12.3749 20.5217 12.3749H20.5186C20.559 12.3714 20.5965 12.3529 20.6237 12.3229C20.4487 12.4009 20.5496 12.3668 20.5236 12.3758H20.4806V12.337V12.3009V12.2819V12.264L19.9607 11.7689L19.9806 11.9049C20.0031 12.0017 20.0548 12.0893 20.1287 12.1559Z" fill="#FBB03B"/>
<path fill-rule="evenodd" clip-rule="evenodd" d="M7.89674 12.1147C7.96285 12.0385 8.00432 11.944 8.01573 11.8437L7.55372 12.2678V12.2029L7.56074 12.1418C7.56475 12.1088 7.57419 12.0767 7.58873 12.0468C7.60929 12.0028 7.64469 11.9673 7.68873 11.9467C7.77073 11.9097 7.86072 11.9208 7.98872 11.8728C8.12072 11.9908 8.22773 12.1047 8.34773 12.2207C8.44073 12.2527 8.31273 12.3657 8.21473 12.4677C8.35073 12.3897 8.49573 12.3728 8.42573 12.5498C8.50273 12.6268 8.61773 12.6909 8.56773 12.8159C8.79373 12.7479 8.87374 13.0717 9.04274 13.1577C9.14455 13.1744 9.24152 13.2131 9.32698 13.271C9.41243 13.3288 9.48433 13.4046 9.53773 13.4929C9.58868 13.6054 9.60636 13.7302 9.58863 13.8525C9.57091 13.9748 9.51854 14.0894 9.43773 14.1828C9.35566 14.2785 9.25113 14.3523 9.1335 14.3977C9.01586 14.4431 8.88883 14.4586 8.76374 14.4428C8.55558 14.4033 8.36004 14.3141 8.19374 14.1828C8.18074 14.0178 8.02973 14.0628 8.09373 13.8208C8.02573 13.7208 7.86174 13.8747 7.79374 13.7717C7.75474 13.6537 7.48373 13.6208 7.59373 13.4448C7.33973 13.4258 6.95174 13.3117 6.90474 12.9997C6.59374 13.1207 6.76472 12.8059 6.54872 12.7329C6.47911 12.5185 6.47632 12.2878 6.54072 12.0717C6.5594 11.8338 6.62972 11.6028 6.74675 11.3947C6.82022 11.2803 6.92408 11.1886 7.04673 11.1299C7.10738 11.1029 7.17244 11.0872 7.23872 11.0837C7.26952 11.0814 7.30049 11.0835 7.33073 11.0898C7.24763 11.1204 7.17436 11.1728 7.11872 11.2417C7.03972 11.4517 7.20874 11.4519 7.33574 11.4729C7.36274 11.4809 7.41772 11.4877 7.41172 11.5107C7.39826 11.5341 7.3818 11.5556 7.36274 11.5747C7.32457 11.6138 7.27405 11.6386 7.21974 11.6447C7.18174 11.8067 6.96873 11.9139 7.01973 12.0779L7.09575 12.4568C7.10253 12.5082 7.12776 12.5554 7.16676 12.5896C7.20576 12.6238 7.25584 12.6428 7.30772 12.6428C7.51073 12.8104 7.73419 12.9514 7.97273 13.0627C8.20334 13.1951 8.41101 13.364 8.58772 13.5627C8.59572 13.7147 8.81473 13.8247 8.71373 13.9397C8.86473 13.7537 8.79172 13.9039 8.84272 13.8999C8.90972 13.8799 8.87073 13.7337 8.99473 13.8757C9.00754 13.847 9.01085 13.8149 9.00419 13.7842C8.99754 13.7534 8.98129 13.7257 8.95774 13.7048C8.92574 13.6768 8.93173 13.6937 8.99473 13.6257C8.95919 13.6405 8.9256 13.6598 8.89473 13.6828C8.88832 13.6877 8.8826 13.6933 8.87773 13.6997L8.85673 13.7197H8.85072L8.82374 13.7148C8.75934 13.6995 8.69939 13.6693 8.64872 13.6267C8.54872 13.5447 8.45573 13.4269 8.30073 13.3169C8.09878 13.0552 7.93483 12.7662 7.81373 12.4587C7.74364 12.4318 7.6709 12.4125 7.59672 12.4009C7.57672 12.3909 7.59174 12.4009 7.58674 12.4009C7.58674 12.4009 7.59372 12.4009 7.57872 12.4009C7.56372 12.4009 7.57274 12.4008 7.56874 12.3718V12.3318V12.3088V12.2968V12.2888L8.03474 11.8689C8.01288 11.9623 7.96504 12.0474 7.89674 12.1147Z" fill="#FBB03B"/>
<path fill-rule="evenodd" clip-rule="evenodd" d="M14.0677 9.58697C13.9997 9.16897 14.2417 9.27082 14.4537 9.18682C14.5242 9.24057 14.5831 9.30813 14.6268 9.38531C14.6704 9.46249 14.698 9.54766 14.7077 9.6358C14.7567 9.7308 14.5827 9.71976 14.4417 9.72076C14.5937 9.75976 14.7067 9.85381 14.5317 9.92681C14.5317 10.0368 14.5657 10.1629 14.4427 10.2149C14.6497 10.3289 14.4747 10.6148 14.5317 10.7938C14.6265 10.9731 14.6917 11.1666 14.7247 11.3668C14.7605 11.4811 14.768 11.6024 14.7468 11.7203C14.7256 11.8381 14.6761 11.9491 14.6027 12.0438C14.5209 12.14 14.4162 12.2142 14.2983 12.2593C14.1803 12.3044 14.0529 12.3189 13.9277 12.3018C13.7004 12.2681 13.4925 12.1542 13.3417 11.9808C13.3557 11.8008 13.1997 11.7138 13.4037 11.5528C13.4287 11.4318 13.2037 11.426 13.2247 11.306C13.2807 11.194 13.1107 10.9799 13.3147 10.9349C13.1457 10.7519 12.9517 10.3648 13.1347 10.1548C12.8207 10.1008 13.1447 10.003 12.9557 9.90997V9.7188C12.9548 9.60831 12.971 9.49841 13.0037 9.39288C13.024 9.17864 13.0823 8.96978 13.1757 8.77593C13.2297 8.66562 13.3137 8.57261 13.4181 8.50787C13.5224 8.44313 13.6429 8.40932 13.7657 8.40997L13.7047 8.42584C13.7572 8.42481 13.8097 8.43061 13.8607 8.44293C13.9807 8.53193 13.9207 8.74289 13.8427 8.86089L13.8647 8.85479C13.8456 8.88619 13.8195 8.91291 13.7885 8.93267C13.7574 8.95243 13.7223 8.96472 13.6857 8.9688C13.6477 9.1318 13.4327 9.23691 13.4857 9.40191C13.5187 9.58591 13.5397 9.66678 13.5557 9.79278C13.5567 9.92152 13.5988 10.0468 13.6757 10.15C13.6997 10.418 13.7602 10.6814 13.8557 10.9329C13.8847 11.0569 13.9127 11.1818 13.9307 11.3118C13.9446 11.4025 13.9509 11.4943 13.9497 11.586C13.8637 11.649 13.9497 11.6498 13.8877 11.7938C14.0407 11.6108 13.9647 11.7589 14.0147 11.7549C14.0807 11.7359 14.0397 11.588 14.1617 11.733C14.174 11.7047 14.1766 11.673 14.169 11.6431C14.1614 11.6133 14.144 11.5869 14.1197 11.5679C14.1117 11.5609 14.1057 11.5678 14.1037 11.5508C14.1003 11.5109 14.1003 11.4709 14.1037 11.431C14.1102 11.3511 14.1348 11.2738 14.1757 11.2049C13.8147 10.9669 13.9707 10.7478 13.9067 10.3738C13.9477 10.2368 13.9637 10.0928 13.9947 9.93682C14.0066 9.86021 14.0278 9.78543 14.0577 9.71392C14.0972 9.70417 14.1338 9.68541 14.1647 9.65899C14.127 9.66193 14.0915 9.67814 14.0647 9.70489C14.0647 9.70489 14.0807 9.74997 14.0677 9.58697Z" fill="#FBB03B"/>
<path d="M35.4997 21.868C35.6882 20.7819 35.4587 19.6646 34.8573 18.7408C34.2559 17.817 33.3271 17.1549 32.2577 16.8877C31.9113 16.8017 31.5557 16.7582 31.1987 16.7579C30.4101 16.7575 29.6362 16.9714 28.9595 17.3765C28.2829 17.7816 27.7289 18.3627 27.3567 19.0579C26.931 18.7699 26.4179 18.6399 25.9064 18.6907C25.395 18.7415 24.9175 18.9699 24.5567 19.336C24.2103 19.6908 23.9933 20.1517 23.9407 20.6448C23.09 20.7018 22.2911 21.0736 21.6995 21.6875C21.1079 22.3015 20.7661 23.1137 20.7407 23.9659C20.7301 24.4132 20.8077 24.8583 20.9691 25.2757C21.1305 25.693 21.3725 26.0744 21.6814 26.3982C21.9902 26.722 22.3599 26.9819 22.7692 27.1629C23.1784 27.3438 23.6193 27.4424 24.0667 27.4529H34.9407C35.639 27.4519 36.3121 27.1918 36.8298 26.7232C37.3475 26.2546 37.673 25.6106 37.7433 24.9158C37.8136 24.2211 37.6237 23.525 37.2104 22.9622C36.797 22.3994 36.1896 22.0098 35.5057 21.8689L35.4997 21.868Z" fill="#E6E6E6" stroke="#E6E6E6" stroke-width="0.374" stroke-miterlimit="10"/>
<path d="M29.3008 24.2009C29.5785 22.6004 29.2776 20.9532 28.4519 19.5544C27.6262 18.1556 26.3296 17.0964 24.7942 16.5661C23.2589 16.0359 21.5849 16.0694 20.072 16.6606C18.559 17.2518 17.3059 18.3619 16.5368 19.7927C15.8697 19.3394 15.0647 19.1349 14.2622 19.2146C13.4597 19.2942 12.7107 19.6532 12.1458 20.2287C11.6022 20.7847 11.2619 21.5076 11.1798 22.2807C9.84531 22.3684 8.59144 22.9504 7.66287 23.9128C6.7343 24.8752 6.19767 26.1491 6.15777 27.4858C6.14103 28.1871 6.2626 28.8847 6.51553 29.539C6.76846 30.1933 7.14778 30.7914 7.63186 31.299C8.11595 31.8067 8.69529 32.214 9.33682 32.4978C9.97835 32.7815 10.6695 32.9362 11.3708 32.9528H28.4158C29.5111 32.9522 30.5672 32.545 31.3795 31.8103C32.1919 31.0755 32.7026 30.0653 32.8127 28.9755C32.9229 27.8858 32.6247 26.7938 31.9759 25.9113C31.3271 25.0288 30.3738 24.4185 29.3008 24.1987V24.2009Z" fill="#E6E6E6" stroke="white" stroke-width="0.281" stroke-miterlimit="10"/>
</svg>
