<svg width="41" height="41" viewBox="0 0 41 41" fill="none" xmlns="http://www.w3.org/2000/svg">
<path d="M15.6578 6.99378C15.6273 6.99891 15.5972 7.00623 15.5678 7.01575C15.4061 7.05199 15.2619 7.14303 15.1598 7.27356C15.0577 7.4041 15.004 7.56589 15.0078 7.73157V9.88172C15.0078 10.0717 15.0833 10.2539 15.2177 10.3883C15.352 10.5227 15.5343 10.5983 15.7243 10.5983C15.9143 10.5983 16.0966 10.5227 16.2309 10.3883C16.3653 10.2539 16.4408 10.0717 16.4408 9.88172V7.73157C16.4475 7.54181 16.3787 7.35735 16.2493 7.21839C16.1199 7.07942 15.9406 6.99738 15.7508 6.9906C15.7198 6.98954 15.6887 6.99072 15.6578 6.99378ZM8.04479 10.1508C7.90814 10.1638 7.77814 10.2158 7.67024 10.3007C7.56234 10.3855 7.48109 10.4996 7.4362 10.6293C7.39131 10.759 7.38467 10.899 7.41704 11.0324C7.44941 11.1657 7.51944 11.287 7.61879 11.3817L9.11879 12.9047C9.18565 12.9757 9.2661 13.0328 9.35536 13.0721C9.44463 13.1115 9.54089 13.1324 9.63844 13.1339C9.736 13.1354 9.83289 13.1176 9.92333 13.0809C10.0138 13.0443 10.0959 12.9897 10.1649 12.9208C10.234 12.8518 10.2884 12.7697 10.3252 12.6793C10.3619 12.5889 10.3801 12.4922 10.3786 12.3947C10.3772 12.2971 10.3562 12.2008 10.3169 12.1115C10.2776 12.0222 10.2208 11.9416 10.1498 11.8746L8.62679 10.3746C8.56058 10.3044 8.48081 10.2483 8.39229 10.2098C8.30376 10.1713 8.20834 10.1513 8.1118 10.1508C8.08949 10.1495 8.0671 10.1495 8.04479 10.1508ZM23.2448 10.1508C23.0814 10.1736 22.931 10.2527 22.8198 10.3746L21.2968 11.8746C21.2257 11.9415 21.1688 12.0219 21.1294 12.1112C21.09 12.2005 21.069 12.2969 21.0675 12.3944C21.066 12.492 21.084 12.5886 21.1207 12.6791C21.1573 12.7695 21.2117 12.8518 21.2806 12.9208C21.3496 12.9898 21.4317 13.0442 21.5221 13.0809C21.6125 13.1176 21.7094 13.1358 21.8069 13.1344C21.9045 13.133 22.0008 13.1122 22.0901 13.0729C22.1794 13.0336 22.2599 12.9766 22.3268 12.9056L23.8268 11.3827C23.9304 11.2824 24.0014 11.1531 24.0304 11.0118C24.0595 10.8706 24.0453 10.724 23.9896 10.5909C23.934 10.4579 23.8396 10.3448 23.7187 10.2662C23.5977 10.1877 23.4559 10.1475 23.3118 10.1508H23.2448ZM15.7218 12.7506C14.5881 12.7506 13.4799 13.0868 12.5373 13.7167C11.5947 14.3465 10.86 15.2418 10.4261 16.2892C9.99229 17.3366 9.87876 18.4891 10.0999 19.601C10.3211 20.7129 10.867 21.7341 11.6687 22.5358C12.4703 23.3374 13.4916 23.8834 14.6035 24.1046C15.7154 24.3258 16.8679 24.2123 17.9153 23.7784C18.9627 23.3446 19.8579 22.6097 20.4878 21.6671C21.1176 20.7245 21.4538 19.6165 21.4538 18.4828C21.4504 16.9639 20.8459 15.5078 19.7724 14.4332C18.6989 13.3586 17.2437 12.7527 15.7248 12.7477L15.7218 12.7506ZM4.8398 17.7657C4.74347 17.7716 4.64931 17.7967 4.56291 17.8397C4.47651 17.8827 4.39965 17.9427 4.33687 18.016C4.27409 18.0893 4.22668 18.1745 4.19746 18.2665C4.16825 18.3585 4.15784 18.4553 4.16683 18.5514C4.17581 18.6475 4.20401 18.7408 4.24977 18.8258C4.29553 18.9108 4.3579 18.9856 4.43318 19.046C4.50846 19.1064 4.5951 19.1509 4.68797 19.1771C4.78085 19.2034 4.87805 19.2107 4.9738 19.1986H7.1238C7.30919 19.1917 7.48468 19.1132 7.61339 18.9796C7.7421 18.846 7.81401 18.6676 7.81401 18.4821C7.81401 18.2965 7.7421 18.1184 7.61339 17.9847C7.48468 17.8511 7.30919 17.7727 7.1238 17.7657H4.8398ZM24.1848 17.7657C23.999 17.7889 23.8296 17.8834 23.7124 18.0294C23.5952 18.1754 23.5395 18.3614 23.5571 18.5477C23.5746 18.7341 23.6641 18.9062 23.8065 19.0277C23.9489 19.1492 24.133 19.2105 24.3198 19.1986H26.4688C26.5651 19.2022 26.6612 19.1864 26.7513 19.152C26.8414 19.1176 26.9236 19.0655 26.993 18.9987C27.0624 18.9318 27.1177 18.8515 27.1554 18.7628C27.1931 18.6741 27.2126 18.5785 27.2126 18.4821C27.2126 18.3856 27.1931 18.2903 27.1554 18.2015C27.1177 18.1128 27.0624 18.0326 26.993 17.9657C26.9236 17.8988 26.8414 17.8468 26.7513 17.8124C26.6612 17.778 26.5651 17.7621 26.4688 17.7657H24.1848ZM21.7448 23.8346C21.7143 23.8396 21.6842 23.8469 21.6548 23.8566C21.5237 23.8803 21.4019 23.94 21.3029 24.0292C21.2039 24.1183 21.1318 24.2333 21.0946 24.3612C21.0574 24.4891 21.0566 24.625 21.0924 24.7533C21.1281 24.8816 21.1989 24.9975 21.2968 25.0878L22.8198 26.5878C22.8781 26.6633 22.9509 26.7263 23.034 26.7733C23.117 26.8203 23.2086 26.8503 23.3034 26.8615C23.3981 26.8726 23.4942 26.8647 23.5859 26.8383C23.6775 26.8118 23.763 26.7673 23.8373 26.7074C23.9116 26.6475 23.9732 26.5734 24.0184 26.4894C24.0637 26.4054 24.0917 26.3134 24.1009 26.2184C24.1101 26.1234 24.1002 26.0275 24.0718 25.9364C24.0435 25.8453 23.9972 25.7606 23.9358 25.6876C23.9033 25.6476 23.8668 25.6112 23.8268 25.5787L22.3268 24.0568C22.2529 23.9777 22.1621 23.9164 22.0611 23.8776C21.9601 23.8388 21.8516 23.8234 21.7438 23.8326L21.7448 23.8346ZM9.54479 23.8566C9.38443 23.8738 9.23447 23.9444 9.11879 24.0568L7.61879 25.5797C7.4708 25.6991 7.37629 25.8724 7.35603 26.0614C7.33578 26.2504 7.39144 26.4398 7.51079 26.5878C7.63014 26.7358 7.80338 26.8302 7.99242 26.8505C8.18145 26.8707 8.37079 26.815 8.51878 26.6957C8.55924 26.6637 8.59584 26.6273 8.62779 26.5868L10.1508 25.0868C10.2627 24.9821 10.3381 24.8442 10.3659 24.6935C10.3938 24.5428 10.3726 24.3869 10.3055 24.2491C10.2384 24.1114 10.1289 23.9989 9.99306 23.9279C9.85724 23.8568 9.70224 23.8311 9.5508 23.8546L9.54479 23.8566ZM15.6578 26.3417C15.6273 26.3471 15.5972 26.3548 15.5678 26.3646C15.4059 26.4005 15.2615 26.4916 15.1594 26.6222C15.0572 26.7528 15.0036 26.9149 15.0078 27.0807V29.2306C15.0078 29.4206 15.0833 29.6031 15.2177 29.7374C15.352 29.8718 15.5343 29.9471 15.7243 29.9471C15.9143 29.9471 16.0966 29.8718 16.2309 29.7374C16.3653 29.6031 16.4408 29.4206 16.4408 29.2306V27.0807C16.4475 26.8909 16.3787 26.7062 16.2493 26.5673C16.1199 26.4283 15.9406 26.3465 15.7508 26.3397C15.7199 26.3367 15.6888 26.3364 15.6578 26.3387V26.3417Z" fill="#FBB03B"/>
<path fill-rule="evenodd" clip-rule="evenodd" d="M15.7368 26.9148C15.6558 26.4228 15.9368 26.5427 16.1908 26.4397C16.274 26.503 16.3435 26.5826 16.3951 26.6736C16.4466 26.7645 16.4792 26.8649 16.4908 26.9687C16.5488 27.0797 16.3438 27.0688 16.1788 27.0688C16.3568 27.1138 16.4909 27.2248 16.2849 27.3108C16.2849 27.4398 16.3248 27.5887 16.1788 27.6487C16.4228 27.7827 16.2169 28.1178 16.2849 28.3298C16.3958 28.5414 16.4724 28.7693 16.5118 29.0049C16.5577 29.1429 16.5671 29.2903 16.5392 29.4331C16.5112 29.5758 16.447 29.7089 16.3525 29.8196C16.2581 29.9302 16.1367 30.0145 16.0001 30.0644C15.8635 30.1144 15.7164 30.1283 15.5728 30.1047C15.3056 30.0652 15.0612 29.9316 14.8839 29.7278C14.9009 29.5148 14.7168 29.4128 14.9568 29.2278C14.9858 29.0868 14.7188 29.0797 14.7458 28.9377C14.8118 28.8067 14.6118 28.5547 14.8518 28.5017C14.6518 28.2857 14.4248 27.8307 14.6408 27.5837C14.2708 27.5197 14.6518 27.4049 14.4288 27.2959V27.0708C14.4289 26.9407 14.4481 26.8113 14.4858 26.6868C14.5087 26.4348 14.5765 26.1888 14.6859 25.9607C14.7495 25.8312 14.8481 25.7222 14.9706 25.646C15.0931 25.5698 15.2346 25.5296 15.3788 25.5298L15.3078 25.5488C15.3698 25.5477 15.4317 25.5548 15.4919 25.5698C15.6329 25.6698 15.5618 25.9168 15.4698 26.0618L15.4969 26.0547C15.474 26.0914 15.4432 26.1228 15.4066 26.146C15.3701 26.1692 15.3288 26.1837 15.2858 26.1887C15.2408 26.3807 14.9859 26.5028 15.0479 26.6968C15.0869 26.9138 15.1119 27.0097 15.1299 27.1577C15.1318 27.3092 15.1815 27.4563 15.2719 27.5779C15.2999 27.893 15.3709 28.2028 15.4828 28.4988C15.5178 28.6448 15.5508 28.7928 15.5718 28.9458C15.5818 29.0218 15.5898 29.0997 15.5928 29.1787C15.5967 29.2082 15.5967 29.2383 15.5928 29.2678C15.4928 29.3418 15.5978 29.3427 15.5198 29.5117C15.6998 29.2967 15.6109 29.4718 15.6689 29.4668C15.7479 29.4438 15.6988 29.2667 15.8418 29.4407C15.8567 29.4075 15.86 29.3704 15.8511 29.3352C15.8422 29.3 15.8217 29.2689 15.7928 29.2468C15.7838 29.2378 15.7758 29.2408 15.7738 29.2268C15.7698 29.1799 15.7698 29.1326 15.7738 29.0857C15.7812 28.9913 15.8104 28.9001 15.8589 28.8188C15.4339 28.5398 15.6168 28.2808 15.5418 27.8408C15.5898 27.6798 15.6088 27.5119 15.6418 27.3279C15.6558 27.2375 15.6807 27.149 15.7159 27.0647C15.7624 27.0532 15.8055 27.031 15.8418 26.9997C15.7968 27.003 15.7545 27.0225 15.7228 27.0547C15.7228 27.0547 15.7518 27.1038 15.7368 26.9148Z" fill="#FBB03B"/>
<path fill-rule="evenodd" clip-rule="evenodd" d="M10.0929 24.0468C10.1355 23.9227 10.1355 23.7879 10.0929 23.6638C10.0697 23.6011 10.0359 23.5428 9.9929 23.4916L9.64192 24.4167V24.4047V24.3837V24.3427V24.2707C9.64131 24.2324 9.6467 24.1943 9.65791 24.1577C9.66527 24.131 9.67793 24.1063 9.69511 24.0847C9.71229 24.063 9.73365 24.0449 9.75791 24.0317C9.85191 23.9807 9.95791 23.9868 10.1019 23.9218C10.19 23.9813 10.2649 24.0583 10.322 24.1479C10.3791 24.2375 10.4172 24.3379 10.4339 24.4428C10.4959 24.5548 10.2889 24.5427 10.1239 24.5527C10.3079 24.5667 10.4239 24.7287 10.2009 24.7407C10.1719 24.8337 10.1219 24.9638 9.98191 24.8898C10.0609 25.1558 9.6709 25.2497 9.5659 25.4487C9.38499 25.9177 9.10339 26.3413 8.74092 26.6896L8.7519 26.6767C8.66052 26.7954 8.54069 26.8893 8.40348 26.9494C8.26627 27.0095 8.11611 27.034 7.9669 27.0207C7.69631 26.9933 7.44465 26.8695 7.25791 26.6718C7.26791 26.4548 7.0739 26.3587 7.3119 26.1567C7.3439 26.0147 7.07992 25.9568 7.17192 25.7678C7.25592 25.6678 7.31792 25.4276 7.46192 25.3676L7.43891 25.3886C7.46147 25.3801 7.48586 25.3776 7.50968 25.3813C7.53351 25.385 7.55596 25.3949 7.5749 25.4099C7.5879 25.1099 7.75292 24.6197 8.08192 24.5937C7.86792 24.2837 8.2179 24.4718 8.1399 24.2338L8.45191 23.9177C8.54091 23.7947 8.4989 23.6437 8.6099 23.4177C8.69598 23.2797 8.81896 23.1684 8.96491 23.0966C9.03633 23.0632 9.11326 23.0434 9.1919 23.0378C9.23077 23.0333 9.27004 23.0333 9.30891 23.0378L9.36592 23.0498L9.3939 23.0578L9.40592 23.0627C9.3561 23.0728 9.30747 23.0884 9.2609 23.1088C9.17345 23.1461 9.09645 23.2041 9.03666 23.278C8.97687 23.3519 8.93611 23.4393 8.91792 23.5327C8.91092 23.6257 8.94391 23.6478 8.98091 23.6328C9.01791 23.6178 9.07192 23.5546 9.18092 23.4816C9.28092 23.4006 9.52992 23.3906 9.44392 23.4406C9.42668 23.504 9.39207 23.5614 9.344 23.6061C9.29594 23.6509 9.23633 23.6812 9.17192 23.6938C9.11392 23.9018 8.90691 24.0056 8.92491 24.1796C8.88991 24.6016 8.56391 24.6798 8.52491 25.0358C8.3212 25.2837 8.15105 25.5574 8.0189 25.8498L7.9759 25.9196L7.9329 25.9577C7.9089 26.0667 7.95493 26.1168 7.94493 26.1718C7.84493 26.2508 7.95491 26.2478 7.88291 26.4218C8.05191 26.1978 7.97191 26.3768 8.03291 26.3688C8.11191 26.3418 8.04991 26.1687 8.20591 26.3317C8.21424 26.3035 8.21695 26.2741 8.21391 26.2448L8.25492 26.1987C8.43292 25.8787 8.58991 25.5677 8.91291 25.4877C8.81291 24.9877 9.1329 24.9307 9.3979 24.5637L9.50892 24.4987L9.56291 24.4638L9.64692 24.5517H9.6609C9.6719 24.5577 9.66691 24.5517 9.66691 24.5517H9.66191C9.70903 24.5469 9.75244 24.524 9.78291 24.4877C9.73853 24.4937 9.69776 24.5154 9.66792 24.5488C9.66899 24.5378 9.66899 24.5268 9.66792 24.5158L9.65992 24.4687L9.65492 24.4428V24.4296V24.4186L10.0309 23.4968L10.1169 23.6686C10.151 23.7938 10.1425 23.927 10.0929 24.0468Z" fill="#FBB03B"/>
<path fill-rule="evenodd" clip-rule="evenodd" d="M22.3268 23.7799L22.2008 23.4718C22.114 23.3646 21.9922 23.2919 21.8568 23.2659L21.7948 24.4039V24.3258V24.2528C21.7974 24.2147 21.8058 24.1774 21.8198 24.1419C21.8299 24.1157 21.8452 24.0917 21.8648 24.0716C21.8844 24.0515 21.9079 24.0358 21.9338 24.025C22.0338 23.983 22.1398 23.9969 22.2868 23.9439C22.4418 24.0869 22.5678 24.2258 22.7108 24.3668C22.8198 24.4078 22.6678 24.5388 22.5518 24.6578C22.7128 24.5678 22.8848 24.5519 22.8008 24.7579C22.8928 24.8519 23.0278 24.931 22.9678 25.078C23.2358 25.002 23.3298 25.3909 23.5298 25.4969C23.6226 25.5245 23.7124 25.5612 23.7978 25.6068C23.9035 25.6567 23.995 25.7324 24.064 25.8267C24.1329 25.9211 24.1772 26.0312 24.1927 26.147C24.2082 26.2629 24.1945 26.3807 24.1527 26.4898C24.111 26.599 24.0426 26.6959 23.9538 26.7718C23.7693 26.9326 23.5306 27.0173 23.286 27.0086C23.0414 26.9999 22.8094 26.8985 22.6368 26.7249L22.6548 26.7449C22.6154 26.7165 22.5743 26.6903 22.5318 26.6668C22.5118 26.4668 22.3318 26.5258 22.3988 26.2398C22.3158 26.1178 22.1248 26.3039 22.0408 26.1829C21.9908 26.0429 21.6688 26.006 21.7988 25.796C21.4938 25.772 21.0368 25.6489 20.9638 25.2659C20.5948 25.4049 20.7968 25.0337 20.5438 24.9407C20.4623 24.6827 20.4623 24.4058 20.5438 24.1478C20.5749 23.8917 20.6528 23.6437 20.7738 23.4158C20.8434 23.286 20.9484 23.1785 21.0765 23.1058C21.2046 23.0331 21.3506 22.9982 21.4978 23.005L21.3898 23.0308C21.2652 23.0847 21.1578 23.1716 21.079 23.2821C21.0002 23.3926 20.9531 23.5225 20.9428 23.6578C20.9918 23.9458 21.1198 23.8998 21.1808 23.8338C21.2188 23.7958 21.2518 23.727 21.3178 23.651C21.3453 23.615 21.3809 23.586 21.4218 23.5667C21.4627 23.5474 21.5076 23.5383 21.5528 23.5399L21.5928 23.5299C21.5678 23.5666 21.5349 23.5975 21.4965 23.6199C21.4581 23.6424 21.4151 23.6561 21.3708 23.66C21.3158 23.85 21.0568 23.9708 21.1108 24.1678C21.1478 24.3828 21.1588 24.4999 21.1888 24.6219C21.1952 24.6835 21.2239 24.7407 21.2696 24.7825C21.3154 24.8244 21.3748 24.8481 21.4368 24.849C21.682 25.0453 21.9507 25.2102 22.2368 25.3399C22.5142 25.4948 22.7656 25.6921 22.9818 25.9249C22.9938 26.0449 23.0998 26.125 23.1568 26.233L23.1948 26.275C23.1903 26.3186 23.1778 26.361 23.1578 26.4C23.3478 26.194 23.2508 26.3639 23.3118 26.3609C23.3928 26.3419 23.3478 26.1659 23.4878 26.3409C23.5049 26.3077 23.51 26.2697 23.5022 26.2332C23.4943 26.1967 23.4741 26.1641 23.4448 26.1409C23.4058 26.1089 23.4138 26.1348 23.4878 26.0528C23.4459 26.0723 23.4068 26.0975 23.3718 26.1278L23.2438 26.1368C23.0138 26.0698 22.9128 25.8489 22.6438 25.6549C22.4059 25.3391 22.2131 24.9918 22.0708 24.6229C21.9877 24.5887 21.9012 24.5633 21.8128 24.5469C21.7798 24.5269 21.8038 24.5399 21.7968 24.5369C21.7959 24.526 21.7959 24.515 21.7968 24.504V24.4569V24.431V24.4168V24.4068L21.8888 23.2579C22.0062 23.2902 22.1109 23.3575 22.1891 23.4508C22.2673 23.544 22.3154 23.6587 22.3268 23.7799Z" fill="#FBB03B"/>
<path fill-rule="evenodd" clip-rule="evenodd" d="M24.2289 18.3438C24.2188 18.2634 24.2225 18.182 24.2399 18.1028H24.2719C24.3469 17.8888 24.6149 17.9207 24.7289 17.7107H25.3159C25.4209 17.6607 25.4079 17.8609 25.4099 18.0279C25.4599 17.8499 25.5679 17.7159 25.6569 17.9219C25.7879 17.9219 25.9379 17.8819 25.9999 18.0279C26.1229 17.7929 26.5049 17.9688 26.6379 17.9468C26.7527 17.9204 26.8731 17.9345 26.9786 17.9869C27.0842 18.0392 27.1684 18.1266 27.2169 18.2339C27.2825 18.3657 27.308 18.5138 27.2902 18.66C27.2724 18.8061 27.2122 18.9438 27.1169 19.056C27.02 19.1634 26.9 19.2475 26.7659 19.3021C26.6319 19.3566 26.4873 19.3801 26.3429 19.3709C26.132 19.3789 25.9225 19.4089 25.7179 19.4607C25.5679 19.3357 25.4789 19.4988 25.3259 19.2488C25.1829 19.2208 25.1759 19.4877 25.0319 19.4607C24.8989 19.3947 24.6429 19.5948 24.5909 19.3548C24.5112 19.4254 24.4228 19.4855 24.3279 19.5337H24.3589C24.0459 19.7137 23.5029 19.5339 23.4589 19.2129C23.0939 19.3599 23.2899 18.9857 23.0339 18.8987C22.9486 18.6452 22.943 18.3716 23.0179 18.1148C23.0395 17.8335 23.1228 17.5603 23.2619 17.3147C23.3409 17.1736 23.4658 17.0639 23.6159 17.0037C23.766 16.9435 23.9323 16.9366 24.0869 16.9839C24.1869 17.0709 24.1599 17.2299 24.1009 17.3589C24.0419 17.4879 23.9689 17.5877 23.8229 17.6067C23.7769 17.7987 23.5229 17.9269 23.5839 18.1209C23.6279 18.3339 23.6419 18.4489 23.6759 18.5709C23.6837 18.6321 23.7139 18.6882 23.7606 18.7286C23.8072 18.769 23.8672 18.7908 23.9289 18.7898C23.9519 18.815 23.9797 18.8351 24.0107 18.8494C24.0416 18.8637 24.0751 18.8716 24.1092 18.8729C24.1432 18.8741 24.1772 18.8685 24.2091 18.8565C24.2409 18.8445 24.2701 18.8262 24.2949 18.8028H24.3329C24.4189 18.7748 24.5079 18.7488 24.5959 18.7278C24.8986 18.6432 25.2129 18.6074 25.5269 18.6219C25.6679 18.7409 25.9099 18.6438 26.0179 18.8328C26.0899 18.5528 26.1999 18.75 26.3119 18.733C26.3589 18.719 26.4849 18.6657 26.4929 18.6387C26.5009 18.6117 26.5109 18.624 26.5999 18.702C26.6167 18.6683 26.6211 18.6296 26.6123 18.5931C26.6035 18.5565 26.5821 18.5241 26.5519 18.5018C26.5129 18.4708 26.5229 18.4959 26.5949 18.4139C26.5549 18.4333 26.5176 18.4578 26.4839 18.4869V18.4798C26.4839 18.4798 26.4839 18.4799 26.4839 18.4959V18.6438H26.4399H26.3659C26.3126 18.6472 26.2595 18.6532 26.2069 18.6619C25.8164 18.6089 25.4352 18.5021 25.0739 18.3448C24.8379 18.4298 24.4009 18.8748 24.3009 18.4788H24.2189C24.2303 18.4348 24.2337 18.389 24.2289 18.3438Z" fill="#FBB03B"/>
<path fill-rule="evenodd" clip-rule="evenodd" d="M4.88384 18.3438C4.87349 18.2635 4.87685 18.182 4.89382 18.1028H4.92584C5.00084 17.8888 5.26884 17.9207 5.38284 17.7107H5.97085C6.07085 17.6607 6.06184 17.8609 6.06484 18.0279C6.11384 17.8499 6.22182 17.7159 6.31182 17.9219C6.44182 17.9219 6.59184 17.8819 6.65484 18.0279C6.77684 17.7929 7.15983 17.9688 7.29183 17.9468C7.40677 17.9206 7.52726 17.9348 7.63293 17.9871C7.7386 18.0394 7.823 18.1266 7.87185 18.2339C7.93679 18.3662 7.96135 18.5145 7.9425 18.6607C7.92365 18.8069 7.86221 18.9445 7.76583 19.056C7.66895 19.1635 7.54898 19.2475 7.41494 19.3021C7.2809 19.3566 7.13626 19.3802 6.99185 19.3709C6.78126 19.3788 6.57207 19.4088 6.36782 19.4607C6.21782 19.3357 6.12782 19.4988 5.97582 19.2488C5.83182 19.2208 5.82485 19.4877 5.68185 19.4607C5.54885 19.3947 5.29284 19.5948 5.24084 19.3548C5.16076 19.4254 5.07205 19.4855 4.97683 19.5337H5.00884C4.69484 19.7137 4.15185 19.5339 4.10885 19.2129C3.74385 19.3599 3.93883 18.9857 3.68383 18.8987C3.5976 18.6454 3.59166 18.3716 3.66683 18.1148C3.68849 17.8335 3.77178 17.5603 3.91082 17.3147C3.98985 17.1736 4.11482 17.0639 4.26492 17.0037C4.41501 16.9435 4.5812 16.9366 4.73583 16.9839C4.83583 17.0709 4.80885 17.2299 4.75085 17.3589C4.69285 17.4879 4.61783 17.5877 4.47183 17.6067C4.42583 17.7987 4.17185 17.9269 4.23385 18.1209C4.27785 18.3339 4.29182 18.4489 4.32482 18.5709C4.3331 18.6319 4.36339 18.6878 4.40997 18.7281C4.45655 18.7684 4.51624 18.7904 4.57784 18.7898C4.60104 18.8149 4.62894 18.835 4.65997 18.8492C4.69099 18.8634 4.72453 18.8714 4.75863 18.8726C4.79273 18.8738 4.82674 18.8682 4.8587 18.8563C4.89065 18.8443 4.91994 18.8261 4.94485 18.8028H4.98184C5.06884 18.7748 5.15684 18.7488 5.24584 18.7278C5.54854 18.6431 5.86284 18.6073 6.17684 18.6219C6.31784 18.7409 6.55883 18.6438 6.66683 18.8328C6.73883 18.5528 6.84984 18.75 6.96084 18.733C7.00884 18.719 7.13384 18.6657 7.14184 18.6387C7.14984 18.6117 7.16084 18.624 7.24984 18.702C7.26604 18.6682 7.27012 18.6297 7.26138 18.5933C7.25263 18.5569 7.2316 18.5245 7.20184 18.5018C7.16184 18.4708 7.17284 18.4959 7.24484 18.4139C7.2044 18.4331 7.16673 18.4576 7.13284 18.4869V18.4798C7.13284 18.4798 7.13284 18.4799 7.13284 18.4959V18.6438H7.08883H7.01482C6.96156 18.6472 6.90849 18.6532 6.85583 18.6619C6.46539 18.6088 6.08414 18.502 5.72283 18.3448C5.48783 18.4298 5.04983 18.8748 4.95083 18.4788H4.88284C4.89082 18.4342 4.89116 18.3885 4.88384 18.3438Z" fill="#FBB03B"/>
<path fill-rule="evenodd" clip-rule="evenodd" d="M15.7249 13.3289C15.8109 13.0999 16.1878 12.9868 16.6188 13.0078C17.0538 13.0078 17.5188 13.1219 17.8608 13.1079C18.603 13.4031 19.2756 13.8494 19.8359 14.4187C20.1589 14.7017 19.9769 14.7987 19.8629 14.9187C20.0356 14.9428 20.1943 15.0271 20.3112 15.1565C20.428 15.286 20.4955 15.4524 20.5018 15.6267C20.7773 15.9874 20.9345 16.4243 20.9518 16.8777C21.1801 17.2231 21.2977 17.6298 21.2889 18.0437C21.2986 18.5307 21.2685 19.0177 21.1989 19.4998C21.1447 20.417 20.8274 21.2993 20.2849 22.0408C19.6775 22.8833 18.846 23.5385 17.8848 23.9319C16.9428 24.3179 15.9163 24.4513 14.9068 24.3189C14.044 24.2052 13.2115 23.9245 12.4558 23.4927C12.0198 23.0357 11.6069 22.9167 11.3759 22.2737C11.0309 21.8107 10.7919 21.9418 10.5009 21.4068C10.2569 20.9138 9.74984 19.9268 9.95084 19.6558C9.7059 19.0533 9.59206 18.4058 9.61686 17.7559C9.62625 17.0605 9.84432 16.3837 10.2428 15.8138C10.0428 15.3688 10.6188 15.1278 10.7428 14.6138C11.1428 14.0993 11.6181 13.6484 12.1528 13.2759C12.6397 12.8778 13.165 12.5291 13.7209 12.2349C14.3039 11.9337 14.9703 11.8343 15.6158 11.9519C15.9548 12.1519 15.4539 12.5297 14.5999 12.5857C14.0248 12.7927 13.4749 13.0642 12.9609 13.3948C11.9936 14.0591 11.2465 14.9968 10.8149 16.0879C10.3171 17.1657 10.2317 18.3885 10.5748 19.5249C10.8911 20.6169 11.5092 21.5974 12.3579 22.3538C12.6579 22.8008 13.4788 23.1599 13.7878 23.4639C14.1348 23.2989 14.4488 23.6099 14.8698 23.6509C15.3558 23.6999 15.8748 23.5758 16.8438 23.6038C18.183 23.1164 19.3409 22.2306 20.1618 21.0657C20.2258 20.5237 20.3618 20.0897 20.4548 19.5657C20.5945 18.9551 20.6064 18.3223 20.4898 17.7068C20.328 16.3891 19.6955 15.1743 18.7088 14.2859C18.2028 14.0315 17.6581 13.8626 17.0968 13.7859C16.6061 13.7631 16.1313 13.6049 15.7249 13.3289Z" fill="#FBB03B"/>
<path fill-rule="evenodd" clip-rule="evenodd" d="M22.8668 10.5878C22.778 10.5083 22.7156 10.4036 22.6878 10.2877L23.2748 10.7247V10.6576V10.5927C23.2772 10.5585 23.2843 10.5248 23.2958 10.4926H23.3198C23.3898 10.2746 23.5678 10.3407 23.7788 10.2487C23.8632 10.3098 23.9343 10.3873 23.9879 10.4767C24.0415 10.5661 24.0765 10.6655 24.0908 10.7687C24.1508 10.8797 23.9448 10.8688 23.7798 10.8688C23.9618 10.8858 24.0798 11.0456 23.8538 11.0536C23.8258 11.1466 23.7748 11.2706 23.6358 11.2006C23.7158 11.4666 23.3358 11.5607 23.2358 11.7587C23.0701 12.2201 22.8032 12.6388 22.4548 12.9838C22.3578 13.0945 22.2352 13.1795 22.0976 13.2318C21.9601 13.2841 21.8118 13.3019 21.6658 13.2836C21.3996 13.247 21.1545 13.1188 20.9728 12.9208C20.9858 12.7068 20.7958 12.6137 21.0328 12.4147C21.0638 12.2747 20.7998 12.2146 20.8878 12.0336C20.9878 11.8886 21.0878 11.5168 21.2818 11.6718C21.2968 11.3788 21.4578 10.8978 21.7818 10.8788C21.5668 10.5708 21.9168 10.7607 21.8378 10.5267L22.1458 10.2267C22.2308 10.1077 22.1948 9.96078 22.2918 9.74378C22.3715 9.60512 22.4891 9.49187 22.6308 9.41761C22.7001 9.38227 22.7754 9.36029 22.8528 9.35267C22.891 9.34824 22.9296 9.34824 22.9678 9.35267L23.0248 9.36268C23.0778 9.36768 22.9658 9.37556 23.2318 9.36756C23.7248 9.46756 23.7078 9.69768 23.6318 9.68568C23.5539 9.68766 23.476 9.68369 23.3988 9.67371C23.3098 9.65871 23.0688 9.72259 23.1168 9.75159C23.1024 9.81486 23.0704 9.87285 23.0246 9.91883C22.9788 9.9648 22.921 9.99691 22.8578 10.0116C22.8108 10.2206 22.6068 10.3216 22.6238 10.4916C22.5928 10.9036 22.2648 10.9738 22.2238 11.3268C22.0194 11.5695 21.8485 11.8384 21.7158 12.1266C21.5998 12.2876 21.6508 12.2907 21.6468 12.3417C21.6567 12.374 21.6611 12.408 21.6598 12.4418C21.5598 12.5208 21.6698 12.5198 21.5948 12.6928C21.7718 12.4738 21.6858 12.6506 21.7458 12.6456C21.8258 12.6226 21.7788 12.4458 21.9248 12.6188C21.9772 12.4556 22.0537 12.3013 22.1518 12.1608C22.2453 11.9934 22.4002 11.8688 22.5838 11.8136C22.4778 11.3136 22.7838 11.2616 23.0418 10.8966L23.1498 10.8317L23.2028 10.7968L23.2158 10.7877L23.2998 10.8727H23.3088C23.3238 10.8777 23.3188 10.8776 23.3188 10.8776H23.3128C23.3605 10.8742 23.405 10.8525 23.4368 10.8168C23.2308 10.9088 23.3498 10.8688 23.3168 10.8798H23.2658C23.2666 10.8644 23.2666 10.8489 23.2658 10.8336V10.7916V10.7687V10.7477L22.6538 10.1657L22.6778 10.3246C22.7147 10.4283 22.7802 10.5197 22.8668 10.5878Z" fill="#FBB03B"/>
<path fill-rule="evenodd" clip-rule="evenodd" d="M8.47478 10.5416C8.55301 10.4521 8.60218 10.341 8.61577 10.2228L8.07176 10.7228V10.6447L8.07976 10.5727C8.0841 10.5337 8.09529 10.4957 8.11278 10.4606C8.13604 10.4092 8.17678 10.3678 8.22777 10.3437C8.32777 10.2997 8.42776 10.3118 8.57476 10.2558C8.73076 10.3948 8.85576 10.5287 8.99776 10.6657C9.10676 10.7037 8.95678 10.8357 8.84078 10.9557C9.00078 10.8637 9.17176 10.8438 9.08876 11.0558C9.18076 11.1468 9.31476 11.2218 9.25576 11.3688C9.52176 11.2878 9.61578 11.6687 9.81478 11.7687C9.93521 11.7889 10.0498 11.8351 10.1505 11.9042C10.2512 11.9733 10.3355 12.0635 10.3978 12.1686C10.4576 12.3009 10.4784 12.4477 10.4574 12.5915C10.4365 12.7352 10.3749 12.8699 10.2798 12.9796C10.1831 13.0919 10.0603 13.1787 9.92211 13.2321C9.78395 13.2855 9.63478 13.3039 9.48778 13.2858C9.24266 13.2396 9.01238 13.1344 8.81676 12.9796C8.80076 12.7856 8.62377 12.8386 8.69377 12.5546C8.61477 12.4336 8.42078 12.6177 8.34078 12.4967C8.29478 12.3567 7.97676 12.3187 8.10976 12.1117C7.80976 12.0887 7.35375 11.9548 7.29875 11.5878C6.93275 11.7308 7.13378 11.3606 6.87978 11.2736C6.79754 11.0213 6.79404 10.7501 6.86977 10.4957C6.89118 10.2145 6.97415 9.94134 7.11278 9.6957C7.1994 9.56099 7.32201 9.45322 7.46675 9.38467C7.53815 9.35298 7.61476 9.33473 7.69277 9.33071C7.72892 9.32832 7.76523 9.33075 7.80077 9.33779C7.70319 9.37399 7.61718 9.43578 7.55178 9.51675C7.45878 9.76375 7.65778 9.76374 7.80678 9.78774C7.83878 9.79774 7.90678 9.80566 7.89678 9.83266C7.88106 9.86057 7.86153 9.88607 7.83876 9.90859C7.79381 9.95436 7.7345 9.98334 7.67076 9.99062C7.62576 10.1816 7.37077 10.3076 7.43477 10.5006L7.52376 10.9457C7.53197 11.0062 7.56182 11.0617 7.60778 11.102C7.65373 11.1422 7.71267 11.1645 7.77376 11.1647C8.01245 11.3623 8.27564 11.5283 8.55678 11.6586C8.82741 11.813 9.0715 12.0098 9.27977 12.2416C9.28977 12.4196 9.54676 12.5497 9.42876 12.6847C9.60576 12.4657 9.51976 12.6436 9.57976 12.6386C9.65876 12.6146 9.61278 12.4387 9.75878 12.6107C9.77385 12.5771 9.77769 12.5393 9.76976 12.5033C9.76184 12.4673 9.74257 12.435 9.71477 12.4108C9.67777 12.3778 9.68378 12.3958 9.75878 12.3168C9.71819 12.3344 9.6799 12.3568 9.64476 12.3837C9.63756 12.3894 9.63087 12.3958 9.62477 12.4027L9.60076 12.4267H9.59276L9.56176 12.4208C9.48583 12.4043 9.41489 12.3699 9.35475 12.3207C9.23375 12.2207 9.12876 12.0837 8.94576 11.9557C8.70804 11.6481 8.51512 11.3084 8.37276 10.9467C8.29012 10.9147 8.20432 10.8914 8.11678 10.8776C8.09378 10.8666 8.11075 10.8777 8.10475 10.8727H8.09578C8.08878 10.8727 8.08877 10.8788 8.08477 10.8388L8.07875 10.7907V10.7648V10.7506V10.7396L8.62776 10.2467C8.60619 10.3577 8.55308 10.4601 8.47478 10.5416Z" fill="#FBB03B"/>
<path fill-rule="evenodd" clip-rule="evenodd" d="M15.7368 7.56981C15.6558 7.07681 15.9368 7.19772 16.1908 7.09472C16.274 7.15783 16.3435 7.23735 16.395 7.32811C16.4466 7.41887 16.4792 7.51906 16.4908 7.62279C16.5488 7.73379 16.3438 7.72289 16.1788 7.72289C16.3568 7.76889 16.4909 7.87981 16.2849 7.96581C16.2849 8.09481 16.3248 8.2427 16.1788 8.3037C16.4228 8.4377 16.2169 8.77285 16.2849 8.98485C16.3959 9.196 16.4725 9.42336 16.5118 9.65868C16.5541 9.79376 16.5631 9.93711 16.538 10.0764C16.5129 10.2157 16.4545 10.3469 16.3678 10.4587C16.2705 10.572 16.1462 10.659 16.0063 10.7114C15.8665 10.7639 15.7157 10.7802 15.5678 10.7588C15.3006 10.7185 15.0564 10.5846 14.8788 10.3808C14.8958 10.1688 14.7118 10.0658 14.9518 9.88085C14.9808 9.73885 14.7138 9.73181 14.7408 9.59081C14.8068 9.45881 14.6068 9.20677 14.8468 9.15477C14.6468 8.93777 14.4198 8.48383 14.6358 8.23583C14.2658 8.17183 14.6468 8.05672 14.4238 7.94872V7.72289C14.4239 7.59312 14.4431 7.464 14.4808 7.33983C14.5037 7.08753 14.5715 6.84129 14.6808 6.61278C14.7444 6.48334 14.8431 6.37436 14.9656 6.29833C15.0882 6.2223 15.2296 6.18234 15.3738 6.18285L15.3029 6.20189C15.3649 6.19984 15.4269 6.20691 15.4868 6.22289C15.6278 6.32289 15.5568 6.56986 15.4648 6.71386L15.4919 6.70678C15.469 6.74353 15.4382 6.77464 15.4016 6.79784C15.3651 6.82104 15.3238 6.83576 15.2809 6.84081C15.2359 7.03281 14.9808 7.15584 15.0428 7.34984C15.0818 7.56684 15.1068 7.66178 15.1248 7.81078C15.1269 7.96222 15.1766 8.10909 15.2668 8.2307C15.295 8.54587 15.366 8.85586 15.4778 9.15185C15.515 9.29893 15.5447 9.44783 15.5668 9.59789C15.5768 9.67489 15.5848 9.75178 15.5878 9.83178C15.5916 9.86132 15.5916 9.89134 15.5878 9.92089C15.4878 9.99489 15.5928 9.99478 15.5148 10.1648C15.6948 9.94878 15.6058 10.1239 15.6638 10.1189C15.7428 10.0959 15.6939 9.91874 15.8369 10.0937C15.8529 10.0599 15.8569 10.0215 15.8479 9.9851C15.839 9.94866 15.8178 9.9164 15.7878 9.89379C15.7788 9.88579 15.7708 9.89377 15.7688 9.87377C15.7648 9.82685 15.7648 9.77981 15.7688 9.7329C15.7762 9.63886 15.8054 9.5477 15.8539 9.46679C15.4289 9.18679 15.6118 8.92876 15.5368 8.48876C15.5848 8.32776 15.6038 8.15884 15.6368 7.97484C15.6508 7.88451 15.6756 7.79626 15.7108 7.7119C15.7575 7.70092 15.8008 7.67841 15.8369 7.64672C15.792 7.65052 15.7498 7.67017 15.7178 7.70189C15.7178 7.70189 15.7518 7.75881 15.7368 7.56981Z" fill="#FBB03B"/>
<path d="M33.6609 24.7636C33.9884 22.8802 33.6348 20.9418 32.6634 19.2954C31.692 17.6489 30.1661 16.4018 28.3591 15.7778C26.5522 15.1537 24.582 15.1933 22.8016 15.8894C21.0211 16.5854 19.5465 17.8927 18.6419 19.5769C17.8573 19.0429 16.91 18.8016 15.9655 18.8952C15.0211 18.9888 14.1396 19.4113 13.475 20.0888C12.8354 20.7433 12.4349 21.594 12.3379 22.5039C10.7678 22.6069 9.29238 23.2912 8.19978 24.4235C7.10717 25.5559 6.4758 27.0548 6.42893 28.6276C6.40913 29.4528 6.5521 30.274 6.84968 31.0439C7.14725 31.8138 7.59362 32.5176 8.16325 33.1149C8.73287 33.7123 9.41462 34.1917 10.1695 34.5256C10.9244 34.8594 11.7377 35.0413 12.5629 35.0607H32.6189C33.9122 35.0676 35.1615 34.5922 36.1232 33.7275C37.0849 32.8628 37.6898 31.6709 37.82 30.3842C37.9502 29.0975 37.5962 27.8085 36.8272 26.7688C36.0582 25.729 34.9293 25.013 33.6609 24.7607V24.7636Z" fill="#E6E6E6" stroke="white" stroke-width="0.33" stroke-miterlimit="10"/>
</svg>
