<svg width="41" height="41" viewBox="0 0 41 41" fill="none" xmlns="http://www.w3.org/2000/svg">
<path d="M16.7448 32.3156C15.6698 34.2066 14.9528 36.2897 16.7948 36.6247C17.0558 36.6554 17.3204 36.6228 17.5661 36.5297C17.8119 36.4366 18.0316 36.2858 18.2068 36.0898C18.557 35.6923 18.831 35.2336 19.0148 34.7368C19.6858 33.0733 20.2535 31.37 20.7148 29.6367C21.1234 28.4359 21.3529 27.1815 21.3958 25.9138C21.3958 26.1438 20.7208 26.7766 20.5868 26.9496C20.1118 27.5666 19.6288 28.1767 19.1618 28.8007C18.2791 29.9176 17.4717 31.0917 16.7448 32.3156Z" fill="#70AFED" stroke="#70AFED" stroke-width="0.092" stroke-miterlimit="10"/>
<path d="M13.5968 28.4758C13.2318 28.9998 12.4558 30.3919 13.6838 30.5869C13.8312 30.6035 13.9805 30.5878 14.1214 30.5412C14.2622 30.4946 14.3913 30.4181 14.4998 30.3168C14.6981 30.1218 14.8567 29.8901 14.9668 29.6347C15.3517 28.7997 15.6792 27.9394 15.9468 27.0598C16.1815 26.4604 16.3143 25.826 16.3397 25.1828C16.3397 25.1828 14.4078 27.3098 13.5968 28.4758Z" fill="#70AFED" stroke="#70AFED" stroke-width="0.092" stroke-miterlimit="10"/>
<path d="M26.8838 27.0598C27.1193 26.4606 27.2525 25.8261 27.2778 25.1828C27.2778 25.1828 25.3448 27.3098 24.5338 28.4758C24.1688 28.9998 23.3928 30.3919 24.6218 30.5869C24.7691 30.6035 24.9183 30.5878 25.059 30.5412C25.1997 30.4946 25.3286 30.4181 25.4368 30.3168" fill="#70AFED"/>
<path d="M26.8838 27.0598C27.1193 26.4606 27.2525 25.8261 27.2778 25.1828C27.2778 25.1828 25.3448 27.3098 24.5338 28.4758C24.1688 28.9998 23.3928 30.3919 24.6218 30.5869C24.7691 30.6035 24.9183 30.5878 25.059 30.5412C25.1997 30.4946 25.3286 30.4181 25.4368 30.3168" stroke="#70AFED" stroke-width="0.092" stroke-miterlimit="10"/>
<path d="M31.2638 12.6426C31.5752 10.8556 31.2372 9.01608 30.3108 7.45654C29.6438 6.31371 28.6827 5.37069 27.5274 4.72558C26.372 4.08048 25.0648 3.75681 23.742 3.78857C22.4192 3.82033 21.1291 4.2062 20.006 4.906C18.883 5.6058 17.9682 6.59405 17.3568 7.76757C16.6319 7.26658 15.7524 7.03985 14.8756 7.12817C13.9989 7.21648 13.1823 7.614 12.5718 8.24951C11.978 8.8679 11.6074 9.66676 11.5188 10.5195C10.4039 10.6054 9.33599 11.0048 8.43836 11.6716C7.54074 12.3385 6.84999 13.2457 6.44587 14.2883C6.04175 15.331 5.94075 16.4666 6.15449 17.5642C6.36823 18.6618 6.88799 19.6766 7.65382 20.4914C8.17634 21.0529 8.80603 21.5042 9.50574 21.8184C10.2055 22.1325 10.961 22.3032 11.7278 22.3206H30.2988C31.4947 22.2933 32.6393 21.8297 33.5169 21.0168C34.3944 20.204 34.9444 19.0982 35.0631 17.908C35.1817 16.7177 34.8609 15.525 34.1611 14.5549C33.4612 13.5848 32.4307 12.9054 31.2638 12.6426Z" fill="#E6E6E6" stroke="#E6E6E6" stroke-width="0.37" stroke-miterlimit="10"/>
</svg>
