<svg width="41" height="41" viewBox="0 0 41 41" fill="none" xmlns="http://www.w3.org/2000/svg">
<path d="M16.9118 32.8157C15.8368 34.7067 15.1198 36.7898 16.9618 37.1248C17.2228 37.1553 17.4873 37.1227 17.7331 37.0295C17.9788 36.9364 18.1986 36.7857 18.3738 36.5898C18.724 36.1924 18.9979 35.7337 19.1818 35.2368C19.8532 33.5735 20.421 31.8702 20.8818 30.1367C21.2914 28.9362 21.5209 27.6816 21.5628 26.4138C21.5628 26.6438 20.8878 27.2767 20.7548 27.4497C20.2798 28.0667 19.7958 28.6768 19.3298 29.3008C18.4465 30.4173 17.6386 31.5915 16.9118 32.8157Z" fill="#70AFED" stroke="#70AFED" stroke-width="0.092" stroke-miterlimit="10"/>
<path d="M13.7628 28.9758C13.3988 29.4998 12.6218 30.8919 13.8508 31.0869C13.9982 31.1035 14.1475 31.0879 14.2884 31.0413C14.4292 30.9946 14.5583 30.9182 14.6668 30.8169C14.8648 30.6219 15.023 30.3901 15.1328 30.1348C15.5182 29.3 15.8456 28.4396 16.1128 27.5598C16.3482 26.9606 16.4815 26.3262 16.5068 25.6829C16.5068 25.6829 14.5738 27.8098 13.7628 28.9758Z" fill="#70AFED" stroke="#70AFED" stroke-width="0.092" stroke-miterlimit="10"/>
<path d="M31.4307 13.1426C31.7421 11.3556 31.4041 9.51615 30.4777 7.9566C29.8108 6.81353 28.8496 5.87018 27.6942 5.22491C26.5388 4.57964 25.2315 4.25614 23.9085 4.2879C22.5854 4.31966 21.2951 4.7056 20.172 5.40557C19.0489 6.10555 18.1341 7.09388 17.5228 8.26764C16.798 7.76671 15.9186 7.54016 15.0421 7.62848C14.1655 7.71679 13.349 8.11414 12.7388 8.74957C12.1446 9.3677 11.7739 10.1667 11.6857 11.0196C10.5707 11.1053 9.50269 11.5046 8.60493 12.1714C7.70716 12.8382 7.0163 13.7452 6.61207 14.7879C6.20784 15.8306 6.10675 16.9663 6.32044 18.064C6.53414 19.1617 7.05391 20.1766 7.81977 20.9915C8.34241 21.5528 8.97213 22.0041 9.67182 22.3182C10.3715 22.6323 11.127 22.8031 11.8937 22.8206H30.4658C31.6616 22.7934 32.8062 22.3297 33.6838 21.5169C34.5614 20.7041 35.1113 19.5983 35.23 18.408C35.3487 17.2177 35.0278 16.0251 34.328 15.055C33.6282 14.0849 32.5977 13.4054 31.4307 13.1426Z" fill="#E6E6E6" stroke="#E6E6E6" stroke-width="0.37" stroke-miterlimit="10"/>
</svg>
