<svg width="41" height="41" viewBox="0 0 41 41" fill="none" xmlns="http://www.w3.org/2000/svg">
<path d="M14.8001 4.68768C14.7754 4.69171 14.751 4.69779 14.7271 4.70575C14.5957 4.73511 14.4785 4.80909 14.3955 4.91522C14.3125 5.02135 14.2688 5.1531 14.2721 5.28778V7.03485C14.2688 7.11338 14.2815 7.19156 14.3093 7.26507C14.3371 7.33858 14.3795 7.40587 14.4339 7.46258C14.4883 7.5193 14.5537 7.56433 14.6259 7.59515C14.6982 7.62598 14.776 7.64178 14.8546 7.64178C14.9332 7.64178 15.0109 7.62598 15.0832 7.59515C15.1555 7.56433 15.2209 7.5193 15.2754 7.46258C15.3298 7.40587 15.3721 7.33858 15.3999 7.26507C15.4277 7.19156 15.4404 7.11338 15.4371 7.03485V5.28778C15.4417 5.13398 15.3853 4.98465 15.2802 4.87225C15.1752 4.75986 15.0298 4.69342 14.8761 4.68768C14.8508 4.68571 14.8254 4.68571 14.8001 4.68768ZM8.61215 7.25384C8.53595 7.26111 8.46186 7.28312 8.39426 7.31903C8.32666 7.35494 8.26678 7.40399 8.21811 7.46307C8.16944 7.52215 8.133 7.59029 8.11069 7.66351C8.08837 7.73673 8.08066 7.81365 8.0881 7.88983C8.10107 8.0291 8.16433 8.15885 8.26608 8.25482L9.48508 9.49261C9.59759 9.59673 9.74611 9.6533 9.89938 9.65033C10.0527 9.64736 10.1988 9.58514 10.3072 9.47674C10.4156 9.36835 10.4778 9.2223 10.4808 9.06903C10.4838 8.91576 10.4272 8.76724 10.3231 8.65472L9.08505 7.43573C9.03129 7.37838 8.96641 7.33267 8.89438 7.30121C8.82234 7.26975 8.74471 7.25309 8.66611 7.25262C8.64813 7.25141 8.63013 7.25141 8.61215 7.25262V7.25384ZM20.9701 7.25384C20.8371 7.27264 20.7149 7.33685 20.6241 7.43573L19.3871 8.6557C19.2802 8.76753 19.2214 8.91679 19.2231 9.07147C19.2249 9.22615 19.2871 9.37396 19.3965 9.48334C19.5058 9.59272 19.6538 9.65493 19.8084 9.65668C19.9631 9.65843 20.1123 9.59949 20.2241 9.49261L21.4441 8.2558C21.5277 8.17413 21.5849 8.06908 21.6081 7.95453C21.6314 7.83997 21.6197 7.72103 21.5746 7.61322C21.5294 7.50541 21.4528 7.4138 21.3548 7.35004C21.2569 7.28627 21.142 7.25345 21.0251 7.2558L20.9701 7.25384ZM14.8551 9.36468C13.9334 9.36449 13.0323 9.63767 12.2658 10.1496C11.4994 10.6615 10.902 11.3892 10.5492 12.2407C10.1963 13.0921 10.1038 14.0293 10.2835 14.9333C10.4632 15.8373 10.907 16.6677 11.5587 17.3195C12.2104 17.9713 13.0407 18.4153 13.9447 18.5952C14.8487 18.775 15.7856 18.6827 16.6372 18.33C17.4887 17.9773 18.2166 17.3801 18.7287 16.6137C19.2408 15.8474 19.5141 14.9465 19.5141 14.0248C19.5102 12.7904 19.018 11.6077 18.1451 10.7348C17.2722 9.86192 16.0895 9.36864 14.8551 9.36468ZM6.00913 13.4418C5.93263 13.449 5.85831 13.4711 5.79038 13.507C5.72244 13.5429 5.66216 13.5917 5.61313 13.6508C5.5641 13.71 5.52727 13.7783 5.50461 13.8517C5.48195 13.9252 5.47389 14.0023 5.48105 14.0788C5.48821 14.1553 5.51047 14.2296 5.54636 14.2975C5.58224 14.3655 5.63113 14.4255 5.69028 14.4745C5.74943 14.5236 5.81767 14.5605 5.89108 14.5832C5.96449 14.6059 6.04164 14.6138 6.11813 14.6066H7.86508C7.94361 14.6099 8.02204 14.5973 8.09555 14.5695C8.16906 14.5417 8.2361 14.4994 8.29282 14.445C8.34953 14.3906 8.39468 14.3252 8.42551 14.2529C8.45633 14.1806 8.47226 14.1029 8.47226 14.0244C8.47226 13.9458 8.45633 13.8679 8.42551 13.7956C8.39468 13.7233 8.34953 13.6579 8.29282 13.6035C8.2361 13.549 8.16906 13.5067 8.09555 13.4789C8.02204 13.4511 7.94361 13.4386 7.86508 13.4418H6.00913ZM21.7341 13.4418C21.5796 13.4564 21.4373 13.5318 21.3383 13.6513C21.2394 13.7709 21.192 13.9248 21.2066 14.0793C21.2212 14.2338 21.2966 14.3761 21.4161 14.475C21.5357 14.574 21.6896 14.6212 21.8441 14.6066H23.5912C23.6697 14.6099 23.748 14.5973 23.8215 14.5695C23.895 14.5417 23.9622 14.4994 24.0189 14.445C24.0756 14.3906 24.1208 14.3252 24.1516 14.2529C24.1824 14.1806 24.1982 14.1029 24.1982 14.0244C24.1982 13.9458 24.1824 13.8679 24.1516 13.7956C24.1208 13.7233 24.0756 13.6579 24.0189 13.6035C23.9622 13.549 23.895 13.5067 23.8215 13.4789C23.748 13.4511 23.6697 13.4386 23.5912 13.4418H21.7341ZM19.7511 18.3747C19.7263 18.3787 19.7019 18.3848 19.6781 18.3928C19.5714 18.4118 19.4723 18.4603 19.3917 18.5327C19.3111 18.605 19.2524 18.6984 19.2221 18.8024C19.1919 18.9064 19.1913 19.0167 19.2204 19.121C19.2496 19.2253 19.3073 19.3195 19.3871 19.3928L20.6241 20.6127C20.7231 20.7262 20.8621 20.797 21.0121 20.8102C21.162 20.8235 21.3113 20.7781 21.4287 20.6838C21.546 20.5894 21.6224 20.4535 21.6417 20.3041C21.661 20.1548 21.6216 20.0038 21.5321 19.8828C21.5061 19.8496 21.4762 19.8197 21.4431 19.7936L20.2241 18.5558C20.164 18.4917 20.0901 18.4419 20.008 18.4103C19.9259 18.3788 19.8377 18.3663 19.7501 18.3737L19.7511 18.3747ZM9.83115 18.3928C9.70068 18.4071 9.57875 18.4649 9.48508 18.5568L8.26608 19.7936C8.20163 19.8447 8.14873 19.9089 8.11081 19.9819C8.07289 20.0548 8.05086 20.1349 8.04611 20.217C8.04137 20.2991 8.05408 20.3813 8.08334 20.4582C8.11261 20.535 8.15777 20.6049 8.21591 20.663C8.27406 20.7212 8.34378 20.7663 8.42062 20.7956C8.49747 20.8249 8.57962 20.8374 8.66171 20.8327C8.7438 20.828 8.82398 20.8059 8.89694 20.768C8.96991 20.7301 9.03399 20.6772 9.08505 20.6127L10.3221 19.3937C10.4127 19.3083 10.4736 19.196 10.4958 19.0734C10.518 18.9509 10.5003 18.8244 10.4454 18.7126C10.3905 18.6008 10.3013 18.5095 10.1908 18.4521C10.0802 18.3947 9.95418 18.3733 9.83115 18.3928ZM14.8001 20.4128C14.7751 20.4128 14.7511 20.4238 14.7271 20.4308C14.5957 20.4606 14.4785 20.5348 14.3956 20.6411C14.3127 20.7473 14.269 20.8789 14.2721 21.0136V22.7607C14.2688 22.8392 14.2815 22.9176 14.3093 22.9911C14.3371 23.0647 14.3795 23.1317 14.4339 23.1884C14.4883 23.2451 14.5537 23.2904 14.6259 23.3212C14.6982 23.3521 14.776 23.3679 14.8546 23.3679C14.9332 23.3679 15.0109 23.3521 15.0832 23.3212C15.1555 23.2904 15.2209 23.2451 15.2754 23.1884C15.3298 23.1317 15.3721 23.0647 15.3999 22.9911C15.4277 22.9176 15.4404 22.8392 15.4371 22.7607V21.0136C15.442 20.8597 15.3856 20.7103 15.2805 20.5978C15.1753 20.4854 15.0299 20.4192 14.8761 20.4138C14.8508 20.4123 14.8255 20.4113 14.8001 20.4128Z" fill="#FBB03B"/>
<path fill-rule="evenodd" clip-rule="evenodd" d="M14.864 20.8876C14.799 20.4876 15.0301 20.5876 15.2331 20.5016C15.3006 20.5528 15.357 20.6173 15.3988 20.6911C15.4406 20.7649 15.4669 20.8466 15.4761 20.9308C15.5231 21.0208 15.3561 21.0106 15.2221 21.0116C15.3671 21.0486 15.476 21.1398 15.308 21.2118C15.308 21.3118 15.3411 21.4377 15.2221 21.4877C15.4221 21.5957 15.253 21.8677 15.308 22.0407C15.3984 22.2127 15.4609 22.3981 15.4931 22.5898C15.5271 22.6991 15.5342 22.815 15.5138 22.9277C15.4934 23.0403 15.4461 23.1463 15.376 23.2367C15.2967 23.3193 15.2006 23.3837 15.0943 23.426C14.9879 23.4682 14.8737 23.4873 14.7594 23.4816C14.6451 23.4759 14.5333 23.4456 14.4317 23.393C14.33 23.3404 14.2408 23.2667 14.1701 23.1767C14.1831 23.0037 14.034 22.9208 14.229 22.7668C14.252 22.6518 14.035 22.6457 14.058 22.5307C14.111 22.4237 13.9491 22.2187 14.1441 22.1767C13.9821 22.0007 13.7961 21.6306 13.9721 21.4296C13.6721 21.3776 13.9811 21.2847 13.8001 21.1957V21.0126C13.7994 20.9069 13.8149 20.8017 13.8461 20.7006C13.8654 20.4957 13.9212 20.296 14.011 20.1108C14.0627 20.0054 14.1429 19.9166 14.2427 19.8547C14.3424 19.7928 14.4577 19.7602 14.5751 19.7607L14.517 19.7758C14.5672 19.7748 14.6174 19.7803 14.666 19.7927C14.781 19.8777 14.7231 20.0748 14.6491 20.1928L14.6701 20.1867C14.6516 20.2166 14.6267 20.242 14.5971 20.2609C14.5675 20.2798 14.5339 20.2917 14.499 20.2958C14.462 20.4518 14.2571 20.5517 14.3051 20.7087C14.3371 20.8857 14.3571 20.9627 14.3721 21.0837C14.3735 21.2069 14.4137 21.3266 14.4871 21.4257C14.5102 21.6817 14.5681 21.9334 14.6591 22.1738C14.6871 22.2928 14.714 22.4128 14.731 22.5368C14.7442 22.6235 14.7503 22.7111 14.749 22.7988C14.667 22.8588 14.7491 22.8597 14.6901 22.9987C14.8361 22.8237 14.7631 22.9658 14.8111 22.9618C14.8751 22.9428 14.835 22.8016 14.952 22.9406C14.9639 22.9136 14.9664 22.8835 14.9591 22.8549C14.9519 22.8263 14.9353 22.8008 14.912 22.7826C14.904 22.7756 14.898 22.7828 14.896 22.7658C14.8925 22.7279 14.8925 22.6897 14.896 22.6518C14.9017 22.5752 14.925 22.5009 14.964 22.4347C14.619 22.2077 14.7641 21.9978 14.7071 21.6398C14.7461 21.5098 14.761 21.3718 14.791 21.2228C14.8024 21.1492 14.823 21.0773 14.8521 21.0087C14.8892 20.9994 14.9235 20.9813 14.952 20.9557C14.9144 20.9583 14.879 20.9742 14.8521 21.0007C14.8521 21.0007 14.877 21.0356 14.864 20.8876Z" fill="#FBB03B"/>
<path fill-rule="evenodd" clip-rule="evenodd" d="M10.277 18.5507C10.3116 18.4499 10.3116 18.3404 10.277 18.2396L10.1961 18.0998L9.91005 18.8507V18.8417V18.8236V18.7907V18.7316C9.90958 18.7004 9.91391 18.6696 9.92299 18.6398C9.92961 18.6184 9.94055 18.5984 9.95497 18.5812C9.9694 18.564 9.98701 18.5499 10.007 18.5397C10.084 18.4987 10.172 18.5036 10.287 18.4506C10.3587 18.4987 10.4197 18.5611 10.4662 18.6339C10.5127 18.7067 10.5436 18.7884 10.557 18.8737C10.607 18.9647 10.4391 18.9588 10.3051 18.9638C10.4541 18.9748 10.5501 19.1066 10.3681 19.1156C10.3441 19.1916 10.3031 19.2977 10.1901 19.2377C10.2541 19.4527 9.93709 19.5298 9.85109 19.6918C9.70468 20.073 9.47585 20.417 9.18105 20.6996L9.19008 20.6896C9.11498 20.7771 9.02178 20.8473 8.91701 20.8954C8.81224 20.9435 8.69832 20.9687 8.58302 20.9687C8.46773 20.9687 8.35381 20.9435 8.24904 20.8954C8.14427 20.8473 8.05119 20.7771 7.97609 20.6896C7.98309 20.5126 7.82606 20.4357 8.01906 20.2707C8.04506 20.1557 7.83105 20.1077 7.90505 19.9547C7.97405 19.8727 8.02401 19.6788 8.14101 19.6298L8.12209 19.6466C8.14055 19.6397 8.16048 19.6379 8.17995 19.641C8.19942 19.6442 8.21773 19.6523 8.23305 19.6647C8.24405 19.4237 8.37804 19.0216 8.64504 19.0006C8.47104 18.7486 8.75601 18.9007 8.69301 18.7077L8.94606 18.4506C9.01806 18.3506 8.98399 18.2276 9.07399 18.0446C9.14405 17.9327 9.24382 17.8423 9.36208 17.7836C9.42032 17.7565 9.48294 17.7404 9.54701 17.7357C9.57858 17.7322 9.61042 17.7322 9.64198 17.7357L9.68898 17.7448L9.71205 17.7516H9.72206C9.68138 17.7604 9.64153 17.7729 9.60304 17.7887C9.53199 17.8193 9.4695 17.8668 9.42104 17.9271C9.37258 17.9875 9.33967 18.0587 9.32509 18.1347C9.31909 18.2097 9.34599 18.2277 9.37599 18.2157C9.40599 18.2037 9.45001 18.1527 9.54201 18.0927C9.63401 18.0327 9.82698 18.0187 9.75698 18.0597C9.74265 18.1112 9.71438 18.1576 9.67519 18.194C9.636 18.2304 9.58749 18.2553 9.53505 18.2658C9.48805 18.4348 9.31898 18.5187 9.33498 18.6657C9.30698 19.0077 9.04198 19.0656 9.01198 19.3656C8.84605 19.567 8.70793 19.7897 8.60109 20.0277L8.56508 20.0846L8.53102 20.1156C8.51102 20.2036 8.54806 20.2447 8.54006 20.2897C8.45906 20.3537 8.54901 20.3516 8.49001 20.4896C8.62801 20.3086 8.56308 20.4537 8.61208 20.4467C8.67708 20.4257 8.62607 20.2866 8.75307 20.4176C8.7593 20.3945 8.76132 20.3704 8.75905 20.3466L8.79299 20.3097C8.93799 20.0497 9.06504 19.7966 9.32704 19.7306C9.25004 19.3226 9.50607 19.2786 9.72707 18.9806L9.81703 18.9276L9.86098 18.8986L9.93007 18.9706H9.94106H9.94606C9.98486 18.9668 10.0207 18.9482 10.046 18.9186C10.01 18.9235 9.97675 18.9409 9.95204 18.9677C9.95204 18.9677 9.95204 18.9736 9.95204 18.9406L9.94606 18.9027L9.94106 18.8817V18.8708V18.8627L10.2471 18.1127L10.317 18.2526C10.336 18.3536 10.3219 18.4582 10.277 18.5507Z" fill="#FBB03B"/>
<path fill-rule="evenodd" clip-rule="evenodd" d="M20.2179 18.3338C20.2056 18.2333 20.1623 18.1392 20.094 18.0645C20.0257 17.9897 19.9359 17.9381 19.8369 17.9168L19.7859 18.8399V18.7779V18.7188C19.788 18.6876 19.7947 18.6569 19.8059 18.6277C19.8232 18.585 19.8567 18.5509 19.8989 18.5327C19.9789 18.4987 20.0669 18.5108 20.1859 18.4678C20.3119 18.5838 20.4149 18.6968 20.5309 18.8108C20.6189 18.8448 20.4959 18.9509 20.4009 19.0479C20.5319 18.9749 20.672 18.9609 20.601 19.1309C20.675 19.2079 20.785 19.2719 20.737 19.3909C20.955 19.3299 21.0309 19.6457 21.1929 19.7317C21.2685 19.754 21.3416 19.7842 21.4109 19.8218C21.497 19.8622 21.5716 19.9236 21.6278 20.0003C21.6841 20.0769 21.7203 20.1665 21.7329 20.2608C21.7456 20.355 21.7343 20.4508 21.7002 20.5396C21.6661 20.6284 21.6103 20.7072 21.5379 20.7688C21.388 20.8995 21.1941 20.9683 20.9954 20.9612C20.7967 20.9542 20.6081 20.8718 20.4679 20.7307L20.4819 20.7469C20.4501 20.7236 20.4166 20.7025 20.3819 20.6839C20.3649 20.5249 20.2209 20.5687 20.2739 20.3357C20.2059 20.2357 20.0499 20.3888 19.9819 20.2908C19.9419 20.1758 19.6819 20.1459 19.7819 19.9759C19.5339 19.9559 19.1629 19.8557 19.1039 19.5447C18.8039 19.6567 18.9679 19.3558 18.7619 19.2798C18.6959 19.0702 18.6959 18.8454 18.7619 18.6358C18.7867 18.4275 18.8501 18.2258 18.9489 18.0408C19.0054 17.9353 19.0906 17.8479 19.1946 17.7886C19.2986 17.7293 19.4173 17.7007 19.5369 17.7058L19.45 17.7278C19.3487 17.7715 19.2613 17.842 19.1972 17.9317C19.133 18.0214 19.0946 18.1269 19.086 18.2368C19.126 18.4708 19.2299 18.4369 19.2789 18.3809C19.3279 18.3249 19.4529 18.1069 19.5789 18.1419L19.612 18.1338C19.5912 18.1627 19.5642 18.1868 19.5331 18.2041C19.502 18.2214 19.4674 18.2316 19.4319 18.2339C19.3879 18.3889 19.177 18.4868 19.221 18.6468C19.251 18.8218 19.26 18.9169 19.284 19.0159C19.2893 19.0657 19.3124 19.1118 19.3491 19.1458C19.3859 19.1798 19.4338 19.1993 19.4839 19.2007C19.6826 19.3607 19.9007 19.4952 20.133 19.6009C20.3566 19.7272 20.559 19.8879 20.7329 20.0769C20.7419 20.1769 20.8329 20.2429 20.8749 20.3269L20.9059 20.3599C20.9024 20.3948 20.8921 20.4286 20.8759 20.4597C21.0299 20.2927 20.9509 20.4307 21.0009 20.4287C21.0669 20.4137 21.0309 20.2699 21.1439 20.4129C21.1572 20.3862 21.1609 20.3558 21.1546 20.3267C21.1482 20.2976 21.132 20.2714 21.1089 20.2527C21.0779 20.2267 21.0839 20.2529 21.1439 20.1809C21.1097 20.1969 21.0781 20.2175 21.0499 20.2427L20.95 20.2508C20.762 20.1958 20.6799 20.0159 20.4619 19.8589C20.2689 19.6016 20.112 19.3188 19.9959 19.0188C19.9283 18.9915 19.8584 18.9707 19.7869 18.9568C19.7599 18.9418 19.78 18.9517 19.773 18.9497C19.7722 18.9408 19.7722 18.9319 19.773 18.9229V18.8848V18.8628V18.8438L19.8479 17.9109C19.9457 17.9347 20.0336 17.988 20.0999 18.0637C20.1661 18.1395 20.2074 18.2337 20.2179 18.3338Z" fill="#FBB03B"/>
<path fill-rule="evenodd" clip-rule="evenodd" d="M21.768 13.9146C21.7591 13.848 21.7617 13.7804 21.7759 13.7147H21.8019C21.8639 13.5407 22.081 13.5676 22.174 13.3956H22.6509C22.7369 13.3556 22.7259 13.5186 22.7279 13.6536C22.7679 13.5086 22.8559 13.4007 22.9279 13.5677C23.0339 13.5677 23.1559 13.5356 23.2069 13.6536C23.3069 13.4626 23.6169 13.6057 23.7249 13.5887C23.8182 13.5672 23.9161 13.5787 24.002 13.6212C24.0878 13.6636 24.1564 13.7344 24.1959 13.8216C24.2486 13.9291 24.2686 14.0498 24.2533 14.1685C24.238 14.2873 24.1881 14.3989 24.1099 14.4896C24.0312 14.577 23.9338 14.6454 23.8248 14.6898C23.7159 14.7341 23.5982 14.7533 23.4809 14.7457C23.3094 14.7522 23.1392 14.7766 22.9729 14.8187C22.8509 14.7187 22.7789 14.8496 22.6549 14.6466C22.5379 14.6236 22.5319 14.8407 22.4159 14.8187C22.3069 14.7657 22.0989 14.9277 22.0569 14.7327C21.9923 14.7903 21.9203 14.8389 21.8429 14.8775H21.8679C21.6139 15.0235 21.168 14.8775 21.133 14.6165C20.833 14.7365 20.9949 14.4317 20.7869 14.3617C20.7177 14.1556 20.7132 13.9334 20.7739 13.7247C20.7923 13.4947 20.8605 13.2715 20.9739 13.0706C21.0384 12.9561 21.1401 12.8669 21.2621 12.8179C21.3841 12.769 21.5192 12.7633 21.6449 12.8016C21.6704 12.8481 21.6849 12.8998 21.6875 12.9527C21.6902 13.0056 21.6809 13.0585 21.6602 13.1073C21.6395 13.156 21.608 13.1993 21.5681 13.2342C21.5283 13.2691 21.481 13.2946 21.43 13.3087C21.393 13.4647 21.1869 13.5686 21.2359 13.7266C21.2719 13.8996 21.2839 13.9936 21.3109 14.0926C21.3166 14.1416 21.3402 14.1867 21.3771 14.2193C21.414 14.252 21.4616 14.2699 21.5109 14.2696C21.5297 14.2903 21.5525 14.3071 21.5779 14.3189C21.6033 14.3307 21.6306 14.3372 21.6586 14.3382C21.6865 14.3392 21.7145 14.3347 21.7406 14.3248C21.7668 14.3149 21.7907 14.2999 21.8109 14.2806H21.841L22.055 14.2186C22.3012 14.1503 22.5566 14.1213 22.8119 14.1326C22.9269 14.2326 23.1229 14.1505 23.2119 14.3045C23.2709 14.0765 23.3609 14.2376 23.4509 14.2186C23.4899 14.2076 23.5919 14.1646 23.5989 14.1436C23.6059 14.1226 23.6139 14.1307 23.6859 14.1937C23.6983 14.1667 23.7011 14.1361 23.694 14.1073C23.6869 14.0784 23.6703 14.053 23.6469 14.0347C23.6149 14.0097 23.6239 14.0297 23.6819 13.9627C23.6493 13.9791 23.6188 13.999 23.591 14.0225V14.0167V14.1507H23.555H23.4949L23.3659 14.1656C23.0481 14.1224 22.7379 14.0355 22.4439 13.9075C22.2529 13.9765 21.8979 14.3387 21.8169 14.0167H21.7619C21.7697 13.9833 21.7718 13.9487 21.768 13.9146Z" fill="#FBB03B"/>
<path fill-rule="evenodd" clip-rule="evenodd" d="M6.04201 13.9147C6.03313 13.8481 6.03589 13.7804 6.05007 13.7147H6.07607C6.13807 13.5407 6.35602 13.5676 6.44802 13.3956H6.92605C7.01105 13.3556 7.0001 13.5187 7.0021 13.6537C7.0421 13.5087 7.13005 13.4008 7.20205 13.5678C7.30805 13.5678 7.42998 13.5357 7.48098 13.6537C7.58098 13.4627 7.89104 13.6058 7.99904 13.5888C8.09238 13.5673 8.1903 13.5788 8.27614 13.6212C8.36199 13.6637 8.43043 13.7344 8.46999 13.8217C8.52269 13.9292 8.54265 14.0498 8.52736 14.1686C8.51207 14.2874 8.46227 14.399 8.38405 14.4896C8.30538 14.5771 8.20784 14.6455 8.0989 14.6898C7.98995 14.7342 7.8724 14.7534 7.75502 14.7457C7.58393 14.7522 7.41404 14.7767 7.24807 14.8187C7.12507 14.7187 7.0531 14.8496 6.9291 14.6466C6.8121 14.6236 6.80608 14.8407 6.69008 14.8187C6.58208 14.7657 6.37407 14.9278 6.33107 14.7328C6.26642 14.7903 6.19448 14.8389 6.11709 14.8776H6.14309C5.88809 15.0236 5.443 14.8776 5.407 14.6166C5.107 14.7366 5.26903 14.4317 5.06203 14.3617C4.99196 14.1559 4.98703 13.9335 5.04799 13.7247C5.06586 13.4947 5.13421 13.2714 5.24807 13.0707C5.31222 12.9561 5.41365 12.8669 5.53554 12.818C5.65744 12.7691 5.79238 12.7632 5.91799 12.8017C5.94343 12.8481 5.95807 12.8999 5.96071 12.9528C5.96335 13.0057 5.95393 13.0585 5.93325 13.1073C5.91256 13.1561 5.88108 13.1994 5.84121 13.2343C5.80133 13.2692 5.75412 13.2947 5.70302 13.3087C5.66602 13.4647 5.46003 13.5687 5.51003 13.7267C5.54503 13.8997 5.557 13.9937 5.584 14.0927C5.58976 14.1427 5.61418 14.1888 5.65236 14.2216C5.69055 14.2544 5.73975 14.2715 5.79006 14.2697C5.80872 14.2906 5.83134 14.3075 5.85671 14.3195C5.88208 14.3314 5.90962 14.3382 5.93764 14.3392C5.96567 14.3403 5.99361 14.3356 6.0198 14.3256C6.04598 14.3155 6.06984 14.3002 6.08999 14.2807H6.12002L6.334 14.2186C6.58024 14.1503 6.8358 14.1214 7.09108 14.1327C7.20608 14.2327 7.40199 14.1506 7.49099 14.3046C7.54899 14.0766 7.639 14.2376 7.73 14.2186C7.768 14.2076 7.87009 14.1647 7.87709 14.1437C7.88409 14.1227 7.89201 14.1307 7.96401 14.1937C7.97635 14.1667 7.97927 14.1362 7.97219 14.1073C7.96511 14.0785 7.94851 14.0531 7.92507 14.0348C7.89307 14.0098 7.90198 14.0298 7.95998 13.9628C7.92752 13.9788 7.8973 13.9988 7.87001 14.0226V14.0167C7.87001 14.0167 7.87001 14.0167 7.87001 14.0297V14.1508H7.834H7.77407L7.64504 14.1657C7.32761 14.1225 7.01766 14.0357 6.72402 13.9076C6.53202 13.9766 6.17709 14.3387 6.09609 14.0167H6.04104C6.04719 13.983 6.0475 13.9485 6.04201 13.9147Z" fill="#FBB03B"/>
<path fill-rule="evenodd" clip-rule="evenodd" d="M14.855 9.83878C15.003 9.41878 16.062 9.63181 16.591 9.66081C17.1945 9.90098 17.7413 10.2639 18.197 10.7267C18.459 10.9567 18.311 11.0357 18.219 11.1347C18.3596 11.1538 18.4891 11.2221 18.5841 11.3276C18.6791 11.433 18.7336 11.5687 18.738 11.7106C18.9621 12.0033 19.0899 12.3584 19.104 12.7267C19.456 13.0677 19.4041 14.2008 19.3041 14.8588C19.2596 15.6042 19.0016 16.3209 18.561 16.9237C18.068 17.6084 17.3927 18.1408 16.612 18.4606C15.8975 18.7391 15.129 18.8519 14.3646 18.7902C13.6002 18.7285 12.8596 18.4941 12.199 18.1047C11.844 17.7327 11.509 17.6357 11.321 17.1137C11.041 16.7377 10.846 16.8436 10.61 16.4086C10.41 16.0086 9.99894 15.2088 10.1629 14.9848C9.96319 14.4951 9.87047 13.9681 9.89097 13.4396C9.89892 12.8745 10.0763 12.325 10.4 11.8617C10.234 11.4997 10.705 11.3036 10.8 10.8886C11.1254 10.4709 11.5117 10.1045 11.946 9.80168C12.3419 9.47784 12.7691 9.19419 13.221 8.95475C13.6949 8.71007 14.2364 8.62952 14.761 8.72575C15.037 8.89075 14.629 9.19564 13.935 9.24064C13.4675 9.40873 13.0206 9.62944 12.603 9.8986C11.8165 10.4381 11.2091 11.2006 10.859 12.0878C10.4538 12.9638 10.3845 13.958 10.664 14.8818C10.9205 15.7695 11.4224 16.5668 12.112 17.1818C12.36 17.5458 13.024 17.8377 13.276 18.0817C13.558 17.9467 13.813 18.1998 14.154 18.2338C14.554 18.2728 14.972 18.1717 15.754 18.1957C16.8436 17.7994 17.7857 17.0792 18.454 16.1318C18.506 15.6908 18.613 15.3387 18.692 14.9137C18.8051 14.4174 18.815 13.9031 18.721 13.4027C18.5889 12.3315 18.0742 11.3439 17.272 10.6217C16.8603 10.4171 16.4178 10.2818 15.962 10.2216C15.5649 10.1979 15.1818 10.0656 14.855 9.83878Z" fill="#FBB03B"/>
<path fill-rule="evenodd" clip-rule="evenodd" d="M20.661 7.61174C20.5882 7.54673 20.5372 7.46072 20.515 7.36564L20.9921 7.72062V7.66764V7.61467C20.9946 7.58612 21.0002 7.55796 21.009 7.53068H21.029C21.086 7.35368 21.229 7.40773 21.402 7.33073C21.4706 7.3806 21.5285 7.44388 21.572 7.51677C21.6155 7.58965 21.6437 7.67068 21.655 7.7548C21.705 7.8448 21.5371 7.83679 21.4031 7.83879C21.5511 7.85179 21.646 7.98269 21.463 7.98869C21.44 8.06469 21.399 8.16581 21.286 8.10881C21.351 8.32481 21.041 8.40066 20.959 8.56266C20.8249 8.93935 20.6079 9.2811 20.324 9.56266C20.245 9.65234 20.1454 9.72148 20.0337 9.76384C19.922 9.80619 19.8015 9.82063 19.683 9.80583C19.4658 9.77449 19.2664 9.66835 19.119 9.50578C19.13 9.33178 18.976 9.25565 19.168 9.09465C19.193 8.98065 18.979 8.93483 19.051 8.78483C19.135 8.66683 19.216 8.36464 19.371 8.49064C19.383 8.25264 19.514 7.86162 19.781 7.84562C19.605 7.59562 19.8901 7.74573 19.8251 7.55973L20.076 7.31266C20.146 7.21266 20.1161 7.0966 20.1951 6.9196C20.2604 6.80748 20.3555 6.71584 20.47 6.6547C20.5266 6.62615 20.5879 6.60821 20.651 6.60173C20.6819 6.5988 20.7131 6.5988 20.744 6.60173L20.791 6.60978C20.834 6.60978 20.743 6.61978 20.958 6.60978C21.358 6.69478 21.346 6.8776 21.287 6.8676C21.2238 6.86992 21.1606 6.86712 21.098 6.85881C21.025 6.84581 20.83 6.89879 20.869 6.92179C20.8574 6.97333 20.8314 7.02043 20.7941 7.05778C20.7567 7.09513 20.7095 7.12114 20.658 7.13273C20.62 7.30273 20.458 7.3856 20.468 7.5236C20.443 7.8576 20.176 7.91482 20.147 8.20182C19.981 8.39844 19.8422 8.61632 19.734 8.84977C19.64 8.98077 19.681 8.98282 19.678 9.02482C19.6866 9.05125 19.69 9.07889 19.688 9.10661C19.608 9.16961 19.697 9.1698 19.636 9.3068C19.78 9.1288 19.71 9.27272 19.759 9.26872C19.823 9.24972 19.785 9.10975 19.904 9.24675C19.9465 9.11407 20.0088 8.98857 20.089 8.87468C20.1647 8.7383 20.2907 8.63683 20.4401 8.59172C20.3531 8.19172 20.606 8.1436 20.812 7.8466L20.9 7.79362L20.943 7.76579L20.954 7.75773L21.022 7.82682H21.03C21.042 7.82682 21.038 7.82682 21.038 7.82682H21.033C21.0714 7.82327 21.1072 7.80538 21.133 7.77678C20.965 7.85078 21.062 7.81782 21.033 7.82682L20.9921 7.8278C20.9913 7.81548 20.9913 7.80301 20.9921 7.79069V7.75578V7.73771V7.72062L20.4921 7.24772L20.511 7.37663C20.536 7.46836 20.5883 7.55042 20.661 7.61174Z" fill="#FBB03B"/>
<path fill-rule="evenodd" clip-rule="evenodd" d="M8.96118 7.57273C9.0246 7.49987 9.06465 7.40961 9.07617 7.3137L8.63415 7.71971V7.65672L8.64013 7.59886C8.64387 7.5672 8.65298 7.53636 8.66711 7.50779C8.68575 7.46568 8.7192 7.43191 8.76111 7.41282C8.83911 7.37682 8.92509 7.3868 9.04309 7.3408C9.16909 7.4538 9.27108 7.56281 9.38708 7.67381C9.47508 7.70481 9.35315 7.81287 9.25915 7.91087C9.38915 7.83587 9.5281 7.81875 9.4591 7.98875C9.5331 8.06275 9.64211 8.12366 9.59411 8.24266C9.81111 8.17766 9.88719 8.4888 10.0492 8.5698C10.1466 8.58583 10.2392 8.62278 10.3209 8.6782C10.4026 8.73363 10.4712 8.80626 10.5221 8.89085C10.5709 8.99845 10.5879 9.11765 10.571 9.2346C10.5542 9.35155 10.5043 9.46129 10.4271 9.55076C10.3485 9.64223 10.2484 9.7128 10.1359 9.75608C10.0233 9.79937 9.90174 9.81405 9.7821 9.79881C9.58312 9.76121 9.39624 9.67609 9.23718 9.55076C9.22418 9.39276 9.08008 9.43581 9.13708 9.20481C9.07308 9.10481 8.9151 9.25569 8.8501 9.15769C8.8131 9.04369 8.55011 9.01271 8.66211 8.84471C8.41911 8.82671 8.04817 8.71768 8.00317 8.41868C7.70317 8.53468 7.86908 8.2338 7.66308 8.1638C7.59557 7.95895 7.59284 7.73821 7.65515 7.53172C7.67352 7.30367 7.74175 7.0825 7.8551 6.88377C7.92532 6.77396 8.02525 6.68632 8.14319 6.63084C8.20085 6.60472 8.26293 6.58984 8.32617 6.58689C8.35597 6.58445 8.38596 6.58633 8.41516 6.59275C8.33661 6.62213 8.26743 6.67225 8.21509 6.73777C8.13909 6.93777 8.30112 6.93772 8.42212 6.95872C8.44812 6.96672 8.50012 6.97285 8.49512 6.99485C8.48241 7.0173 8.46659 7.03788 8.44812 7.05589C8.4118 7.0937 8.3633 7.11733 8.31116 7.12278C8.27516 7.27878 8.07112 7.38082 8.12012 7.53782C8.16312 7.75282 8.17711 7.82088 8.19311 7.89988C8.19855 7.94903 8.22197 7.99421 8.25891 8.02708C8.29584 8.05995 8.34374 8.07816 8.39319 8.07786C8.58749 8.23796 8.80154 8.3723 9.03015 8.47776C9.24974 8.6036 9.44792 8.76373 9.61719 8.95188C9.62619 9.09688 9.83516 9.20272 9.73816 9.31272C9.88216 9.13472 9.81318 9.27866 9.86218 9.27366C9.92618 9.25466 9.88808 9.11569 10.0071 9.25169C10.0193 9.22408 10.0225 9.19329 10.016 9.1638C10.0095 9.13431 9.99385 9.10783 9.97119 9.08787C9.94119 9.06187 9.94608 9.0767 10.0071 9.0117C9.97427 9.02618 9.94345 9.04483 9.91516 9.06687C9.90016 9.07987 9.89917 9.08274 9.89917 9.08274L9.87915 9.10179H9.87317H9.84814C9.78645 9.08703 9.729 9.0583 9.68017 9.0178C9.57428 8.91227 9.46314 8.81209 9.34717 8.71775C9.15449 8.4674 8.99758 8.19134 8.8811 7.89768C8.81409 7.87106 8.74432 7.85206 8.67309 7.8408H8.66418C8.66418 7.8408 8.67113 7.8408 8.65613 7.8408C8.64113 7.8408 8.65109 7.8407 8.64709 7.8137L8.64209 7.77488V7.75266V7.74168V7.73289L9.08813 7.33274C9.06984 7.42332 9.02578 7.50666 8.96118 7.57273Z" fill="#FBB03B"/>
<path fill-rule="evenodd" clip-rule="evenodd" d="M14.864 5.15666C14.799 4.75666 15.0301 4.85668 15.2331 4.77068C15.3005 4.82197 15.3568 4.88638 15.3986 4.96013C15.4404 5.03388 15.4668 5.11538 15.4761 5.19963C15.5231 5.29063 15.3561 5.27966 15.2221 5.28166C15.3671 5.31866 15.476 5.40861 15.308 5.48161C15.308 5.58161 15.3411 5.70676 15.2221 5.75676C15.4221 5.86576 15.253 6.13774 15.308 6.30974C15.3985 6.48174 15.461 6.66714 15.4931 6.85881C15.5272 6.9681 15.5343 7.0838 15.5139 7.19646C15.4936 7.30912 15.4462 7.41536 15.376 7.50578C15.2967 7.58833 15.2006 7.65276 15.0943 7.69499C14.9879 7.73722 14.8737 7.7561 14.7594 7.75041C14.6451 7.74473 14.5333 7.71461 14.4317 7.66203C14.33 7.60946 14.2408 7.53573 14.1701 7.44573C14.1831 7.27273 14.034 7.18981 14.229 7.03581C14.252 6.92081 14.035 6.91473 14.058 6.79973C14.111 6.69273 13.9491 6.48773 14.1441 6.44573C13.9821 6.26973 13.7961 5.89963 13.9721 5.69963C13.6721 5.64663 13.9811 5.55377 13.8001 5.46477V5.28166C13.7994 5.17593 13.815 5.0707 13.8461 4.96965C13.8654 4.76471 13.9212 4.56504 14.011 4.37981C14.0628 4.27454 14.1432 4.18582 14.2429 4.12395C14.3426 4.06208 14.4578 4.02943 14.5751 4.02971L14.516 4.04582C14.5665 4.04405 14.617 4.0493 14.666 4.06169C14.781 4.14669 14.7231 4.34484 14.6491 4.46184L14.6701 4.45574C14.6516 4.48562 14.6267 4.51084 14.5971 4.52971C14.5675 4.54859 14.5339 4.56051 14.499 4.56462C14.462 4.72062 14.2571 4.82069 14.3051 4.97869C14.3371 5.15469 14.3571 5.23271 14.3721 5.35271C14.3736 5.47596 14.4138 5.59565 14.4871 5.69475C14.5102 5.95106 14.5681 6.20305 14.6591 6.44377C14.6871 6.56177 14.714 6.68183 14.731 6.80583C14.7442 6.89252 14.7503 6.98012 14.749 7.0678C14.667 7.1288 14.7491 7.12875 14.6901 7.26775C14.8361 7.09275 14.7631 7.23464 14.8111 7.23064C14.8751 7.21164 14.835 7.07064 14.952 7.20964C14.9638 7.1826 14.9664 7.15255 14.9591 7.12395C14.9519 7.09535 14.9353 7.06985 14.912 7.05168C14.904 7.04468 14.898 7.05181 14.896 7.03581C14.8925 6.99756 14.8925 6.95908 14.896 6.92082C14.9016 6.84452 14.9249 6.77051 14.964 6.70476C14.619 6.47676 14.7641 6.26684 14.7071 5.90984C14.7461 5.77884 14.761 5.64162 14.791 5.49162C14.8024 5.41804 14.823 5.34629 14.8521 5.27776C14.8892 5.26846 14.9235 5.2503 14.952 5.22478C14.9145 5.22778 14.8792 5.2436 14.8521 5.2697C14.8521 5.2697 14.877 5.30966 14.864 5.15666Z" fill="#FBB03B"/>
<path d="M32.344 18.1598C32.6132 16.5977 32.318 14.9908 31.5113 13.6264C30.7045 12.2619 29.4389 11.2288 27.9405 10.7118C26.442 10.1948 24.8085 10.2277 23.3321 10.8043C21.8556 11.381 20.6324 12.4641 19.881 13.8598C19.2297 13.4175 18.444 13.2176 17.6605 13.2953C16.8771 13.373 16.1458 13.7232 15.594 14.2848C15.0632 14.8282 14.7307 15.5343 14.65 16.2897C13.3477 16.3757 12.1242 16.9437 11.2182 17.8832C10.3122 18.8227 9.78872 20.0662 9.75002 21.3707C9.73367 22.0555 9.85242 22.7368 10.0994 23.3756C10.3463 24.0145 10.7167 24.5982 11.1894 25.0939C11.662 25.5896 12.2278 25.9875 12.8541 26.2645C13.4805 26.5416 14.1553 26.6924 14.84 26.7086H31.4821C32.5522 26.7093 33.5844 26.3125 34.3786 25.5951C35.1727 24.8778 35.6721 23.891 35.7798 22.8263C35.8876 21.7616 35.596 20.6948 34.9617 19.8329C34.3274 18.971 33.3956 18.3755 32.3471 18.1618L32.344 18.1598Z" fill="#E6E6E6" stroke="#E6E6E6" stroke-width="0.358" stroke-miterlimit="10"/>
<path d="M26.2708 28.4876C26.2217 28.493 26.1763 28.5166 26.1434 28.5535C26.1105 28.5905 26.0925 28.6381 26.0928 28.6876V29.7566L25.2238 29.0306C25.1937 29.0041 25.1562 28.9874 25.1164 28.9825C25.0766 28.9775 25.0361 28.9846 25.0004 29.003C24.9647 29.0213 24.9354 29.05 24.9162 29.0853C24.897 29.1205 24.8889 29.1606 24.8929 29.2005C24.8956 29.2274 24.9036 29.2537 24.9167 29.2774C24.9298 29.3011 24.9475 29.322 24.9688 29.3387L26.0928 30.2767V32.5325L24.1458 31.4266L23.8939 29.9595C23.8907 29.9333 23.8824 29.9079 23.8695 29.8848C23.8565 29.8618 23.8391 29.8416 23.8183 29.8253C23.7975 29.8089 23.7737 29.7967 23.7482 29.7896C23.7228 29.7825 23.6961 29.7804 23.6699 29.7835C23.6436 29.7867 23.6182 29.795 23.5952 29.8079C23.5721 29.8209 23.5518 29.8384 23.5355 29.8592C23.5191 29.88 23.507 29.9038 23.4998 29.9293C23.4927 29.9547 23.4907 29.9814 23.4938 30.0076V30.0276L23.6938 31.1717L22.6999 30.6077C22.6654 30.5866 22.6251 30.5768 22.5848 30.5796C22.5418 30.5826 22.501 30.5994 22.4683 30.6275C22.4357 30.6555 22.4129 30.6934 22.4035 30.7354C22.3941 30.7774 22.3984 30.8213 22.416 30.8607C22.4335 30.9 22.4632 30.9326 22.5008 30.9537L23.4609 31.4986L22.4289 31.8787C22.4023 31.885 22.3773 31.8966 22.3554 31.9129C22.3335 31.9292 22.3152 31.9498 22.3016 31.9734C22.288 31.9971 22.2793 32.0235 22.2762 32.0506C22.2731 32.0777 22.2756 32.1053 22.2835 32.1314C22.2915 32.1575 22.3047 32.1816 22.3223 32.2024C22.34 32.2233 22.3618 32.2404 22.3863 32.2525C22.4108 32.2646 22.4374 32.2716 22.4647 32.273C22.4919 32.2744 22.5193 32.2701 22.5449 32.2606L22.5659 32.2525L23.9149 31.7525L25.8848 32.8716L23.9149 33.9905L22.5659 33.4905C22.5341 33.4781 22.4997 33.474 22.4659 33.4786C22.4218 33.4852 22.3812 33.5064 22.3505 33.5386C22.3198 33.5709 22.3008 33.6125 22.2965 33.6568C22.2921 33.7011 22.3027 33.7456 22.3265 33.7833C22.3503 33.8209 22.3859 33.8495 22.4278 33.8646L23.4598 34.2447L22.4998 34.7906C22.4584 34.8192 22.4292 34.8623 22.4182 34.9114C22.4071 34.9605 22.4151 35.0119 22.4404 35.0555C22.4656 35.099 22.5063 35.1315 22.5544 35.1463C22.6025 35.1611 22.6545 35.1573 22.6999 35.1356L23.6999 34.5687L23.4998 35.7156C23.4923 35.7659 23.5041 35.8171 23.5329 35.8589C23.5617 35.9008 23.6053 35.9299 23.655 35.9407C23.7046 35.9515 23.7565 35.9431 23.8001 35.917C23.8437 35.891 23.8758 35.8494 23.8898 35.8006V35.7847L24.1418 34.3167L26.0888 33.2105V35.4666L24.9648 36.4046C24.9438 36.4211 24.9264 36.4415 24.9134 36.4649C24.9004 36.4883 24.8923 36.514 24.8895 36.5406C24.8866 36.5671 24.8891 36.5941 24.8968 36.6197C24.9045 36.6453 24.9172 36.6689 24.9343 36.6895C24.9513 36.7101 24.9722 36.727 24.9959 36.7393C25.0196 36.7516 25.0456 36.7591 25.0722 36.7613C25.0988 36.7634 25.1256 36.7604 25.1509 36.752C25.1763 36.7436 25.1997 36.7303 25.2198 36.7127L26.0888 35.9866V37.0587C26.088 37.1117 26.1084 37.1629 26.1453 37.201C26.1823 37.2391 26.2328 37.2607 26.2858 37.2615C26.3389 37.2623 26.3901 37.2421 26.4282 37.2051C26.4662 37.1682 26.488 37.1176 26.4888 37.0645V35.9866L27.3588 36.7127C27.3789 36.7303 27.4024 36.7436 27.4278 36.752C27.4532 36.7604 27.4799 36.7634 27.5065 36.7613C27.5332 36.7591 27.559 36.7516 27.5827 36.7393C27.6064 36.727 27.6274 36.7101 27.6445 36.6895C27.6615 36.6689 27.6743 36.6453 27.682 36.6197C27.6896 36.5941 27.6921 36.5671 27.6893 36.5406C27.6864 36.514 27.6783 36.4883 27.6654 36.4649C27.6524 36.4415 27.6349 36.4211 27.6138 36.4046L26.4888 35.4666V33.2105L28.4368 34.3167L28.6888 35.7847C28.6958 35.8378 28.7237 35.8857 28.7662 35.9183C28.8087 35.9508 28.8623 35.9651 28.9154 35.9581C28.9684 35.951 29.0165 35.9231 29.049 35.8807C29.0816 35.8382 29.0958 35.7845 29.0888 35.7315V35.7156L28.8889 34.5687L29.8889 35.1356C29.9343 35.1573 29.9861 35.1611 30.0342 35.1463C30.0824 35.1315 30.1231 35.099 30.1484 35.0555C30.1736 35.0119 30.1815 34.9605 30.1705 34.9114C30.1594 34.8623 30.1303 34.8192 30.0888 34.7906L29.1289 34.2447L30.1608 33.8646C30.2053 33.8473 30.2421 33.8146 30.2646 33.7725C30.2871 33.7304 30.2939 33.6819 30.2836 33.6353C30.2734 33.5887 30.2468 33.5473 30.2087 33.5186C30.1706 33.4899 30.1235 33.4756 30.0759 33.4786C30.058 33.48 30.0405 33.484 30.0239 33.4905L28.6739 33.9905L26.7049 32.8716L28.6739 31.7525L30.0239 32.2525C30.0483 32.2655 30.075 32.2733 30.1026 32.2754C30.1302 32.2776 30.1579 32.2741 30.184 32.2649C30.2101 32.2558 30.234 32.2413 30.2542 32.2225C30.2744 32.2036 30.2906 32.1807 30.3016 32.1553C30.3125 32.1299 30.3181 32.1027 30.3179 32.075C30.3178 32.0474 30.3119 32.0199 30.3006 31.9947C30.2894 31.9694 30.273 31.9469 30.2525 31.9283C30.2321 31.9097 30.208 31.8954 30.1818 31.8865L30.1608 31.8787L29.1289 31.4986L30.0888 30.9537C30.1282 30.9315 30.1589 30.8966 30.176 30.8548C30.193 30.813 30.1954 30.7668 30.1828 30.7234C30.1702 30.6801 30.1432 30.6421 30.1064 30.616C30.0695 30.5899 30.0249 30.5772 29.9798 30.5796C29.9479 30.5812 29.917 30.5909 29.8898 30.6077L28.8958 31.1717L29.0959 30.0276C29.1056 29.9757 29.0942 29.9219 29.0644 29.8782C29.0346 29.8346 28.9887 29.8044 28.9368 29.7945C28.9106 29.7896 28.8837 29.7903 28.8576 29.796C28.8315 29.8017 28.8069 29.8123 28.7851 29.8277C28.7633 29.8431 28.7448 29.8627 28.7307 29.8853C28.7165 29.9079 28.707 29.9332 28.7028 29.9595L28.4509 31.4266L26.5029 32.5325V30.2767L27.6279 29.3387C27.6489 29.3222 27.6663 29.3015 27.6793 29.2781C27.6922 29.2548 27.7005 29.2292 27.7033 29.2027C27.7062 29.1761 27.7036 29.1492 27.6959 29.1236C27.6882 29.098 27.6754 29.0743 27.6584 29.0538C27.6414 29.0332 27.6204 29.0163 27.5967 29.004C27.5731 28.9916 27.5472 28.9841 27.5206 28.982C27.494 28.9798 27.4671 28.9829 27.4417 28.9913C27.4164 28.9996 27.393 29.013 27.3729 29.0306L26.5029 29.7566V28.6876C26.5029 28.6345 26.4818 28.5837 26.4443 28.5462C26.4068 28.5087 26.3558 28.4876 26.3028 28.4876C26.2922 28.4861 26.2814 28.4861 26.2708 28.4876Z" fill="#6FD1EF" stroke="#6FD1EF" stroke-width="0.09" stroke-miterlimit="10"/>
<path d="M17.0842 27.9938C17.056 27.9975 17.0302 28.0115 17.0118 28.0331C16.9933 28.0547 16.9834 28.0824 16.9842 28.1108V28.7316L16.4842 28.3097C16.4599 28.2897 16.4286 28.2799 16.3971 28.2826C16.3674 28.2866 16.3405 28.3021 16.3218 28.3256C16.3032 28.3491 16.2943 28.3788 16.2972 28.4086C16.2983 28.4242 16.3027 28.4395 16.3101 28.4533C16.3175 28.4671 16.3277 28.4791 16.3401 28.4887L16.9932 29.0336V30.3437L15.8632 29.7006L15.7162 28.8488C15.7124 28.8184 15.6966 28.7906 15.6724 28.7719C15.6482 28.7531 15.6176 28.7449 15.5872 28.7487C15.5568 28.7525 15.5292 28.7682 15.5104 28.7924C15.4917 28.8166 15.4834 28.8472 15.4872 28.8776V28.8886L15.6012 29.5527L15.0242 29.2258C15.004 29.2137 14.9807 29.2077 14.9572 29.2087C14.9265 29.2107 14.8979 29.225 14.8775 29.248C14.8571 29.271 14.8465 29.301 14.8482 29.3317C14.8494 29.3512 14.8555 29.37 14.866 29.3864C14.8765 29.4028 14.891 29.4164 14.9081 29.4257L15.4651 29.7426L14.8652 29.9638C14.8359 29.9727 14.8114 29.9927 14.7969 30.0197C14.7825 30.0467 14.7792 30.0785 14.7881 30.1078C14.797 30.1371 14.8173 30.1615 14.8443 30.1759C14.8713 30.1904 14.9029 30.1936 14.9322 30.1847H14.9441L15.7282 29.8967L16.8711 30.5468L15.7282 31.1957L14.9441 30.9067C14.9258 30.899 14.9059 30.8962 14.8862 30.8986C14.8602 30.9021 14.8362 30.9144 14.818 30.9333C14.7999 30.9522 14.7887 30.9768 14.7863 31.0029C14.7839 31.0289 14.7904 31.0551 14.8047 31.0771C14.8191 31.099 14.8403 31.1154 14.8652 31.1237L15.4651 31.3437L14.9081 31.6608C14.8842 31.6774 14.8676 31.7025 14.8613 31.7309C14.8549 31.7593 14.8596 31.789 14.8742 31.8141C14.8888 31.8393 14.9123 31.858 14.9401 31.8666C14.9679 31.8753 14.9979 31.8732 15.0242 31.8608L15.6032 31.5317L15.4872 32.1967C15.484 32.2116 15.4838 32.2271 15.4865 32.2421C15.4892 32.2571 15.4948 32.2713 15.5031 32.2841C15.5114 32.2969 15.5221 32.3081 15.5346 32.3168C15.5471 32.3255 15.5613 32.3314 15.5762 32.3346C15.5911 32.3379 15.6065 32.3381 15.6215 32.3354C15.6365 32.3326 15.6508 32.327 15.6636 32.3188C15.6764 32.3105 15.6875 32.2998 15.6962 32.2873C15.7049 32.2747 15.7109 32.2607 15.7142 32.2458V32.2367L15.8611 31.3847L16.9911 30.7426V32.0527L16.3382 32.5966C16.3144 32.6164 16.2995 32.6449 16.2967 32.6757C16.2939 32.7065 16.3034 32.7369 16.3232 32.7607C16.3429 32.7844 16.3713 32.7994 16.402 32.8022C16.4328 32.805 16.4635 32.7956 16.4872 32.7758L16.9872 32.3547V32.9767C16.9872 33.0075 16.9994 33.037 17.0212 33.0588C17.0429 33.0805 17.0724 33.0927 17.1032 33.0927C17.134 33.0927 17.1635 33.0805 17.1852 33.0588C17.207 33.037 17.2192 33.0075 17.2192 32.9767V32.3517L17.7242 32.7726C17.7478 32.7922 17.7782 32.8016 17.8088 32.7988C17.8393 32.7959 17.8675 32.7813 17.8871 32.7577C17.9068 32.7339 17.9162 32.7032 17.9134 32.6725C17.9106 32.6418 17.8959 32.6135 17.8722 32.5937L17.2192 32.0497V30.7397L18.3501 31.3818L18.4961 32.2338C18.5007 32.2638 18.5168 32.2908 18.5411 32.309C18.5653 32.3272 18.5958 32.3351 18.6259 32.3312C18.656 32.3273 18.6833 32.3119 18.7021 32.288C18.7208 32.2642 18.7295 32.2339 18.7262 32.2038V32.1938L18.6102 31.5287L19.1891 31.8578C19.2154 31.8703 19.2456 31.8723 19.2734 31.8637C19.3012 31.8551 19.3247 31.8364 19.3393 31.8112C19.3539 31.786 19.3584 31.7561 19.3521 31.7277C19.3458 31.6993 19.3291 31.6743 19.3052 31.6576L18.7482 31.3407L19.3482 31.1208C19.3749 31.1114 19.3974 31.0925 19.4112 31.0678C19.425 31.0431 19.4293 31.0142 19.4233 30.9865C19.4172 30.9588 19.4013 30.9344 19.3785 30.9176C19.3556 30.9009 19.3274 30.8931 19.2992 30.8957C19.2885 30.8967 19.2781 30.8994 19.2682 30.9037L18.4852 31.1928L17.3412 30.5436L18.4852 29.8937L19.2682 30.1818C19.2822 30.1878 19.2972 30.1911 19.3124 30.1913C19.3277 30.1916 19.3428 30.1886 19.357 30.183C19.3711 30.1774 19.384 30.169 19.3949 30.1584C19.4059 30.1478 19.4147 30.1352 19.4207 30.1213C19.4267 30.1073 19.43 30.0923 19.4302 30.0771C19.4305 30.0618 19.4277 30.0466 19.422 30.0324C19.4164 30.0182 19.408 30.0052 19.3974 29.9943C19.3868 29.9834 19.3741 29.9747 19.3602 29.9687H19.3482L18.7482 29.7477L19.3052 29.4308C19.3186 29.4236 19.3304 29.4136 19.34 29.4018C19.3496 29.39 19.3567 29.3763 19.361 29.3617C19.3653 29.3471 19.3666 29.3319 19.3649 29.3168C19.3632 29.3017 19.3586 29.2869 19.3512 29.2736C19.3406 29.2544 19.3246 29.2386 19.3053 29.228C19.2861 29.2173 19.2642 29.2125 19.2422 29.2138C19.2235 29.2153 19.2053 29.221 19.1891 29.2306L18.6122 29.5578L18.7262 28.8937C18.7291 28.8788 18.7289 28.8634 18.7259 28.8486C18.7228 28.8337 18.7169 28.8196 18.7083 28.8071C18.6997 28.7945 18.6888 28.7839 18.6761 28.7756C18.6633 28.7673 18.6491 28.7615 18.6342 28.7587C18.6256 28.7571 18.6168 28.7571 18.6082 28.7587C18.5811 28.7601 18.5553 28.7707 18.5352 28.789C18.5151 28.8072 18.5021 28.832 18.4982 28.8588L18.3522 29.7106L17.2212 30.3537V29.0436L17.8742 28.4987C17.8979 28.4791 17.9129 28.4508 17.9158 28.4201C17.9187 28.3894 17.9093 28.3589 17.8897 28.3351C17.88 28.3234 17.868 28.3137 17.8545 28.3066C17.8411 28.2994 17.8264 28.2951 17.8112 28.2936C17.7805 28.2907 17.75 28.3001 17.7262 28.3197L17.2212 28.7416V28.1208C17.2218 28.0902 17.2102 28.0606 17.189 28.0385C17.1678 28.0164 17.1388 28.0034 17.1082 28.0026L17.0842 27.9938Z" fill="#6FD1EF" stroke="#6FD1EF" stroke-width="0.054" stroke-miterlimit="10"/>
</svg>
