<svg width="41" height="41" viewBox="0 0 41 41" fill="none" xmlns="http://www.w3.org/2000/svg">
<path d="M16.6176 4.22461C16.5929 4.22932 16.5685 4.23571 16.5446 4.24365C16.4119 4.27307 16.2935 4.3475 16.2098 4.45459C16.126 4.56168 16.0821 4.69467 16.0856 4.83057V6.59253C16.0918 6.74415 16.1565 6.88761 16.266 6.99267C16.3755 7.09774 16.5213 7.15625 16.6731 7.15625C16.8248 7.15625 16.9707 7.09774 17.0802 6.99267C17.1897 6.88761 17.2544 6.74415 17.2606 6.59253V4.83057C17.266 4.67493 17.2094 4.52341 17.1033 4.40942C16.9972 4.29544 16.8502 4.22839 16.6946 4.22266C16.6689 4.22173 16.6432 4.22235 16.6176 4.22461ZM10.3786 6.8125C10.2666 6.82327 10.1601 6.86598 10.0717 6.93555C9.98333 7.00512 9.91683 7.09878 9.88006 7.20508C9.84329 7.31138 9.8378 7.42585 9.86431 7.53516C9.89082 7.64446 9.94822 7.74389 10.0296 7.82153L11.2596 9.06958C11.3748 9.16314 11.5206 9.21055 11.6688 9.20288C11.817 9.19521 11.9571 9.13302 12.0621 9.02808C12.167 8.92313 12.2293 8.78298 12.237 8.63476C12.2447 8.48655 12.1971 8.3408 12.1036 8.22558L10.8556 6.9956C10.8013 6.93808 10.7359 6.89197 10.6634 6.86035C10.5909 6.82873 10.5127 6.81217 10.4336 6.81152L10.3786 6.8125ZM22.8396 6.8125C22.7054 6.83141 22.582 6.89655 22.4906 6.99658L21.2426 8.22558C21.1479 8.34066 21.0994 8.48689 21.1066 8.63574C21.1138 8.78459 21.1761 8.92532 21.2814 9.03076C21.3867 9.1362 21.5275 9.19871 21.6763 9.20605C21.8252 9.2134 21.9714 9.16511 22.0866 9.07056L23.3166 7.82251C23.4014 7.74026 23.4595 7.63453 23.4833 7.5188C23.507 7.40306 23.4954 7.28284 23.4498 7.17383C23.4043 7.06481 23.3269 6.97189 23.2279 6.90747C23.1289 6.84305 23.0127 6.80995 22.8946 6.8125H22.8396ZM16.6726 8.94165C15.743 8.94165 14.8343 9.2172 14.0614 9.73364C13.2885 10.2501 12.6861 10.9842 12.3304 11.843C11.9746 12.7018 11.8816 13.6469 12.0629 14.5586C12.2443 15.4703 12.6919 16.3075 13.3492 16.9648C14.0065 17.6221 14.844 18.0699 15.7557 18.2512C16.6674 18.4326 17.6124 18.3396 18.4712 17.9839C19.33 17.6282 20.0641 17.0256 20.5805 16.2527C21.0969 15.4798 21.3726 14.5712 21.3726 13.6416C21.3694 12.3966 20.8736 11.2034 19.9935 10.3228C19.1134 9.4421 17.9206 8.94561 16.6756 8.94165H16.6726ZM7.75359 13.0515C7.59778 13.0662 7.45419 13.1424 7.35442 13.2629C7.25466 13.3835 7.20689 13.5388 7.22161 13.6946C7.23633 13.8504 7.31233 13.994 7.43292 14.0937C7.5535 14.1935 7.70874 14.2413 7.86456 14.2266H9.6256C9.70479 14.2298 9.78384 14.217 9.85796 14.189C9.93209 14.1609 9.99975 14.1181 10.0569 14.0632C10.1141 14.0084 10.1596 13.9425 10.1907 13.8696C10.2218 13.7967 10.2378 13.7184 10.2378 13.6392C10.2378 13.5599 10.2218 13.4814 10.1907 13.4084C10.1596 13.3355 10.1141 13.2697 10.0569 13.2148C9.99975 13.16 9.93209 13.1172 9.85796 13.0891C9.78384 13.0611 9.70479 13.0482 9.6256 13.0515H7.75359ZM23.6096 13.0515C23.5325 13.0587 23.4575 13.0812 23.389 13.1174C23.3205 13.1536 23.2597 13.2028 23.2103 13.2625C23.1608 13.3221 23.1236 13.391 23.1008 13.4651C23.0779 13.5391 23.0699 13.6169 23.0771 13.6941C23.0843 13.7712 23.1067 13.8463 23.1429 13.9148C23.1791 13.9833 23.2284 14.0438 23.2881 14.0933C23.3477 14.1427 23.4166 14.18 23.4906 14.2029C23.5646 14.2257 23.6424 14.2338 23.7196 14.2266H25.4816C25.5608 14.2298 25.6398 14.217 25.7139 14.189C25.7881 14.1609 25.8558 14.1181 25.913 14.0632C25.9701 14.0084 26.0157 13.9425 26.0467 13.8696C26.0778 13.7967 26.0938 13.7184 26.0938 13.6392C26.0938 13.5599 26.0778 13.4814 26.0467 13.4084C26.0157 13.3355 25.9701 13.2697 25.913 13.2148C25.8558 13.16 25.7881 13.1172 25.7139 13.0891C25.6398 13.0611 25.5608 13.0482 25.4816 13.0515H23.6176H23.6096ZM21.6096 18.0256C21.5845 18.0298 21.5598 18.0356 21.5356 18.0435C21.4282 18.0632 21.3285 18.1126 21.2475 18.1858C21.1665 18.259 21.1076 18.3532 21.0771 18.458C21.0467 18.5628 21.0461 18.6741 21.0753 18.7793C21.1045 18.8845 21.1625 18.9793 21.2426 19.0535L22.4906 20.2825C22.5882 20.4038 22.73 20.4815 22.8848 20.4983C23.0396 20.5151 23.1948 20.4697 23.3161 20.3721C23.4374 20.2745 23.515 20.1326 23.5318 19.9778C23.5486 19.823 23.5032 19.668 23.4056 19.5466C23.3789 19.5138 23.3488 19.4838 23.3156 19.4575L22.0866 18.2095C22.026 18.1447 21.9514 18.0946 21.8686 18.0627C21.7859 18.0309 21.697 18.0183 21.6086 18.0256H21.6096ZM11.6096 18.0435C11.4783 18.0575 11.3556 18.1157 11.2616 18.2085L10.0316 19.4565C9.96811 19.5085 9.91618 19.573 9.8792 19.6462C9.84223 19.7195 9.82099 19.7997 9.81689 19.8816C9.81279 19.9635 9.82591 20.0455 9.8554 20.1221C9.88489 20.1986 9.93009 20.2679 9.98809 20.3259C10.0461 20.3839 10.1156 20.4293 10.1921 20.4587C10.2687 20.4882 10.3506 20.5014 10.4325 20.4973C10.5144 20.4932 10.5946 20.472 10.6678 20.4351C10.741 20.3981 10.8057 20.346 10.8576 20.2825L12.1046 19.0525C12.1974 18.9667 12.2599 18.8534 12.2831 18.7292C12.3062 18.6051 12.2887 18.4767 12.2331 18.3633C12.1776 18.2498 12.0869 18.1574 11.9745 18.0996C11.8622 18.0418 11.7342 18.0227 11.6096 18.0435ZM16.6196 20.0806C16.5946 20.0806 16.5706 20.0916 16.5466 20.0986C16.4139 20.1284 16.2956 20.2033 16.2119 20.3105C16.1282 20.4178 16.0843 20.5505 16.0876 20.6865V22.4475C16.0843 22.5267 16.0971 22.6058 16.1251 22.6799C16.1532 22.7541 16.196 22.8217 16.2508 22.8789C16.3057 22.9361 16.3715 22.9816 16.4445 23.0127C16.5174 23.0438 16.5958 23.0598 16.6751 23.0598C16.7544 23.0598 16.8328 23.0438 16.9057 23.0127C16.9786 22.9816 17.0445 22.9361 17.0994 22.8789C17.1542 22.8217 17.197 22.7541 17.225 22.6799C17.2531 22.6058 17.2658 22.5267 17.2626 22.4475V20.6875C17.268 20.5319 17.2115 20.3806 17.1053 20.2666C16.9992 20.1526 16.8522 20.0853 16.6966 20.0796C16.6703 20.0784 16.6439 20.0787 16.6176 20.0806H16.6196Z" fill="#FBB03B"/>
<path fill-rule="evenodd" clip-rule="evenodd" d="M16.6857 20.5526C16.6197 20.1526 16.8537 20.2527 17.0577 20.1637C17.1256 20.2155 17.1824 20.2806 17.2245 20.3551C17.2666 20.4295 17.2932 20.5115 17.3027 20.5965C17.3497 20.6875 17.1816 20.6775 17.0466 20.6785C17.1926 20.7165 17.3017 20.8067 17.1337 20.8787C17.1337 20.9837 17.1656 21.1056 17.0466 21.1556C17.2466 21.2656 17.0777 21.5397 17.1337 21.7137C17.2247 21.887 17.2874 22.0736 17.3196 22.2667C17.3538 22.377 17.3609 22.4939 17.3404 22.6075C17.3199 22.7212 17.2723 22.8281 17.2017 22.9195C17.1218 23.0029 17.0249 23.0682 16.9177 23.1109C16.8104 23.1536 16.6953 23.1728 16.58 23.1671C16.4647 23.1614 16.3519 23.131 16.2494 23.078C16.1469 23.0249 16.0569 22.9505 15.9857 22.8597C15.9987 22.6847 15.8487 22.6016 16.0457 22.4456C16.0687 22.3296 15.8457 22.3236 15.8727 22.2076C15.9257 22.0996 15.7627 21.8937 15.9587 21.8507C15.7967 21.6737 15.6086 21.3007 15.7856 21.0977C15.4856 21.0457 15.7947 20.9517 15.6127 20.8617V20.6776C15.6125 20.5709 15.6279 20.4648 15.6586 20.3626C15.6788 20.156 15.7353 19.9546 15.8256 19.7677C15.8776 19.6614 15.9585 19.572 16.059 19.5096C16.1594 19.4472 16.2754 19.4142 16.3937 19.4146L16.3347 19.4307C16.3855 19.4293 16.4364 19.4349 16.4857 19.4476C16.6017 19.5326 16.5436 19.7317 16.4686 19.8477L16.4896 19.8426C16.4711 19.8727 16.4461 19.8983 16.4163 19.9173C16.3865 19.9364 16.3527 19.9486 16.3176 19.9527C16.2806 20.1097 16.0727 20.2097 16.1227 20.3697C16.1547 20.5467 16.1746 20.6256 16.1896 20.7476C16.1911 20.8717 16.2317 20.9921 16.3057 21.0916C16.3293 21.3499 16.3875 21.6037 16.4786 21.8465C16.5076 21.9655 16.5336 22.0868 16.5516 22.2118C16.5649 22.2994 16.5709 22.388 16.5696 22.4766C16.4866 22.5366 16.5696 22.5376 16.5096 22.6766C16.6576 22.4996 16.5836 22.6425 16.6326 22.6385C16.6966 22.6205 16.6567 22.4785 16.7737 22.6175C16.7857 22.5903 16.7883 22.5601 16.7811 22.5313C16.7738 22.5025 16.7571 22.4768 16.7336 22.4586C16.7266 22.4516 16.7197 22.4587 16.7177 22.4427C16.7147 22.4041 16.7147 22.3653 16.7177 22.3267C16.7232 22.2497 16.7468 22.1749 16.7866 22.1087C16.4386 21.8797 16.5867 21.6677 16.5267 21.3087C16.5667 21.1767 16.5817 21.0385 16.6127 20.8875C16.6236 20.8135 16.6441 20.7414 16.6736 20.6727C16.7107 20.6625 16.7449 20.6441 16.7737 20.6187C16.736 20.6218 16.7005 20.638 16.6736 20.6646C16.6736 20.6646 16.6987 20.7076 16.6857 20.5526Z" fill="#FBB03B"/>
<path fill-rule="evenodd" clip-rule="evenodd" d="M12.0606 18.2027C12.0956 18.101 12.0956 17.9903 12.0606 17.8885L11.9786 17.7467L11.6906 18.5038V18.4947V18.4776V18.4437V18.3846C11.6911 18.3531 11.6958 18.3218 11.7046 18.2916C11.7189 18.2485 11.7494 18.2128 11.7896 18.1918C11.8666 18.1508 11.9556 18.1557 12.0716 18.1017C12.1437 18.1505 12.2051 18.2135 12.2519 18.287C12.2987 18.3604 12.3299 18.4427 12.3436 18.5287C12.3946 18.6207 12.2246 18.6147 12.0896 18.6197C12.2406 18.6307 12.3366 18.7636 12.1526 18.7726C12.1286 18.8486 12.0876 18.9556 11.9736 18.8956C12.0376 19.1126 11.7186 19.1906 11.6326 19.3536C11.4844 19.738 11.2533 20.085 10.9556 20.3697L10.9646 20.3597C10.889 20.448 10.7951 20.5189 10.6894 20.5675C10.5838 20.6161 10.4689 20.6412 10.3526 20.6412C10.2364 20.6412 10.1214 20.6161 10.0158 20.5675C9.91014 20.5189 9.8163 20.448 9.74064 20.3597C9.74864 20.1817 9.58964 20.1026 9.78464 19.9376C9.81064 19.8206 9.59563 19.7728 9.67063 19.6188C9.73863 19.5358 9.78963 19.3406 9.90763 19.2906L9.88865 19.3087C9.90714 19.3013 9.92725 19.2989 9.94694 19.3019C9.96662 19.3048 9.98517 19.313 10.0006 19.3255C10.0116 19.0825 10.1466 18.6776 10.4166 18.6566C10.2406 18.4026 10.5276 18.5565 10.4636 18.3565L10.7196 18.0978C10.7926 17.9978 10.7576 17.8726 10.8486 17.6876C10.9189 17.5743 11.0198 17.4832 11.1396 17.4247C11.1981 17.397 11.2611 17.3803 11.3256 17.3756C11.3589 17.373 11.3924 17.373 11.4256 17.3756L11.4726 17.3856L11.4956 17.3927H11.5057C11.4645 17.4015 11.4243 17.4143 11.3857 17.4308C11.3142 17.4614 11.2513 17.509 11.2025 17.5694C11.1537 17.6299 11.1204 17.7014 11.1056 17.7777C11.0996 17.8547 11.1266 17.8717 11.1576 17.8607C11.1886 17.8497 11.2316 17.7967 11.3246 17.7367C11.4026 17.6697 11.6106 17.6627 11.5406 17.7027C11.5261 17.7545 11.4977 17.8013 11.4583 17.838C11.419 17.8747 11.3703 17.8999 11.3176 17.9107C11.2696 18.0807 11.0997 18.1657 11.1177 18.3107C11.0897 18.6557 10.8176 18.7176 10.7916 19.0106C10.6247 19.214 10.4855 19.4386 10.3776 19.6786L10.3416 19.7357L10.3066 19.7667C10.2866 19.8557 10.3246 19.8978 10.3166 19.9418C10.2346 20.0068 10.3246 20.0046 10.2656 20.1466C10.4046 19.9636 10.3386 20.1096 10.3886 20.1026C10.4386 20.0956 10.4026 19.9416 10.5306 20.0736C10.5373 20.0502 10.5393 20.0257 10.5366 20.0016L10.5707 19.9647C10.7167 19.7017 10.8447 19.4467 11.1097 19.3807C11.0317 18.9687 11.2896 18.9256 11.5096 18.6246L11.5996 18.5716L11.6446 18.5426L11.7136 18.6146H11.7246C11.7336 18.6146 11.7297 18.6146 11.7297 18.6146C11.4235 18.6153 11.1302 18.7374 10.9141 18.9542C10.698 19.171 10.5768 19.4647 10.5771 19.7709C10.5775 20.077 10.6993 20.3704 10.9159 20.5868C11.1324 20.8031 11.426 20.9247 11.7322 20.9247C12.0383 20.9247 12.3318 20.8031 12.5484 20.5868C12.7649 20.3704 12.8868 20.077 12.8871 19.7709C12.8875 19.4647 12.7662 19.171 12.5501 18.9542C12.334 18.7374 12.0408 18.6153 11.7347 18.6146C11.7347 18.6146 11.7347 18.6208 11.7347 18.5878L11.7276 18.5487V18.5277V18.5167V18.5086L12.0356 17.7525L12.1066 17.8937C12.1259 17.9989 12.1098 18.1077 12.0606 18.2027Z" fill="#FBB03B"/>
<path fill-rule="evenodd" clip-rule="evenodd" d="M22.0877 17.9875C22.0749 17.8863 22.031 17.7915 21.962 17.7163C21.8931 17.6411 21.8024 17.5892 21.7027 17.5676L21.6507 18.4985V18.4355V18.3764C21.6535 18.345 21.6605 18.3142 21.6717 18.2846C21.6799 18.2626 21.6925 18.2423 21.7086 18.2251C21.7247 18.2079 21.7441 18.1941 21.7657 18.1846C21.8457 18.1506 21.9347 18.1626 22.0537 18.1186C22.1817 18.2356 22.2847 18.3496 22.4017 18.4656C22.4917 18.4986 22.3667 18.6066 22.2717 18.7036C22.4037 18.6306 22.5447 18.6166 22.4717 18.7876C22.5467 18.8646 22.6577 18.9295 22.6087 19.0505C22.8287 18.9885 22.9087 19.3065 23.0687 19.3935C23.1449 19.4165 23.2185 19.4471 23.2887 19.4846C23.3755 19.5252 23.4507 19.5868 23.5074 19.664C23.5641 19.7413 23.6005 19.8315 23.6133 19.9265C23.626 20.0215 23.6146 20.1183 23.5803 20.2077C23.546 20.2972 23.4897 20.3764 23.4167 20.4385C23.2658 20.5707 23.0702 20.6403 22.8697 20.6333C22.6692 20.6262 22.4789 20.5431 22.3377 20.4006L22.3517 20.4165C22.3197 20.3934 22.2863 20.3724 22.2517 20.3535C22.2357 20.1935 22.0897 20.2374 22.1427 20.0024C22.0747 19.9024 21.9177 20.0555 21.8497 19.9565C21.8087 19.8415 21.5497 19.8106 21.6497 19.6396C21.3997 19.6196 21.0247 19.5186 20.9657 19.2046C20.6657 19.3186 20.8287 19.0145 20.6207 18.9375C20.5542 18.7263 20.5542 18.4998 20.6207 18.2886C20.6463 18.0786 20.7103 17.8751 20.8097 17.6885C20.8665 17.5822 20.9523 17.4942 21.057 17.4346C21.1618 17.3749 21.2813 17.3462 21.4017 17.3515L21.3137 17.3735C21.2118 17.4177 21.1239 17.4887 21.0594 17.5791C20.9949 17.6695 20.9563 17.7758 20.9477 17.8865C20.9877 18.1225 21.0927 18.0865 21.1477 18.0315C21.1817 17.9845 21.3227 17.7555 21.4477 17.7905L21.4807 17.7815C21.4606 17.8118 21.4339 17.8372 21.4025 17.8557C21.3712 17.8742 21.336 17.8854 21.2997 17.8884C21.2547 18.0444 21.0417 18.1434 21.0867 18.3044C21.1167 18.4804 21.1257 18.5765 21.1507 18.6775C21.1557 18.7275 21.1789 18.7739 21.2157 18.8081C21.2525 18.8423 21.3004 18.8621 21.3507 18.8635C21.5513 19.0234 21.7709 19.1577 22.0047 19.2634C22.2323 19.3898 22.4383 19.5521 22.6147 19.7436C22.6247 19.8436 22.7147 19.9116 22.7587 19.9956L22.7897 20.0295C22.7859 20.0645 22.7753 20.0986 22.7587 20.1296C22.9147 19.9616 22.8357 20.1006 22.8857 20.0986C22.9517 20.0836 22.9157 19.9385 23.0297 20.0825C23.0429 20.0555 23.0466 20.025 23.0403 19.9956C23.0339 19.9662 23.0178 19.9398 22.9947 19.9206C22.9627 19.8946 22.9697 19.9206 23.0297 19.8486C22.9956 19.8653 22.9637 19.8861 22.9347 19.9106L22.8347 19.9184C22.6457 19.8634 22.5627 19.6825 22.3427 19.5185C22.1481 19.2595 21.9903 18.9748 21.8737 18.6726C21.8053 18.6445 21.7343 18.6234 21.6617 18.6096C21.6357 18.5936 21.6557 18.6045 21.6487 18.6015C21.6487 18.6015 21.6487 18.6074 21.6487 18.5744V18.5356V18.5134V18.5024V18.4946L21.7247 17.5534C21.822 17.5807 21.9087 17.6369 21.9735 17.7143C22.0383 17.7918 22.0781 17.887 22.0877 17.9875Z" fill="#FBB03B"/>
<path fill-rule="evenodd" clip-rule="evenodd" d="M23.6467 13.5277C23.6381 13.4611 23.6408 13.3935 23.6547 13.3278H23.6807C23.7427 13.1518 23.9627 13.1788 24.0557 13.0058H24.5377C24.6237 12.9658 24.6126 13.1298 24.6146 13.2658C24.6546 13.1198 24.7436 13.0096 24.8146 13.1786C24.9216 13.1786 25.0446 13.1468 25.0956 13.2658C25.1956 13.0738 25.5097 13.2176 25.6187 13.1996C25.7128 13.178 25.8115 13.1897 25.898 13.2326C25.9846 13.2754 26.0537 13.3468 26.0936 13.4347C26.1468 13.5432 26.167 13.665 26.1515 13.7848C26.136 13.9047 26.0857 14.0174 26.0067 14.1088C25.9273 14.1968 25.829 14.2658 25.7192 14.3105C25.6095 14.3551 25.491 14.3742 25.3727 14.3666C25.1999 14.3731 25.0283 14.3976 24.8607 14.4396C24.7377 14.3396 24.6607 14.4718 24.5397 14.2668C24.4217 14.2438 24.4157 14.4666 24.2987 14.4396C24.1897 14.3866 23.9797 14.5497 23.9367 14.3537C23.8717 14.4115 23.7994 14.4606 23.7217 14.4997H23.7466C23.4896 14.6467 23.0466 14.4997 23.0046 14.2367C22.7046 14.3567 22.8667 14.0506 22.6567 13.9796C22.5865 13.7717 22.5819 13.5474 22.6437 13.3368C22.6613 13.1052 22.7295 12.88 22.8436 12.6776C22.9085 12.5622 23.011 12.4725 23.1339 12.4232C23.2569 12.374 23.393 12.368 23.5197 12.4066C23.5452 12.4535 23.5599 12.5056 23.5625 12.559C23.5651 12.6123 23.5557 12.6656 23.5348 12.7147C23.5139 12.7639 23.4822 12.8078 23.442 12.8429C23.4018 12.8781 23.3542 12.9035 23.3027 12.9176C23.2657 13.0746 23.0577 13.1797 23.1077 13.3397C23.1577 13.4997 23.1547 13.6077 23.1827 13.7077C23.188 13.7582 23.2123 13.8048 23.2507 13.838C23.2892 13.8713 23.3389 13.8887 23.3897 13.8866C23.4085 13.9072 23.4313 13.924 23.4567 13.9357C23.482 13.9474 23.5095 13.954 23.5374 13.955C23.5653 13.956 23.5931 13.9514 23.6193 13.9416C23.6454 13.9317 23.6693 13.9167 23.6896 13.8976H23.7206L23.9357 13.8356C24.1838 13.7663 24.4413 13.7371 24.6987 13.7487C24.8147 13.8487 25.0126 13.7668 25.0986 13.9228C25.1576 13.6928 25.2487 13.8536 25.3397 13.8356C25.3941 13.821 25.4449 13.7952 25.4887 13.7597C25.5047 13.7357 25.5037 13.7467 25.5767 13.8097C25.5891 13.7825 25.592 13.7521 25.5849 13.723C25.5778 13.694 25.5612 13.6682 25.5377 13.6498C25.5047 13.6248 25.5136 13.6448 25.5726 13.5778C25.5396 13.5939 25.5087 13.6138 25.4807 13.6376V13.6317V13.7668H25.4446H25.3837L25.2537 13.7816C24.9334 13.7386 24.6207 13.651 24.3247 13.5216C24.1317 13.5916 23.7737 13.9557 23.6917 13.6317H23.6367C23.6451 13.5978 23.6485 13.5627 23.6467 13.5277Z" fill="#FBB03B"/>
<path fill-rule="evenodd" clip-rule="evenodd" d="M7.79064 13.5277C7.78209 13.4611 7.78479 13.3935 7.79864 13.3278H7.82562C7.88662 13.1518 8.10664 13.1788 8.19964 13.0058H8.68163C8.76763 12.9658 8.75666 13.1298 8.75866 13.2658C8.79966 13.1198 8.88767 13.0096 8.95867 13.1786C9.06567 13.1786 9.18866 13.1468 9.24066 13.2658C9.34066 13.0738 9.65363 13.2176 9.76263 13.1996C9.85676 13.178 9.95549 13.1897 10.042 13.2326C10.1286 13.2754 10.1977 13.3468 10.2377 13.4347C10.2909 13.5432 10.311 13.665 10.2955 13.7848C10.2801 13.9047 10.2296 14.0174 10.1506 14.1088C10.0713 14.1969 9.97308 14.2658 9.86328 14.3105C9.75347 14.3551 9.63496 14.3743 9.51666 14.3666C9.34392 14.3731 9.1723 14.3976 9.00463 14.4396C8.88163 14.3396 8.80465 14.4718 8.68365 14.2668C8.56565 14.2438 8.55962 14.4666 8.44262 14.4396C8.33362 14.3866 8.12362 14.5497 8.08062 14.3537C8.01566 14.4115 7.94341 14.4606 7.86566 14.4997H7.89062C7.63362 14.6467 7.19065 14.4997 7.14965 14.2367C6.84965 14.3567 7.01065 14.0506 6.80065 13.9796C6.73036 13.7717 6.72582 13.5474 6.78765 13.3368C6.80525 13.1052 6.87354 12.88 6.98767 12.6776C7.05257 12.5622 7.15494 12.4725 7.27789 12.4232C7.40083 12.374 7.53694 12.368 7.66363 12.4066C7.68922 12.4535 7.70392 12.5056 7.70654 12.559C7.70916 12.6123 7.69964 12.6656 7.67877 12.7147C7.65789 12.7639 7.62619 12.8078 7.58599 12.8429C7.54579 12.8781 7.49815 12.9035 7.44665 12.9176C7.40965 13.0746 7.20164 13.1797 7.24664 13.3397C7.29164 13.4997 7.29465 13.6077 7.32165 13.7077C7.32805 13.7578 7.35272 13.8038 7.39092 13.8368C7.42912 13.8699 7.47813 13.8875 7.52862 13.8866C7.5475 13.9072 7.57028 13.924 7.59564 13.9357C7.62099 13.9474 7.64842 13.954 7.67632 13.955C7.70423 13.956 7.73209 13.9514 7.75823 13.9416C7.78438 13.9317 7.80833 13.9167 7.82867 13.8976H7.85967L8.07464 13.8356C8.32309 13.7663 8.58095 13.737 8.83862 13.7487C8.95362 13.8487 9.15164 13.7668 9.23864 13.9228C9.29764 13.6928 9.38763 13.8536 9.47863 13.8356C9.51763 13.8246 9.62062 13.7807 9.62762 13.7597C9.63462 13.7387 9.64263 13.7467 9.71563 13.8097C9.72823 13.7826 9.73126 13.7519 9.72418 13.7228C9.71709 13.6937 9.7003 13.6681 9.67663 13.6498C9.64463 13.6248 9.65266 13.6448 9.71166 13.5778C9.67874 13.5935 9.64811 13.6135 9.62066 13.6376V13.6317C9.62066 13.6317 9.62066 13.6317 9.62066 13.6447V13.7668H9.58465H9.52368L9.39367 13.7816C9.07343 13.7386 8.76074 13.651 8.46465 13.5216C8.27165 13.5916 7.91366 13.9557 7.83166 13.6317H7.77667C7.78741 13.5982 7.79212 13.563 7.79064 13.5277Z" fill="#FBB03B"/>
<path fill-rule="evenodd" clip-rule="evenodd" d="M16.6756 9.41765C16.8256 8.99465 17.8936 9.20969 18.4266 9.23869C19.0351 9.48069 19.5865 9.84675 20.0456 10.3136C20.3106 10.5446 20.1616 10.6248 20.0676 10.7248C20.2092 10.7444 20.3393 10.8133 20.4352 10.9194C20.531 11.0254 20.5864 11.1618 20.5917 11.3046C20.8172 11.6001 20.9458 11.9583 20.9596 12.3298C21.3146 12.6738 21.2597 13.8157 21.1597 14.4797C21.1157 15.2313 20.8556 15.9543 20.4106 16.5617C19.9141 17.2521 19.2336 17.7893 18.4466 18.1117C17.7259 18.3923 16.9509 18.5057 16.1799 18.4435C15.409 18.3813 14.6621 18.1451 13.9957 17.7526C13.6387 17.3776 13.2956 17.2796 13.1106 16.7526C12.8286 16.3736 12.6327 16.4816 12.3937 16.0426C12.1937 15.6376 11.7777 14.8286 11.9437 14.6066C11.742 14.1128 11.6486 13.5817 11.6697 13.0487C11.6771 12.4789 11.8558 11.9245 12.1827 11.4577C12.0147 11.0927 12.4906 10.8957 12.5896 10.4767C12.9175 10.054 13.3072 9.68312 13.7457 9.37663C14.1447 9.05023 14.5751 8.76417 15.0306 8.52263C15.5084 8.27583 16.0547 8.19463 16.5837 8.29167C16.8617 8.45767 16.4507 8.76571 15.7507 8.81071C15.2794 8.98085 14.8289 9.20365 14.4076 9.47478C13.6148 10.0188 13.0026 10.7874 12.6496 11.6818C12.2402 12.5646 12.1691 13.5669 12.4496 14.4987C12.7087 15.3933 13.2147 16.1968 13.9097 16.8168C14.1597 17.1838 14.8296 17.4777 15.0826 17.7267C15.3676 17.5917 15.6247 17.8468 15.9697 17.8808C16.3697 17.9198 16.7936 17.8187 17.5876 17.8417C18.685 17.4421 19.6338 16.7162 20.3066 15.7616C20.3596 15.3166 20.4676 14.9616 20.5466 14.5326C20.661 14.0321 20.6713 13.5134 20.5766 13.0087C20.4426 11.9299 19.9238 10.9357 19.1156 10.2087C18.7007 10.0012 18.2544 9.86367 17.7947 9.80168C17.3933 9.77958 17.006 9.64663 16.6756 9.41765Z" fill="#FBB03B"/>
<path fill-rule="evenodd" clip-rule="evenodd" d="M22.5306 7.17259C22.4573 7.10694 22.406 7.02032 22.3836 6.92454L22.8646 7.28245V7.22752V7.17454C22.8672 7.14561 22.8733 7.11712 22.8826 7.08958H22.9026C22.9596 6.91058 23.1026 6.96463 23.2786 6.88963C23.3478 6.93982 23.4061 7.00349 23.45 7.07689C23.4938 7.15029 23.5222 7.2319 23.5336 7.31663C23.5836 7.40763 23.4146 7.3986 23.2796 7.4016C23.4286 7.4146 23.5246 7.54647 23.3406 7.55247C23.3176 7.62847 23.2756 7.73157 23.1616 7.67357C23.2266 7.89157 22.9146 7.9686 22.8316 8.1306C22.6951 8.50729 22.4765 8.84888 22.1916 9.1306C22.1118 9.22099 22.0112 9.29054 21.8984 9.33324C21.7857 9.37593 21.6643 9.39035 21.5446 9.37547C21.3262 9.34446 21.1253 9.23834 20.9766 9.07542C20.9876 8.90042 20.8316 8.8236 21.0256 8.6616C21.0516 8.5466 20.8356 8.49962 20.9076 8.34862C20.9926 8.22962 21.0746 7.92457 21.2306 8.04857C21.2426 7.80857 21.3746 7.41442 21.6436 7.39842C21.4666 7.14642 21.7546 7.29858 21.6886 7.11058L21.9416 6.86156C22.0116 6.76156 21.9816 6.64365 22.0616 6.46165C22.1272 6.34842 22.2236 6.25605 22.3396 6.19554C22.396 6.16636 22.4574 6.14809 22.5206 6.14159C22.5538 6.1378 22.5874 6.1378 22.6206 6.14159L22.6666 6.15062C22.7106 6.15062 22.6186 6.16062 22.8366 6.15062C23.2366 6.23762 23.2266 6.4216 23.1676 6.4116C23.1041 6.41354 23.0406 6.4105 22.9776 6.40257C22.9036 6.38957 22.7066 6.44256 22.7456 6.46556C22.7341 6.51749 22.708 6.56506 22.6705 6.60277C22.6329 6.64047 22.5854 6.66666 22.5336 6.67845C22.4946 6.85045 22.3276 6.93349 22.3416 7.07249C22.3166 7.40949 22.0476 7.47258 22.0186 7.75658C21.8509 7.95486 21.7106 8.17489 21.6016 8.41063C21.5066 8.54163 21.5476 8.54443 21.5456 8.58543C21.5536 8.61233 21.557 8.64041 21.5556 8.66844C21.4746 8.73244 21.5636 8.73264 21.5026 8.86864C21.6476 8.68964 21.5776 8.83455 21.6266 8.83055C21.6916 8.81155 21.6536 8.6696 21.7726 8.8076C21.8159 8.67397 21.8789 8.54757 21.9596 8.4326C22.0366 8.29569 22.1634 8.19349 22.3136 8.14744C22.2266 7.74044 22.4806 7.69547 22.6886 7.39647L22.7776 7.34349L22.8206 7.31444L22.8316 7.30662L22.9006 7.37645H22.9086C22.9206 7.37645 22.9166 7.37645 22.9166 7.37645H22.9116C22.95 7.37299 22.9858 7.35533 23.0116 7.32664C22.8416 7.40164 22.9396 7.36845 22.9116 7.37645L22.8696 7.37743C22.8704 7.36477 22.8704 7.35224 22.8696 7.33958V7.30565V7.26952L22.3696 6.79246L22.3886 6.92259C22.4093 7.01845 22.4589 7.10568 22.5306 7.17259Z" fill="#FBB03B"/>
<path fill-rule="evenodd" clip-rule="evenodd" d="M10.7346 7.13254C10.7984 7.05914 10.8385 6.96817 10.8496 6.87156L10.4035 7.28049V7.21848L10.4096 7.15964C10.4136 7.1276 10.423 7.09644 10.4375 7.0676C10.4561 7.02422 10.4894 6.98871 10.5316 6.9675C10.6106 6.9315 10.6976 6.94148 10.8156 6.89548C10.9436 7.00948 11.0466 7.11942 11.1626 7.23142C11.2516 7.26242 11.1285 7.37146 11.0335 7.46946C11.1645 7.39346 11.3046 7.37756 11.2336 7.54856C11.3076 7.62356 11.4185 7.68442 11.3695 7.80442C11.5875 7.73842 11.6695 8.0525 11.8275 8.1345C11.926 8.15051 12.0198 8.18791 12.1023 8.24387C12.1849 8.29983 12.2542 8.37297 12.3056 8.45847C12.3543 8.56727 12.3707 8.68777 12.353 8.80564C12.3353 8.92351 12.2841 9.03385 12.2055 9.12351C12.1264 9.21582 12.0256 9.2869 11.9121 9.33054C11.7987 9.37418 11.6762 9.38901 11.5556 9.37351C11.3549 9.33544 11.1662 9.2497 11.0056 9.12351C10.9926 8.96451 10.8475 9.00763 10.9055 8.77463C10.8405 8.67463 10.6816 8.82651 10.6156 8.72751C10.5786 8.61251 10.3155 8.5816 10.4265 8.4116C10.1805 8.3936 9.80657 8.28364 9.76157 7.98264C9.46157 8.09964 9.62655 7.79558 9.41855 7.72458C9.35095 7.51804 9.34816 7.2958 9.41055 7.08762C9.42846 6.85791 9.49676 6.63489 9.61057 6.43455C9.68141 6.32404 9.78188 6.23555 9.90054 6.17942C9.95895 6.15327 10.0216 6.1381 10.0855 6.1345C10.1153 6.13268 10.1452 6.1348 10.1745 6.1406C10.0943 6.17036 10.0235 6.2211 9.96957 6.28757C9.89357 6.48757 10.0566 6.4875 10.1786 6.5095C10.2056 6.5175 10.2575 6.52461 10.2525 6.54661C10.2399 6.56937 10.224 6.59026 10.2055 6.60862C10.1685 6.64602 10.1198 6.66955 10.0675 6.67551C10.0305 6.83251 9.82554 6.93548 9.87454 7.09348C9.91754 7.31048 9.93154 7.37847 9.94754 7.45847C9.95429 7.50814 9.97878 7.55382 10.0164 7.58689C10.0541 7.61996 10.1024 7.63814 10.1526 7.6384C10.3482 7.79868 10.5636 7.93326 10.7935 8.03855C11.0156 8.16497 11.2159 8.3264 11.3866 8.51658C11.3946 8.66258 11.6056 8.76959 11.5086 8.88059C11.6536 8.70059 11.5835 8.84653 11.6325 8.84153C11.6975 8.82253 11.6585 8.68158 11.7785 8.81858C11.7912 8.79113 11.7947 8.76025 11.7884 8.73069C11.7821 8.70113 11.7663 8.67441 11.7436 8.65452C11.7126 8.62752 11.7185 8.64261 11.7785 8.57761C11.7455 8.59234 11.7144 8.61073 11.6856 8.63254C11.6706 8.64554 11.6696 8.64841 11.6696 8.64841L11.6505 8.66843H11.6436H11.6186C11.5564 8.65356 11.4986 8.6245 11.4496 8.58347C11.3496 8.50447 11.2636 8.38342 11.1136 8.28342C10.9195 8.03094 10.7616 7.75268 10.6446 7.45652C10.5768 7.42994 10.5064 7.41094 10.4345 7.39963C10.4155 7.39063 10.4245 7.39963 10.4245 7.39963C10.4245 7.39963 10.4316 7.39963 10.4176 7.39963C10.4036 7.39963 10.4115 7.39956 10.4085 7.37156L10.4035 7.33249V7.31052V7.2905L10.8535 6.88547C10.8389 6.97766 10.7975 7.0636 10.7346 7.13254Z" fill="#FBB03B"/>
<path fill-rule="evenodd" clip-rule="evenodd" d="M16.6857 4.69759C16.6197 4.29759 16.8527 4.3977 17.0577 4.3077C17.1256 4.35958 17.1824 4.42468 17.2245 4.4991C17.2666 4.57352 17.2932 4.65558 17.3027 4.74056C17.3497 4.83156 17.1816 4.82159 17.0466 4.82259C17.1926 4.86059 17.3017 4.95054 17.1337 5.02254C17.1337 5.12854 17.1656 5.25064 17.0466 5.29964C17.2466 5.40964 17.0777 5.68375 17.1337 5.85775C17.2247 6.03103 17.2874 6.21768 17.3196 6.41072C17.3539 6.52104 17.3611 6.63788 17.3405 6.75154C17.32 6.86521 17.2723 6.97219 17.2017 7.06356C17.1219 7.14706 17.0251 7.21243 16.9178 7.25521C16.8105 7.29798 16.6953 7.3173 16.58 7.3116C16.4646 7.30591 16.3518 7.27538 16.2493 7.22225C16.1467 7.16912 16.0568 7.09469 15.9857 7.00374C15.9987 6.82874 15.8487 6.74568 16.0457 6.58968C16.0687 6.47368 15.8457 6.46864 15.8727 6.35164C15.9257 6.24364 15.7627 6.03771 15.9587 5.99471C15.7967 5.81771 15.6086 5.44451 15.7856 5.24251C15.4856 5.18951 15.7947 5.0957 15.6127 5.0057V4.82161C15.6125 4.71493 15.628 4.60886 15.6586 4.50667C15.6788 4.30005 15.7353 4.09865 15.8256 3.9117C15.8776 3.80548 15.9585 3.71607 16.059 3.65364C16.1594 3.59122 16.2754 3.55827 16.3937 3.55867L16.3347 3.57454C16.3855 3.57309 16.4364 3.5789 16.4857 3.59163C16.6017 3.67763 16.5436 3.87654 16.4686 3.99154L16.4896 3.98568C16.4713 4.01596 16.4463 4.04155 16.4164 4.06063C16.3866 4.0797 16.3528 4.09161 16.3176 4.09554C16.2806 4.25254 16.0727 4.35353 16.1227 4.51253C16.1547 4.69053 16.1746 4.7687 16.1896 4.8907C16.1911 5.01474 16.2317 5.13514 16.3057 5.2347C16.3293 5.49297 16.3875 5.74678 16.4786 5.98958C16.5076 6.10858 16.5336 6.22957 16.5516 6.35457C16.5649 6.44226 16.5709 6.53103 16.5696 6.61971C16.4866 6.67971 16.5696 6.68066 16.5096 6.81966C16.6576 6.64266 16.5836 6.78655 16.6326 6.78255C16.6966 6.76355 16.6567 6.62158 16.7737 6.76058C16.786 6.73363 16.7888 6.70338 16.7815 6.67464C16.7742 6.6459 16.7573 6.62045 16.7336 6.60262C16.7266 6.59462 16.7197 6.60253 16.7177 6.58553C16.7147 6.54692 16.7147 6.50817 16.7177 6.46956C16.7232 6.39248 16.7468 6.31777 16.7866 6.25154C16.4386 6.02254 16.5867 5.81074 16.5267 5.45174C16.5667 5.32074 16.5817 5.1816 16.6127 5.0306C16.6236 4.95659 16.6441 4.88423 16.6736 4.81551C16.7105 4.80552 16.7447 4.78744 16.7737 4.76253C16.736 4.76475 16.7003 4.78094 16.6736 4.8077C16.6736 4.8077 16.6987 4.85159 16.6857 4.69759Z" fill="#FBB03B"/>
<path d="M31.3766 18.7877C31.6607 17.1461 31.3135 15.4579 30.4047 14.0616C29.4959 12.6654 28.0926 11.6643 26.4766 11.2596C25.053 10.9036 23.5514 11.0325 22.2095 11.6261C20.8675 12.2196 19.7619 13.244 19.0676 14.5367C18.4242 14.0998 17.6481 13.9023 16.8742 13.9789C16.1003 14.0554 15.3778 14.4012 14.8326 14.9557C14.3088 15.4926 13.9806 16.1899 13.9006 16.9356C12.6138 17.0204 11.4048 17.5814 10.5093 18.5094C9.6139 19.4373 9.09635 20.6657 9.05761 21.9547C9.02513 23.3207 9.53662 24.6435 10.4795 25.6324C11.4225 26.6213 12.7196 27.1951 14.0856 27.2276H30.5176C31.5736 27.2269 32.5919 26.8343 33.3751 26.1258C34.1582 25.4174 34.6506 24.4436 34.757 23.3929C34.8633 22.3422 34.5759 21.2893 33.9505 20.4383C33.3251 19.5874 32.4061 18.999 31.3716 18.7867L31.3766 18.7877Z" fill="#E6E6E6" stroke="white" stroke-width="0.271" stroke-miterlimit="10"/>
<path d="M19.7315 36.1508C19.3725 36.6588 18.6095 38.0067 19.8175 38.1957C19.9617 38.2119 20.1078 38.1971 20.2458 38.152C20.3838 38.107 20.5106 38.0329 20.6175 37.9348C20.8122 37.7461 20.9681 37.5211 21.0765 37.2726C21.4552 36.4646 21.7773 35.6314 22.0405 34.7787C22.2715 34.1987 22.4024 33.5835 22.4275 32.9597C22.4275 32.9597 20.5285 35.0208 19.7315 36.1508Z" fill="#70AFED" stroke="#70AFED" stroke-width="0.09" stroke-miterlimit="10"/>
<path d="M25.0255 31.9387C24.6665 32.4467 23.9035 33.7958 25.1115 33.9848C25.2559 34.0005 25.4019 33.9853 25.5398 33.9401C25.6778 33.8949 25.8045 33.8209 25.9115 33.7228C26.1064 33.5347 26.2624 33.31 26.3706 33.0617C26.7495 32.2535 27.0716 31.4199 27.3346 30.5668C27.5661 29.9869 27.697 29.3717 27.7216 28.7477C27.7216 28.7477 25.8175 30.8097 25.0255 31.9387Z" fill="#70AFED" stroke="#70AFED" stroke-width="0.09" stroke-miterlimit="10"/>
<path d="M16.7396 27.9406C16.3016 29.3186 15.7716 30.9307 15.3886 32.3407C15.3848 32.3552 15.3865 32.3705 15.3936 32.3837C15.4007 32.3969 15.4124 32.407 15.4266 32.4118C15.8717 32.5577 16.3269 32.6705 16.7886 32.7497C16.7972 32.7511 16.8054 32.7545 16.8124 32.7597C16.8195 32.7648 16.8252 32.7717 16.8292 32.7795C16.8332 32.7872 16.8353 32.7959 16.8354 32.8046C16.8354 32.8133 16.8334 32.8219 16.8296 32.8298C16.2962 33.9258 15.8106 35.0438 15.3726 36.1838C15.3674 36.1961 15.3666 36.2097 15.3704 36.2226C15.3742 36.2354 15.3823 36.2468 15.3934 36.2543C15.4044 36.2619 15.4178 36.2653 15.4311 36.2641C15.4445 36.2629 15.457 36.2571 15.4666 36.2477C17.1948 34.6824 18.7902 32.9765 20.2366 31.1476C20.2416 31.1405 20.245 31.1325 20.2466 31.1239C20.2481 31.1154 20.2477 31.1065 20.2454 31.0981C20.2431 31.0896 20.2389 31.0817 20.2333 31.0751C20.2276 31.0685 20.2205 31.0633 20.2126 31.0597C19.8206 30.8857 19.4346 30.7158 19.1296 30.5878C19.122 30.5848 19.1153 30.5799 19.1099 30.5739C19.1044 30.5679 19.1004 30.5607 19.0981 30.5529C19.0958 30.5451 19.0952 30.537 19.0965 30.529C19.0978 30.521 19.1009 30.5134 19.1056 30.5068C19.5056 29.8568 19.7676 29.1797 20.1696 28.5207C20.1747 28.513 20.1778 28.5042 20.1787 28.495C20.1796 28.4859 20.1782 28.4767 20.1746 28.4682C20.171 28.4597 20.1654 28.452 20.1583 28.4462C20.1511 28.4404 20.1427 28.4365 20.1336 28.4347C18.9846 28.2347 17.1066 27.9468 16.8006 27.9008C16.7873 27.8986 16.7736 27.9014 16.7623 27.9089C16.751 27.9163 16.7429 27.9275 16.7396 27.9406Z" fill="#F5D83C" stroke="#F5D83C" stroke-width="0.18" stroke-miterlimit="10"/>
</svg>
