<svg width="41" height="41" viewBox="0 0 41 41" fill="none" xmlns="http://www.w3.org/2000/svg">
<path d="M16.9115 32.3157C15.8365 34.2067 15.1195 36.2898 16.9615 36.6248C17.2225 36.6553 17.4871 36.6227 17.7328 36.5295C17.9786 36.4364 18.1983 36.2857 18.3736 36.0898C18.7238 35.6924 18.9977 35.2337 19.1815 34.7368C19.853 33.0735 20.4207 31.3702 20.8816 29.6367C21.2912 28.4362 21.5207 27.1816 21.5625 25.9138C21.5625 26.1438 20.8875 26.7767 20.7545 26.9497C20.2795 27.5667 19.7956 28.1768 19.3296 28.8008C18.4462 29.9173 17.6384 31.0915 16.9115 32.3157Z" fill="#70AFED" stroke="#70AFED" stroke-width="0.092" stroke-miterlimit="10"/>
<path d="M13.7625 28.4758C13.3985 28.9998 12.6215 30.3919 13.8505 30.5869C13.998 30.6035 14.1472 30.5879 14.2881 30.5413C14.429 30.4946 14.5581 30.4182 14.6665 30.3169C14.8645 30.1219 15.0228 29.8901 15.1325 29.6348C15.5179 28.8 15.8454 27.9396 16.1125 27.0598C16.348 26.4606 16.4812 25.8262 16.5066 25.1829C16.5066 25.1829 14.5735 27.3098 13.7625 28.4758Z" fill="#70AFED" stroke="#70AFED" stroke-width="0.092" stroke-miterlimit="10"/>
<path d="M31.4304 12.6426C31.7418 10.8556 31.4038 9.01615 30.4774 7.4566C29.8105 6.31353 28.8493 5.37018 27.6939 4.72491C26.5385 4.07964 25.2311 3.75614 23.9081 3.7879C22.5851 3.81966 21.2948 4.2056 20.1717 4.90557C19.0485 5.60555 18.1337 6.59388 17.5224 7.76764C16.7977 7.26671 15.9183 7.04016 15.0417 7.12848C14.1652 7.21679 13.3487 7.61414 12.7384 8.24957C12.1442 8.8677 11.7736 9.6667 11.6854 10.5196C10.5711 10.6057 9.50383 11.0052 8.60667 11.6717C7.70951 12.3382 7.01901 13.2447 6.61479 14.2867C6.21056 15.3287 6.10904 16.4637 6.322 17.5608C6.53497 18.658 7.05371 19.6725 7.8184 20.4876C8.34104 21.0489 8.97076 21.4999 9.67045 21.814C10.3701 22.1281 11.1257 22.2992 11.8924 22.3167H30.4644C31.6603 22.2895 32.8049 21.8256 33.6825 21.0128C34.5601 20.1999 35.11 19.0944 35.2287 17.9041C35.3473 16.7138 35.0265 15.5212 34.3267 14.5511C33.6269 13.581 32.5964 12.9003 31.4294 12.6375L31.4304 12.6426Z" fill="#E6E6E6" stroke="#E6E6E6" stroke-width="0.37" stroke-miterlimit="10"/>
</svg>
