<svg width="41" height="41" viewBox="0 0 41 41" fill="none" xmlns="http://www.w3.org/2000/svg">
<path d="M17.9947 32.7727C16.9197 34.6647 16.2026 36.7468 18.0446 37.0818C18.3057 37.1128 18.5704 37.0805 18.8162 36.9873C19.062 36.8942 19.2817 36.7431 19.4566 36.5469C19.8069 36.1494 20.0808 35.6907 20.2647 35.1939C20.9357 33.5304 21.5033 31.8271 21.9646 30.0938C22.3733 28.8933 22.6028 27.6393 22.6457 26.3719C22.6457 26.6009 21.9706 27.2338 21.8366 27.4068C21.3616 28.0238 20.8787 28.6348 20.4117 29.2578C19.5293 30.3749 18.7218 31.549 17.9947 32.7727Z" fill="#70AFED" stroke="#70AFED" stroke-width="0.092" stroke-miterlimit="10"/>
<path d="M25.2186 28.4329C24.8536 28.9579 24.0776 30.3487 25.3056 30.5437C25.4531 30.5604 25.6024 30.5449 25.7433 30.4983C25.8842 30.4517 26.0132 30.3753 26.1216 30.274C26.3202 30.0791 26.4788 29.8474 26.5886 29.5918C26.9738 28.7569 27.3012 27.8966 27.5686 27.0169C27.8033 26.4175 27.9362 25.7831 27.9616 25.1399C27.9616 25.1399 26.0326 27.2679 25.2186 28.4329Z" fill="#70AFED" stroke="#70AFED" stroke-width="0.092" stroke-miterlimit="10"/>
<path d="M31.4516 12.7249C31.7621 10.9379 31.4242 9.09871 30.4987 7.53885C30.0016 6.68899 29.3403 5.94674 28.5532 5.35526C27.7662 4.76377 26.8692 4.33483 25.9146 4.09378C25.3237 3.94327 24.7164 3.86696 24.1066 3.86673C22.7536 3.87029 21.4273 4.24324 20.2707 4.94534C19.1141 5.64744 18.1712 6.65216 17.5436 7.85086C16.8192 7.34942 15.9397 7.12234 15.0631 7.21048C14.1864 7.29862 13.3698 7.69618 12.7597 8.33182C12.1654 8.94995 11.7948 9.74895 11.7066 10.6018C10.5916 10.6875 9.52357 11.0869 8.6258 11.7537C7.72804 12.4205 7.03718 13.3275 6.63294 14.3701C6.22871 15.4128 6.12762 16.5486 6.34132 17.6463C6.55501 18.744 7.07478 19.7589 7.84065 20.5738C8.36325 21.1351 8.99294 21.5863 9.69264 21.9004C10.3923 22.2145 11.1478 22.3854 11.9146 22.4029H30.4866C31.6832 22.3766 32.8288 21.9133 33.7073 21.1004C34.5857 20.2874 35.1362 19.181 35.255 17.99C35.3737 16.799 35.0524 15.6059 34.3518 14.6355C33.6511 13.6652 32.6195 12.9849 31.4516 12.7229V12.7249Z" fill="#E6E6E6" stroke="#E6E6E6" stroke-width="0.37" stroke-miterlimit="10"/>
<path d="M13.0397 30.6867C12.8541 30.6838 12.6706 30.7258 12.5049 30.8093C12.3391 30.8927 12.196 31.015 12.0877 31.1657C11.9074 31.3969 11.7899 31.6709 11.7467 31.9609C11.6355 32.3867 11.6678 32.8373 11.8387 33.2428C12.0237 33.5552 12.313 33.792 12.6556 33.912C12.9982 34.032 13.3722 34.0275 13.7117 33.8989C13.9598 33.8096 14.1829 33.6623 14.3625 33.4692C14.542 33.2761 14.6727 33.0427 14.7437 32.7887C14.792 32.5534 14.7911 32.3106 14.741 32.0756C14.6908 31.8407 14.5926 31.6186 14.4524 31.4235C14.3123 31.2284 14.1332 31.0646 13.9266 30.9421C13.7199 30.8196 13.4901 30.7412 13.2517 30.7118C13.1817 30.6985 13.1108 30.69 13.0397 30.6867Z" fill="#6FD1EF" stroke="#6FD1EF" stroke-width="0.177" stroke-miterlimit="10"/>
<path d="M15.7437 30.3628C16.5437 28.7278 17.7606 26.4139 18.5646 24.7779" stroke="#70AFED" stroke-width="0.25" stroke-miterlimit="10"/>
<path d="M14.0857 28.7569C14.4777 27.8169 15.0977 26.573 15.4537 25.618" stroke="#70AFED" stroke-width="0.25" stroke-miterlimit="10"/>
</svg>
