<svg width="41" height="41" viewBox="0 0 41 41" fill="none" xmlns="http://www.w3.org/2000/svg">
<path d="M37.88 26.2987C36.289 28.6397 33.492 29.3917 31.452 27.8497C29.59 26.4427 27.977 26.2898 26.02 27.6078C25.1334 28.2839 24.0348 28.6218 22.9215 28.5611C21.8081 28.5005 20.7528 28.0452 19.9449 27.2767C19.379 26.7502 18.6368 26.4542 17.8639 26.4466C17.0909 26.439 16.3431 26.7204 15.7669 27.2357C13.0779 29.0977 11.681 29.0996 9.08396 27.1556C8.52837 26.6737 7.81697 26.4096 7.08152 26.412C6.34606 26.4143 5.6364 26.6831 5.08396 27.1686C4.73396 27.4146 4.27291 27.8806 3.93991 27.2376C3.71891 26.8116 4.20694 26.5567 4.51694 26.3167C5.24162 25.7153 6.1531 25.3849 7.09482 25.3822C8.03654 25.3794 8.94979 25.7044 9.67795 26.3016C10.3795 26.9798 11.3062 27.376 12.2812 27.4144C13.2562 27.4528 14.2113 27.1306 14.964 26.5096C17.039 25.1096 18.9639 25.0147 20.9699 26.6937C21.5622 27.2026 22.3125 27.4907 23.0931 27.5089C23.8737 27.5271 24.6365 27.2742 25.2519 26.7936C27.5769 25.1716 29.683 25.0116 31.972 26.8546C33.167 27.8166 34.6029 27.5237 35.9439 26.9027C36.5059 26.6367 36.93 25.9607 37.88 26.2987Z" fill="#E6E6E6" stroke="#E6E6E6" stroke-width="0.399" stroke-miterlimit="10"/>
<path d="M37.7769 12.2167C37.5069 12.7809 37.1168 13.2792 36.634 13.6767C36.1511 14.0742 35.587 14.3614 34.9815 14.518C34.376 14.6746 33.7435 14.697 33.1285 14.5834C32.5134 14.4699 31.9307 14.2233 31.421 13.8608C30.6945 13.1737 29.7428 12.7745 28.7436 12.7377C27.7444 12.7009 26.7659 13.0291 25.9909 13.6608C25.1233 14.3602 24.0288 14.7159 22.9158 14.6606C21.8028 14.6053 20.7489 14.1427 19.9549 13.3608C19.4024 12.8626 18.6893 12.5799 17.9456 12.5639C17.2019 12.5479 16.4773 12.7999 15.904 13.2739C13.537 14.8369 11.2899 15.0846 8.95489 13.1786C7.78989 12.2276 6.46494 12.5136 5.20794 13.1786C4.82894 13.3786 4.32298 13.9057 3.99798 13.3627C3.62298 12.7377 4.33192 12.4578 4.75592 12.2038C6.44392 11.1948 8.1659 10.9959 9.7409 12.3679C10.4106 13.0327 11.3037 13.4245 12.2464 13.4672C13.1891 13.5099 14.1139 13.2004 14.8409 12.5988C17.0029 11.0988 18.9979 11.0988 21.0209 12.7988C22.4869 14.0278 24.0319 13.7368 25.4279 12.7338C27.6069 11.1678 29.61 11.0178 31.728 12.8818C32.3155 13.39 33.06 13.6805 33.8365 13.7045C34.613 13.7286 35.374 13.4848 35.9919 13.0138C36.5309 12.6928 37.0029 12.1757 37.7769 12.2167Z" fill="#E6E6E6" stroke="#E6E6E6" stroke-width="0.399" stroke-miterlimit="10"/>
<path d="M37.8069 16.9666C36.3129 19.1956 33.5608 20.0146 31.6478 18.5596C29.6148 17.0136 27.9038 16.8505 25.7198 18.3245C24.9072 18.9303 23.9068 19.2297 22.895 19.1697C21.8832 19.1097 20.9251 18.6943 20.1898 17.9966C19.6485 17.4374 18.9158 17.1032 18.1386 17.0613C17.3615 17.0194 16.5972 17.2727 15.9989 17.7705C13.5229 19.5755 11.2409 19.7466 8.8259 17.5986C7.4879 16.4086 6.06289 17.2467 4.66489 17.8797C4.61974 17.9004 4.5702 17.9097 4.5206 17.907C4.471 17.9043 4.42285 17.8895 4.38022 17.864C4.33759 17.8385 4.30181 17.8032 4.27597 17.7608C4.25013 17.7183 4.23501 17.6702 4.2319 17.6206C4.1769 16.1586 7.36688 15.2315 8.83188 16.4265C11.3029 18.4415 13.5048 18.4786 15.9948 16.5786C16.6341 16.0718 17.4428 15.8282 18.2556 15.8977C19.0684 15.9672 19.824 16.3447 20.3679 16.9527C21.0349 17.6705 21.9541 18.1021 22.9325 18.1565C23.9109 18.211 24.8723 17.8841 25.6148 17.2446C27.7358 15.7446 29.6818 15.5667 31.7238 17.3997C32.9588 18.5077 34.4028 18.3156 35.8238 17.6126C36.4218 17.3176 36.9379 16.6476 37.8069 16.9666Z" fill="#E6E6E6" stroke="#E6E6E6" stroke-width="0.399" stroke-miterlimit="10"/>
<path d="M3.94385 22.5556C5.34985 20.4946 7.51185 19.9266 9.50085 21.5356C11.6819 23.2996 13.5289 23.0595 15.5889 21.5185C16.2628 20.9528 17.1227 20.657 18.0021 20.6884C18.8815 20.7198 19.7179 21.0761 20.3499 21.6884C22.2299 23.2574 24.0429 23.1095 25.9879 21.8005C28.2819 20.2565 29.2969 20.3185 31.5099 22.0515C32.0661 22.5317 32.7547 22.832 33.485 22.9131C34.2153 22.9941 34.9529 22.8521 35.6008 22.5056C36.2858 22.1916 36.8589 21.5484 37.7849 21.5644C37.5326 22.1178 37.1625 22.6096 36.7004 23.0051C36.2384 23.4006 35.6956 23.6905 35.11 23.8545C34.5243 24.0184 33.9099 24.0524 33.3097 23.9543C32.7095 23.8562 32.1379 23.6285 31.6349 23.2866C29.5189 21.6096 27.7769 21.5285 25.5829 23.1755C24.8474 23.7217 23.948 24.0015 23.0325 23.969C22.1169 23.9364 21.2398 23.5936 20.5449 22.9965C18.6709 21.5085 17.0649 21.6075 15.1449 22.9565C14.38 23.5703 13.4296 23.9069 12.4489 23.9111C11.4681 23.9153 10.515 23.5867 9.74487 22.9795C8.11787 21.7165 6.57586 21.4306 4.82886 22.5996C4.76965 22.6583 4.69883 22.704 4.62097 22.7339C4.54311 22.7637 4.45998 22.7768 4.37671 22.7727C4.29344 22.7685 4.21197 22.7471 4.13745 22.7097C4.06293 22.6723 3.99694 22.6199 3.94385 22.5556Z" fill="#E6E6E6" stroke="#E6E6E6" stroke-width="0.399" stroke-miterlimit="10"/>
</svg>
