<svg width="41" height="41" viewBox="0 0 41 41" fill="none" xmlns="http://www.w3.org/2000/svg">
<path d="M24.2856 26.6658C24.232 26.6717 24.1826 26.6975 24.1471 26.738C24.1116 26.7786 24.0925 26.8309 24.0936 26.8848V28.0388L23.1545 27.2549C23.1324 27.2361 23.1068 27.2219 23.0792 27.2131C23.0515 27.2044 23.0224 27.2013 22.9935 27.2039C22.9506 27.2078 22.9098 27.2244 22.8765 27.2517C22.8431 27.279 22.8186 27.3156 22.8063 27.3569C22.7939 27.3982 22.7942 27.4423 22.8071 27.4834C22.8199 27.5245 22.8448 27.561 22.8785 27.5879L24.0936 28.6018V31.0388L21.9935 29.8389L21.7216 28.2529C21.7116 28.1987 21.6813 28.1503 21.6369 28.1177C21.5925 28.0851 21.5372 28.0706 21.4825 28.0774C21.4278 28.0842 21.3778 28.1116 21.3427 28.1541C21.3076 28.1965 21.29 28.2509 21.2936 28.3059V28.3269L21.5065 29.5627L20.4326 28.9539C20.3951 28.9309 20.3514 28.92 20.3076 28.9229C20.2509 28.9267 20.198 28.9529 20.1605 28.9956C20.123 29.0383 20.104 29.0942 20.1075 29.1509C20.1094 29.1873 20.1206 29.2224 20.1401 29.2532C20.1595 29.284 20.1866 29.3095 20.2186 29.3269L21.2556 29.9158L20.1415 30.3269C20.1145 30.3351 20.0894 30.3485 20.0675 30.3665C20.0457 30.3844 20.0275 30.4065 20.0142 30.4314C20.0009 30.4563 19.9926 30.4836 19.9898 30.5117C19.987 30.5399 19.9898 30.5682 19.998 30.5952C20.0063 30.6223 20.0197 30.6476 20.0377 30.6694C20.0556 30.6913 20.0777 30.7093 20.1026 30.7227C20.1275 30.736 20.1548 30.7443 20.183 30.7471C20.2111 30.7498 20.2395 30.747 20.2665 30.7388L20.2895 30.7307L21.7476 30.1958L23.8746 31.4038L21.7476 32.6128L20.2895 32.0737C20.2552 32.0604 20.2181 32.056 20.1816 32.0608C20.1334 32.0672 20.0888 32.0898 20.0551 32.1248C20.0213 32.1597 20.0005 32.2051 19.9958 32.2534C19.9912 32.3018 20.0031 32.3504 20.0295 32.3911C20.056 32.4319 20.0955 32.4624 20.1415 32.4778L21.2556 32.8889L20.2186 33.4778C20.1703 33.5071 20.1355 33.5542 20.1215 33.6089C20.1075 33.6636 20.1154 33.7216 20.1437 33.7705C20.1719 33.8194 20.2182 33.8552 20.2725 33.8704C20.3269 33.8856 20.3851 33.879 20.4346 33.8518L21.5115 33.2388L21.2955 34.4778C21.2846 34.5333 21.2959 34.5909 21.3269 34.6382C21.3579 34.6854 21.4062 34.7187 21.4615 34.7307C21.5167 34.7428 21.5744 34.7325 21.6223 34.7024C21.6702 34.6723 21.7044 34.6248 21.7175 34.5698V34.5518L21.9896 32.9668L24.0895 31.7668V34.2048L22.8746 35.2178C22.834 35.2555 22.8093 35.3073 22.8057 35.3625C22.802 35.4178 22.8196 35.4724 22.8549 35.5151C22.8902 35.5578 22.9405 35.5855 22.9954 35.5923C23.0504 35.5991 23.1059 35.5845 23.1506 35.5518L24.0895 34.7668V35.9248C24.0872 35.9543 24.0908 35.984 24.1004 36.012C24.11 36.04 24.1252 36.0658 24.1451 36.0876C24.165 36.1095 24.1892 36.127 24.2161 36.1392C24.2431 36.1513 24.2723 36.1578 24.3019 36.1582C24.3315 36.1586 24.3608 36.153 24.3881 36.1416C24.4154 36.1302 24.44 36.1134 24.4605 36.092C24.481 36.0707 24.4969 36.0453 24.5073 36.0176C24.5176 35.9899 24.5221 35.9604 24.5206 35.9309V34.7668L25.4606 35.5518C25.5052 35.5845 25.5607 35.5991 25.6157 35.5923C25.6706 35.5855 25.7209 35.5578 25.7562 35.5151C25.7915 35.4724 25.8091 35.4178 25.8055 35.3625C25.8018 35.3073 25.7772 35.2555 25.7366 35.2178L24.5206 34.2048V31.7668L26.6205 32.9668L26.8926 34.5518C26.9 34.6084 26.9296 34.6598 26.9749 34.6946C27.0202 34.7294 27.0774 34.7447 27.134 34.7373C27.1907 34.7299 27.2421 34.7003 27.2769 34.655C27.3116 34.6097 27.327 34.5525 27.3196 34.4959V34.4778L27.1046 33.2388L28.1816 33.8518C28.2311 33.879 28.2892 33.8856 28.3436 33.8704C28.3979 33.8552 28.4442 33.8194 28.4725 33.7705C28.5007 33.7216 28.5087 33.6636 28.4947 33.6089C28.4807 33.5542 28.4458 33.5071 28.3976 33.4778L27.3605 32.8889L28.4745 32.4778C28.5241 32.4604 28.5656 32.4257 28.5912 32.3799C28.6168 32.3341 28.6248 32.2803 28.6136 32.229C28.6024 32.1777 28.5728 32.1323 28.5305 32.1013C28.4881 32.0703 28.4358 32.0559 28.3835 32.0608C28.364 32.0626 28.3449 32.0669 28.3265 32.0737L26.8685 32.6128L24.7416 31.4038L26.8685 30.1958L28.3265 30.7307C28.3796 30.7534 28.4395 30.7541 28.493 30.7327C28.5466 30.7112 28.5894 30.6693 28.6121 30.6162C28.6347 30.5632 28.6354 30.5035 28.6139 30.45C28.5925 30.3964 28.5506 30.3535 28.4976 30.3308L28.4745 30.3228L27.3605 29.9119L28.3976 29.3228C28.4241 29.3097 28.4477 29.2914 28.4668 29.2688C28.4859 29.2462 28.5003 29.22 28.5088 29.1917C28.5174 29.1633 28.5201 29.1336 28.5167 29.1042C28.5133 29.0749 28.5038 29.0464 28.489 29.0208C28.4742 28.9952 28.4543 28.9729 28.4305 28.9553C28.4067 28.9377 28.3795 28.9254 28.3507 28.9187C28.3219 28.912 28.292 28.9114 28.2629 28.9167C28.2338 28.9221 28.2061 28.9332 28.1816 28.9497L27.1075 29.5588L27.3196 28.3228C27.3249 28.295 27.3247 28.2665 27.319 28.2388C27.3133 28.2111 27.3023 28.1848 27.2864 28.1614C27.2705 28.138 27.2501 28.1178 27.2265 28.1023C27.2029 28.0868 27.1764 28.0761 27.1486 28.0708C27.1329 28.0693 27.1172 28.0693 27.1016 28.0708C27.0514 28.0725 27.0035 28.0915 26.9659 28.1248C26.9283 28.158 26.9034 28.2034 26.8956 28.2529L26.6235 29.8389L24.5236 31.0388V28.6018L25.7396 27.5879C25.7837 27.5513 25.8115 27.4985 25.8169 27.4414C25.8222 27.3843 25.8047 27.3274 25.7681 27.2832C25.7315 27.239 25.6788 27.2114 25.6217 27.2061C25.5646 27.2007 25.5077 27.2183 25.4636 27.2549L24.5236 28.0388V26.8848C24.5244 26.8565 24.5195 26.8284 24.5094 26.802C24.4993 26.7756 24.4839 26.7514 24.4644 26.731C24.4449 26.7105 24.4215 26.6942 24.3956 26.6829C24.3697 26.6715 24.3418 26.6653 24.3135 26.6648C24.3042 26.6642 24.2949 26.6645 24.2856 26.6658Z" fill="#6FD1EF" stroke="#6FD1EF" stroke-width="0.089" stroke-miterlimit="10"/>
<path d="M14.3626 26.1308C14.3314 26.1341 14.3026 26.1488 14.2819 26.1723C14.2611 26.1959 14.2499 26.2264 14.2506 26.2578V26.9277L13.7056 26.4729C13.6867 26.4568 13.6633 26.4467 13.6386 26.4438C13.6139 26.441 13.589 26.4454 13.5668 26.4568C13.5447 26.4681 13.5264 26.4858 13.5143 26.5075C13.5022 26.5292 13.4967 26.554 13.4986 26.5788C13.5001 26.5959 13.5051 26.6125 13.5131 26.6277C13.5212 26.6428 13.5322 26.656 13.5456 26.6667L14.2506 27.2549V28.6699L13.0296 27.9758L12.8717 27.0559C12.8697 27.0395 12.8645 27.0236 12.8564 27.0092C12.8483 26.9949 12.8375 26.9823 12.8245 26.9721C12.8116 26.962 12.7968 26.9544 12.7809 26.9499C12.765 26.9455 12.7485 26.9443 12.7321 26.9463C12.7158 26.9482 12.7 26.9533 12.6856 26.9614C12.6713 26.9695 12.6587 26.9804 12.6485 26.9934C12.6383 27.0063 12.6308 27.0212 12.6264 27.0371C12.6219 27.0529 12.6207 27.0693 12.6226 27.0857V27.0988L12.7456 27.8159L12.1226 27.4619C12.1009 27.449 12.0758 27.4427 12.0506 27.4438C12.0174 27.4461 11.9865 27.4614 11.9645 27.4863C11.9424 27.5112 11.931 27.5437 11.9326 27.5769C11.9343 27.5976 11.9411 27.6175 11.9525 27.635C11.9638 27.6524 11.9793 27.6668 11.9976 27.6767L12.5976 28.0188L11.9506 28.2578C11.9198 28.2682 11.8942 28.2901 11.8793 28.3191C11.8645 28.348 11.8615 28.3817 11.871 28.4128C11.8805 28.4439 11.9017 28.4701 11.9302 28.4858C11.9588 28.5015 11.9923 28.5054 12.0236 28.4968H12.0366L12.8826 28.1858L14.1176 28.8857L12.8826 29.5857L12.0366 29.2727C12.0167 29.2645 11.995 29.2619 11.9736 29.2649C11.9454 29.2684 11.9192 29.2813 11.8994 29.3017C11.8795 29.3221 11.8673 29.3488 11.8646 29.3772C11.8619 29.4055 11.8689 29.4337 11.8846 29.4575C11.9002 29.4813 11.9236 29.499 11.9506 29.5078L12.5976 29.7458L11.9976 30.0879C11.9834 30.0961 11.9709 30.1068 11.9609 30.1198C11.9509 30.1329 11.9435 30.1479 11.9392 30.1638C11.9349 30.1797 11.9339 30.1963 11.936 30.2126C11.9381 30.2289 11.9434 30.2445 11.9516 30.2588C11.9598 30.273 11.9708 30.2856 11.9838 30.2956C11.9969 30.3056 12.0117 30.3128 12.0276 30.3171C12.0435 30.3214 12.0601 30.3227 12.0764 30.3205C12.0927 30.3184 12.1084 30.3129 12.1226 30.3047L12.7476 29.9487L12.6226 30.6687C12.6191 30.6848 12.6189 30.7015 12.6218 30.7177C12.6248 30.7339 12.6309 30.7493 12.6398 30.7632C12.6487 30.777 12.6602 30.7889 12.6738 30.7983C12.6873 30.8077 12.7025 30.8144 12.7186 30.8178C12.7347 30.8213 12.7513 30.8215 12.7675 30.8186C12.7837 30.8156 12.7992 30.8097 12.813 30.8008C12.8268 30.7918 12.8388 30.7801 12.8482 30.7666C12.8575 30.753 12.8641 30.738 12.8676 30.7219V30.7119L13.0256 29.7907L14.2467 29.0969V30.5117L13.5416 31.1008C13.5288 31.1112 13.5182 31.1239 13.5104 31.1384C13.5027 31.1529 13.4978 31.1689 13.4962 31.1853C13.4946 31.2017 13.4964 31.2181 13.5012 31.2339C13.5061 31.2496 13.514 31.2642 13.5246 31.2768C13.5459 31.3025 13.5765 31.3186 13.6096 31.3217C13.6428 31.3249 13.6759 31.3148 13.7016 31.2937L14.2467 30.8388V31.5107C14.2495 31.5421 14.2639 31.5713 14.2871 31.5925C14.3103 31.6137 14.3407 31.6255 14.3721 31.6255C14.4036 31.6255 14.4339 31.6137 14.4572 31.5925C14.4804 31.5713 14.4948 31.5421 14.4976 31.5107V30.8347L15.0426 31.2898C15.0684 31.3109 15.1015 31.321 15.1347 31.3178C15.1678 31.3147 15.1984 31.2983 15.2196 31.2727C15.2302 31.2601 15.2382 31.2457 15.243 31.2299C15.2479 31.2142 15.2496 31.1975 15.248 31.1811C15.2464 31.1647 15.2416 31.149 15.2338 31.1345C15.226 31.12 15.2154 31.1073 15.2026 31.0969L14.5026 30.5078V29.0927L15.7236 29.7868L15.8826 30.7077C15.887 30.7406 15.9043 30.7706 15.9306 30.7907C15.957 30.8109 15.9903 30.8198 16.0231 30.8154C16.056 30.811 16.0858 30.7937 16.106 30.7673C16.1261 30.741 16.135 30.7077 16.1306 30.6748V30.6648L16.0056 29.9448L16.6306 30.3008C16.6594 30.3173 16.6936 30.3218 16.7257 30.3132C16.7577 30.3046 16.7851 30.2836 16.8016 30.2549C16.8182 30.2261 16.8227 30.1917 16.814 30.1596C16.8054 30.1276 16.7844 30.1003 16.7556 30.0837L16.1556 29.7417L16.8026 29.5039C16.8339 29.4924 16.8593 29.469 16.8735 29.4389C16.8878 29.4088 16.8896 29.3742 16.8786 29.3427C16.8693 29.3169 16.8516 29.2948 16.8285 29.28C16.8054 29.2652 16.778 29.2584 16.7506 29.2607C16.739 29.2617 16.7275 29.2645 16.7166 29.2688L15.8706 29.5818L14.6356 28.8818L15.8706 28.1819L16.7166 28.4929C16.7471 28.5062 16.7816 28.5065 16.8126 28.4944C16.8435 28.4822 16.8683 28.4582 16.8816 28.4277C16.8949 28.3972 16.8955 28.3627 16.8833 28.3318C16.8711 28.3008 16.8472 28.2759 16.8167 28.2627H16.8037L16.1566 28.0239L16.7566 27.6819C16.7819 27.6684 16.8019 27.6465 16.8131 27.6201C16.8242 27.5937 16.826 27.5641 16.818 27.5366C16.81 27.509 16.7928 27.4851 16.7692 27.4687C16.7457 27.4523 16.7172 27.4446 16.6886 27.4467C16.6685 27.4486 16.6491 27.4548 16.6316 27.4648L16.0086 27.8188L16.1316 27.1018C16.1352 27.0833 16.1347 27.0643 16.1299 27.0461C16.1251 27.0279 16.1163 27.0109 16.1041 26.9966C16.0919 26.9822 16.0766 26.9709 16.0594 26.9633C16.0422 26.9558 16.0235 26.9522 16.0046 26.9529C15.9755 26.9537 15.9476 26.9647 15.9258 26.9841C15.9041 27.0035 15.8898 27.03 15.8856 27.0588L15.7266 27.9787L14.5056 28.6728V27.2539L15.2056 26.6657C15.2196 26.6557 15.2314 26.643 15.2402 26.6281C15.249 26.6133 15.2547 26.5969 15.2569 26.5798C15.2591 26.5627 15.2578 26.5453 15.253 26.5288C15.2482 26.5122 15.2401 26.4967 15.2291 26.4834C15.2182 26.4701 15.2046 26.4592 15.1893 26.4514C15.1739 26.4435 15.1571 26.4388 15.1399 26.4377C15.1227 26.4366 15.1055 26.4392 15.0892 26.445C15.073 26.4509 15.0582 26.4601 15.0456 26.4719L14.5006 26.9267V26.2568C14.5012 26.2236 14.4886 26.1914 14.4655 26.1674C14.4425 26.1435 14.4109 26.1297 14.3776 26.1289L14.3626 26.1308Z" fill="#6FD1EF" stroke="#6FD1EF" stroke-width="0.053" stroke-miterlimit="10"/>
<path d="M31.5146 12.7248C31.8252 10.9377 31.4869 9.09831 30.5606 7.53874C29.8935 6.39595 28.9322 5.45304 27.7769 4.80802C26.6215 4.163 25.3143 3.83939 23.9915 3.87125C22.6686 3.90312 21.3785 4.28928 20.2556 4.98917C19.1326 5.68907 18.2178 6.67718 17.6066 7.85075C16.8817 7.35002 16.0022 7.12347 15.1256 7.21159C14.249 7.29971 13.4323 7.69671 12.8215 8.3317C12.2281 8.95036 11.8576 9.74908 11.7686 10.6017C10.6536 10.6876 9.58574 11.087 8.68812 11.7538C7.79049 12.4207 7.09974 13.3279 6.69562 14.3705C6.29151 15.4132 6.1905 16.5488 6.40424 17.6464C6.61798 18.744 7.13774 19.7588 7.90357 20.5736C8.42603 21.1352 9.05571 21.5864 9.75544 21.9006C10.4552 22.2147 11.2107 22.3855 11.9775 22.4028H30.5496C31.7462 22.3765 32.8918 21.9132 33.7702 21.1003C34.6486 20.2873 35.1992 19.1809 35.3179 17.9899C35.4366 16.7989 35.1153 15.6058 34.4147 14.6354C33.714 13.6651 32.6824 12.9848 31.5146 12.7228V12.7248Z" fill="#E6E6E6" stroke="#E6E6E6" stroke-width="0.37" stroke-miterlimit="10"/>
</svg>
