<svg width="41" height="41" viewBox="0 0 41 41" fill="none" xmlns="http://www.w3.org/2000/svg">
<path d="M18.8799 32.7648C17.7659 34.6968 17.0229 36.8227 18.9309 37.1647C19.2007 37.1965 19.4743 37.1635 19.7289 37.0685C19.9834 36.9736 20.2117 36.8196 20.3949 36.6188C20.757 36.2143 21.0408 35.7459 21.2319 35.2377C21.9261 33.5384 22.5132 31.7975 22.9899 30.0248C23.4136 28.8005 23.6515 27.5196 23.6959 26.2248C23.6959 26.4598 22.9959 27.1057 22.8579 27.2827C22.3649 27.9127 21.8649 28.5358 21.3809 29.1728C20.4681 30.3131 19.6326 31.5131 18.8799 32.7648Z" fill="#70AFED"/>
<path d="M26.0189 28.0488C25.6409 28.5848 24.8369 30.0048 26.1099 30.2038C26.2622 30.2211 26.4165 30.2056 26.5622 30.1581C26.708 30.1107 26.8419 30.0323 26.9549 29.9286C27.1611 29.7298 27.3256 29.4918 27.4389 29.2287C27.8376 28.3771 28.1771 27.4991 28.4549 26.6008C28.6983 25.9895 28.8359 25.3412 28.8619 24.6838C28.8619 24.6838 26.8599 26.8588 26.0189 28.0488Z" fill="#70AFED" stroke="#70AFED" stroke-width="0.15" stroke-miterlimit="10"/>
<path d="M31.8108 13.0869C32.1245 11.2797 31.7849 9.41983 30.8526 7.84027C29.9203 6.26072 28.4563 5.06447 26.7226 4.46576C24.9889 3.86705 23.0987 3.90504 21.3904 4.57269C19.682 5.24035 18.2671 6.49418 17.3988 8.1098C16.6459 7.5974 15.737 7.36576 14.8307 7.45551C13.9245 7.54525 13.0785 7.95066 12.4408 8.60077C11.8271 9.22899 11.4429 10.0454 11.3498 10.9186C9.84322 11.0175 8.4275 11.6744 7.37909 12.7609C6.33068 13.8474 5.72483 15.2857 5.67981 16.7949C5.66094 17.5867 5.79821 18.3745 6.0838 19.1132C6.3694 19.852 6.7977 20.5271 7.34427 21.1003C7.89084 21.6735 8.54499 22.1336 9.26932 22.454C9.99365 22.7745 10.774 22.9489 11.5658 22.9677H30.8108C32.0471 22.9667 33.239 22.507 34.1558 21.6777C35.0726 20.8483 35.649 19.7084 35.7735 18.4785C35.8979 17.2485 35.5616 16.0159 34.8295 15.0197C34.0975 14.0235 33.0218 13.3355 31.8108 13.0869Z" fill="#E6E6E6" stroke="#E6E6E6" stroke-width="0.5" stroke-miterlimit="10"/>
<path d="M15.7819 25.2559C15.7536 25.2603 15.7279 25.2748 15.7095 25.2967C15.6911 25.3186 15.6813 25.3462 15.6819 25.3748V26.0059L15.1699 25.5779C15.1576 25.5676 15.1434 25.5598 15.1282 25.555C15.1129 25.5502 15.0968 25.5484 15.0809 25.5499C15.0499 25.5529 15.0214 25.5681 15.0015 25.5921C14.9817 25.6161 14.9721 25.6468 14.9749 25.6778C14.976 25.6938 14.9804 25.7096 14.988 25.7237C14.9956 25.7378 15.0061 25.7501 15.0189 25.7598L15.6819 26.3128V27.6429L14.5339 26.9908L14.3849 26.1248C14.3804 26.0951 14.3648 26.0682 14.3412 26.0496C14.3176 26.031 14.2878 26.0223 14.2579 26.025C14.2425 26.0263 14.2275 26.0307 14.2138 26.0379C14.2002 26.0451 14.188 26.0548 14.1782 26.0667C14.1683 26.0786 14.1609 26.0925 14.1564 26.1072C14.1519 26.122 14.1504 26.1375 14.1519 26.1529V26.1649L14.2679 26.8389L13.6819 26.5069C13.6635 26.4958 13.6425 26.4899 13.6211 26.4898C13.5996 26.4897 13.5786 26.4954 13.5602 26.5064C13.5418 26.5174 13.5267 26.5334 13.5166 26.5523C13.5065 26.5712 13.5018 26.5924 13.5029 26.6138C13.5038 26.6343 13.5099 26.6542 13.5206 26.6717C13.5313 26.6892 13.5461 26.7037 13.5639 26.7139L14.1299 27.035L13.5219 27.2589C13.4945 27.2699 13.4723 27.2906 13.4596 27.3172C13.4469 27.3438 13.4445 27.3742 13.453 27.4024C13.4616 27.4306 13.4803 27.4547 13.5056 27.4698C13.531 27.4849 13.561 27.4899 13.5899 27.4839H13.6029L14.4029 27.192L15.5639 27.8519L14.4029 28.5108L13.6029 28.2169C13.5838 28.2094 13.5631 28.2071 13.5428 28.21C13.5225 28.213 13.5034 28.2211 13.4872 28.2337C13.4711 28.2463 13.4585 28.2631 13.4507 28.282C13.443 28.301 13.4402 28.3215 13.4429 28.3419C13.4453 28.3643 13.454 28.3855 13.468 28.4031C13.482 28.4208 13.5006 28.4344 13.5219 28.442L14.1299 28.6658L13.5639 28.9879C13.5429 29.0059 13.529 29.0309 13.5246 29.0582C13.5201 29.0854 13.5253 29.1132 13.5394 29.137C13.5534 29.1608 13.5754 29.179 13.6014 29.1883C13.6274 29.1976 13.6559 29.1974 13.6819 29.1878L14.2699 28.8528L14.1519 29.5289C14.1473 29.5444 14.1459 29.5609 14.1479 29.577C14.1499 29.5931 14.1552 29.6084 14.1635 29.6224C14.1718 29.6363 14.1829 29.6485 14.196 29.658C14.2092 29.6675 14.2241 29.6741 14.24 29.6776C14.2558 29.681 14.2722 29.6812 14.2881 29.678C14.304 29.6749 14.3191 29.6685 14.3324 29.6592C14.3457 29.65 14.357 29.6379 14.3655 29.6241C14.374 29.6103 14.3796 29.595 14.3819 29.5789V29.5699L14.5309 28.7039L15.6789 28.0518V29.3819L15.0159 29.9359C14.9917 29.9558 14.9765 29.9846 14.9735 30.0157C14.9705 30.0468 14.98 30.0777 14.9999 30.1019C15.0201 30.1258 15.0489 30.1409 15.0801 30.1439C15.1113 30.1469 15.1425 30.1377 15.1669 30.118L15.6789 29.6888V30.3218C15.6789 30.3531 15.6913 30.3832 15.7134 30.4053C15.7356 30.4275 15.7656 30.4398 15.7969 30.4398C15.8282 30.4398 15.8582 30.4275 15.8803 30.4053C15.9024 30.3832 15.9149 30.3531 15.9149 30.3218V29.6859L16.4269 30.1148C16.4513 30.1345 16.4824 30.1439 16.5136 30.1409C16.5448 30.1379 16.5736 30.1229 16.5939 30.0989C16.6137 30.0748 16.6232 30.0436 16.6202 30.0125C16.6172 29.9814 16.602 29.9528 16.5779 29.9329L15.9149 29.379V28.0489L17.0629 28.701L17.2119 29.567C17.2126 29.5833 17.2167 29.5994 17.2239 29.6141C17.2311 29.6288 17.2414 29.6416 17.2539 29.6522C17.2665 29.6627 17.2811 29.6705 17.2968 29.6751C17.3126 29.6797 17.3291 29.6809 17.3453 29.6788C17.3616 29.6766 17.3772 29.6712 17.3912 29.6627C17.4052 29.6541 17.4172 29.6427 17.4266 29.6292C17.436 29.6158 17.4424 29.6006 17.4456 29.5845C17.4487 29.5685 17.4485 29.5519 17.4449 29.5359V29.5259L17.3269 28.8499L17.9149 29.1849C17.9421 29.2001 17.9742 29.2041 18.0044 29.1959C18.0345 29.1876 18.0602 29.1679 18.0759 29.1409C18.0836 29.1276 18.0886 29.1127 18.0906 29.0975C18.0926 29.0822 18.0915 29.0669 18.0875 29.0521C18.0836 29.0372 18.0767 29.0232 18.0673 29.011C18.0579 28.9989 18.0462 28.9884 18.0329 28.9808L17.4669 28.659L18.0749 28.4349C18.1041 28.424 18.128 28.4021 18.1413 28.3738C18.1545 28.3456 18.1562 28.3134 18.1459 28.284C18.1371 28.2596 18.1204 28.2386 18.0985 28.2247C18.0766 28.2107 18.0507 28.2044 18.0249 28.2068C18.0142 28.2077 18.0038 28.2101 17.9939 28.2139L17.1939 28.5079L16.0329 27.8489L17.1939 27.1888L17.9939 27.4808C18.0083 27.4885 18.0241 27.4932 18.0404 27.4944C18.0567 27.4957 18.0731 27.4935 18.0885 27.4881C18.1039 27.4827 18.118 27.4743 18.1299 27.4632C18.1419 27.4521 18.1514 27.4384 18.1578 27.4234C18.1643 27.4084 18.1676 27.3924 18.1674 27.376C18.1673 27.3597 18.1638 27.3436 18.1572 27.3287C18.1505 27.3138 18.1408 27.3003 18.1287 27.2894C18.1166 27.2784 18.1024 27.2701 18.0869 27.265H18.0749L17.4669 27.0408L18.0329 26.7198C18.0563 26.7068 18.0747 26.6863 18.0849 26.6614C18.0951 26.6366 18.0966 26.6091 18.089 26.5833C18.0814 26.5576 18.0653 26.5352 18.0433 26.5198C18.0213 26.5045 17.9946 26.497 17.9679 26.4988C17.9491 26.5 17.9309 26.506 17.9149 26.5159L17.3289 26.848L17.4449 26.1739C17.4478 26.1587 17.4476 26.1429 17.4445 26.1277C17.4413 26.1126 17.4352 26.0983 17.4265 26.0855C17.4177 26.0727 17.4066 26.0615 17.3936 26.053C17.3806 26.0445 17.3661 26.0388 17.3509 26.0359C17.3422 26.0349 17.3335 26.0349 17.3249 26.0359C17.2975 26.037 17.2713 26.0475 17.2509 26.0657C17.2305 26.084 17.217 26.1087 17.2129 26.1358L17.0639 27.0018L15.9159 27.6539V26.3238L16.5789 25.7708C16.5908 25.7609 16.6007 25.7489 16.6079 25.7352C16.6152 25.7214 16.6196 25.7062 16.6211 25.6907C16.6225 25.6753 16.6209 25.6597 16.6163 25.6448C16.6117 25.63 16.6043 25.6163 16.5944 25.6043C16.5844 25.5924 16.5723 25.5825 16.5586 25.5753C16.5448 25.568 16.5298 25.5635 16.5143 25.5621C16.4989 25.5606 16.4833 25.5624 16.4684 25.567C16.4536 25.5715 16.4398 25.579 16.4279 25.5889L15.9159 26.0169V25.3858C15.9161 25.3548 15.9043 25.325 15.8828 25.3026C15.8613 25.2801 15.8319 25.267 15.8009 25.2659L15.7819 25.2559Z" fill="#6FD1EF" stroke="#6FD1EF" stroke-width="0.05" stroke-miterlimit="10"/>
</svg>
