<svg width="41" height="41" viewBox="0 0 41 41" fill="none" xmlns="http://www.w3.org/2000/svg">
<path d="M13.6937 24.0999C13.0547 26.1099 12.2817 28.4607 11.7227 30.5227C11.7176 30.5434 11.7206 30.5652 11.731 30.5837C11.7414 30.6023 11.7584 30.6163 11.7787 30.6228C12.4276 30.8361 13.0914 31.0008 13.7647 31.1157C13.7773 31.1178 13.7892 31.1231 13.7995 31.1306C13.8098 31.1382 13.8182 31.1478 13.824 31.1592C13.8299 31.1705 13.833 31.1833 13.8331 31.196C13.8332 31.2088 13.8303 31.2214 13.8247 31.2329C13.046 32.8329 12.3377 34.4628 11.6997 36.1228C11.6923 36.1408 11.6914 36.1608 11.6969 36.1794C11.7025 36.1981 11.7143 36.2141 11.7303 36.2251C11.7463 36.2361 11.7656 36.2413 11.7849 36.2397C11.8043 36.2382 11.8226 36.2301 11.8367 36.2168C14.3559 33.9353 16.6818 31.4493 18.7907 28.7839C18.7982 28.7736 18.8034 28.7616 18.8057 28.749C18.8081 28.7365 18.8076 28.7235 18.8044 28.7112C18.8011 28.6988 18.7951 28.6875 18.7869 28.6777C18.7786 28.668 18.7683 28.6601 18.7567 28.6548C18.1857 28.4018 17.6217 28.1548 17.1767 27.9678C17.1659 27.963 17.1562 27.9561 17.1484 27.9473C17.1406 27.9384 17.1348 27.9278 17.1315 27.9165C17.1281 27.9052 17.1273 27.8933 17.1291 27.8816C17.1309 27.8699 17.1352 27.8587 17.1417 27.8489C17.7237 26.9009 18.1077 25.9137 18.6947 24.9487C18.7022 24.9375 18.7068 24.9246 18.7081 24.9111C18.7093 24.8977 18.7073 24.8841 18.702 24.8716C18.6968 24.8591 18.6885 24.8481 18.678 24.8396C18.6675 24.8311 18.655 24.8253 18.6417 24.8228C16.9667 24.5288 14.2277 24.1129 13.7817 24.0449C13.7628 24.0415 13.7433 24.045 13.727 24.0552C13.7107 24.0654 13.6989 24.0814 13.6937 24.0999Z" fill="#F5D83C" stroke="#F5D83C" stroke-width="0.25" stroke-miterlimit="10"/>
<path d="M19.1297 32.7648C18.0157 34.6968 17.2726 36.8227 19.1806 37.1647C19.4505 37.1965 19.724 37.1635 19.9786 37.0685C20.2332 36.9736 20.4615 36.8196 20.6446 36.6188C21.0068 36.2143 21.2906 35.7459 21.4816 35.2377C22.1758 33.5384 22.763 31.7975 23.2396 30.0248C23.6633 28.8005 23.9013 27.5196 23.9456 26.2248C23.9456 26.4598 23.2456 27.1057 23.1076 27.2827C22.6146 27.9127 22.1146 28.5358 21.6306 29.1728C20.7179 30.3131 19.8824 31.5131 19.1297 32.7648Z" fill="#70AFED"/>
<path d="M26.2686 28.0488C25.8906 28.5848 25.0866 30.0048 26.3596 30.2038C26.512 30.2211 26.6662 30.2056 26.812 30.1581C26.9578 30.1107 27.0917 30.0323 27.2046 29.9286C27.4108 29.7298 27.5754 29.4918 27.6886 29.2287C28.0874 28.3771 28.4268 27.4991 28.7046 26.6008C28.9481 25.9895 29.0857 25.3412 29.1116 24.6838C29.1116 24.6838 27.1096 26.8588 26.2686 28.0488Z" fill="#70AFED" stroke="#70AFED" stroke-width="0.15" stroke-miterlimit="10"/>
<path d="M32.0606 13.0869C32.3743 11.2797 32.0346 9.41983 31.1023 7.84027C30.17 6.26072 28.706 5.06447 26.9723 4.46576C25.2386 3.86705 23.3484 3.90504 21.6401 4.57269C19.9318 5.24035 18.5168 6.49418 17.6486 8.1098C16.8957 7.5974 15.9867 7.36576 15.0805 7.45551C14.1742 7.54525 13.3283 7.95066 12.6906 8.60077C12.0769 9.22899 11.6926 10.0454 11.5996 10.9186C10.093 11.0175 8.67726 11.6744 7.62885 12.7609C6.58044 13.8474 5.97459 15.2857 5.92957 16.7949C5.9107 17.5867 6.04797 18.3745 6.33356 19.1132C6.61915 19.852 7.04746 20.5271 7.59403 21.1003C8.1406 21.6735 8.79474 22.1336 9.51908 22.454C10.2434 22.7745 11.0237 22.9489 11.8156 22.9677H31.0606C32.2968 22.9667 33.4888 22.507 34.4056 21.6777C35.3223 20.8483 35.8988 19.7084 36.0232 18.4785C36.1477 17.2485 35.8113 16.0159 35.0793 15.0197C34.3472 14.0235 33.2716 13.3355 32.0606 13.0869Z" fill="#E6E6E6" stroke="#E6E6E6" stroke-width="0.5" stroke-miterlimit="10"/>
</svg>
