<svg width="41" height="41" viewBox="0 0 41 41" fill="none" xmlns="http://www.w3.org/2000/svg">
<path d="M20.9599 4.98659C20.9172 4.99415 20.8751 5.00451 20.8339 5.01759C20.6079 5.068 20.4064 5.19534 20.2638 5.3777C20.1212 5.56007 20.0463 5.78616 20.0519 6.01759V9.0237C20.0519 9.28891 20.1572 9.54319 20.3448 9.73073C20.5323 9.91826 20.7867 10.0237 21.0519 10.0237C21.3171 10.0237 21.5714 9.91826 21.759 9.73073C21.9465 9.54319 22.0519 9.28891 22.0519 9.0237V6.01759C22.0567 5.88609 22.0355 5.75491 21.9895 5.63161C21.9435 5.50831 21.8737 5.39533 21.7839 5.29909C21.6942 5.20284 21.5863 5.1253 21.4665 5.07082C21.3467 5.01634 21.2174 4.98609 21.0859 4.98171C21.0438 4.98049 21.0017 4.98204 20.9599 4.98659ZM10.3179 9.3965C10.1265 9.41426 9.94422 9.48681 9.79298 9.60548C9.64174 9.72416 9.52788 9.88399 9.4651 10.0657C9.40231 10.2474 9.39326 10.4434 9.43897 10.6301C9.48469 10.8169 9.58326 10.9865 9.72288 11.1187L11.8229 13.2476C12.0156 13.4298 12.2718 13.5296 12.537 13.5259C12.8022 13.5222 13.0556 13.4153 13.2432 13.2278C13.4308 13.0403 13.5379 12.7872 13.5418 12.522C13.5456 12.2568 13.4459 12.0005 13.2639 11.8076L11.1349 9.70754C11.0423 9.60931 10.9307 9.53079 10.807 9.47682C10.6832 9.42286 10.5499 9.3946 10.4149 9.39357H10.3149L10.3179 9.3965ZM31.5759 9.3965C31.3454 9.4282 31.1333 9.53945 30.9759 9.71071L28.8469 11.8106C28.6559 12.0015 28.5487 12.2605 28.5487 12.5305C28.5487 12.8006 28.6559 13.0595 28.8469 13.2505C29.0378 13.4415 29.2968 13.5488 29.5669 13.5488C29.8369 13.5488 30.0959 13.4415 30.2869 13.2505L32.3869 11.1216C32.5329 10.9819 32.6331 10.8011 32.6743 10.6033C32.7156 10.4055 32.696 10.1999 32.618 10.0134C32.5401 9.82701 32.4074 9.66843 32.2376 9.55885C32.0679 9.44928 31.8689 9.39391 31.6669 9.39967H31.5729L31.5759 9.3965ZM21.0569 13.0286C19.4716 13.0284 17.9218 13.4983 16.6036 14.3789C15.2854 15.2595 14.2579 16.5113 13.6512 17.9758C13.0444 19.4404 12.8856 21.0521 13.1948 22.6069C13.5041 24.1618 14.2674 25.59 15.3884 26.711C16.5094 27.8319 17.9376 28.5953 19.4925 28.9046C21.0473 29.2138 22.659 29.055 24.1235 28.4483C25.5881 27.8415 26.8399 26.8141 27.7205 25.4959C28.6012 24.1777 29.0711 22.6278 29.0709 21.0425C29.0645 18.9185 28.2178 16.8835 26.7156 15.3819C25.2134 13.8802 23.1779 13.0341 21.0539 13.0286H21.0569ZM5.84086 20.0415C5.58657 20.0799 5.35662 20.2142 5.19825 20.4168C5.03988 20.6194 4.96513 20.8749 4.98933 21.1309C5.01352 21.3869 5.13483 21.6241 5.32835 21.7935C5.52187 21.9628 5.77292 22.0515 6.02989 22.0415H9.03486C9.30008 22.0415 9.55445 21.9363 9.74198 21.7488C9.92952 21.5613 10.0349 21.3067 10.0349 21.0415C10.0349 20.7763 9.92952 20.522 9.74198 20.3345C9.55445 20.147 9.30008 20.0415 9.03486 20.0415H6.02989C5.99659 20.0394 5.96318 20.0394 5.92988 20.0415C5.89924 20.0396 5.86851 20.0396 5.83787 20.0415H5.84086ZM32.8899 20.0415C32.7531 20.0466 32.6188 20.0796 32.4952 20.1384C32.3716 20.1973 32.2614 20.2809 32.1711 20.3838C32.0809 20.4867 32.0126 20.6069 31.9704 20.7371C31.9283 20.8673 31.9132 21.0049 31.926 21.1411C31.9388 21.2774 31.9793 21.4095 32.0449 21.5296C32.1106 21.6496 32.2001 21.7551 32.3079 21.8394C32.4158 21.9237 32.5397 21.985 32.6721 22.0198C32.8045 22.0546 32.9425 22.062 33.0779 22.0415H36.0839C36.3491 22.0415 36.6035 21.9363 36.791 21.7488C36.9785 21.5613 37.0839 21.3067 37.0839 21.0415C37.0839 20.7763 36.9785 20.522 36.791 20.3345C36.6035 20.147 36.3491 20.0415 36.0839 20.0415H33.0779C33.0466 20.0396 33.0152 20.0396 32.9839 20.0415C32.9516 20.0394 32.9192 20.0394 32.8869 20.0415H32.8899ZM29.4779 28.5257C29.4356 28.5334 29.3939 28.5438 29.3529 28.5567C29.1692 28.5894 28.9984 28.6727 28.8597 28.7974C28.721 28.9221 28.6199 29.0831 28.5679 29.2622C28.5159 29.4414 28.515 29.6315 28.5654 29.8111C28.6157 29.9906 28.7153 30.1526 28.8529 30.2786L30.9819 32.3787C31.0644 32.4812 31.1662 32.5663 31.2816 32.6294C31.397 32.6925 31.5238 32.7324 31.6546 32.7466C31.7853 32.7608 31.9176 32.7489 32.0439 32.7119C32.1701 32.675 32.2879 32.6135 32.3904 32.531C32.4929 32.4486 32.5781 32.3469 32.6412 32.2315C32.7044 32.116 32.7442 31.9892 32.7583 31.8584C32.7725 31.7276 32.7608 31.5953 32.7238 31.469C32.6868 31.3428 32.6254 31.2251 32.5429 31.1226C32.497 31.0667 32.4457 31.0154 32.3899 30.9695L30.2899 28.8406C30.1866 28.7303 30.0598 28.6448 29.9188 28.5906C29.7778 28.5364 29.6264 28.5149 29.4759 28.5276L29.4779 28.5257ZM12.4159 28.5567C12.1898 28.5794 11.9781 28.6785 11.8159 28.8377L9.71586 30.9666C9.50886 31.1331 9.37651 31.375 9.34791 31.6392C9.31931 31.9033 9.39681 32.168 9.56336 32.375C9.72992 32.582 9.97189 32.7143 10.236 32.7429C10.5002 32.7715 10.7649 32.6942 10.9719 32.5276C11.0283 32.4827 11.0796 32.4316 11.1249 32.3755L13.2539 30.2757C13.4129 30.1296 13.5204 29.9359 13.5603 29.7236C13.6001 29.5114 13.5702 29.292 13.475 29.0982C13.3797 28.9043 13.2243 28.7466 13.032 28.6485C12.8396 28.5503 12.6207 28.5169 12.4079 28.5535L12.4159 28.5567ZM20.9629 32.0315C20.9203 32.0393 20.8782 32.0497 20.8369 32.0625C20.6109 32.1129 20.4095 32.2403 20.2669 32.4226C20.1242 32.605 20.0493 32.8311 20.0549 33.0625V36.0686C20.0549 36.3338 20.1602 36.5881 20.3478 36.7757C20.5353 36.9632 20.7897 37.0686 21.0549 37.0686C21.3201 37.0686 21.5744 36.9632 21.762 36.7757C21.9495 36.5881 22.0549 36.3338 22.0549 36.0686V33.0625C22.0598 32.9309 22.0387 32.7997 21.9928 32.6763C21.9469 32.5529 21.8771 32.4399 21.7873 32.3435C21.6975 32.2472 21.5896 32.1693 21.4698 32.1148C21.3499 32.0602 21.2205 32.03 21.0889 32.0257C21.0458 32.0252 21.0027 32.0271 20.9599 32.0315H20.9629Z" fill="#FBB03B"/>
<path fill-rule="evenodd" clip-rule="evenodd" d="M21.0339 32.5707C21.0029 32.3477 21.0969 32.2456 21.2339 32.2176C21.3709 32.1896 21.5219 32.2257 21.6849 32.1927C21.7983 32.2792 21.8929 32.3877 21.963 32.5118C22.0332 32.6359 22.0773 32.7729 22.0929 32.9147C22.1509 33.0667 21.9569 33.0496 21.8029 33.0526C21.9699 33.1166 22.0949 33.2697 21.9029 33.3917C21.9029 33.5717 21.9409 33.7796 21.8029 33.8656C22.0309 34.0516 21.8379 34.5198 21.9029 34.8168C22.0096 35.1219 22.0807 35.4382 22.1149 35.7596C22.1631 35.9425 22.1684 36.1339 22.1304 36.3192C22.0924 36.5045 22.0122 36.6786 21.8959 36.8277C21.7684 36.9758 21.6056 37.0891 21.4225 37.1573C21.2395 37.2255 21.0421 37.2462 20.8489 37.2176C20.5044 37.1636 20.1929 36.9814 19.9769 36.7076C19.9579 36.4486 19.7769 36.3076 19.9979 36.0646C20.0249 35.8646 19.7749 35.8568 19.7979 35.6588C19.8589 35.4748 19.6719 35.1217 19.8979 35.0487C19.7714 34.8627 19.6879 34.6508 19.6533 34.4286C19.6187 34.2063 19.634 33.9794 19.6979 33.7638C19.3519 33.6728 19.7079 33.5126 19.4979 33.3636V33.0526C19.4963 32.897 19.5189 32.7422 19.5649 32.5936C19.6049 32.3036 19.7 32.024 19.8449 31.7696C19.9263 31.6277 20.0423 31.5088 20.1823 31.4239C20.3222 31.3391 20.4814 31.2912 20.6449 31.2848L20.5779 31.3026C20.6448 31.2988 20.7119 31.3028 20.7779 31.3146C20.9319 31.4066 20.8519 31.6376 20.7269 31.7816L20.7519 31.7757C20.6795 31.8543 20.5838 31.9074 20.4789 31.9276C20.3929 32.1276 20.0789 32.3106 20.1139 32.5416C20.1141 32.7531 20.1261 32.9645 20.1499 33.1747C20.15 33.378 20.1951 33.5787 20.2819 33.7626C20.3086 34.1971 20.3756 34.6284 20.4819 35.0506C20.5149 35.2506 20.5449 35.4597 20.5649 35.6737C20.5849 35.8877 20.5819 36.1407 20.5979 36.1937C20.5159 36.3287 20.6829 36.4206 20.6539 36.6036C20.8539 36.4216 20.8099 36.6096 20.9149 36.6166C21.0449 36.6056 21.0749 36.4537 21.3149 36.5567C21.3638 36.5026 21.3997 36.4378 21.4196 36.3675C21.4395 36.2973 21.4431 36.2235 21.4299 36.1517C21.4241 36.1233 21.4201 36.0947 21.4179 36.0658C21.4143 35.9992 21.4143 35.9322 21.4179 35.8656C21.4245 35.7379 21.4511 35.6122 21.4969 35.4928C21.0969 35.1048 21.2709 34.7437 21.1969 34.1297C21.2419 33.9057 21.2599 33.6697 21.2969 33.4127C21.3118 33.285 21.3351 33.1584 21.3669 33.0338C21.4039 32.9712 21.4325 32.9037 21.4519 32.8336C21.4016 32.8087 21.3458 32.7969 21.2897 32.7992C21.2336 32.8015 21.179 32.8179 21.1309 32.8468C21.0829 32.8798 21.0849 32.8597 21.0339 32.5707Z" fill="#FBB03B"/>
<path fill-rule="evenodd" clip-rule="evenodd" d="M12.9259 28.7376C12.9644 28.6211 12.9626 28.4951 12.9209 28.3797C12.8998 28.3206 12.8683 28.2656 12.8279 28.2176L12.4989 29.0836V29.0716V29.0516V29.0125L12.5039 28.9437C12.5099 28.9055 12.5231 28.8689 12.543 28.8358C12.5822 28.7784 12.6413 28.7378 12.7089 28.7218C12.8479 28.6818 13.0019 28.7117 13.1629 28.6717C13.2834 28.7525 13.3859 28.8575 13.4638 28.9798C13.5418 29.1022 13.5936 29.2393 13.6159 29.3827C13.6799 29.5357 13.4839 29.5236 13.3309 29.5316C13.5039 29.5666 13.6099 29.7677 13.3859 29.8187C13.3389 29.9637 13.249 30.1426 13.095 30.0916C13.125 30.3836 12.6469 30.5827 12.4789 30.8387C12.1458 31.4433 11.7234 31.9941 11.2259 32.4727L11.237 32.4608C11.1157 32.6158 10.9573 32.7376 10.7763 32.815C10.5954 32.8925 10.3978 32.923 10.2019 32.9037C9.85254 32.8653 9.53081 32.6954 9.30195 32.4286C9.27595 32.1656 9.07995 32.0347 9.30195 31.7747C9.33395 31.5747 9.08893 31.5157 9.19593 31.2747C9.28893 31.1377 9.39593 30.8526 9.56593 30.7686L9.54393 30.7877C9.5666 30.7728 9.59288 30.7643 9.61998 30.763C9.64708 30.7618 9.67402 30.7678 9.69795 30.7806C9.78195 30.4306 10.0869 29.8156 10.4769 29.7086C10.2979 29.3956 10.6629 29.5347 10.6269 29.2747L11.0629 28.8326C11.1879 28.6746 11.1939 28.4858 11.3459 28.2328C11.4519 28.0813 11.5947 27.9595 11.7609 27.8787C11.8424 27.8406 11.9295 27.8163 12.0189 27.8067C12.0628 27.8019 12.1071 27.8019 12.151 27.8067L12.2159 27.8145L12.2479 27.8216H12.2619C12.2163 27.831 12.1717 27.8451 12.1289 27.8636C12.0478 27.899 11.9767 27.9542 11.9222 28.024C11.8677 28.0939 11.8315 28.1764 11.8169 28.2638C11.8169 28.3508 11.8439 28.3708 11.8779 28.3578C11.9119 28.3448 11.9609 28.2846 12.0639 28.2166C12.1499 28.1406 12.3839 28.1328 12.2979 28.1798C12.2618 28.248 12.2112 28.3075 12.1498 28.3543C12.0883 28.4011 12.0174 28.4341 11.9419 28.4508C11.8419 28.6628 11.5779 28.8376 11.5569 29.0396C11.4199 29.5396 11.0229 29.7037 10.8979 30.1317C10.6064 30.4642 10.346 30.8227 10.1199 31.2027L10.0529 31.2935L10.0139 31.3297C9.9604 31.4109 9.92394 31.5022 9.90675 31.598C9.88956 31.6937 9.89202 31.7918 9.91395 31.8866C9.83395 32.0266 10.0139 32.1117 9.99095 32.2987C10.1769 32.1087 10.1489 32.2987 10.2569 32.2987C10.3889 32.2817 10.4079 32.1267 10.6569 32.2137C10.6897 32.1672 10.7172 32.1171 10.7389 32.0645L10.7779 32.0216C10.9909 31.6142 11.3143 31.2749 11.7109 31.0426C11.7109 30.4806 12.0949 30.3427 12.4899 29.8587C12.5679 29.8127 12.7239 29.6828 12.7339 29.6908C12.7645 29.678 12.7925 29.6599 12.8169 29.6375C12.9035 29.5557 12.9602 29.4474 12.9779 29.3297C12.9267 29.3063 12.8703 29.2967 12.8143 29.3016C12.7582 29.3065 12.7043 29.3259 12.6579 29.3578C12.6249 29.3758 12.6099 29.3816 12.5939 29.3446L12.5619 29.2577L12.5359 29.1866L12.5199 29.1446L12.5109 29.1207L12.5059 29.1087V29.1016L12.806 28.1807L12.8549 28.2386C12.8904 28.2876 12.9177 28.3421 12.9359 28.3997C12.9681 28.5107 12.9646 28.6288 12.9259 28.7376Z" fill="#FBB03B"/>
<path fill-rule="evenodd" clip-rule="evenodd" d="M30.0179 28.4767C30.0067 28.3714 29.9658 28.2714 29.8999 28.1886C29.8184 28.0888 29.7044 28.0209 29.5779 27.9967L29.5199 29.0616V29.0267V28.9877L29.5319 28.9198C29.5428 28.8667 29.5701 28.8181 29.6099 28.7814C29.6497 28.7446 29.7001 28.7214 29.7539 28.7147C29.8959 28.6867 30.0479 28.7288 30.2119 28.7028C30.4249 28.8978 30.6049 29.0946 30.8029 29.2916C30.9389 29.3646 30.7929 29.4838 30.6859 29.5968C30.8519 29.5278 31.0479 29.5478 30.9999 29.7738C31.1279 29.9048 31.2999 30.0286 31.2679 30.1866C31.5619 30.1596 31.7609 30.6368 32.0179 30.8068C32.1347 30.8621 32.2474 30.9259 32.3549 30.9977C32.4872 31.0624 32.6011 31.1592 32.6862 31.2794C32.7713 31.3996 32.8248 31.5394 32.8419 31.6857C32.8635 31.8519 32.845 32.021 32.7879 32.1786C32.7309 32.3362 32.6369 32.4778 32.5139 32.5917C32.2736 32.8024 31.961 32.9117 31.6418 32.8964C31.3227 32.8811 31.0219 32.7424 30.8029 32.5096L30.8189 32.5287C30.7549 32.4767 30.7059 32.4418 30.6579 32.4098C30.5889 32.1778 30.3929 32.1987 30.4029 31.8817C30.2779 31.7207 30.0969 31.8928 29.9709 31.7328C29.8799 31.5568 29.4939 31.4387 29.5979 31.2257C29.3685 31.1807 29.152 31.0857 28.9635 30.9474C28.7751 30.8091 28.6196 30.631 28.5079 30.4257C28.1419 30.5317 28.3009 30.1408 28.0489 30.0028C27.9535 29.6954 27.9553 29.366 28.0539 29.0597C28.1028 28.7652 28.2084 28.4829 28.3649 28.2286C28.4531 28.0863 28.5764 27.9691 28.723 27.8881C28.8695 27.807 29.0344 27.7649 29.2019 27.7657L29.1019 27.7906C28.9897 27.8412 28.8938 27.9222 28.8251 28.0243C28.7563 28.1264 28.7175 28.2458 28.7129 28.3688C28.7709 28.6358 28.8929 28.5916 28.9439 28.5326C28.9759 28.4976 29.0029 28.4326 29.0579 28.3646C29.1129 28.2966 29.2099 28.2488 29.2579 28.2648L29.2959 28.2557C29.2183 28.3334 29.1182 28.3848 29.0099 28.4027C28.9099 28.5957 28.5909 28.7786 28.6169 29.0126C28.6057 29.2231 28.6165 29.4344 28.6489 29.6427C28.6574 29.7309 28.6913 29.8148 28.7465 29.8842C28.8017 29.9535 28.8758 30.0056 28.9599 30.0338C29.2881 30.3196 29.6412 30.5755 30.0149 30.7987C30.3794 31.0456 30.7163 31.3309 31.0199 31.6498C31.0924 31.7956 31.1853 31.9301 31.2959 32.0497L31.3319 32.0887C31.3534 32.142 31.3586 32.2005 31.3469 32.2567C31.5469 32.0857 31.5049 32.2706 31.6129 32.2816C31.7449 32.2816 31.7809 32.1257 32.0209 32.2357C32.0724 32.1821 32.1107 32.1173 32.1327 32.0463C32.1548 31.9753 32.16 31.9001 32.1479 31.8268C32.1246 31.7182 32.1226 31.6061 32.1419 31.4967C32.0642 31.5115 31.9873 31.531 31.9119 31.5548L31.8469 31.4967C31.5629 31.3657 31.3949 31.0838 31.0389 30.7968C30.6943 30.3806 30.3912 29.9317 30.1339 29.4567C30.0319 29.3998 29.926 29.3504 29.8169 29.3087C29.7605 29.2999 29.7028 29.3112 29.6539 29.3407C29.6189 29.3557 29.6039 29.3606 29.5909 29.3226L29.5659 29.2328L29.5459 29.1608L29.5339 29.1166L29.5269 29.0926V29.0797V29.0736L29.4829 27.9828L29.6129 27.9987C29.7201 28.0294 29.8158 28.0913 29.8879 28.1764C29.9599 28.2615 30.0052 28.3659 30.0179 28.4767Z" fill="#FBB03B"/>
<path fill-rule="evenodd" clip-rule="evenodd" d="M32.9248 20.5867C32.9188 20.5097 32.9329 20.4324 32.9658 20.3626H32.9958C33.1208 20.1626 33.4798 20.1926 33.6418 19.9956H34.4638C34.6108 19.9496 34.5928 20.1367 34.5968 20.2957C34.6658 20.1287 34.8158 20.0036 34.9418 20.1956C35.1238 20.1956 35.3338 20.1587 35.4218 20.2957C35.5968 20.0817 36.1138 20.2276 36.3338 20.2346C36.4945 20.2277 36.6533 20.2703 36.7891 20.3565C36.9248 20.4426 37.0308 20.5682 37.0928 20.7166C37.1714 20.8961 37.1973 21.0942 37.1675 21.2879C37.1378 21.4815 37.0536 21.6629 36.9248 21.8106C36.7951 21.9526 36.6345 22.0631 36.4554 22.1333C36.2763 22.2035 36.0835 22.2316 35.8918 22.2156C35.5996 22.2225 35.3082 22.2503 35.0198 22.2986C34.8098 22.1826 34.6848 22.3347 34.4708 22.0987C34.2708 22.0717 34.2608 22.3216 34.0598 22.2986C33.8738 22.2376 33.5158 22.4245 33.4438 22.1985C33.3273 22.2671 33.204 22.3234 33.0758 22.3665H33.1048C32.9 22.4504 32.6713 22.455 32.4633 22.3794C32.2553 22.3038 32.0829 22.1534 31.9798 21.9575C31.6168 22.0725 31.7698 21.6786 31.5138 21.5486C31.4116 21.2463 31.405 20.9198 31.4948 20.6135C31.5344 20.2889 31.6476 19.9778 31.8258 19.7036C31.9249 19.55 32.0687 19.4303 32.2379 19.3611C32.4071 19.2919 32.5935 19.2765 32.7718 19.3167C32.8828 19.3957 32.8538 19.5445 32.7778 19.6685C32.7395 19.7353 32.6876 19.7934 32.6254 19.8389C32.5632 19.8844 32.4921 19.9164 32.4168 19.9326C32.3288 20.1326 32.0168 20.3225 32.0498 20.5535C32.0458 20.7633 32.0629 20.9733 32.1008 21.1797C32.1113 21.2672 32.147 21.3498 32.2037 21.4173C32.2603 21.4847 32.3355 21.5341 32.4198 21.5596C32.4965 21.6436 32.5983 21.7006 32.71 21.7222C32.8216 21.7438 32.9373 21.729 33.0398 21.6797H33.0758L33.4438 21.6096C33.8724 21.5301 34.3082 21.4965 34.7438 21.5095C34.9438 21.6215 35.2778 21.5295 35.4288 21.7095C35.5288 21.4465 35.6848 21.6316 35.8398 21.6096C35.9335 21.5906 36.0248 21.561 36.1118 21.5215C36.1688 21.4915 36.2118 21.4946 36.3518 21.5376C36.4018 21.4832 36.4384 21.4179 36.4589 21.3469C36.4793 21.276 36.4831 21.2013 36.4698 21.1287C36.4452 21.021 36.4418 20.9095 36.4598 20.8006C36.2448 20.8416 36.1918 20.8856 36.1488 20.8806L36.0858 20.8736C35.9543 20.8711 35.8226 20.8771 35.6918 20.8916C35.156 20.843 34.6262 20.7425 34.1098 20.5916C33.7718 20.6796 33.1988 21.0676 33.0098 20.7366H32.9448C32.9418 20.6862 32.9351 20.6361 32.9248 20.5867Z" fill="#FBB03B"/>
<path fill-rule="evenodd" clip-rule="evenodd" d="M5.87585 20.5868C5.86981 20.5099 5.88396 20.4325 5.91686 20.3627H5.94686C6.07186 20.1627 6.43086 20.1928 6.59286 19.9958H7.41485C7.56185 19.9498 7.54385 20.1368 7.54885 20.2958C7.61685 20.1288 7.76685 20.0037 7.89285 20.1957C8.07485 20.1957 8.28486 20.1588 8.37286 20.2958C8.54786 20.0818 9.06485 20.2278 9.28485 20.2348C9.44536 20.2278 9.60417 20.2702 9.73974 20.3564C9.87532 20.4426 9.98114 20.5684 10.0429 20.7167C10.1221 20.896 10.1485 21.0942 10.119 21.288C10.0894 21.4818 10.005 21.6632 9.87585 21.8107C9.74613 21.9528 9.58555 22.0632 9.40646 22.1335C9.22737 22.2037 9.03455 22.2318 8.84286 22.2157C8.55059 22.2227 8.25919 22.2505 7.97085 22.2987C7.76085 22.1827 7.63585 22.3348 7.42285 22.0988C7.22285 22.0718 7.21186 22.3217 7.01086 22.2987C6.82486 22.2377 6.46786 22.4246 6.39486 22.1986C6.27835 22.2673 6.15501 22.3235 6.02685 22.3666H6.05587C5.85107 22.4505 5.62234 22.4552 5.41433 22.3796C5.20632 22.3039 5.03396 22.1535 4.93087 21.9577C4.56787 22.0727 4.72087 21.6787 4.46487 21.5487C4.3632 21.2463 4.35655 20.92 4.44586 20.6137C4.48542 20.2891 4.59863 19.9779 4.77685 19.7038C4.87577 19.55 5.0196 19.4302 5.18884 19.361C5.35807 19.2918 5.54453 19.2765 5.72286 19.3168C5.83386 19.3958 5.80485 19.5446 5.72885 19.6686C5.69052 19.7355 5.6386 19.7935 5.57641 19.839C5.51422 19.8845 5.44316 19.9165 5.36785 19.9328C5.27985 20.1328 4.96785 20.3226 5.00085 20.5536C4.99683 20.7635 5.01394 20.9734 5.05187 21.1798C5.06232 21.2674 5.09806 21.3499 5.15472 21.4174C5.21138 21.4849 5.2865 21.5343 5.37088 21.5597C5.44758 21.6437 5.54929 21.7007 5.66098 21.7223C5.77266 21.7439 5.88836 21.7292 5.99087 21.6798H6.02685L6.39486 21.6098C6.82339 21.5302 7.25919 21.4966 7.69485 21.5097C7.89485 21.6217 8.22885 21.5296 8.37985 21.7096C8.47985 21.4466 8.63486 21.6318 8.79086 21.6098C8.88459 21.5909 8.97586 21.5613 9.06286 21.5216C9.11986 21.4916 9.16285 21.4948 9.30285 21.5378C9.35298 21.4835 9.38976 21.4181 9.41024 21.3471C9.43073 21.2761 9.43436 21.2015 9.42086 21.1288C9.39604 21.0212 9.39298 20.9095 9.41186 20.8007C9.19586 20.8417 9.14285 20.8858 9.09985 20.8808L9.03686 20.8737C8.90528 20.8712 8.77366 20.8773 8.64285 20.8918C8.10706 20.8431 7.57725 20.7426 7.06085 20.5917C6.72385 20.6797 6.15087 21.0677 5.96087 20.7367H5.89587C5.89283 20.6863 5.88612 20.6363 5.87585 20.5868Z" fill="#FBB03B"/>
<path fill-rule="evenodd" clip-rule="evenodd" d="M21.0539 13.5726C21.1789 13.3656 21.7139 13.2507 22.3169 13.3097C22.9259 13.3347 23.5829 13.5167 24.0309 13.5587C25.0657 13.97 26.0033 14.5924 26.7839 15.3866C27.2179 15.7946 27.0329 15.8707 26.9319 15.9867C27.1512 16.0721 27.3454 16.2116 27.4966 16.392C27.6478 16.5724 27.7511 16.7878 27.7969 17.0187C27.986 17.3272 28.1531 17.6485 28.2969 17.9806C28.4006 18.2317 28.4618 18.4984 28.4779 18.7697C28.5982 18.9845 28.6929 19.2126 28.7599 19.4496C28.832 19.7728 28.8788 20.1013 28.8999 20.4318C28.9263 21.1187 28.8858 21.8066 28.7789 22.4857C28.6491 23.7622 28.1737 24.9792 27.4039 26.0057C26.5465 27.1634 25.3872 28.0627 24.0529 28.6056C22.746 29.137 21.3229 29.3175 19.9249 29.1288C18.7327 28.969 17.5855 28.5686 16.5529 27.9518C15.9169 27.3638 15.3969 27.1516 14.9939 26.3336C14.5019 25.6956 14.2699 25.8067 13.8589 25.0787C13.7009 24.7267 13.4199 24.2367 13.2509 23.7577C13.084 23.4222 13.0147 23.0466 13.0509 22.6737C12.769 21.8305 12.6512 20.9411 12.7039 20.0536C12.7467 19.1087 13.0348 18.1914 13.5399 17.3917C13.4009 16.8587 14.0509 16.4507 14.2949 15.8087C14.837 15.1108 15.4817 14.4989 16.2069 13.9938C16.8755 13.4777 17.5989 13.0366 18.3639 12.6786C19.158 12.3193 20.0355 12.1846 20.9009 12.2887C21.1369 12.3697 21.0739 12.5177 20.8129 12.6427C20.3901 12.7989 19.9474 12.8947 19.4979 12.9276C18.6922 13.178 17.9199 13.5254 17.1979 13.9618C15.8101 14.8502 14.7222 16.136 14.0759 17.6517C13.3561 19.1821 13.1999 20.9174 13.6349 22.5516C14.0513 24.1439 14.9324 25.5761 16.1659 26.6657C16.8087 27.2505 17.5187 27.7571 18.2809 28.1747C18.7299 28.0687 19.2209 28.4248 19.8189 28.4938C20.7673 28.5412 21.7179 28.5184 22.6629 28.4257C24.6389 27.805 26.3419 26.5246 27.4869 24.7987C27.6749 24.0667 27.9039 23.4286 28.0569 22.6576C28.2639 21.7524 28.2867 20.815 28.1239 19.9008C27.8585 17.9703 26.8791 16.2094 25.3789 14.9657C24.6639 14.558 23.8869 14.2701 23.0789 14.1137C22.3825 14.0259 21.7012 13.8439 21.0539 13.5726Z" fill="#FBB03B"/>
<path fill-rule="evenodd" clip-rule="evenodd" d="M31.2178 9.80869C31.1348 9.73346 31.0765 9.63481 31.0508 9.52574L31.0378 9.4437L31.5998 9.93467V9.90562V9.87168L31.6108 9.81065C31.6184 9.77545 31.6316 9.74184 31.6498 9.71079H31.6728C31.7938 9.50079 32.0638 9.59356 32.3038 9.54356C32.4193 9.62728 32.5165 9.73368 32.5898 9.85606C32.663 9.97843 32.7106 10.1144 32.7298 10.2557C32.7918 10.4067 32.5958 10.3926 32.4428 10.3966C32.6128 10.4336 32.7178 10.6338 32.4928 10.6798C32.4488 10.8238 32.3558 10.9946 32.2048 10.9476C32.2368 11.2396 31.7708 11.4387 31.6048 11.6937C31.2932 12.2895 30.8915 12.8336 30.4138 13.3067C30.2848 13.4514 30.1222 13.5621 29.9403 13.6293C29.7585 13.6964 29.5629 13.7179 29.3708 13.6918C29.0272 13.6404 28.7143 13.4645 28.4918 13.1976C28.4698 12.9386 28.2798 12.8108 28.4968 12.5558C28.5268 12.3558 28.2828 12.3018 28.3848 12.0668C28.4978 11.8668 28.6768 11.4388 28.8728 11.5668C28.9578 11.2228 29.2598 10.6237 29.6478 10.5257C29.4678 10.2157 29.8328 10.3576 29.7958 10.1026L30.2278 9.67661C30.3301 9.48701 30.4206 9.29137 30.4988 9.09068C30.5987 8.938 30.7365 8.81382 30.8988 8.73057C30.9774 8.69021 31.0623 8.66364 31.1498 8.65171C31.1931 8.64781 31.2366 8.64781 31.2798 8.65171L31.3438 8.65879C31.3978 8.65879 31.2968 8.66879 31.5488 8.65879C32.0188 8.75879 32.0068 8.9656 31.9368 8.9586C31.8627 8.96105 31.7885 8.95769 31.7148 8.94859C31.6278 8.93459 31.3978 8.99578 31.4388 9.02378C31.4063 9.09255 31.359 9.15303 31.3002 9.20127C31.2414 9.24952 31.1726 9.28414 31.0988 9.30259C31.0098 9.51859 30.7508 9.6906 30.7288 9.8856C30.5948 10.3736 30.1958 10.5296 30.0718 10.9496C29.781 11.2732 29.5203 11.6228 29.2928 11.9938C29.1947 12.0932 29.1301 12.2208 29.1078 12.3587C29.0904 12.4613 29.0904 12.566 29.1078 12.6686C29.0308 12.8066 29.2078 12.8947 29.1768 13.0807C29.3688 12.8957 29.3338 13.0807 29.4408 13.0907C29.5708 13.0787 29.6028 12.9277 29.8408 13.0277C29.9098 12.9447 30.1048 12.6088 30.2608 12.4088C30.4071 12.1917 30.6078 12.0168 30.8428 11.9017C30.8328 11.3457 31.2068 11.2097 31.5868 10.7247C31.6668 10.6747 31.8048 10.5587 31.8348 10.5467C31.8653 10.5337 31.8936 10.5162 31.9188 10.4947C32.0049 10.4149 32.0637 10.3098 32.0868 10.1947C32.0399 10.1714 31.988 10.1599 31.9357 10.1615C31.8834 10.163 31.8322 10.1776 31.7868 10.2037C31.7098 10.2417 31.7138 10.2576 31.6678 10.0936H31.6178L31.6028 10.0287L31.5928 9.9896L31.5878 9.96763V9.95664V9.95176L31.0158 9.40659C31.0158 9.457 31.0229 9.50733 31.0368 9.55576C31.0718 9.65565 31.1346 9.74338 31.2178 9.80869Z" fill="#FBB03B"/>
<path fill-rule="evenodd" clip-rule="evenodd" d="M10.7178 9.76266C10.7909 9.67813 10.8368 9.57381 10.8498 9.46285L10.3408 9.93087V9.91769V9.89669V9.85885C10.3444 9.83614 10.3498 9.8136 10.3568 9.79171C10.3681 9.75494 10.3868 9.72105 10.4118 9.69186C10.4569 9.63934 10.5187 9.60391 10.5868 9.59176C10.7258 9.56076 10.8748 9.59979 11.0378 9.56979C11.2498 9.75879 11.4288 9.94986 11.6268 10.1399C11.7618 10.2089 11.6178 10.3297 11.5118 10.4397C11.6768 10.3687 11.8708 10.3848 11.8238 10.6089C11.9518 10.7359 12.1238 10.8548 12.0918 11.0088C12.3838 10.9758 12.5828 11.4429 12.8378 11.6089C13.1516 11.7113 13.4138 11.9309 13.5698 12.2219C13.6421 12.4014 13.6633 12.5972 13.631 12.788C13.5987 12.9789 13.5142 13.157 13.3868 13.3027C13.2588 13.4498 13.0961 13.5626 12.9134 13.6311C12.7308 13.6995 12.534 13.7215 12.3408 13.6948C12.0181 13.6331 11.719 13.4827 11.4768 13.2607C11.4128 13.0307 11.2188 13.0508 11.2358 12.7348C11.1158 12.5758 10.9358 12.7449 10.8108 12.5859C10.7248 12.4109 10.3458 12.2919 10.4528 12.0859C10.1028 11.9929 9.52583 11.7167 9.39583 11.2917C9.03183 11.4017 9.19582 11.0118 8.93682 10.8818C8.83924 10.5811 8.83542 10.2578 8.92583 9.9548C8.96657 9.63391 9.07899 9.3264 9.25481 9.05489C9.3616 8.90765 9.50406 8.78992 9.66881 8.71285C9.74988 8.67659 9.83639 8.65381 9.92483 8.64572C9.96603 8.64102 10.0076 8.64102 10.0488 8.64572C9.96416 8.67891 9.89089 8.73593 9.83782 8.80978C9.76782 9.03878 9.95084 9.03866 10.0688 9.06466C10.0948 9.07466 10.1488 9.08283 10.1358 9.10983C10.1134 9.1386 10.0872 9.1641 10.0578 9.18575C9.99507 9.23561 9.92139 9.26998 9.84283 9.28585C9.75583 9.48585 9.44282 9.67182 9.47982 9.90182C9.47725 10.1091 9.49297 10.3162 9.52682 10.5207C9.53734 10.6072 9.57242 10.6889 9.62789 10.7561C9.68336 10.8232 9.75691 10.8732 9.83984 10.8999C10.16 11.1854 10.505 11.4416 10.8708 11.6657C11.2262 11.9123 11.5534 12.1971 11.8468 12.5149C11.9028 12.7259 12.2168 12.9297 12.1468 13.0847C12.3388 12.8987 12.3048 13.0847 12.4108 13.0937C12.5408 13.0807 12.5728 12.9307 12.8108 13.0307C12.8602 12.9755 12.8966 12.9099 12.9176 12.8388C12.9385 12.7677 12.9434 12.693 12.9318 12.6198C12.9097 12.5103 12.9097 12.3974 12.9318 12.2878C12.8128 12.2878 12.7808 12.3477 12.6868 12.3117C12.59 12.2708 12.5005 12.2144 12.4218 12.1447C12.2578 12.0047 12.1028 11.8157 11.8598 11.6257C11.5175 11.2211 11.216 10.7837 10.9598 10.3198C10.8586 10.2653 10.7533 10.2189 10.6448 10.1809C10.5897 10.1783 10.535 10.192 10.4878 10.2207C10.4538 10.2357 10.4388 10.2408 10.4258 10.2038C10.4186 10.1724 10.4072 10.1421 10.3918 10.1137C10.38 10.0903 10.3702 10.0659 10.3628 10.0407L10.3478 9.99679L10.3408 9.97189L10.3358 9.9587V9.95284L10.8568 9.41573L10.8498 9.49166C10.8317 9.59246 10.786 9.68626 10.7178 9.76266Z" fill="#FBB03B"/>
<path fill-rule="evenodd" clip-rule="evenodd" d="M21.0339 5.52159C21.0029 5.29959 21.0969 5.19656 21.2339 5.16856C21.3709 5.14056 21.5219 5.17666 21.6849 5.14366C21.7982 5.23012 21.8928 5.33865 21.9629 5.46275C22.0331 5.58686 22.0773 5.72389 22.0929 5.86559C22.1509 6.01759 21.9569 6.00077 21.8029 6.00377C21.9699 6.06877 22.0949 6.22064 21.9029 6.34264C21.9029 6.52264 21.9409 6.73076 21.8029 6.81676C22.0309 7.00176 21.8379 7.47068 21.9029 7.76768C22.0096 8.07281 22.0807 8.38936 22.1149 8.7108C22.1632 8.89366 22.1685 9.08511 22.1305 9.27037C22.0925 9.45564 22.0122 9.62957 21.8959 9.77867C21.7684 9.92671 21.6056 10.0401 21.4225 10.1083C21.2395 10.1765 21.0421 10.1971 20.8489 10.1686C20.5044 10.1145 20.1929 9.93259 19.9769 9.6588C19.9579 9.3998 19.7769 9.25873 19.9979 9.01573C20.0249 8.81573 19.7749 8.80773 19.7979 8.60973C19.8589 8.42573 19.6719 8.07262 19.8979 7.99962C19.7714 7.81362 19.6879 7.60198 19.6533 7.37975C19.6187 7.15751 19.634 6.93033 19.6979 6.71471C19.3519 6.62371 19.7079 6.46456 19.4979 6.31456V6.00377C19.4963 5.84822 19.5189 5.69338 19.5649 5.54478C19.6049 5.2548 19.7 4.97491 19.8449 4.72057C19.9262 4.57852 20.0422 4.45971 20.1822 4.37486C20.3221 4.29002 20.4814 4.24207 20.6449 4.2357L20.5779 4.25377C20.6448 4.25 20.7119 4.25399 20.7779 4.26573C20.9319 4.35773 20.8519 4.58877 20.7269 4.73277L20.7519 4.72667C20.6795 4.8052 20.5838 4.85857 20.4789 4.87877C20.3929 5.07877 20.0789 5.26178 20.1139 5.49278C20.114 5.70429 20.1261 5.91543 20.1499 6.1256C20.1499 6.32894 20.195 6.52989 20.2819 6.71373C20.3086 7.14832 20.3756 7.57934 20.4819 8.00157C20.5149 8.20157 20.5449 8.41162 20.5649 8.62462C20.5849 8.83762 20.5819 9.09161 20.5979 9.14561C20.5159 9.27961 20.6829 9.37179 20.6539 9.55479C20.8539 9.37279 20.8099 9.56073 20.9149 9.56773C21.0449 9.55673 21.0749 9.40468 21.3149 9.50768C21.3639 9.45355 21.3998 9.38895 21.4197 9.31871C21.4396 9.24847 21.4431 9.17445 21.4299 9.10265C21.4241 9.07426 21.4201 9.0456 21.4179 9.01671C21.4143 8.95009 21.4143 8.88337 21.4179 8.81676C21.4243 8.68935 21.4509 8.5637 21.4969 8.44469C21.0969 8.05569 21.2709 7.69465 21.1969 7.08165C21.2419 6.85665 21.2599 6.62063 21.2969 6.36363C21.3118 6.23588 21.3351 6.10936 21.3669 5.98473C21.4039 5.9221 21.4325 5.8549 21.4519 5.78477C21.4015 5.75984 21.3457 5.7479 21.2896 5.75035C21.2334 5.7528 21.1789 5.76947 21.1309 5.79869C21.0829 5.83069 21.0849 5.81059 21.0339 5.52159Z" fill="#FBB03B"/>
</svg>
