<svg width="41" height="41" viewBox="0 0 41 41" fill="none" xmlns="http://www.w3.org/2000/svg">
<path d="M13.5269 24.0997C12.8879 26.1097 12.1149 28.4605 11.5559 30.5225C11.5508 30.5432 11.5538 30.565 11.5642 30.5836C11.5745 30.6021 11.5916 30.6161 11.6119 30.6226C12.2608 30.8358 12.9246 31.0005 13.5978 31.1155C13.6104 31.1177 13.6224 31.1229 13.6327 31.1304C13.643 31.138 13.6514 31.1476 13.6572 31.159C13.663 31.1704 13.6661 31.1831 13.6662 31.1959C13.6663 31.2086 13.6635 31.2213 13.6578 31.2327C12.8798 32.8327 12.1715 34.4626 11.5328 36.1226C11.5262 36.1406 11.5257 36.1605 11.5315 36.1788C11.5374 36.1971 11.5492 36.2129 11.565 36.2237C11.5809 36.2345 11.6 36.2396 11.6191 36.2383C11.6383 36.2371 11.6565 36.2294 11.6708 36.2166C14.1898 33.9349 16.5157 31.4489 18.6249 28.7838C18.6322 28.7733 18.6371 28.7612 18.6393 28.7486C18.6415 28.736 18.6409 28.7233 18.6375 28.711C18.6342 28.6987 18.6282 28.6873 18.62 28.6776C18.6117 28.6678 18.6014 28.6599 18.5899 28.6546C18.0189 28.4016 17.4548 28.1546 17.0108 27.9676C16.9999 27.963 16.9902 27.9559 16.9822 27.9471C16.9743 27.9383 16.9685 27.9279 16.965 27.9166C16.9616 27.9052 16.9607 27.8931 16.9624 27.8814C16.9641 27.8697 16.9684 27.8586 16.9749 27.8487C17.5569 26.9007 17.9408 25.9136 18.5278 24.9486C18.5353 24.9373 18.5399 24.9244 18.5412 24.911C18.5425 24.8975 18.5404 24.8839 18.5352 24.8714C18.5299 24.8589 18.5217 24.8479 18.5111 24.8394C18.5006 24.8309 18.4882 24.8251 18.4749 24.8226C16.7999 24.5286 14.0609 24.1127 13.6159 24.0447C13.5969 24.0415 13.5773 24.0451 13.561 24.0552C13.5446 24.0654 13.5324 24.0812 13.5269 24.0997Z" fill="#F5D83C" stroke="#F5D83C" stroke-width="0.25" stroke-miterlimit="10"/>
<path d="M18.9627 32.7648C17.8487 34.6968 17.1057 36.8227 19.0147 37.1647C19.2844 37.1963 19.5578 37.1632 19.8122 37.0682C20.0666 36.9733 20.2947 36.8193 20.4777 36.6188C20.8399 36.2143 21.1237 35.7459 21.3147 35.2377C22.0094 33.5385 22.5965 31.7976 23.0727 30.0248C23.4964 28.8004 23.7344 27.5195 23.7787 26.2247C23.7787 26.4597 23.0787 27.1056 22.9407 27.2826C22.4487 27.9126 21.9477 28.5357 21.4647 29.1727C20.5512 30.3127 19.7153 31.5128 18.9627 32.7648Z" fill="#70AFED"/>
<path d="M26.1028 28.0487C25.7248 28.5847 24.9198 30.0047 26.1928 30.2037C26.3452 30.2211 26.4997 30.2055 26.6456 30.1581C26.7916 30.1106 26.9256 30.0323 27.0388 29.9286C27.2444 29.7294 27.4085 29.4915 27.5218 29.2286C27.9209 28.3772 28.2604 27.4992 28.5378 26.6007C28.7811 25.9893 28.919 25.3412 28.9458 24.6837C28.9458 24.6837 26.9428 26.8587 26.1028 28.0487Z" fill="#70AFED" stroke="#70AFED" stroke-width="0.15" stroke-miterlimit="10"/>
<path d="M31.8938 13.0868C32.2075 11.2796 31.8678 9.41975 30.9355 7.8402C30.0033 6.26064 28.5392 5.06439 26.8055 4.46568C25.0718 3.86697 23.1816 3.90496 21.4733 4.57262C19.765 5.24027 18.3501 6.4941 17.4818 8.10973C16.7289 7.59733 15.8199 7.36568 14.9137 7.45543C14.0074 7.54518 13.1615 7.95058 12.5238 8.60069C11.9101 9.22891 11.5258 10.0453 11.4328 10.9186C9.92615 11.0174 8.51046 11.6744 7.46206 12.7608C6.41365 13.8473 5.80779 15.2856 5.76278 16.7948C5.7252 18.3938 6.32411 19.9422 7.42785 21.0997C8.53158 22.2573 10.0498 22.9291 11.6488 22.9676H30.8938C32.1315 22.9691 33.3256 22.5107 34.2443 21.6813C35.163 20.8518 35.7407 19.7105 35.8653 18.4791C35.99 17.2477 35.6526 16.0139 34.9187 15.0172C34.1848 14.0205 33.1067 13.3333 31.8938 13.0868Z" fill="#E6E6E6" stroke="#E6E6E6" stroke-width="0.5" stroke-miterlimit="10"/>
</svg>
