<svg width="41" height="41" viewBox="0 0 41 41" fill="none" xmlns="http://www.w3.org/2000/svg">
<path d="M32.4188 7.85886C26.1958 7.45886 19.9638 7.48373 13.7338 7.38473C11.9338 7.35573 10.1338 6.99066 8.31582 7.03366C7.71582 7.04766 6.91583 7.09486 6.86583 6.31686C6.80683 5.34086 7.69582 5.45188 8.34682 5.43088C12.8895 5.28488 17.4325 5.14533 21.9758 5.01266C26.3168 4.87966 30.6598 4.76387 34.9998 4.59787C36.2378 4.54987 37.2878 4.85988 37.2998 6.21188C37.3118 7.56388 36.2998 7.95284 35.0428 7.86984C34.1718 7.81284 33.2928 7.85886 32.4188 7.85886Z" fill="#70AFED" stroke="#70AFED" stroke-width="0.25" stroke-miterlimit="10"/>
<path d="M25.7028 13.5426C19.9348 13.3546 14.1718 13.0156 8.39684 13.0856C7.45877 13.0259 6.52552 12.9061 5.60284 12.7267C5.17684 12.6757 4.74284 12.5987 4.71284 12.1007C4.67884 11.5437 5.07784 11.2598 5.58784 11.1628C5.85512 11.125 6.12494 11.1082 6.39484 11.1127C12.2948 10.9647 18.2028 10.8358 24.1058 10.6598C25.8508 10.6078 27.5898 10.4008 29.3338 10.3078C30.5038 10.2468 31.3268 10.7316 31.3938 12.0026C31.4708 13.4736 30.4508 13.5668 29.3498 13.5478C28.1348 13.5278 26.9188 13.5426 25.7028 13.5426Z" fill="#70AFED" stroke="#70AFED" stroke-width="0.25" stroke-miterlimit="10"/>
<path d="M19.4929 19.2878C14.7069 19.0688 9.91492 18.7938 5.12692 18.7648C4.29592 18.7598 3.10092 18.8557 3.13792 17.6547C3.17292 16.5377 4.31493 16.8277 5.07993 16.7917C11.0209 16.5097 16.9799 16.5778 22.9079 16.0038C23.1762 15.9495 23.453 15.9534 23.7197 16.0153C23.9863 16.0772 24.2365 16.1955 24.4535 16.3625C24.6704 16.5294 24.8489 16.7412 24.977 16.9831C25.1051 17.225 25.1798 17.4916 25.1959 17.7648C25.2959 19.4038 23.1849 19.4426 22.0389 19.3966C21.1909 19.3646 20.3423 19.3284 19.4929 19.2878Z" fill="#70AFED" stroke="#70AFED" stroke-width="0.25" stroke-miterlimit="10"/>
<path d="M18.2939 22.1189C20.9009 21.9429 23.5119 22.0618 26.1199 22.0188C27.2069 21.9998 28.2349 22.0668 28.1609 23.5428C28.0909 24.9428 27.1559 25.3808 25.9379 25.2478C20.7589 24.6818 15.5509 24.7289 10.3589 24.4559C9.67892 24.4209 8.85892 24.4648 8.80992 23.5708C8.75192 22.6088 9.74692 22.642 10.2969 22.577C12.9509 22.263 15.6479 22.7439 18.2939 22.1189Z" fill="#70AFED" stroke="#70AFED" stroke-width="0.25" stroke-miterlimit="10"/>
<path d="M26.9129 30.8327C23.4396 30.598 19.9669 30.3626 16.4949 30.1266C15.9379 30.0886 15.3379 29.9957 15.3529 29.2777C15.3649 28.6947 15.8909 28.5777 16.3769 28.5097C20.1143 28.0548 23.8726 27.7925 27.6369 27.7238C27.8608 27.7033 28.0864 27.7351 28.2958 27.8168C28.5053 27.8985 28.6929 28.0276 28.8438 28.1942C28.9947 28.3609 29.1048 28.5603 29.1654 28.7768C29.226 28.9932 29.2354 29.221 29.1929 29.4418C29.0509 30.6498 28.0189 30.9667 26.9129 30.8327Z" fill="#70AFED" stroke="#70AFED" stroke-width="0.25" stroke-miterlimit="10"/>
<path d="M20.8298 33.3876C22.3298 33.3586 23.2598 33.7657 23.2398 35.0307C23.2198 36.2957 22.2818 36.7448 21.1398 36.6098C19.2868 36.3918 17.4398 36.0837 15.5958 35.8217C15.1108 35.7537 14.5958 35.6527 14.5528 35.0837C14.4998 34.3647 15.1018 34.2668 15.6438 34.1838C17.4848 33.8968 19.3298 33.6156 20.8298 33.3876Z" fill="#70AFED" stroke="#70AFED" stroke-width="0.25" stroke-miterlimit="10"/>
</svg>
