<svg width="41" height="41" viewBox="0 0 41 41" fill="none" xmlns="http://www.w3.org/2000/svg">
<path d="M7.59794 36.9796C7.18594 36.9596 6.76594 36.9466 6.61794 36.4476C6.55202 36.1492 6.57601 35.8381 6.6869 35.5533C6.79778 35.2685 6.99059 35.023 7.24094 34.8477C9.25794 32.8397 11.2199 30.7727 13.3059 28.8397C14.4059 27.8217 14.5619 27.2395 13.3919 26.0225C12.4987 25.1122 11.821 24.0134 11.4088 22.8065C10.9966 21.5996 10.8603 20.3154 11.01 19.0489C11.1596 17.7824 11.5915 16.5656 12.2737 15.4881C12.9559 14.4106 13.8711 13.4996 14.9519 12.8226C20.1829 9.59157 25.5929 6.64755 30.9329 3.59455C31.6429 3.18955 32.5709 2.71853 33.1689 3.44953C33.9319 4.38053 32.9619 5.03471 32.3619 5.63971C30.3619 7.66071 28.3619 9.69456 26.3059 11.6566C25.5199 12.4066 25.3929 12.8417 26.2319 13.7327C30.5569 18.3247 29.6839 24.6736 24.2829 27.8546C19.3899 30.7366 14.4239 33.4947 9.48295 36.2957C8.93321 36.6998 8.27887 36.9371 7.59794 36.9796ZM19.9599 23.1055C20.5584 23.0821 21.1367 22.883 21.6225 22.5328C22.1084 22.1826 22.4802 21.6969 22.6916 21.1365C22.9031 20.5762 22.9446 19.966 22.8112 19.3821C22.6777 18.7983 22.3752 18.2667 21.9413 17.8538C21.5075 17.4409 20.9616 17.165 20.3718 17.0606C19.7821 16.9562 19.1747 17.028 18.6254 17.2669C18.0762 17.5058 17.6096 17.901 17.2839 18.4036C16.9581 18.9062 16.7877 19.4937 16.7939 20.0926C16.8031 20.4986 16.8924 20.8987 17.0567 21.2701C17.2209 21.6415 17.4569 21.9767 17.7511 22.2567C18.0452 22.5366 18.3918 22.7558 18.7709 22.9014C19.1499 23.0471 19.554 23.1164 19.9599 23.1055Z" fill="#70AFED" stroke="#70AFED" stroke-width="0.25" stroke-miterlimit="10"/>
</svg>
