<svg width="41" height="41" viewBox="0 0 41 41" fill="none" xmlns="http://www.w3.org/2000/svg">
<path d="M36.877 21.1147C36.144 31.4767 28.8441 37.8707 19.7481 37.6367C9.26209 37.3667 3.00809 29.5518 3.26909 20.5798C3.56909 10.2608 11.1511 3.97971 20.1861 4.14671C30.4401 4.33371 36.51 11.8767 36.877 21.1147Z" fill="#E6E6E6" stroke="#E6E6E6" stroke-width="0.549" stroke-miterlimit="10"/>
<path d="M13.4929 22.1929C12.3559 22.1929 11.2179 22.2367 10.0839 22.1787C9.89202 22.1924 9.6994 22.1671 9.5176 22.1043C9.3358 22.0414 9.16859 21.9425 9.02614 21.8132C8.8837 21.684 8.76888 21.5272 8.68874 21.3523C8.6086 21.1774 8.56475 20.9882 8.55984 20.7959C8.51584 19.8519 9.21385 19.4108 10.0019 19.3318C12.2621 19.0823 14.5433 19.0894 16.8019 19.3528C17.0109 19.3574 17.2165 19.407 17.4046 19.4983C17.5926 19.5896 17.7588 19.7205 17.8917 19.8819C18.0246 20.0432 18.1212 20.2313 18.1747 20.4334C18.2282 20.6355 18.2375 20.8467 18.2019 21.0528C18.0879 22.0268 17.3269 22.1988 16.5249 22.2158C15.5149 22.2378 14.5039 22.2219 13.4939 22.2219L13.4929 22.1929Z" fill="#FDFDFD"/>
<path d="M26.519 22.1958C25.386 22.1958 24.252 22.2258 23.119 22.1848C22.7982 22.2076 22.4812 22.104 22.2359 21.896C21.9907 21.688 21.8367 21.392 21.807 21.0718C21.7659 20.9002 21.7599 20.7223 21.7894 20.5483C21.8188 20.3744 21.8831 20.2081 21.9784 20.0596C22.0736 19.9111 22.1979 19.7834 22.3437 19.6841C22.4895 19.5848 22.6539 19.5162 22.827 19.4819C25.3031 19.0271 27.84 19.0127 30.321 19.4397C30.4956 19.4672 30.6628 19.5298 30.8127 19.6235C30.9626 19.7172 31.0919 19.8402 31.1931 19.9851C31.2942 20.1301 31.3651 20.2941 31.4013 20.467C31.4376 20.64 31.4385 20.8184 31.404 20.9917C31.3687 21.3111 31.2162 21.6062 30.9762 21.8198C30.7361 22.0335 30.4253 22.1509 30.104 22.1489C28.913 22.2129 27.716 22.1668 26.521 22.1668L26.519 22.1958Z" fill="#FDFDFD"/>
</svg>
