<svg width="40" height="41" viewBox="0 0 40 41" fill="none" xmlns="http://www.w3.org/2000/svg">
<path d="M15.4728 21.2248C18.9038 21.2248 22.3378 21.1387 25.7658 21.2507C27.0842 21.2838 28.357 21.7405 29.3959 22.5529C30.4348 23.3653 31.1847 24.4902 31.5348 25.7617C31.8681 26.8705 31.8186 28.0591 31.3943 29.1364C30.9701 30.2137 30.1957 31.1171 29.1958 31.7009C28.4844 32.1957 27.645 32.4741 26.7788 32.5029C25.9126 32.5316 25.0566 32.3093 24.3138 31.8627C23.5758 31.4918 22.963 30.9123 22.5516 30.196C22.1402 29.4797 21.9483 28.6581 21.9998 27.8337C22.0468 26.8017 22.3498 25.7928 23.5998 25.7248C24.8118 25.6588 25.0438 26.5247 24.9938 27.5497C24.9298 28.8857 25.5938 29.6037 26.9238 29.4137C27.2144 29.3934 27.4969 29.3095 27.7513 29.1677C28.0057 29.0258 28.2258 28.8296 28.3958 28.5932C28.5659 28.3568 28.6819 28.0858 28.7355 27.7995C28.789 27.5132 28.7789 27.2186 28.7058 26.9367C28.3788 24.6847 26.7308 24.1467 24.7548 24.1457C18.7908 24.1457 12.8265 24.1423 6.86183 24.1357C6.12683 24.1357 5.38984 24.1357 4.66184 24.0817C3.78084 24.0117 3.00083 23.6918 3.01483 22.6508C3.02883 21.6098 3.82383 21.2708 4.69783 21.2568C7.79783 21.2088 10.9058 21.2137 14.0098 21.1987C14.5008 21.1987 14.9908 21.1987 15.4808 21.1987L15.4728 21.2248Z" fill="#6FD1EF" stroke="#6FD1EF" stroke-width="0.123" stroke-miterlimit="10"/>
<path d="M22.2947 18.7639C19.5207 18.7639 16.7457 18.7968 13.9717 18.7478C12.8857 18.7278 11.3377 18.9618 11.3987 17.2998C11.4557 15.7638 12.9617 15.8618 14.0697 15.8538C19.2097 15.8128 24.3517 15.8358 29.4917 15.8198C30.3062 15.8611 31.1227 15.8044 31.9237 15.6509C32.3433 15.5613 32.7349 15.3716 33.0653 15.0979C33.3958 14.8243 33.6552 14.4749 33.8214 14.0794C33.9877 13.6839 34.0559 13.254 34.0203 12.8264C33.9846 12.3989 33.8462 11.9863 33.6167 11.6238C33.4112 11.266 33.1035 10.9778 32.7331 10.7959C32.3627 10.614 31.9465 10.5468 31.5377 10.6028C30.6697 10.7518 30.4027 11.4309 30.2887 12.2029C30.1337 13.2489 30.0887 14.6438 28.6307 14.3938C27.2057 14.1498 27.2847 12.7197 27.3827 11.5737C27.4457 10.983 27.6248 10.4106 27.9095 9.88918C28.1943 9.36781 28.5792 8.90794 29.0422 8.53566C29.5051 8.16338 30.037 7.88599 30.6074 7.71975C31.1777 7.5535 31.7752 7.50169 32.3657 7.56691C33.752 7.76937 35.0053 8.50255 35.861 9.61184C36.7167 10.7211 37.1078 12.1195 36.9517 13.5117C36.7723 14.9413 36.0818 16.2577 35.0077 17.218C33.9336 18.1784 32.5484 18.7179 31.1077 18.7368C28.1717 18.8068 25.2327 18.7517 22.2947 18.7517V18.7639Z" fill="#6FD1EF" stroke="#6FD1EF" stroke-width="0.123" stroke-miterlimit="10"/>
</svg>
