<svg width="41" height="41" viewBox="0 0 41 41" fill="none" xmlns="http://www.w3.org/2000/svg">
<path d="M18.7129 32.7647C17.5989 34.6967 16.8559 36.8226 18.7649 37.1646C19.0345 37.1963 19.3079 37.1634 19.5623 37.0684C19.8167 36.9735 20.0448 36.8194 20.2278 36.6187C20.5899 36.2142 20.8738 35.7458 21.0648 35.2376C21.7595 33.5385 22.3466 31.7975 22.8228 30.0247C23.2465 28.8004 23.4845 27.5195 23.5288 26.2247C23.5288 26.4597 22.8288 27.1055 22.6908 27.2825C22.1988 27.9125 21.6978 28.5357 21.2148 29.1727C20.3013 30.3126 19.4655 31.5127 18.7129 32.7647Z" fill="#70AFED"/>
<path d="M25.8528 28.0487C25.4748 28.5847 24.6698 30.0047 25.9428 30.2037C26.0953 30.2209 26.2497 30.2052 26.3956 30.1578C26.5415 30.1104 26.6756 30.0322 26.7888 29.9285C26.9944 29.7294 27.1585 29.4915 27.2718 29.2286C27.6709 28.3772 28.0104 27.4991 28.2877 26.6007C28.5311 25.9893 28.6691 25.3411 28.6958 24.6837C28.6958 24.6837 26.6928 26.8587 25.8528 28.0487Z" fill="#70AFED" stroke="#70AFED" stroke-width="0.15" stroke-miterlimit="10"/>
<path d="M31.6438 13.0867C31.9575 11.2796 31.6178 9.41971 30.6855 7.84015C29.7532 6.26059 28.2893 5.06435 26.5556 4.46564C24.8219 3.86693 22.9317 3.90492 21.2233 4.57257C19.515 5.24023 18.1001 6.49406 17.2318 8.10968C16.4789 7.59728 15.5699 7.36564 14.6637 7.45538C13.7574 7.54513 12.9115 7.95053 12.2738 8.60065C11.6601 9.22887 11.2758 10.0453 11.1828 10.9185C9.67615 11.0173 8.26046 11.6743 7.21206 12.7608C6.16365 13.8473 5.55779 15.2856 5.51278 16.7947C5.4752 18.3937 6.07408 19.9421 7.17782 21.0997C8.28155 22.2572 9.7998 22.9291 11.3988 22.9676H30.6438C31.8815 22.9691 33.0756 22.5106 33.9943 21.6812C34.913 20.8518 35.4907 19.7105 35.6153 18.4791C35.7399 17.2476 35.4026 16.0138 34.6687 15.0172C33.9348 14.0205 32.8567 13.3333 31.6438 13.0867Z" fill="#E6E6E6" stroke="#E6E6E6" stroke-width="0.5" stroke-miterlimit="10"/>
<path d="M15.6188 25.2558C15.5905 25.26 15.5646 25.2744 15.5462 25.2963C15.5278 25.3183 15.518 25.3461 15.5188 25.3747V26.0058L15.0058 25.5778C14.9883 25.5604 14.9657 25.549 14.9414 25.5451C14.917 25.5412 14.892 25.5448 14.8699 25.5558C14.8479 25.5669 14.8298 25.5848 14.8183 25.6066C14.8068 25.6285 14.8024 25.6532 14.8058 25.6777C14.8073 25.6936 14.812 25.709 14.8195 25.7231C14.8271 25.7372 14.8374 25.7497 14.8498 25.7597L15.5138 26.3127V27.6428L14.3648 26.9907L14.2158 26.1247C14.212 26.0938 14.196 26.0657 14.1715 26.0466C14.1469 26.0274 14.1157 26.0188 14.0848 26.0226C14.054 26.0265 14.0258 26.0425 14.0067 26.0671C13.9875 26.0916 13.979 26.1228 13.9828 26.1537V26.1657L14.0978 26.8398L13.5119 26.5078C13.4915 26.4952 13.4677 26.4892 13.4438 26.4907C13.4184 26.4924 13.3943 26.5024 13.3749 26.519C13.3556 26.5356 13.3422 26.5581 13.3367 26.5829C13.3312 26.6078 13.3339 26.6337 13.3444 26.6569C13.3548 26.6801 13.3726 26.6995 13.3948 26.7119L13.9608 27.0327L13.3518 27.2568C13.3241 27.2676 13.3015 27.2886 13.2885 27.3154C13.2756 27.3422 13.2732 27.3728 13.2819 27.4013C13.2907 27.4298 13.3098 27.4538 13.3356 27.4687C13.3613 27.4836 13.3918 27.4885 13.4208 27.4819H13.4328L14.2328 27.1896L15.3938 27.8498L14.2328 28.5087L13.4328 28.2148C13.4141 28.2075 13.3938 28.205 13.3739 28.2077C13.3586 28.2098 13.3439 28.2148 13.3306 28.2226C13.3174 28.2304 13.3057 28.2409 13.2965 28.2531C13.2872 28.2654 13.2804 28.2792 13.2765 28.2941C13.2726 28.309 13.2717 28.3245 13.2738 28.3398C13.2761 28.3621 13.2846 28.3834 13.2984 28.4011C13.3122 28.4188 13.3307 28.432 13.3518 28.4396L13.9608 28.6638L13.3948 28.9858C13.3814 28.9934 13.3695 29.0038 13.3601 29.0161C13.3506 29.0283 13.3436 29.0423 13.3396 29.0573C13.3356 29.0723 13.3346 29.0878 13.3367 29.1032C13.3388 29.1186 13.344 29.1333 13.3518 29.1467C13.3677 29.1732 13.3932 29.1926 13.4231 29.2006C13.453 29.2086 13.4848 29.2047 13.5119 29.1896L14.0998 28.8547L13.9828 29.5307C13.9782 29.5463 13.9769 29.5627 13.9789 29.5788C13.9809 29.5949 13.9862 29.6103 13.9945 29.6242C14.0027 29.6382 14.0138 29.6504 14.0269 29.6599C14.0401 29.6693 14.0551 29.6759 14.0709 29.6794C14.0868 29.6828 14.1032 29.683 14.1191 29.6799C14.135 29.6767 14.1501 29.6703 14.1634 29.6611C14.1767 29.6518 14.188 29.64 14.1965 29.6262C14.205 29.6123 14.2106 29.5968 14.2128 29.5807V29.5717L14.3618 28.7057L15.5108 28.0536V29.3837L14.8468 29.9377C14.8348 29.9475 14.8249 29.9596 14.8177 29.9733C14.8104 29.987 14.806 30.0021 14.8046 30.0175C14.8032 30.033 14.8049 30.0486 14.8096 30.0634C14.8143 30.0782 14.8218 30.0919 14.8318 30.1037C14.8519 30.1276 14.8805 30.1427 14.9116 30.1457C14.9426 30.1487 14.9736 30.1394 14.9978 30.1198L15.5108 29.6909V30.3237C15.5135 30.353 15.5271 30.3803 15.5488 30.4001C15.5706 30.4199 15.5989 30.4308 15.6283 30.4308C15.6577 30.4308 15.6861 30.4199 15.7078 30.4001C15.7296 30.3803 15.7431 30.353 15.7458 30.3237V29.6877L16.2588 30.1166C16.283 30.1363 16.3141 30.1458 16.3451 30.1428C16.3761 30.1398 16.4048 30.1247 16.4248 30.1008C16.4349 30.0889 16.4425 30.0751 16.4472 30.0602C16.4519 30.0454 16.4535 30.0298 16.452 30.0143C16.4505 29.9989 16.4459 29.9838 16.4385 29.9702C16.4311 29.9565 16.421 29.9444 16.4088 29.9348L15.7458 29.3808V28.0507L16.8948 28.7028L17.0428 29.5688C17.0469 29.5998 17.0632 29.6279 17.088 29.6469C17.1129 29.6659 17.1443 29.6745 17.1753 29.6703C17.2063 29.6662 17.2345 29.6498 17.2535 29.6249C17.2725 29.6001 17.2809 29.5688 17.2768 29.5378V29.5278L17.1588 28.8517L17.7468 29.1867C17.7741 29.202 17.8062 29.2059 17.8363 29.1977C17.8664 29.1895 17.8921 29.1698 17.9078 29.1428C17.9155 29.1294 17.9205 29.1148 17.9226 29.0995C17.9246 29.0843 17.9235 29.0688 17.9195 29.0539C17.9155 29.039 17.9086 29.0251 17.8992 29.0129C17.8899 29.0007 17.8782 28.9905 17.8648 28.9828L17.2988 28.6608L17.9068 28.4367C17.9361 28.4259 17.9599 28.4039 17.9732 28.3757C17.9865 28.3474 17.9881 28.3153 17.9778 28.2858C17.9692 28.2615 17.9528 28.2407 17.931 28.2267C17.9093 28.2128 17.8835 28.2063 17.8578 28.2087C17.8468 28.2094 17.8361 28.2118 17.8258 28.2158L17.0308 28.5097L15.8688 27.8508L17.0308 27.1909L17.8258 27.4828C17.8402 27.4902 17.8558 27.4943 17.8719 27.4953C17.888 27.4963 17.9041 27.4941 17.9193 27.4887C17.9344 27.4833 17.9483 27.4748 17.96 27.4638C17.9718 27.4528 17.9811 27.4395 17.9876 27.4247C17.994 27.41 17.9973 27.394 17.9974 27.3779C17.9974 27.3618 17.9941 27.3458 17.9878 27.331C17.9815 27.3162 17.9722 27.303 17.9605 27.2919C17.9488 27.2809 17.9349 27.2723 17.9198 27.2668H17.9068L17.2988 27.0427L17.8648 26.7219C17.881 26.7159 17.8957 26.7063 17.9078 26.694C17.92 26.6817 17.9293 26.6669 17.9351 26.6506C17.9409 26.6343 17.9431 26.617 17.9414 26.5998C17.9398 26.5826 17.9344 26.5661 17.9256 26.5512C17.9168 26.5363 17.9048 26.5234 17.8906 26.5136C17.8763 26.5039 17.8601 26.4974 17.8431 26.4946C17.826 26.4918 17.8086 26.4928 17.7919 26.4975C17.7753 26.5022 17.7599 26.5104 17.7468 26.5217L17.1608 26.8537L17.2768 26.1799C17.2827 26.1492 17.2762 26.1173 17.2588 26.0915C17.2414 26.0656 17.2144 26.0477 17.1838 26.0417C17.1752 26.0408 17.1665 26.0408 17.1578 26.0417C17.1304 26.0427 17.104 26.0532 17.0834 26.0715C17.0628 26.0897 17.0492 26.1146 17.0448 26.1418L16.8968 27.0078L15.7478 27.6599V26.3298L16.4108 25.7768C16.4234 25.7672 16.4339 25.7549 16.4417 25.7411C16.4495 25.7274 16.4545 25.7122 16.4563 25.6965C16.4581 25.6807 16.4567 25.6648 16.4522 25.6496C16.4477 25.6344 16.4402 25.6203 16.4301 25.6081C16.42 25.5959 16.4076 25.5856 16.3936 25.5783C16.3795 25.571 16.3641 25.5666 16.3483 25.5654C16.3325 25.5641 16.3166 25.5662 16.3016 25.5712C16.2866 25.5763 16.2727 25.5841 16.2608 25.5947L15.7478 26.0226V25.3918C15.7481 25.3607 15.7362 25.3307 15.7147 25.3083C15.6932 25.2859 15.6639 25.2727 15.6328 25.2717L15.6188 25.2558Z" fill="#6FD1EF" stroke="#6FD1EF" stroke-width="0.05" stroke-miterlimit="10"/>
</svg>
