<svg xmlns="http://www.w3.org/2000/svg" xmlns:xlink="http://www.w3.org/1999/xlink" width="293" height="205" viewBox="0 0 293 205">
  <defs>
    <clipPath id="clip-path">
      <rect id="Rectangle_143031" data-name="Rectangle 143031" width="293" height="205" rx="102.5" transform="translate(0 -0.178)" fill="#fff"/>
    </clipPath>
  </defs>
  <g id="Add_Farms" data-name="Add Farms" transform="translate(0 0.178)" clip-path="url(#clip-path)">
    <path id="Path_99040" data-name="Path 99040" d="M277.132,35.6c25.181,33.321,19.1,95.173-9.119,130.019-28.218,35.071-78.58,43.134-127.859,42.479s-97.472-9.8-121.782-42.467S-6.157,76.775,17.938,44.324,90.649,2.725,142.976.549C195.51-1.847,251.95,2.51,277.132,35.6Z" transform="translate(-0.001 -0.197)" fill="#f4f4f4"/>
    <path id="Path_99041" data-name="Path 99041" d="M189.517,224.029h54.772A7.12,7.12,0,0,0,251.4,216.9v-3.863H189.517Z" transform="translate(-72.121 -81.268)" fill="#1d1d1b"/>
    <path id="Path_99042" data-name="Path 99042" d="M256.293,156.939v41.628H311.4a4.236,4.236,0,0,0,4.225-4.243V165.844A8.892,8.892,0,0,0,307.776,157a8.139,8.139,0,0,0-1.035-.061Z" transform="translate(-97.532 -59.92)" fill="#b0adc2"/>
    <path id="Path_99043" data-name="Path 99043" d="M250.036,122.522l-8.763-4.25.545-1.126,8.759,4.259Z" transform="translate(-91.816 -44.777)" fill="#2f2e41"/>
    <path id="Path_99044" data-name="Path 99044" d="M246.322,115.952c-.026-.279.064-.593-.1-.818a.855.855,0,0,0-.674-.237l-2.571-.12a.584.584,0,0,0-.793.461.585.585,0,0,0,.056.343.929.929,0,0,0,.249.676.946.946,0,0,0,.3.214.93.93,0,0,0,.358.082c.881.187,1.763.374,2.658.473a.659.659,0,0,0,.473-.071.511.511,0,0,0,.134-.217.524.524,0,0,0,.015-.255C246.405,116.295,246.339,116.117,246.322,115.952Z" transform="translate(-92.16 -43.859)" fill="#edbb86"/>
    <path id="Path_99045" data-name="Path 99045" d="M239.742,116.739a1.245,1.245,0,0,0,.215-.019L258,113.437a1.206,1.206,0,0,0-.428-2.365l-18.045,3.283a1.206,1.206,0,0,0,.212,2.394Z" transform="translate(-90.775 -42.463)" fill="#2f2e41"/>
    <path id="Path_99046" data-name="Path 99046" d="M255.237,130.735l3.45-.6L257.1,121a.946.946,0,0,0-1.085-.764l-1.6.282a.946.946,0,0,0-.764,1.088Z" transform="translate(-96.521 -45.949)" fill="#2f2e41"/>
    <path id="Path_99047" data-name="Path 99047" d="M253.648,187.69l1.555-.216a13.056,13.056,0,0,0,11.122-14.723L260.578,130.9a3.029,3.029,0,0,0-3.5-2.472l-5.185.906a3.036,3.036,0,0,0-2.462,3.515Z" transform="translate(-94.903 -49.055)" fill="#d0cde1"/>
    <path id="Path_99048" data-name="Path 99048" d="M143.616,128.383H169.8v26.441h-39.7l3.675-18.361a10.038,10.038,0,0,1,9.837-8.079Z" transform="translate(-49.511 -49.053)" fill="#d0cde1"/>
    <path id="Path_99049" data-name="Path 99049" d="M196.332,209.986h-40.41v4.979h40.41Z" transform="translate(-59.336 -80.107)" fill="#1d1d1b"/>
    <path id="Path_99050" data-name="Path 99050" d="M115.16,172.782v24.749h23.433a2.706,2.706,0,0,0,2.7-2.708v-.076a5.3,5.3,0,0,1,5.293-5.309H175.2a5.3,5.3,0,0,1,5.293,5.309v.081a2.706,2.706,0,0,0,2.7,2.708h21.144V185.051a3.018,3.018,0,0,0-3.018-3.027H184.623l-2.053-16.131-1.07-8.436a3.666,3.666,0,0,0-3.632-3.212H133.631a18.5,18.5,0,0,0-18.471,18.531Z" transform="translate(-43.824 -58.894)" fill="#d0cde1"/>
    <path id="Path_99051" data-name="Path 99051" d="M193.1,114.831c1.777.071,3.4.445,3.544,2.221l1.543,19.826a2.6,2.6,0,0,0,2.578,2.379h8.475a1.813,1.813,0,0,1,1.81,1.816v3.659h-13.79a3.946,3.946,0,0,1-3.939-3.95v-1.525l-1.418-23.217a1.136,1.136,0,0,1,1.181-1.209Z" transform="translate(-73.029 -43.896)" fill="#2f2e41"/>
    <path id="Path_99052" data-name="Path 99052" d="M115.171,179.943v9.286H184.7v-.04h-.066l-2.051-16.128h-66.1A18.553,18.553,0,0,0,115.171,179.943Z" transform="translate(-43.828 -66.055)" fill="#2f2e41"/>
    <path id="Path_99053" data-name="Path 99053" d="M173.21,134.3h-12.2a1.829,1.829,0,0,0-1.829,1.83v.4a1.829,1.829,0,0,0,1.829,1.83h12.2a1.83,1.83,0,0,0,1.829-1.83v-.4A1.83,1.83,0,0,0,173.21,134.3Z" transform="translate(-60.577 -51.307)" fill="#e4e4e4"/>
    <path id="Path_99054" data-name="Path 99054" d="M179.372,148.178a.539.539,0,0,0,0-1.076H172.52a.539.539,0,0,0,0,1.076Zm0-1.741a.539.539,0,0,0,0-1.078H172.52a.539.539,0,0,0,0,1.078Zm0-1.741a.539.539,0,0,0,0-1.078H172.52a.539.539,0,0,0,0,1.078Z" transform="translate(-65.447 -54.851)" fill="#2f2e41"/>
    <path id="Path_99055" data-name="Path 99055" d="M239.969,116.85a1.245,1.245,0,0,0,1.248.563c1.082,0,1.418-.04,2.564-.107-.324.584-.307,1.166-.836,1.575a4.961,4.961,0,0,1-1.891.762,6.122,6.122,0,0,1-4.851-.346.828.828,0,0,1-.4-.253.725.725,0,0,1-.078-.506,4.494,4.494,0,0,1,1.38-2.472,3.306,3.306,0,0,1,1.335-.93c1.2-.374,2.654.237,3.891,0a.907.907,0,0,1,.662.012.473.473,0,0,1,.165.254.467.467,0,0,1-.023.3.834.834,0,0,1-.435.421,3.61,3.61,0,0,1-1.283.222A2.472,2.472,0,0,0,239.969,116.85Z" transform="translate(-89.7 -43.965)" fill="#a0616a"/>
    <path id="Path_99056" data-name="Path 99056" d="M212.521,97.172l-5.908-1.1,1.246-5.726,5.25.4Z" transform="translate(-78.626 -34.578)" fill="#a0616a"/>
    <path id="Path_99057" data-name="Path 99057" d="M215.918,89.988a1.456,1.456,0,0,1-1.316.632l-1.236-.125a3.583,3.583,0,0,1-1.281-.549,4.6,4.6,0,0,1-2.093-4.189h-.066l-.009,0-.01,0c-.909-.1-2.41.7-2.438-.2-.033-.991-1.009-2.507-1.035-3.813.548-5.762,4.093-5.2,6.226-5.069a4.907,4.907,0,0,1,4.109,2.947,6.311,6.311,0,0,1,.473,1.866,9.17,9.17,0,0,1,.045,1.152,7.238,7.238,0,0,1-.326.669l.113.312.505,1.386a.612.612,0,0,1,.023.263.618.618,0,0,1-.519.534l-.56.116c-.033.386-.031,2.557-.031,2.557A3.036,3.036,0,0,1,215.918,89.988Z" transform="translate(-78.558 -29.345)" fill="#a0616a"/>
    <path id="Path_99058" data-name="Path 99058" d="M207.255,86.485c3.833,1.1,1.933-3.505,1.933-3.505s.785,1.459,1.075,1.873a11.716,11.716,0,0,0,1.207.024c.539-4.894-.272-7.157,5.052-5.676a4.855,4.855,0,0,0-4.648-3.668c-2.835.551-5.5,1.287-5.931,4.153C205.7,81.35,205.474,82.275,207.255,86.485Z" transform="translate(-78.309 -28.94)" fill="#131313"/>
    <path id="Path_99059" data-name="Path 99059" d="M210.178,87.29c-.055.906.642,2,1.233,2.032s.569-.71.633-1.606c.043-.6.237-1.44-.39-1.67C211.1,85.847,210.258,85.963,210.178,87.29Z" transform="translate(-79.982 -32.913)" fill="#a0616a"/>
    <path id="Path_99060" data-name="Path 99060" d="M216.872,79.985l-4.383.44-4.308.433-.139.014-.182.019-2.068.208.073-2.167a4.256,4.256,0,0,1,3.228-3.616l2.63-.525a4.271,4.271,0,0,1,4.861,3.548c.014.066.029.137.043.208l.094.544Z" transform="translate(-78.314 -28.64)" fill="#37598e"/>
    <path id="Path_99061" data-name="Path 99061" d="M225.43,82.237a2.754,2.754,0,0,1-2.363,1.2,19.414,19.414,0,0,1-2.451,0c-1-.047-3.87-.312-4.017-.326a13.217,13.217,0,0,1,4.227-1.334s.992.069,2.053.158A15.217,15.217,0,0,1,225.43,82.237Z" transform="translate(-82.427 -31.318)" fill="#37598e"/>
    <path id="Path_99062" data-name="Path 99062" d="M217.986,86.087l.113.315a61.872,61.872,0,0,1-8.979-2.015l.182-.019.118.024.021-.038,4.308-.433c.142.014,3.017.281,4.017.326l.5.017a8.76,8.76,0,0,1,.043,1.154A6.794,6.794,0,0,1,217.986,86.087Z" transform="translate(-79.581 -32.133)" fill="#a0616a" opacity="0.1"/>
    <path id="Path_99063" data-name="Path 99063" d="M219.064,95.936a1.456,1.456,0,0,1-1.316.632l-1.236-.125a3.585,3.585,0,0,1-1.281-.549,3.971,3.971,0,0,1-.515-1.757,12.152,12.152,0,0,1,.052-1.911,2.971,2.971,0,0,0,.555,1.58,5.207,5.207,0,0,0,1.181,1.183,4.929,4.929,0,0,0,1.474.8A2.951,2.951,0,0,0,219.064,95.936Z" transform="translate(-81.704 -35.293)" fill="#a0616a" opacity="0.1"/>
    <path id="Path_99064" data-name="Path 99064" d="M201.627,146.728l14.338-3.448-3.4-2.3-.435-1.474-11.006,1.767.258,2.807.212,2.311Z" transform="translate(-76.539 -53.286)" fill="#006080"/>
    <path id="Path_99065" data-name="Path 99065" d="M240.624,194.226a10.046,10.046,0,0,0,2.94-.807.3.3,0,0,0,.139-.132.3.3,0,0,0,.029-.19l-.112-.58a1.44,1.44,0,0,0-.361-1.374c-1.336-1.135-6.26-1.92-7.113-4.321-.248-.709-.165-1.183-.378-1.2-1.494-.088-1.231,1.4-.785,2.325a3.239,3.239,0,0,1-4.395.139,6.658,6.658,0,0,0-.8,4.087l-.288.968a.263.263,0,0,0,.021.222.267.267,0,0,0,.069.082.281.281,0,0,0,.1.048l.9.236a3.266,3.266,0,0,0,.8.121l2.193.066h.168l4.99.383a5.4,5.4,0,0,0,.617.024A8.431,8.431,0,0,0,240.624,194.226Z" transform="translate(-87.331 -70.833)" fill="#2f2e41"/>
    <path id="Path_99066" data-name="Path 99066" d="M230.488,190.006c.73.3.725-.329,1.78-.374-.133-.19-.385-.237-.527-.79-.1-.407-.2-.811-.392-.92l-.061-.024a.276.276,0,0,0-.116-.016.272.272,0,0,0-.2.112.272.272,0,0,0-.046.107C230.84,188.549,230.675,189.382,230.488,190.006Z" transform="translate(-87.712 -71.695)" fill="#ededed"/>
    <path id="Path_99067" data-name="Path 99067" d="M203.775,149.147c.531.064,11.612,1.994,17.193,2.153.158.026,4.4-.5,4.752-2.722l.014-.087c.276-1.7.472-3.979-1.04-4.539a15.978,15.978,0,0,0-2.578-.473l-9.085-1.453-6.968-1.111c-1.137-.289-5.135-1.495-5.2-.348C200.677,143.778,200.705,148.774,203.775,149.147Z" transform="translate(-76.414 -53.505)" fill="#37598e"/>
    <path id="Path_99068" data-name="Path 99068" d="M229.611,174.951a77.241,77.241,0,0,1,1.264-24.39c.121-2.415,1.137-4.636,3.544-4.51h.087a4.369,4.369,0,0,1,4.128,4.586L237.4,173.106Z" transform="translate(-87.21 -55.775)" fill="#37598e"/>
    <path id="Path_99069" data-name="Path 99069" d="M200.006,123.687l11.578.636a36.388,36.388,0,0,0,.945-9.286c-.026-3.193-.3-5.636-.3-5.729a17.316,17.316,0,0,0-2.871-10.069l-.473-.151-.092-.431a2.206,2.206,0,0,0-1.349-1.6l-3.521-1.322-.376,1.481C195.672,104.5,199.3,118.244,200.006,123.687Z" transform="translate(-75.561 -36.63)" fill="#37598e"/>
    <path id="Path_99070" data-name="Path 99070" d="M204.187,109.723l2.242,11.377a9.857,9.857,0,0,0,4.381,6.409l2.923,1.859a36.357,36.357,0,0,0,.945-9.286V117.2l-4.726-8.2Z" transform="translate(-77.703 -41.678)" fill="#37598e" opacity="0.1"/>
    <path id="Path_99071" data-name="Path 99071" d="M213.572,121.76l13.568-2.957,1.836,2.439-12.8,5.643a3.614,3.614,0,0,1-3.362.083,2.73,2.73,0,0,1-1.489-1.8v-.057a2.856,2.856,0,0,1,2.242-3.351Z" transform="translate(-80.401 -45.407)" fill="#37598e"/>
    <path id="Path_99072" data-name="Path 99072" d="M204.489,109.3l4.3,10.856,6.035-1.06L210.4,107.321c-.489-1.53-2.273-3.886-4.227-3.179a3.625,3.625,0,0,0-1.682,5.156Z" transform="translate(-77.629 -39.779)" fill="#37598e"/>
    <path id="Path_99073" data-name="Path 99073" d="M210.735,144.908l5.626,23.342,9.39-5.788c-5.635-3.368-6.826-13.841-4.565-21.225-6.127-.473-13.982-1.147-16.486-4.378-2.85-3.614-4.61-10.837-6.144-18.813v22.046a3.311,3.311,0,0,0,2.774,3.276Z" transform="translate(-75.561 -45.12)" fill="#37598e" opacity="0.1"/>
    <path id="Path_99074" data-name="Path 99074" d="M258.754,120.416l-.9-.854,5.526-5.837.9.854Z" transform="translate(-98.126 -43.475)" fill="#2f2e41"/>
    <path id="Path_99075" data-name="Path 99075" d="M254.06,115.67l1,5.395,1.22-.227-1-5.395Z" transform="translate(-96.682 -44.129)" fill="#2f2e41"/>
    <path id="Path_99076" data-name="Path 99076" d="M272.414,156.937v8.385a4.651,4.651,0,0,0,4.645,4.66h32.206a4.653,4.653,0,0,0,4.645-4.66V157a8.142,8.142,0,0,0-1.035-.062Z" transform="translate(-103.667 -59.919)" fill="#d0cde1"/>
    <path id="Path_99077" data-name="Path 99077" d="M279.713,188.884v-6.369a.775.775,0,0,0-.046-.31.766.766,0,0,0-.165-.266.773.773,0,0,0-1.126,0,.766.766,0,0,0-.165.266.775.775,0,0,0-.046.31v6.369a.775.775,0,1,0,1.548,0Zm3.085,0v-6.369a.775.775,0,1,0-1.55,0v6.369a.775.775,0,1,0,1.55,0Zm3.1,0v-6.369a.775.775,0,1,0-1.55,0v6.369a.775.775,0,1,0,1.55,0Zm3.1,0v-6.369a.775.775,0,1,0-1.55,0v6.369a.775.775,0,1,0,1.55,0Zm3.1,0v-6.369a.775.775,0,1,0-1.55,0v6.369a.775.775,0,1,0,1.55,0Zm3.1,0v-6.369a.775.775,0,1,0-1.55,0v6.369a.775.775,0,1,0,1.55,0Zm3.1,0v-6.369a.775.775,0,1,0-1.55,0v6.369a.775.775,0,1,0,1.55,0Zm3.1,0v-6.369a.788.788,0,0,0-.059-.3.775.775,0,0,0-1.264-.251.779.779,0,0,0-.227.549v6.369a.775.775,0,1,0,1.551,0Zm3.1,0v-6.369a.773.773,0,1,0-1.546,0v6.369a.773.773,0,1,0,1.546,0Zm3.1,0v-6.369a.775.775,0,1,0-1.55,0v6.369a.775.775,0,1,0,1.55,0Zm3.107,0v-6.369a.775.775,0,1,0-1.55,0v6.369a.775.775,0,1,0,1.55,0Z" transform="translate(-105.855 -69.341)" fill="#2f2e41"/>
    <path id="Path_99078" data-name="Path 99078" d="M278.692,170.975a.831.831,0,0,0,.242.587.814.814,0,0,0,.269.18.829.829,0,0,0,.317.063h32.053a.817.817,0,0,0,.317-.064.829.829,0,0,0,.268-.18.816.816,0,0,0,.178-.269.828.828,0,0,0-.763-1.145H279.526a.827.827,0,0,0-.827.828Z" transform="translate(-106.056 -64.946)" fill="#2f2e41"/>
    <path id="Path_99079" data-name="Path 99079" d="M278.692,162.59a.829.829,0,0,0,.827.828h32.053a.828.828,0,0,0,0-1.656H279.526a.827.827,0,0,0-.827.828Z" transform="translate(-106.056 -61.755)" fill="#2f2e41"/>
    <path id="Path_99080" data-name="Path 99080" d="M316.456,198.783h-3.072l-.512.885-2.7.452-.773-.669-2.906,1-.2,1.005-2.408,1.308-.945-.381-2.427,1.892.137,1.015-1.855,2.02-1.018-.052-1.682,2.582.456.916-1.1,2.514-.981.284-.753,2.989.727.709-.236,2.737-.836.587.253,3.075.921.44.671,2.663-.6.828,1.236,2.824,1.013.116,1.5,2.3-.3.979,2.082,2.268,1-.22,2.159,1.686.033,1.025,2.7,1.469.872-.532,2.6.891.362.947,3.031.508.652-.787h2.736l.652.787,3.032-.508.362-.947,2.6-.891.872.532,2.7-1.469.033-1.025,2.159-1.686,1,.22,2.082-2.268-.3-.979,1.5-2.3,1.014-.116,1.236-2.824-.6-.828.671-2.663.922-.44.253-3.075-.836-.587-.237-2.737.728-.709-.754-2.989-.981-.284-1.1-2.514.456-.916-1.682-2.582-1.018.052-1.865-2.015.135-1.015-2.427-1.892-.945.381-2.408-1.308-.2-1-2.906-1-.772.67-2.7-.452Z" transform="translate(-111.642 -75.844)" fill="#2f2e41"/>
    <path id="Path_99081" data-name="Path 99081" d="M146.783,157.7h-4.891l-.818,1.407-4.3.71-1.228-1.065-4.627,1.594-.319,1.6-3.831,2.079-1.507-.605-3.859,3.013.215,1.616-2.949,3.214-1.62-.083-2.675,4.109.728,1.457-1.748,4-1.56.45-1.2,4.756,1.16,1.14-.359,4.355-1.33.934.4,4.889,1.465.71L113,202.208l-.945,1.318,1.964,4.494,1.614.187,2.382,3.657-.473,1.556,3.308,3.61,1.586-.35,3.435,2.684.052,1.627,4.3,2.335,1.387-.847,4.119,1.419.577,1.523,4.825.807,1.038-1.254h4.355l1.037,1.254,4.825-.807.577-1.523,4.119-1.419,1.387.847,4.3-2.335.051-1.627,3.436-2.684,1.585.35,3.309-3.61-.473-1.556,2.368-3.65,1.614-.186,1.964-4.494-.945-1.318,1.068-4.236,1.465-.709.4-4.889-1.331-.934-.359-4.354,1.158-1.14-1.2-4.756-1.56-.449-1.749-4,.728-1.457-2.675-4.108-1.621.083-2.949-3.214.217-1.616-3.859-3.014-1.508.606-3.83-2.079-.319-1.6-4.627-1.594-1.229,1.064-4.3-.709Z" transform="translate(-41.886 -60.208)" fill="#2f2e41"/>
    <path id="Path_99082" data-name="Path 99082" d="M172.522,201.579a18.54,18.54,0,1,1-1.417-7.092A18.527,18.527,0,0,1,172.522,201.579Z" transform="translate(-51.577 -69.863)" fill="#2f2e41"/>
    <path id="Path_99083" data-name="Path 99083" d="M174.82,197.892a24.524,24.524,0,1,1-1.868-9.38A24.5,24.5,0,0,1,174.82,197.892Zm-2.646,0a21.848,21.848,0,1,0-1.634,8.375A21.849,21.849,0,0,0,172.174,197.892Z" transform="translate(-47.909 -66.18)" fill="#dadada"/>
    <path id="Path_99084" data-name="Path 99084" d="M171.172,203.743a15.04,15.04,0,1,1-1.146-5.75A15.021,15.021,0,0,1,171.172,203.743Zm-5.567,0a6.648,6.648,0,1,0,0,.01Z" transform="translate(-53.728 -72.015)" fill="#ededed"/>
    <path id="Path_99085" data-name="Path 99085" d="M169.028,207.186a9.456,9.456,0,1,1-2.775-6.678A9.437,9.437,0,0,1,169.028,207.186Zm-5.822-3.612a1.324,1.324,0,1,0-.3-.436,1.344,1.344,0,0,0,.3.436Zm-4.4-2.185a.786.786,0,1,0,.784-.79.789.789,0,0,0-.559.232.784.784,0,0,0-.228.561Zm-4.726,2.2a1.344,1.344,0,1,0-.293-.436,1.349,1.349,0,0,0,.293.436ZM153.809,208a.782.782,0,0,0,.315-.047.788.788,0,0,0,.453-.429.79.79,0,0,0-.453-1.054.79.79,0,1,0-.315,1.53Zm2.19,2.838a7.711,7.711,0,1,1-.007-.009Zm4.395,2.18a.784.784,0,0,0-.486-.727.783.783,0,0,0-.3-.058.774.774,0,0,0-.314.047.783.783,0,0,0-.452.428.784.784,0,0,0,0,.623.807.807,0,0,0,1.552-.317Zm2.784-5.814a3.682,3.682,0,1,1,0-.009Zm1.94,3.616a.464.464,0,1,0,0-.012Zm1.059-3.619a.784.784,0,1,0-1.508.3.786.786,0,0,0,1.285.25.786.786,0,0,0,.226-.561Z" transform="translate(-57.15 -75.448)" fill="#c6c6c6"/>
    <path id="Path_99086" data-name="Path 99086" d="M173.8,199.525a21.856,21.856,0,1,1-6.408-15.45A21.853,21.853,0,0,1,173.8,199.525Zm-7.968-8.016a2.442,2.442,0,1,0,1.052-3,2.258,2.258,0,0,0-1.052,3Zm-13.875-7a15,15,0,1,0,5.747,1.14A15.022,15.022,0,0,0,151.96,184.508Zm8.013,1.119a2.447,2.447,0,1,0-.588-3.127,2.261,2.261,0,0,0,.588,3.139Zm-10.077-4.55a2.088,2.088,0,1,0,2.058-2.429,2.263,2.263,0,0,0-2.058,2.441Zm-8.93,3.522a2.091,2.091,0,1,0,.574-3.129,2.258,2.258,0,0,0-.574,3.141Zm-5.976,7.536a2.094,2.094,0,1,0-1.061-3,2.263,2.263,0,0,0,1.061,3.011Zm-1.417,9.517a2.093,2.093,0,1,0-2.413-2.065,2.259,2.259,0,0,0,2.405,2.075Zm4.563,5.956a2.442,2.442,0,1,0-1.047,3.008,2.255,2.255,0,0,0,1.042-3Zm5.872,5.872a2.449,2.449,0,1,0,.584,3.131,2.259,2.259,0,0,0-.588-3.122Zm10.078,4.555a2.089,2.089,0,1,0-2.058,2.417,2.26,2.26,0,0,0,2.053-2.408Zm8.927-3.527a2.091,2.091,0,1,0-.572,3.129,2.259,2.259,0,0,0,.56-3.12Zm5.976-7.528a2.092,2.092,0,1,0,1.063,3,2.254,2.254,0,0,0-1.068-3Zm3.835-7.463a2.438,2.438,0,1,0-2.405,2.077,2.251,2.251,0,0,0,2.4-2.067Z" transform="translate(-49.536 -67.813)" fill="#c6c6c6"/>
    <path id="Path_99087" data-name="Path 99087" d="M332.3,226.908a10.772,10.772,0,1,1-.824-4.119A10.757,10.757,0,0,1,332.3,226.908Z" transform="translate(-118.28 -82.455)" fill="#2f2e41"/>
    <path id="Path_99088" data-name="Path 99088" d="M333.635,224.774a14.24,14.24,0,1,1-1.085-5.448A14.231,14.231,0,0,1,333.635,224.774Zm-1.536,0a12.706,12.706,0,1,0-.951,4.865A12.691,12.691,0,0,0,332.1,224.774Z" transform="translate(-116.151 -80.319)" fill="#dadada"/>
    <path id="Path_99089" data-name="Path 99089" d="M331.518,228.176a8.735,8.735,0,1,1-.665-3.34A8.723,8.723,0,0,1,331.518,228.176Zm-3.233,0a5.49,5.49,0,1,0-1.6,3.885,5.482,5.482,0,0,0,1.6-3.885Z" transform="translate(-119.532 -83.709)" fill="#ededed"/>
    <path id="Path_99090" data-name="Path 99090" d="M330.266,230.175a5.486,5.486,0,1,1-1.609-3.88A5.482,5.482,0,0,1,330.266,230.175Zm-3.381-2.1a.783.783,0,1,0-.17-.254A.783.783,0,0,0,326.885,228.077Zm-2.556-1.27a.457.457,0,0,0,.283.42.455.455,0,0,0,.62-.335.455.455,0,0,0-.194-.468.454.454,0,0,0-.253-.077.456.456,0,0,0-.426.292.453.453,0,0,0-.03.179Zm-2.744,1.277a.789.789,0,1,0-.17-.255A.786.786,0,0,0,321.585,228.084Zm-.159,2.561a.459.459,0,1,0-.324-.134A.458.458,0,0,0,321.427,230.645Zm1.272,1.642a.781.781,0,0,0-.852-.168.784.784,0,1,0,1.024.425.775.775,0,0,0-.17-.255Zm2.552,1.267a.444.444,0,0,0-.034-.175.461.461,0,0,0-.1-.149.457.457,0,1,0-.323.78.448.448,0,0,0,.175-.033.464.464,0,0,0,.149-.1.455.455,0,0,0,.1-.149A.449.449,0,0,0,325.25,233.554Zm1.616-3.377a2.07,2.07,0,1,0-.154.8,2.081,2.081,0,0,0,.154-.8Zm1.127,2.1a.79.79,0,1,0,.229.557.786.786,0,0,0-.229-.557Zm.615-2.1a.46.46,0,0,0-.076-.255.454.454,0,0,0-.2-.169.456.456,0,0,0-.6.6.458.458,0,0,0,.745.147.458.458,0,0,0,.134-.321Z" transform="translate(-121.516 -85.703)" fill="#c6c6c6"/>
    <path id="Path_99091" data-name="Path 99091" d="M333.038,225.723a12.695,12.695,0,1,1-3.722-8.973A12.688,12.688,0,0,1,333.038,225.723Zm-4.624-4.655a1.418,1.418,0,1,0,.612-1.743,1.311,1.311,0,0,0-.612,1.743Zm-8.062-4.059a8.7,8.7,0,1,0,3.338.66,8.717,8.717,0,0,0-3.338-.66Zm4.655.65a1.42,1.42,0,1,0-.343-1.816,1.315,1.315,0,0,0,.343,1.816Zm-5.853-2.644a1.212,1.212,0,1,0,1.2-1.419,1.307,1.307,0,0,0-1.2,1.419Zm-5.187,2.046a1.215,1.215,0,1,0,.333-1.816,1.31,1.31,0,0,0-.333,1.816Zm-3.471,4.376a1.216,1.216,0,1,0-.617-1.743,1.314,1.314,0,0,0,.617,1.743Zm-.827,5.527a1.216,1.216,0,1,0-1.4-1.2,1.311,1.311,0,0,0,1.4,1.2Zm2.651,3.458a1.418,1.418,0,1,0-.61,1.748,1.311,1.311,0,0,0,.61-1.748Zm3.409,3.411a1.419,1.419,0,1,0,.34,1.819,1.31,1.31,0,0,0-.34-1.819Zm5.853,2.646a1.213,1.213,0,1,0-1.2,1.4,1.313,1.313,0,0,0,1.2-1.4Zm5.184-2.048a1.213,1.213,0,1,0-.333,1.816,1.313,1.313,0,0,0,.333-1.816Zm3.471-4.373a1.216,1.216,0,1,0,.619,1.743,1.311,1.311,0,0,0-.619-1.743Zm2.228-4.333a1.417,1.417,0,1,0-1.4,1.206,1.306,1.306,0,0,0,1.4-1.206Z" transform="translate(-117.093 -81.268)" fill="#c6c6c6"/>
    <g id="Group_167583" data-name="Group 167583" transform="translate(-14.487 142.176)">
      <path id="Path_99092" data-name="Path 99092" d="M138.04,407.8c89.787,0,162.574-33.641,162.574-75.138s-72.787-75.138-162.574-75.138S-24.534,291.168-24.534,332.665,48.253,407.8,138.04,407.8Z" transform="translate(24.534 -239.712)" fill="#bddac0"/>
      <path id="Path_99093" data-name="Path 99093" d="M137.456,240.626c.147,1.275.326,2.545.473,3.493s.236,1.575.236,1.575.09.615.222,1.571.262,2.093.349,3.282c0,.925.038,1.819.064,2.576a5.657,5.657,0,0,1-.019.568h6.044v-.038c.177-.906.416-2.128.615-3.349s.392-2.465.51-3.39.177-1.542.177-1.542l.04-.426c.028-.272.064-.658.1-1.119.083-.925.151-2.157.212-3.39s.081-2.464.092-3.389.019-1.54.019-1.54-.09.618-.222,1.523-.328,2.128-.539,3.335-.451,2.41-.65,3.311c-.094.447-.182.818-.236,1.078s-.095.407-.095.407-.142.593-.371,1.476c-.111.418-.236.906-.392,1.419.156-1.393.307-2.75.4-3.805.109-1.209.177-2.013.177-2.013s.059-.8.147-2.015.156-2.822.186-4.437,0-3.226-.073-4.435c-.019-.618-.073-1.1-.095-1.455s-.04-.551-.04-.551v.553c0,.352,0,.852-.051,1.454-.052,1.2-.194,2.8-.376,4.388s-.43,3.172-.629,4.354-.345,1.973-.345,1.973l-.378,1.963c-.1.518-.224,1.116-.357,1.752.073-.958.16-1.868.236-2.625l.206-2.195s.019-.222.052-.615.081-.925.13-1.6c.108-1.323.185-3.075.222-4.861,0-.885,0-1.767-.022-2.6s-.052-1.6-.1-2.256c-.1-1.32-.163-2.2-.163-2.2s-.014.882-.04,2.2c-.017.657-.071,1.419-.111,2.247s-.144,1.691-.217,2.564c-.2,1.741-.437,3.472-.659,4.768-.111.649-.2,1.183-.274,1.564l-.108.592s-.164.863-.406,2.157-.582,3.035-.818,4.825a2.5,2.5,0,0,1-.031.253c-.248-2.446-.378-4.6-.378-4.6s-.187-2.937-.217-5.892.085-5.913.085-5.913-.449,2.928-.735,5.882c-.279,2.755-.418,5.527-.437,5.89-.236-.842-.505-1.85-.758-2.876-.289-1.233-.534-2.465-.657-3.425-.08-.473-.1-.868-.132-1.147l-.043-.435v.438c0,.281-.033.679,0,1.159A31.109,31.109,0,0,0,137.456,240.626Z" transform="translate(-47.754 -226.837)" fill="#bddac0"/>
      <path id="Path_99094" data-name="Path 99094" d="M43.782,252.453l.236.844s.328,1.232.766,3.087a67.638,67.638,0,0,1,1.181,6.859c.168,1.611.267,3.219.3,4.657H63.857a4.8,4.8,0,0,1,.024-.572c.064-1.788.215-4.169.416-6.551s.5-4.756.766-6.521c.116-.894.248-1.63.321-2.148s.13-.813.13-.813.05-.3.142-.814.206-1.258.383-2.128c.328-1.769.829-4.116,1.387-6.455s1.207-4.657,1.732-6.386c.248-.87.489-1.585.643-2.086s.248-.795.248-.795l-.314.766c-.2.492-.5,1.183-.818,2.029-.666,1.684-1.5,3.955-2.271,6.245s-1.46,4.6-1.942,6.372c-.175.613-.314,1.152-.432,1.6.142-1.228.321-2.616.52-4,.3-2.011.65-4.021.945-5.516.137-.767.279-1.375.383-1.809s.142-.686.142-.686l-.21.672c-.13.426-.333,1.031-.544,1.764-.447,1.466-.99,3.432-1.5,5.417s-.945,3.986-1.245,5.492c-.161.766-.267,1.386-.354,1.826s-.13.7-.13.7-.045.248-.123.7-.2,1.074-.31,1.833c-.248,1.535-.532,3.56-.766,5.606-.05.442-.095.882-.142,1.319-.019-.421-.038-.847-.054-1.272-.054-1.746-.069-3.493-.043-4.806,0-.655.031-1.2.038-1.585s0-.6,0-.6l.031-.6c.019-.383.035-.932.08-1.587.076-1.313.222-3.075.409-4.813s.444-3.493.657-4.8c.1-.655.206-1.2.267-1.578l.106-.6-.175.579c-.1.383-.274.9-.447,1.536-.364,1.277-.8,2.992-1.207,4.73s-.737,3.453-.966,4.787c-.123.655-.2,1.2-.267,1.592l-.1.6s-.031.222-.087.606-.142.946-.222,1.6-.175,1.4-.265,2.214c.076-1.751.172-3.43.272-4.752l.217-2.77.267-2.763c.168-1.656.439-3.867.747-6.069s.676-4.4.976-6.05.513-2.739.513-2.739-.3,1.074-.766,2.685-1,3.784-1.529,5.953-.978,4.368-1.3,6.015-.525,2.753-.525,2.753l-.215,1.251V249.8s0-.329.026-.913c0-.289.024-.641.045-1.043s.045-.859.085-1.353c.069-.994.191-2.148.352-3.382s.383-2.547.673-3.836.626-2.59,1-3.784a31.269,31.269,0,0,1,1.167-3.214c.187-.473.383-.887.546-1.254s.317-.709.451-.946l.413-.826-.473.79c-.156.248-.328.561-.525.92s-.421.766-.643,1.215c-.473.9-.945,1.98-1.418,3.148s-.91,2.456-1.3,3.751-.709,2.616-.983,3.857c-.2.982-.383,1.918-.515,2.763.045-2.091.149-4.744.335-7.4a74.166,74.166,0,0,1,1.037-7.848c.045-.265.092-.523.137-.766s.106-.473.156-.679c.1-.426.187-.8.255-1.1l.236-.967-.291.946c-.095.3-.206.667-.336,1.09l-.206.667q-.092.355-.191.766a74.784,74.784,0,0,0-1.578,7.791c-.409,2.864-.709,5.755-.905,7.9l-.314,3.595s-.123,1.436-.3,3.586-.451,4.985-.8,7.833c-.111.833-.236,1.656-.359,2.462,0-.946.031-1.937.038-2.923.069-5.631,0-11.261,0-11.261s-.057-5.626-.236-11.251-.5-11.232-.5-11.232-.092,5.62-.314,11.232-.567,11.211-.567,11.211-.34,5.6-.81,11.185c-.054.636-.106,1.272-.161,1.918,0-.426-.035-.856-.054-1.284-.13-2.573-.317-5.14-.506-7.062-.08-.963-.184-1.76-.236-2.32s-.095-.877-.095-.877-.038-.32-.106-.875-.156-1.358-.3-2.3c-.255-1.918-.657-4.446-1.115-6.966s-1-5.026-1.446-6.9c-.206-.946-.416-1.708-.543-2.252l-.215-.856.144.865c.085.556.236,1.339.364,2.3.3,1.892.619,4.424.891,6.959s.456,5.078.558,6.984c.064.946.085,1.745.113,2.3s.038.875.038.875,0,.32.024.871.045,1.35.054,2.3c.035,1.918,0,4.446-.057,6.977v.308c-.458-2.065-.99-4.021-1.467-5.532-.593-1.864-1.028-3.087-1.028-3.087l-.314-.837c-.206-.53-.473-1.3-.846-2.2-.709-1.811-1.763-4.174-2.864-6.52s-2.294-4.6-3.2-6.323-1.529-2.838-1.529-2.838l1.3,2.937c.766,1.769,1.763,4.139,2.677,6.521s1.758,4.813,2.318,6.644C43.428,251.147,43.621,251.919,43.782,252.453Z" transform="translate(-4.8 -226.862)" fill="#bddac0"/>
      <path id="Path_99095" data-name="Path 99095" d="M373.816,244.133c.38.913.822,2.157,1.21,3.413a34.882,34.882,0,0,1,.872,3.5c.107.473.161.891.222,1.166a3.9,3.9,0,0,1,.078.447s.021.163.061.445.107.686.154,1.183c.116.972.206,2.273.236,3.567v1.495l-.085-.18c-.09-.2-.177-.364-.237-.473l-.09-.18-.1-.175c-.061-.111-.144-.274-.258-.473-.222-.378-.534-.868-.867-1.339a15.312,15.312,0,0,0-.982-1.235c-.138-.163-.265-.289-.35-.38l-.13-.144.1.17c.062.106.159.255.26.447a14.229,14.229,0,0,1,.694,1.384,14.415,14.415,0,0,1,.549,1.433c.068.2.113.367.151.473l.056.18.05.185c.028.116.081.282.123.473.1.4.2.946.281,1.48.066.5.111,1,.129,1.393h3.169a2.773,2.773,0,0,1-.055-.31,9.614,9.614,0,0,1-.116-1.561,10.308,10.308,0,0,1,.16-1.6c.031-.222.088-.4.111-.522l.045-.2s.021-.071.057-.2a5.374,5.374,0,0,1,.16-.518,10.917,10.917,0,0,1,.667-1.518,10.419,10.419,0,0,1,.924-1.4c.135-.189.274-.324.359-.43l.139-.16-.168.133c-.1.087-.267.2-.444.357a10.567,10.567,0,0,0-1.207,1.24,11.116,11.116,0,0,0-.99,1.452c-.13.206-.208.39-.277.516s-.1.2-.1.2l-.092.206-.036.085v-.191c.033-.6.066-1,.066-1s.031-.4.1-1,.168-1.4.3-2.2.291-1.594.43-2.188.222-.989.222-.989-.156.376-.376.946-.494,1.336-.744,2.128c-.2.624-.38,1.251-.522,1.783-.083-.487-.168-.946-.248-1.339-.092-.494-.2-.891-.265-1.183s-.1-.447-.1-.447l-.12-.447c-.081-.281-.173-.688-.324-1.168-.279-.963-.709-2.231-1.2-3.465a35.242,35.242,0,0,0-1.52-3.311c-.222-.445-.43-.8-.567-1.06s-.222-.4-.222-.4l.182.416C373.454,243.291,373.634,243.67,373.816,244.133Z" transform="translate(-144.399 -232.849)" fill="#bddac0"/>
      <path id="Path_99096" data-name="Path 99096" d="M419.792,240.112c-.045.211-.1.473-.173.767s-.168.614-.265.967a32.175,32.175,0,0,1-1.912,4.986,30.7,30.7,0,0,1-2.677,4.567c-.834,1.183-1.453,1.918-1.453,1.918l-.425.5c-.26.326-.681.766-1.146,1.282a33.079,33.079,0,0,1-3.018,2.731c.456-.894.86-1.741,1.181-2.467.291-.643.509-1.183.669-1.568s.237-.6.237-.6.352-.875.805-2.206.99-3.127,1.418-4.948a48.169,48.169,0,0,0,.9-5.036c.094-.691.149-1.266.184-1.673s.061-.634.061-.634-.045.237-.13.624-.194.963-.364,1.635a47.9,47.9,0,0,1-1.446,4.841,48.554,48.554,0,0,1-1.912,4.662c-.589,1.24-1.014,2.044-1.014,2.044l-.291.554c-.2.345-.473.846-.805,1.435a48.766,48.766,0,0,1-2.727,4.165c-.191.269-.382.535-.588.795.068-.222.137-.442.21-.665.539-1.634,1.219-3.287,1.687-4.558.236-.636.427-1.152.551-1.535s.2-.6.2-.6l.184-.6c.118-.386.265-.932.421-1.6a43.807,43.807,0,0,0,.872-4.886c.222-1.781.364-3.564.456-4.9l.154-2.225-.383,2.195c-.236,1.313-.583,3.075-1.007,4.782a43.81,43.81,0,0,1-1.38,4.638c-.222.617-.433,1.121-.577,1.469s-.237.549-.237.549-.085.2-.248.544-.4.833-.709,1.419c-.383.735-.846,1.618-1.337,2.585.088-.634.187-1.223.286-1.741.125-.667.253-1.22.34-1.608s.154-.611.154-.611.237-.882.605-2.226.909-3.141,1.262-4.985a21.42,21.42,0,0,0,.352-2.751c0-.445.035-.87,0-1.277,0-.2-.024-.383-.031-.587a4.95,4.95,0,0,0-.068-.548,7.224,7.224,0,0,0-.173-.947c-.026-.137-.056-.269-.085-.383s-.069-.237-.1-.326c-.125-.383-.2-.606-.2-.606l.125.624a2,2,0,0,0,.064.326c.024.118.026.253.043.383a7.536,7.536,0,0,1,.064.946v.537c0,.186-.024.383-.035.572a12.162,12.162,0,0,1-.135,1.227,21.321,21.321,0,0,1-.624,2.6c-.538,1.75-1.254,3.453-1.77,4.744s-.855,2.183-.855,2.183l-.027.069-.253-1.821s-.142-1-.347-2.5-.509-3.5-.766-5.49a23.64,23.64,0,0,1-.1-5.48,13.887,13.887,0,0,1,.333-1.788l.2-.667-.26.643a14.27,14.27,0,0,0-.515,1.769,24.263,24.263,0,0,0-.456,5.575c.035,2.036.137,4.047.186,5.563l.095,2.522.267,6.965c-.884-2.3-1.817-4.541-2.389-6.242-.3-.866-.512-1.6-.645-2.11l-.21-.809s-.066-.3-.185-.813c-.066-.26-.111-.58-.18-.946s-.134-.767-.191-1.233A30.872,30.872,0,0,1,398.71,231.4c.126-.449.286-.847.409-1.2s.248-.667.352-.92l.326-.795-.383.766c-.125.237-.276.537-.427.89s-.345.736-.513,1.183a31.972,31.972,0,0,0-2.294,10.357,30.837,30.837,0,0,0,0,3.264,11.9,11.9,0,0,0,.092,1.3c.043.388.066.728.111,1.005.076.556.123.87.123.87s.042.319.153.87.26,1.344.5,2.266c.473,1.859,1.255,4.257,1.936,6.623.217.766.413,1.511.576,2.247-.444-.745-.905-1.535-1.356-2.325-1.017-1.788-1.985-3.61-2.677-4.986s-1.108-2.3-1.108-2.3l-.284-.641c-.172-.411-.413-.993-.662-1.707a17.1,17.1,0,0,1-.986-5.441,30.575,30.575,0,0,1,.532-5.626c.267-1.535.473-2.55.473-2.55s-.3.994-.724,2.5a30.911,30.911,0,0,0-1.077,5.677,17.084,17.084,0,0,0,0,3.134,20.907,20.907,0,0,0,.473,2.708c.186.766.383,1.419.52,1.859s.237.7.237.7.333,1.013.909,2.479,1.373,3.4,2.228,5.312,1.767,3.808,2.469,5.217c.416.828.766,1.485.967,1.892H405.4a11.368,11.368,0,0,1,1.335-1.469,23.975,23.975,0,0,1,2.257-1.75l1.108-.767,1.146-.766a27.832,27.832,0,0,0,2.424-1.849,11.348,11.348,0,0,0,2.018-2.3l.168-.236.123-.237.2-.383.168-.333-.237.3-.26.338-.16.208-.206.2a10.756,10.756,0,0,1-2.294,1.788,27.094,27.094,0,0,1-2.615,1.308l-1.238.542-.473.2c.154-.137.31-.272.473-.414a33.656,33.656,0,0,0,3.8-4.082c.456-.606.841-1.1,1.082-1.474l.383-.572s.569-.833,1.306-2.145a31.644,31.644,0,0,0,2.294-4.986,32.383,32.383,0,0,0,1.4-5.258c.061-.364.126-.709.168-.993s.066-.561.092-.766c.055-.426.081-.667.081-.667Z" transform="translate(-152.777 -227.463)" fill="#bddac0"/>
    </g>
  </g>
</svg>
