<svg id="Icon-Goverment_schemes" data-name="Icon-Goverment schemes" xmlns="http://www.w3.org/2000/svg" width="50" height="50" viewBox="0 0 50 50">
  <rect id="Boundary" width="50" height="50" fill="none"/>
  <path id="Fill_1" data-name="Fill 1" d="M34.95,41.666H1.035A1.032,1.032,0,0,1,0,40.638V36.351a1.033,1.033,0,0,1,1.035-1.03H2.888V33.049a1.033,1.033,0,0,1,1.035-1.03h2.33V22.759H3.336a1.03,1.03,0,0,1-.927-1.486c.2-.4,5.023-9.824,14.794-10.016V1.108A1.024,1.024,0,0,1,18.02.1,6.142,6.142,0,0,1,19.207,0a7.292,7.292,0,0,1,5.187,2.09,3.4,3.4,0,0,0,2.322,1.173,1.531,1.531,0,0,0,.729-.162,1.077,1.077,0,0,1,.528-.138A1.041,1.041,0,0,1,29.015,3.98v5.7a1.026,1.026,0,0,1-.334.757,1.937,1.937,0,0,1-1.349.427c-1.422,0-3.584-.835-6.425-2.483a6.462,6.462,0,0,0-1.635-.622v3.585c9.93,1.027,14.046,9.586,14.216,9.949a1.017,1.017,0,0,1-.065.987,1.033,1.033,0,0,1-.873.476H30.007V32.02H32.55a1.033,1.033,0,0,1,1.035,1.03v2.272H34.95a1.033,1.033,0,0,1,1.035,1.03v4.287A1.032,1.032,0,0,1,34.95,41.666ZM2.069,37.379v2.23H33.915v-2.23Zm2.887-3.3V35.32H31.515V34.077ZM25.669,22.759V32.02h2.269V22.759Zm-4.336,0V32.02H23.6V22.759Zm-4.336,0V32.02h2.267V22.759Zm-4.338,0V32.02h2.269V22.759Zm-4.336,0V32.02h2.267V22.759Zm9.189-9.45c-2.719,0-7.938.96-12.337,7.393H30.759a15.938,15.938,0,0,0-12.574-7.376C17.96,13.315,17.733,13.309,17.51,13.309ZM19.272,2.054V5.695a7.088,7.088,0,0,1,2.656.9,15.77,15.77,0,0,0,5.018,2.168V5.308c-.086.006-.173.008-.26.008a5.444,5.444,0,0,1-3.741-1.759A5.241,5.241,0,0,0,19.272,2.054Z" transform="translate(6.25 4.167)" fill="#333"/>
</svg>
