<svg xmlns="http://www.w3.org/2000/svg" width="22" height="22" viewBox="0 0 22 22">
  <path id="Path_243" data-name="Path 243" d="M11,1H3A2.006,2.006,0,0,0,1,3V15l3-3H9V11a4.005,4.005,0,0,1,4-4V3A2.006,2.006,0,0,0,11,1Zm0,3H9.5A8.313,8.313,0,0,1,7.68,7.26l-.02.02L8.92,8.53,8.55,9.54,7,8,4.5,10.5l-.69-.73L6.34,7.28A8.58,8.58,0,0,1,4.86,5h.99A7.945,7.945,0,0,0,7,6.68,7.69,7.69,0,0,0,8.57,4H3V3H6.5V2h1V3H11ZM21,9H13a2.006,2.006,0,0,0-2,2v7a2.006,2.006,0,0,0,2,2h7l3,3V11A2.006,2.006,0,0,0,21,9ZM19.63,19l-.85-2.25H15.22L14.38,19h-1.5l3.37-9h1.5l3.38,9ZM17,12l1.22,3.25H15.79Z" transform="translate(-1 -1)" fill="#3daf2c"/>
</svg>
