<svg id="Icon_-_Fresh" data-name="Icon - Fresh" xmlns="http://www.w3.org/2000/svg" width="24" height="24" viewBox="0 0 24 24">
  <rect id="Rectangle_141356" data-name="Rectangle 141356" width="24" height="24" fill="none"/>
  <g id="Group_166070" data-name="Group 166070" transform="translate(2 4)">
    <path id="Path_98968" data-name="Path 98968" d="M1305.4,304.614c-3.414,1.1-4.469,2.151-5.565,5.565a.211.211,0,0,1-.4,0c-1.1-3.414-2.151-4.469-5.565-5.565a.211.211,0,0,1,0-.4c3.414-1.1,4.469-2.151,5.565-5.565a.211.211,0,0,1,.4,0c1.1,3.414,2.151,4.469,5.565,5.565A.211.211,0,0,1,1305.4,304.614Z" transform="translate(-1285.549 -296.724)" fill="#e6ab45"/>
    <path id="Path_98969" data-name="Path 98969" d="M1181.553,277.313a3.746,3.746,0,0,0-3.016,3.016.114.114,0,0,1-.218,0,3.746,3.746,0,0,0-3.016-3.016.114.114,0,0,1,0-.218,3.746,3.746,0,0,0,3.016-3.016.114.114,0,0,1,.218,0,3.746,3.746,0,0,0,3.016,3.016A.114.114,0,0,1,1181.553,277.313Z" transform="translate(-1175.224 -274)" fill="#f4d44e"/>
    <path id="Path_98970" data-name="Path 98970" d="M1181.553,561.313a3.746,3.746,0,0,0-3.016,3.016.114.114,0,0,1-.218,0,3.746,3.746,0,0,0-3.016-3.016.114.114,0,0,1,0-.218,3.746,3.746,0,0,0,3.016-3.016.114.114,0,0,1,.218,0,3.746,3.746,0,0,0,3.016,3.016A.114.114,0,0,1,1181.553,561.313Z" transform="translate(-1175.224 -548.408)" fill="#f4d44e"/>
  </g>
</svg>
