<svg id="Icon-Language" xmlns="http://www.w3.org/2000/svg" width="24" height="24" viewBox="0 0 24 24">
  <rect id="Boundary" width="24" height="24" fill="none"/>
  <g id="Icon" transform="translate(1.98 1.952)">
    <path id="Icon_metro-language" data-name="Icon metro-language" d="M816.068,1119.416l.825,2.96-1.817-.545Zm-14.436,10.424,9.039-3.028v-13.444l-9.039,3.028Zm16.169-4.126,1.325.4-2.354-8.531-1.31-.4-2.808,6.979,1.325.409.59-1.438,2.748.848Zm-6.556-12.536,7.472,2.392v-4.943Zm9.894,3.179v14.1l-10.091-3.2c-.121.046-1.749.606-4.883,1.658s-4.739,1.59-4.792,1.59a.235.235,0,0,1-.235-.174h0v-14.05a.385.385,0,0,1,.053-.129.544.544,0,0,1,.257-.144l1.938-.651v-5l7.275,2.581,2.089-.757,4.118-1.416c1.37-.462,2.074-.7,2.1-.7a.242.242,0,0,1,.265.273v5.45Z" transform="translate(-801.12 -1110.01)" fill="#333"/>
    <g id="Group_162165" data-name="Group 162165" transform="translate(1.405 7.983)">
      <path id="Path_83799" data-name="Path 83799" d="M807.905,1127.8l.757-.28.129-2.93.129-2.914,1.3-.379v-.757l-2.846.757v.757l.757-.167-.068,1.923-1.968.628.212-.386a1.854,1.854,0,0,0-.182-2.332c-.583-.424-1.575-.174-2.377.666l.182.651c1.2-.81,1.749-.825,1.877,0a1.916,1.916,0,0,1-.114.886,2.051,2.051,0,0,1-1.325,1.166v.8a5.811,5.811,0,0,1,.59-.189c.7-.151,1.151.439,1,1.31-.121.757-.757,1.423-1.4,1.363a3.5,3.5,0,0,1-1-.432l.038-.121-.568.56a1.423,1.423,0,0,0,2.036.757,2.952,2.952,0,0,0,1.612-2.952,4.3,4.3,0,0,0-.348-.885c.447-.151.9-.28,1.355-.454.3-.114.394-.045.371.326C807.958,1126.058,807.935,1126.944,807.905,1127.8Z" transform="translate(-802.984 -1120.54)" fill="#fff"/>
      <path id="Path_83800" data-name="Path 83800" d="M807.891,1127.8c0-.878.053-1.741.106-2.619,0-.371-.076-.439-.371-.326-.454.174-.908.3-1.355.454a4.3,4.3,0,0,1,.348.885,2.952,2.952,0,0,1-1.612,2.952,1.423,1.423,0,0,1-2.036-.757l.568-.56-.038.121a3.5,3.5,0,0,0,1,.432c.613.061,1.279-.636,1.4-1.363.151-.871-.3-1.461-1-1.31a5.817,5.817,0,0,0-.59.189v-.8a2.051,2.051,0,0,0,1.325-1.166,1.915,1.915,0,0,0,.114-.886c-.129-.757-.681-.757-1.877,0l-.182-.651c.8-.84,1.779-1.1,2.377-.666a1.837,1.837,0,0,1,.182,2.332l-.212.386,1.968-.628.068-1.923-.757.167v-.757l2.846-.757v.757l-1.3.379-.129,2.914-.129,2.93Z" transform="translate(-802.97 -1120.542)" fill="#333"/>
    </g>
  </g>
</svg>
