<svg xmlns="http://www.w3.org/2000/svg" width="32" height="16" viewBox="0 0 32 16">
  <g id="Group_162977" data-name="Group 162977" transform="translate(-28 0.941)">
    <rect id="Rectangle_140762" data-name="Rectangle 140762" width="32" height="16" transform="translate(28 -0.941)" fill="none"/>
    <g id="Icon_feather-trending-up" data-name="Icon feather-trending-up" transform="translate(33 -7.441)">
      <path id="Path_88392" data-name="Path 88392" d="M.952,20.829A.952.952,0,0,1,.279,19.2l7.141-7.141a.952.952,0,0,1,1.346,0l4.087,4.087,8.371-8.371a.952.952,0,0,1,1.346,1.346L13.526,18.17a.952.952,0,0,1-1.346,0L8.093,14.083,1.625,20.55A.949.949,0,0,1,.952,20.829Z" fill="#c53e15"/>
      <path id="Path_88393" data-name="Path 88393" d="M30.664,15.117a.952.952,0,0,1-.952-.952V9.4h-4.76a.952.952,0,1,1,0-1.9h5.712a.952.952,0,0,1,.952.952v5.712A.952.952,0,0,1,30.664,15.117Z" transform="translate(-8.767 0)" fill="#c53e15"/>
    </g>
  </g>
</svg>
