<svg xmlns="http://www.w3.org/2000/svg" width="20" height="16" viewBox="0 0 20 16">
  <g id="Group_166070" data-name="Group 166070" transform="translate(-13731.498 -9517.601)">
    <path id="Path_98968" data-name="Path 98968" d="M1305.4,304.614c-3.414,1.1-4.469,2.151-5.565,5.565a.211.211,0,0,1-.4,0c-1.1-3.414-2.151-4.469-5.565-5.565a.211.211,0,0,1,0-.4c3.414-1.1,4.469-2.151,5.565-5.565a.211.211,0,0,1,.4,0c1.1,3.414,2.151,4.469,5.565,5.565A.211.211,0,0,1,1305.4,304.614Z" transform="translate(12445.949 9220.877)" fill="#1f8a77"/>
    <path id="Path_98969" data-name="Path 98969" d="M1181.553,277.313a3.746,3.746,0,0,0-3.016,3.016.114.114,0,0,1-.218,0,3.746,3.746,0,0,0-3.016-3.016.114.114,0,0,1,0-.218,3.746,3.746,0,0,0,3.016-3.016.114.114,0,0,1,.218,0,3.746,3.746,0,0,0,3.016,3.016A.114.114,0,0,1,1181.553,277.313Z" transform="translate(12556.273 9243.602)" fill="#2eb363"/>
    <path id="Path_98970" data-name="Path 98970" d="M1181.553,561.313a3.746,3.746,0,0,0-3.016,3.016.114.114,0,0,1-.218,0,3.746,3.746,0,0,0-3.016-3.016.114.114,0,0,1,0-.218,3.746,3.746,0,0,0,3.016-3.016.114.114,0,0,1,.218,0,3.746,3.746,0,0,0,3.016,3.016A.114.114,0,0,1,1181.553,561.313Z" transform="translate(12556.273 8969.193)" fill="#2eb363"/>
  </g>
</svg>
