<svg xmlns="http://www.w3.org/2000/svg" width="32" height="32" viewBox="0 0 32 32">
  <g id="Group_163233" data-name="Group 163233" transform="translate(-4883 -1133)">
    <path id="Path_411" data-name="Path 411" d="M100.237,23.42h1.844a.369.369,0,1,0,0-.738h-1.844Zm0,1.792h1.9a.422.422,0,0,0,0-.844h-1.9Zm2.965-1.358a1.344,1.344,0,0,1-.936,2.307H99.183V21.733h3.032a1.291,1.291,0,0,1,.986,2.12" transform="translate(4797.813 1114.334)" fill="#002336"/>
    <path id="Path_412" data-name="Path 412" d="M99.5,63.53H98.37l-.357-.738H95.537l-.357.738H94.049L96.262,59.1h1.026Zm-2.726-3.293L96,61.844h1.554Z" transform="translate(4802.222 1082.236)" fill="#002336"/>
    <path id="Path_413" data-name="Path 413" d="M98,97.189h1.268l-2.244,2.882v1.544H95.974v-1.544l-2.245-2.882H95L96.5,99.2Z" transform="translate(4802.497 1049.525)" fill="#002336"/>
    <path id="Path_414" data-name="Path 414" d="M141.234,97.189v.949h-2.951v.738h2.845v.948h-2.845v.843h2.951v.949h-4V97.189Z" transform="translate(4765.135 1049.525)" fill="#002336"/>
    <path id="Path_415" data-name="Path 415" d="M177.452,99.929h-.79v1.686h-1.054V97.189H178.3a1.371,1.371,0,0,1,.383,2.686l1.3,1.74h-1.264Zm.74-1.791h-1.531v.843h1.531a.422.422,0,0,0,0-.843" transform="translate(4732.172 1049.526)" fill="#002336"/>
    <path id="Path_416" data-name="Path 416" d="M64.032,101.616H62.9l-.356-.738H60.067l-.357.738H58.58l2.213-4.426h1.026Zm-2.726-3.293-.777,1.608h1.554Z" transform="translate(4832.687 1049.525)" fill="#002336"/>
    <path id="Path_417" data-name="Path 417" d="M24.117,98.894h1.844a.369.369,0,1,0,0-.738H24.117Zm0,1.792h1.9a.422.422,0,0,0,0-.844h-1.9Zm2.964-1.358a1.344,1.344,0,0,1-.935,2.307H23.063V97.208H26.1a1.29,1.29,0,0,1,.986,2.12" transform="translate(4863.191 1049.509)" fill="#002336"/>
    <path id="Path_418" data-name="Path 418" d="M103.188,135.272v.949h-2.951v.738h2.845v.948h-2.845v.844h2.951v.948h-4v-4.426Z" transform="translate(4797.812 1016.816)" fill="#002336"/>
    <path id="Path_419" data-name="Path 419" d="M102.446,175.477a.422.422,0,0,0-.418-.422h-1.793v.843h1.793a.422.422,0,0,0,.418-.421m-3.265,3.055v-4.426h2.957a1.373,1.373,0,0,1,.509,2.643l1.33,1.783h-1.265l-1.265-1.685h-1.212v1.685Z" transform="translate(4797.814 983.462)" fill="#002336"/>
    <path id="Path_420" data-name="Path 420" d="M32.16,15.008a16,16,0,0,0-31.937,0q.03.5.092,1a16,16,0,0,0,15.877,14.01A14.036,14.036,0,0,1,2.209,16.99Q2.175,16.5,2.174,16c0-.333.012-.664.035-.991A14.035,14.035,0,0,1,16.191,1.981,16,16,0,0,1,32.068,16.006c.04.325.071.653.092.984.02-.329.032-.658.032-.991s-.011-.663-.032-.991" transform="translate(4882.808 1133.001)" fill="#adbf00"/>
    <path id="Path_421" data-name="Path 421" d="M.031,29.058a16,16,0,0,0,31.937,0q-.03-.5-.092-1A16,16,0,0,0,16,14.049,14.036,14.036,0,0,1,29.982,27.075c.023.328.035.658.035.991s-.013.663-.035.991A14.036,14.036,0,0,1,16,42.084,16,16,0,0,1,.123,28.059c-.04-.325-.072-.653-.092-.983-.02.328-.031.658-.031.991s.012.663.031.991" transform="translate(4883 1120.933)" fill="#00aeec"/>
  </g>
</svg>
